<?xml version="1.0" standalone="no"?>
<!DOCTYPE svg PUBLIC "-//W3C//DTD SVG 1.1//EN"
"http://www.w3.org/Graphics/SVG/1.1/DTD/svg11.dtd">
<svg width="7706" height="3808" viewBox="0 0 7706 3808" version="1.1"
xmlns="http://www.w3.org/2000/svg"
xmlns:xlink="http://www.w3.org/1999/xlink">
<g fill-rule="evenodd"><path d="M 7253,2772 L 7174,2772 L 7172,2772 L 7169,2771 L 7167,2770 L 7165,2769 L 7164,2767 L 7163,2764 L 7162,2762 L 7162,2759 L 7163,2757 L 7164,2755 L 7165,2753 L 7167,2751 L 7169,2750 L 7172,2749 L 7174,2749 L 7253,2749 L 7255,2749 L 7258,2750 L 7260,2751 L 7262,2753 L 7263,2755 L 7264,2757 L 7265,2759 L 7265,2762 L 7264,2764 L 7263,2767 L 7262,2769 L 7260,2770 L 7258,2771 L 7255,2772 L 7253,2772 z " style="fill-opacity:1.000000;fill:rgb(103,198,105);stroke:rgb(0,0,0);stroke-width:2"/></g>
<g fill-rule="evenodd"><path d="M 7454,1128 L 7375,1128 L 7372,1127 L 7370,1127 L 7368,1125 L 7366,1124 L 7365,1122 L 7364,1119 L 7363,1117 L 7363,1115 L 7364,1112 L 7365,1110 L 7366,1108 L 7368,1106 L 7370,1105 L 7372,1104 L 7375,1104 L 7454,1104 L 7456,1104 L 7458,1105 L 7461,1106 L 7462,1108 L 7464,1110 L 7465,1112 L 7465,1115 L 7465,1117 L 7465,1119 L 7464,1122 L 7462,1124 L 7461,1125 L 7458,1127 L 7456,1127 L 7454,1128 z " style="fill-opacity:1.000000;fill:rgb(115,81,255);stroke:rgb(0,0,0);stroke-width:2"/></g>
<g fill-rule="evenodd"><path d="M 1188,449 L 1211,473 L 1213,475 L 1214,477 L 1215,479 L 1215,482 L 1215,484 L 1214,487 L 1212,489 L 1211,490 L 1208,492 L 1206,493 L 1204,493 L 1201,493 L 1199,492 L 1197,491 L 1195,490 L 1171,466 L 1148,490 L 1146,491 L 1144,492 L 1141,493 L 1139,493 L 1136,493 L 1134,492 L 1132,490 L 1130,489 L 1129,487 L 1128,484 L 1128,482 L 1128,479 L 1128,477 L 1130,475 L 1131,473 L 1155,449 L 1131,426 L 1130,424 L 1128,422 L 1128,419 L 1128,417 L 1128,415 L 1129,412 L 1130,410 L 1132,408 L 1134,407 L 1136,406 L 1139,406 L 1141,406 L 1144,407 L 1146,408 L 1148,409 L 1171,433 L 1195,409 L 1197,408 L 1199,407 L 1201,406 L 1204,406 L 1206,406 L 1208,407 L 1211,408 L 1212,410 L 1214,412 L 1215,415 L 1215,417 L 1215,419 L 1214,422 L 1213,424 L 1211,426 L 1188,449 z " style="fill-opacity:1.000000;fill:rgb(74,236,41);stroke:rgb(0,0,0);stroke-width:2"/></g>
<g fill-rule="evenodd"><path d="M 999,611 L 1039,691 L 1040,693 L 1040,695 L 1040,698 L 1039,700 L 1038,702 L 1036,704 L 1035,706 L 1032,707 L 1030,708 L 1027,708 L 1025,707 L 1023,706 L 1021,705 L 1019,703 L 1018,701 L 962,590 L 961,588 L 961,585 L 961,583 L 961,580 L 963,578 L 964,576 L 966,575 L 968,574 L 971,573 L 973,573 L 975,573 L 978,574 L 1089,630 L 1091,631 L 1093,633 L 1094,635 L 1095,637 L 1096,640 L 1096,642 L 1095,644 L 1094,647 L 1092,649 L 1090,650 L 1088,651 L 1086,652 L 1083,652 L 1081,652 L 1079,651 L 999,611 z " style="fill-opacity:1.000000;fill:rgb(205,186,171);stroke:rgb(0,0,0);stroke-width:2"/></g>
<g fill-rule="evenodd"><path d="M 1059,545 L 1060,546 L 1061,543 L 1064,540 L 1079,525 L 1081,523 L 1084,522 L 1098,517 L 1108,517 L 1111,518 L 1125,522 L 1128,525 L 1148,544 L 1150,547 L 1151,549 L 1155,563 L 1155,573 L 1155,576 L 1150,590 L 1148,593 L 1132,609 L 1129,611 L 1114,616 L 1102,616 L 1088,612 L 1085,610 L 1051,576 L 1037,553 L 1032,531 L 1032,529 L 1032,519 L 1037,505 L 1039,502 L 1056,485 L 1058,483 L 1060,482 L 1062,481 L 1065,481 L 1067,482 L 1069,483 L 1071,484 L 1073,486 L 1074,488 L 1075,490 L 1076,493 L 1076,495 L 1075,497 L 1074,500 L 1072,502 L 1058,515 L 1056,523 L 1056,528 L 1059,545M 1129,559 L 1113,543 L 1106,541 L 1102,541 L 1094,543 L 1082,555 L 1080,563 L 1080,567 L 1082,574 L 1098,590 L 1106,593 L 1110,593 L 1117,590 L 1129,578 L 1132,571 L 1132,567 L 1129,559 z " style="fill-opacity:1.000000;fill:rgb(242,251,227);stroke:rgb(0,0,0);stroke-width:2"/></g>
<g fill-rule="evenodd"><path d="M 2856,197 L 2856,123 L 2856,121 L 2857,118 L 2858,116 L 2860,114 L 2862,113 L 2864,112 L 2866,111 L 2869,111 L 2871,112 L 2873,113 L 2875,114 L 2877,116 L 2878,118 L 2879,121 L 2879,123 L 2879,241 L 2879,244 L 2878,246 L 2877,248 L 2876,250 L 2874,251 L 2872,252 L 2869,253 L 2867,253 L 2865,253 L 2862,252 L 2860,251 L 2859,249 L 2857,247 L 2812,168 L 2812,241 L 2812,244 L 2811,246 L 2810,248 L 2808,250 L 2806,252 L 2804,253 L 2801,253 L 2799,253 L 2796,253 L 2794,252 L 2792,250 L 2790,248 L 2789,246 L 2788,244 L 2788,241 L 2788,123 L 2788,121 L 2789,119 L 2790,117 L 2792,115 L 2794,113 L 2796,112 L 2798,112 L 2801,111 L 2803,112 L 2805,113 L 2807,114 L 2809,115 L 2810,117 L 2856,197 z " style="fill-opacity:1.000000;fill:rgb(70,124,194);stroke:rgb(0,0,0);stroke-width:2"/></g>
<g fill-rule="evenodd"><path d="M 2746,112 L 2747,112 L 2750,113 L 2753,115 L 2755,118 L 2756,122 L 2756,241 L 2755,244 L 2755,246 L 2754,248 L 2752,250 L 2750,251 L 2748,252 L 2746,253 L 2744,253 L 2714,253 L 2695,247 L 2692,245 L 2679,233 L 2677,230 L 2671,217 L 2665,194 L 2665,191 L 2665,174 L 2665,171 L 2671,147 L 2677,135 L 2679,132 L 2692,119 L 2695,118 L 2714,112 L 2746,112M 2693,209 L 2697,217 L 2705,225 L 2718,230 L 2732,230 L 2732,135 L 2718,135 L 2705,139 L 2697,147 L 2693,155 L 2688,175 L 2688,189 L 2693,209 z " style="fill-opacity:1.000000;fill:rgb(84,248,27);stroke:rgb(0,0,0);stroke-width:2"/></g>
<g fill-rule="evenodd"><path d="M 2974,209 L 2979,189 L 2979,175 L 2974,155 L 2970,147 L 2962,139 L 2950,135 L 2943,135 L 2930,139 L 2930,162 L 2941,162 L 2943,162 L 2945,163 L 2948,164 L 2949,166 L 2951,168 L 2952,170 L 2952,173 L 2952,175 L 2952,177 L 2951,180 L 2949,182 L 2948,183 L 2945,185 L 2943,185 L 2941,186 L 2918,186 L 2916,185 L 2914,185 L 2912,184 L 2910,182 L 2908,180 L 2907,178 L 2907,176 L 2906,174 L 2906,134 L 2907,132 L 2907,130 L 2908,128 L 2910,126 L 2917,119 L 2920,118 L 2937,112 L 2941,111 L 2954,112 L 2972,118 L 2976,119 L 2990,133 L 2997,147 L 3003,172 L 3003,191 L 3003,194 L 2997,217 L 2991,230 L 2988,233 L 2977,244 L 2974,246 L 2954,253 L 2933,253 L 2930,252 L 2918,246 L 2916,245 L 2915,243 L 2913,241 L 2912,239 L 2912,236 L 2912,234 L 2913,232 L 2914,229 L 2915,227 L 2917,226 L 2919,225 L 2922,224 L 2924,224 L 2927,224 L 2929,225 L 2938,230 L 2950,230 L 2962,225 L 2970,217 L 2974,209 z " style="fill-opacity:1.000000;fill:rgb(232,231,141);stroke:rgb(0,0,0);stroke-width:2"/></g>
<g fill-rule="evenodd"><path d="M 7387,1552 L 7387,1569 L 7391,1577 L 7392,1580 L 7392,1582 L 7392,1584 L 7391,1587 L 7390,1589 L 7389,1591 L 7387,1592 L 7385,1594 L 7382,1594 L 7380,1594 L 7377,1594 L 7375,1593 L 7373,1592 L 7371,1590 L 7370,1588 L 7364,1577 L 7363,1573 L 7363,1547 L 7364,1544 L 7370,1532 L 7372,1529 L 7375,1527 L 7386,1521 L 7390,1520 L 7454,1520 L 7456,1520 L 7458,1521 L 7461,1522 L 7462,1524 L 7464,1526 L 7465,1528 L 7465,1531 L 7465,1533 L 7465,1536 L 7464,1538 L 7465,1540 L 7465,1543 L 7465,1571 L 7465,1575 L 7458,1589 L 7456,1591 L 7453,1593 L 7442,1599 L 7439,1600 L 7425,1600 L 7422,1599 L 7409,1593 L 7406,1591 L 7404,1588 L 7398,1577 L 7397,1575 L 7397,1571 L 7397,1546 L 7396,1544 L 7395,1544 L 7389,1546 L 7387,1552M 7420,1569 L 7423,1574 L 7428,1576 L 7434,1576 L 7439,1574 L 7442,1569 L 7442,1546 L 7441,1544 L 7420,1544 L 7420,1569 z " style="fill-opacity:1.000000;fill:rgb(118,90,46);stroke:rgb(0,0,0);stroke-width:2"/></g>
<g fill-rule="evenodd"><path d="M 7589,1566 L 7626,1583 L 7628,1584 L 7629,1586 L 7631,1588 L 7632,1590 L 7632,1593 L 7632,1595 L 7632,1597 L 7631,1600 L 7629,1602 L 7628,1603 L 7626,1604 L 7589,1621 L 7654,1621 L 7657,1622 L 7659,1622 L 7661,1624 L 7663,1625 L 7665,1627 L 7666,1630 L 7666,1632 L 7666,1634 L 7666,1637 L 7665,1639 L 7663,1641 L 7661,1643 L 7659,1644 L 7657,1645 L 7654,1645 L 7536,1645 L 7534,1645 L 7531,1644 L 7529,1643 L 7528,1641 L 7526,1639 L 7525,1637 L 7525,1635 L 7524,1632 L 7525,1630 L 7526,1627 L 7527,1625 L 7529,1624 L 7531,1622 L 7593,1594 L 7531,1565 L 7529,1564 L 7527,1562 L 7526,1560 L 7525,1558 L 7524,1556 L 7525,1553 L 7525,1551 L 7526,1548 L 7528,1546 L 7529,1545 L 7531,1544 L 7534,1543 L 7536,1543 L 7654,1543 L 7657,1543 L 7659,1544 L 7661,1545 L 7663,1547 L 7665,1549 L 7666,1551 L 7666,1553 L 7666,1556 L 7666,1558 L 7665,1560 L 7663,1562 L 7661,1564 L 7659,1565 L 7657,1566 L 7654,1566 L 7589,1566 z " style="fill-opacity:1.000000;fill:rgb(99,51,159);stroke:rgb(0,0,0);stroke-width:2"/></g>
<g fill-rule="evenodd"><path d="M 7387,2637 L 7390,2644 L 7391,2645 L 7454,2645 L 7456,2645 L 7458,2646 L 7461,2647 L 7462,2649 L 7464,2651 L 7465,2653 L 7465,2655 L 7465,2658 L 7465,2660 L 7464,2663 L 7462,2665 L 7461,2666 L 7458,2667 L 7456,2668 L 7454,2668 L 7375,2668 L 7372,2668 L 7370,2667 L 7368,2666 L 7366,2665 L 7365,2663 L 7364,2660 L 7363,2658 L 7363,2655 L 7364,2653 L 7365,2651 L 7366,2649 L 7364,2645 L 7363,2642 L 7363,2621 L 7364,2618 L 7370,2606 L 7364,2594 L 7363,2591 L 7363,2570 L 7364,2567 L 7370,2556 L 7372,2553 L 7375,2550 L 7386,2545 L 7390,2544 L 7454,2544 L 7456,2544 L 7458,2545 L 7461,2546 L 7462,2548 L 7464,2550 L 7465,2552 L 7465,2554 L 7465,2557 L 7465,2559 L 7464,2561 L 7462,2563 L 7461,2565 L 7458,2566 L 7456,2567 L 7454,2567 L 7395,2567 L 7389,2570 L 7387,2575 L 7387,2586 L 7389,2592 L 7395,2594 L 7454,2594 L 7456,2594 L 7458,2595 L 7461,2596 L 7462,2598 L 7464,2600 L 7465,2602 L 7465,2605 L 7465,2607 L 7465,2610 L 7464,2612 L 7462,2614 L 7461,2616 L 7458,2617 L 7456,2618 L 7454,2618 L 7395,2618 L 7389,2620 L 7387,2626 L 7387,2637 z " style="fill-opacity:1.000000;fill:rgb(201,154,102);stroke:rgb(0,0,0);stroke-width:2"/></g>
<g fill-rule="evenodd"><path d="M 7186,2846 L 7246,2802 L 7248,2801 L 7250,2800 L 7253,2799 L 7255,2800 L 7257,2800 L 7260,2802 L 7261,2803 L 7263,2805 L 7264,2807 L 7265,2810 L 7265,2812 L 7264,2815 L 7263,2817 L 7262,2819 L 7260,2821 L 7203,2863 L 7207,2867 L 7253,2867 L 7255,2867 L 7258,2868 L 7260,2869 L 7262,2871 L 7263,2873 L 7264,2875 L 7265,2878 L 7265,2880 L 7264,2882 L 7263,2885 L 7262,2887 L 7260,2888 L 7258,2890 L 7255,2890 L 7253,2891 L 7135,2891 L 7132,2890 L 7130,2890 L 7128,2888 L 7126,2887 L 7124,2885 L 7123,2882 L 7123,2880 L 7123,2878 L 7123,2875 L 7124,2873 L 7126,2871 L 7128,2869 L 7130,2868 L 7132,2867 L 7135,2867 L 7174,2867 L 7126,2820 L 7125,2818 L 7124,2816 L 7123,2813 L 7123,2811 L 7123,2808 L 7124,2806 L 7126,2804 L 7127,2802 L 7129,2801 L 7132,2800 L 7134,2800 L 7137,2800 L 7139,2800 L 7141,2801 L 7143,2803 L 7186,2846 z " style="fill-opacity:1.000000;fill:rgb(50,13,183);stroke:rgb(0,0,0);stroke-width:2"/></g>
<g fill-rule="evenodd"><path d="M 7158,2762 L 7157,2765 L 7156,2767 L 7149,2775 L 7147,2776 L 7145,2777 L 7143,2778 L 7140,2778 L 7138,2778 L 7136,2777 L 7134,2776 L 7126,2769 L 7125,2767 L 7124,2765 L 7123,2763 L 7123,2760 L 7123,2758 L 7125,2754 L 7132,2747 L 7134,2745 L 7136,2744 L 7138,2743 L 7140,2743 L 7143,2743 L 7145,2744 L 7147,2745 L 7155,2753 L 7156,2755 L 7157,2757 L 7158,2759 L 7158,2762 z " style="fill-opacity:1.000000;fill:rgb(49,88,163);stroke:rgb(0,0,0);stroke-width:2"/></g>
<g fill-rule="evenodd"><path d="M 7167,2693 L 7187,2698 L 7201,2698 L 7221,2693 L 7229,2689 L 7237,2681 L 7241,2669 L 7241,2661 L 7237,2649 L 7233,2645 L 7232,2643 L 7231,2641 L 7230,2639 L 7230,2636 L 7230,2634 L 7231,2632 L 7232,2630 L 7234,2628 L 7236,2626 L 7239,2626 L 7241,2625 L 7243,2625 L 7246,2626 L 7248,2627 L 7250,2629 L 7257,2636 L 7258,2639 L 7264,2656 L 7265,2659 L 7264,2673 L 7258,2691 L 7257,2695 L 7243,2708 L 7229,2716 L 7204,2722 L 7184,2722 L 7159,2716 L 7146,2709 L 7143,2707 L 7132,2696 L 7130,2693 L 7123,2673 L 7123,2658 L 7130,2637 L 7132,2634 L 7140,2627 L 7142,2626 L 7144,2625 L 7147,2625 L 7149,2626 L 7151,2626 L 7153,2628 L 7155,2630 L 7156,2632 L 7157,2634 L 7158,2636 L 7158,2639 L 7157,2641 L 7156,2643 L 7151,2649 L 7147,2661 L 7147,2669 L 7151,2681 L 7159,2689 L 7167,2693 z " style="fill-opacity:1.000000;fill:rgb(90,37,93);stroke:rgb(0,0,0);stroke-width:2"/></g>
<g fill-rule="evenodd"><path d="M 7402,2909 L 7403,2902 L 7403,2899 L 7405,2897 L 7406,2895 L 7408,2894 L 7411,2893 L 7413,2892 L 7415,2892 L 7418,2893 L 7420,2894 L 7422,2895 L 7424,2897 L 7425,2899 L 7426,2902 L 7426,2909 L 7454,2909 L 7456,2909 L 7458,2910 L 7461,2911 L 7462,2913 L 7464,2915 L 7465,2917 L 7465,2920 L 7465,2922 L 7465,2925 L 7464,2927 L 7462,2929 L 7461,2931 L 7458,2932 L 7456,2933 L 7454,2933 L 7426,2933 L 7426,2977 L 7426,2979 L 7425,2982 L 7424,2984 L 7423,2985 L 7421,2987 L 7419,2988 L 7417,2989 L 7415,2989 L 7413,2989 L 7410,2988 L 7326,2960 L 7324,2959 L 7322,2958 L 7320,2956 L 7319,2954 L 7318,2951 L 7318,2949 L 7318,2947 L 7319,2944 L 7320,2942 L 7322,2940 L 7324,2939 L 7326,2938 L 7329,2937 L 7331,2937 L 7334,2938 L 7402,2961 L 7402,2933 L 7375,2933 L 7372,2933 L 7370,2932 L 7368,2931 L 7366,2929 L 7365,2927 L 7364,2925 L 7363,2922 L 7363,2920 L 7364,2917 L 7365,2915 L 7366,2913 L 7368,2911 L 7370,2910 L 7372,2909 L 7375,2909 L 7402,2909 z " style="fill-opacity:1.000000;fill:rgb(5,23,88);stroke:rgb(0,0,0);stroke-width:2"/></g>
<g fill-rule="evenodd"><path d="M 7325,2842 L 7324,2840 L 7324,2837 L 7324,2824 L 7325,2820 L 7331,2809 L 7333,2806 L 7340,2799 L 7353,2792 L 7355,2791 L 7379,2786 L 7410,2786 L 7434,2791 L 7436,2792 L 7449,2799 L 7456,2806 L 7459,2809 L 7464,2820 L 7465,2824 L 7465,2837 L 7465,2840 L 7458,2855 L 7451,2862 L 7448,2864 L 7435,2870 L 7410,2876 L 7379,2876 L 7354,2870 L 7341,2864 L 7338,2862 L 7332,2855 L 7325,2842M 7427,2814 L 7407,2809 L 7382,2809 L 7362,2814 L 7354,2818 L 7351,2821 L 7347,2828 L 7347,2834 L 7351,2841 L 7354,2844 L 7362,2848 L 7382,2853 L 7407,2853 L 7427,2848 L 7435,2844 L 7438,2841 L 7442,2834 L 7442,2828 L 7438,2821 L 7435,2818 L 7427,2814 z " style="fill-opacity:1.000000;fill:rgb(233,94,212);stroke:rgb(0,0,0);stroke-width:2"/></g>
<g fill-rule="evenodd"><path d="M 7231,2544 L 7231,2583 L 7257,2592 L 7259,2593 L 7261,2595 L 7262,2596 L 7264,2599 L 7264,2601 L 7265,2603 L 7264,2606 L 7264,2608 L 7262,2610 L 7261,2612 L 7259,2613 L 7256,2614 L 7254,2615 L 7251,2615 L 7249,2614 L 7131,2575 L 7129,2574 L 7127,2573 L 7125,2571 L 7124,2569 L 7123,2566 L 7123,2564 L 7123,2561 L 7124,2559 L 7125,2557 L 7127,2555 L 7129,2554 L 7131,2553 L 7249,2513 L 7251,2513 L 7254,2513 L 7256,2513 L 7259,2514 L 7261,2516 L 7262,2517 L 7264,2520 L 7264,2522 L 7265,2524 L 7264,2527 L 7264,2529 L 7262,2531 L 7261,2533 L 7259,2535 L 7257,2536 L 7231,2544M 7207,2552 L 7172,2564 L 7207,2576 L 7207,2552 z " style="fill-opacity:1.000000;fill:rgb(171,178,205);stroke:rgb(0,0,0);stroke-width:2"/></g>
<g fill-rule="evenodd"><path d="M 7264,2487 L 7264,2489 L 7263,2491 L 7261,2494 L 7258,2496 L 7254,2497 L 7135,2497 L 7132,2497 L 7130,2496 L 7128,2495 L 7126,2493 L 7125,2492 L 7124,2490 L 7123,2487 L 7123,2485 L 7123,2455 L 7129,2436 L 7131,2433 L 7143,2421 L 7146,2418 L 7159,2412 L 7182,2406 L 7185,2406 L 7202,2406 L 7205,2406 L 7229,2412 L 7241,2418 L 7244,2421 L 7257,2433 L 7258,2436 L 7264,2455 L 7264,2487M 7241,2459 L 7237,2447 L 7229,2439 L 7221,2434 L 7201,2429 L 7187,2429 L 7167,2434 L 7159,2439 L 7151,2447 L 7147,2459 L 7147,2473 L 7241,2473 L 7241,2459 z " style="fill-opacity:1.000000;fill:rgb(198,155,180);stroke:rgb(0,0,0);stroke-width:2"/></g>
<g fill-rule="evenodd"><path d="M 7424,2493 L 7434,2493 L 7439,2490 L 7442,2485 L 7442,2468 L 7437,2459 L 7437,2457 L 7436,2455 L 7436,2452 L 7437,2450 L 7438,2448 L 7440,2446 L 7442,2444 L 7444,2443 L 7446,2443 L 7449,2442 L 7451,2443 L 7453,2444 L 7455,2445 L 7457,2447 L 7459,2449 L 7464,2460 L 7465,2464 L 7465,2488 L 7465,2492 L 7459,2504 L 7456,2508 L 7453,2510 L 7442,2515 L 7440,2516 L 7437,2517 L 7390,2516 L 7386,2515 L 7375,2510 L 7372,2508 L 7370,2504 L 7364,2493 L 7363,2490 L 7363,2465 L 7364,2462 L 7364,2460 L 7370,2449 L 7372,2446 L 7375,2444 L 7386,2438 L 7390,2437 L 7403,2437 L 7405,2437 L 7407,2438 L 7410,2439 L 7411,2440 L 7413,2442 L 7414,2444 L 7415,2446 L 7424,2493M 7389,2463 L 7387,2468 L 7387,2485 L 7389,2490 L 7395,2493 L 7400,2493 L 7393,2461 L 7389,2463 z " style="fill-opacity:1.000000;fill:rgb(84,17,14);stroke:rgb(0,0,0);stroke-width:2"/></g>
<g fill-rule="evenodd"><path d="M 7363,2386 L 7363,2370 L 7363,2367 L 7364,2365 L 7365,2363 L 7367,2361 L 7369,2360 L 7371,2359 L 7374,2358 L 7376,2358 L 7378,2359 L 7381,2360 L 7383,2361 L 7384,2363 L 7386,2365 L 7386,2367 L 7387,2370 L 7387,2386 L 7434,2386 L 7439,2384 L 7442,2378 L 7442,2370 L 7442,2367 L 7443,2365 L 7444,2363 L 7446,2361 L 7448,2360 L 7450,2359 L 7452,2358 L 7455,2358 L 7457,2359 L 7459,2360 L 7461,2361 L 7463,2363 L 7464,2365 L 7465,2367 L 7465,2370 L 7465,2381 L 7465,2385 L 7459,2398 L 7456,2401 L 7455,2402 L 7442,2409 L 7439,2410 L 7387,2410 L 7386,2417 L 7386,2420 L 7384,2422 L 7383,2424 L 7381,2425 L 7378,2426 L 7376,2427 L 7374,2427 L 7371,2426 L 7369,2425 L 7367,2424 L 7365,2422 L 7364,2420 L 7363,2417 L 7363,2410 L 7335,2410 L 7333,2410 L 7331,2409 L 7329,2408 L 7327,2406 L 7325,2404 L 7324,2402 L 7324,2399 L 7324,2397 L 7324,2394 L 7325,2392 L 7327,2390 L 7329,2388 L 7331,2387 L 7333,2386 L 7335,2386 L 7363,2386 z " style="fill-opacity:1.000000;fill:rgb(130,116,65);stroke:rgb(0,0,0);stroke-width:2"/></g>
<g fill-rule="evenodd"><path d="M 7442,2316 L 7442,2300 L 7437,2291 L 7437,2288 L 7436,2286 L 7436,2284 L 7437,2281 L 7438,2279 L 7440,2277 L 7442,2276 L 7444,2274 L 7446,2274 L 7449,2274 L 7451,2274 L 7453,2275 L 7455,2276 L 7457,2278 L 7459,2280 L 7464,2291 L 7465,2295 L 7465,2321 L 7464,2325 L 7459,2336 L 7456,2339 L 7453,2341 L 7442,2347 L 7439,2348 L 7392,2348 L 7388,2347 L 7375,2341 L 7372,2339 L 7370,2336 L 7364,2325 L 7364,2323 L 7363,2319 L 7363,2297 L 7364,2293 L 7371,2279 L 7372,2277 L 7375,2275 L 7386,2269 L 7390,2268 L 7403,2268 L 7405,2268 L 7407,2269 L 7410,2270 L 7411,2272 L 7413,2273 L 7414,2275 L 7415,2278 L 7424,2324 L 7434,2324 L 7439,2322 L 7442,2316M 7389,2294 L 7387,2300 L 7387,2316 L 7389,2322 L 7395,2324 L 7400,2324 L 7393,2292 L 7389,2294 z " style="fill-opacity:1.000000;fill:rgb(33,61,220);stroke:rgb(0,0,0);stroke-width:2"/></g>
<g fill-rule="evenodd"><path d="M 7564,2324 L 7564,2301 L 7565,2297 L 7571,2286 L 7573,2283 L 7580,2276 L 7595,2269 L 7598,2268 L 7632,2268 L 7635,2269 L 7637,2269 L 7650,2276 L 7657,2283 L 7659,2286 L 7666,2299 L 7666,2302 L 7666,2325 L 7666,2328 L 7665,2331 L 7666,2332 L 7666,2335 L 7666,2337 L 7666,2340 L 7665,2342 L 7663,2344 L 7661,2346 L 7659,2347 L 7657,2348 L 7654,2348 L 7536,2348 L 7534,2348 L 7531,2347 L 7529,2346 L 7527,2344 L 7526,2342 L 7525,2340 L 7524,2337 L 7524,2335 L 7525,2332 L 7526,2330 L 7527,2328 L 7529,2327 L 7531,2325 L 7534,2325 L 7536,2324 L 7564,2324M 7601,2292 L 7594,2295 L 7591,2298 L 7587,2305 L 7587,2322 L 7589,2324 L 7641,2324 L 7643,2322 L 7643,2305 L 7639,2298 L 7636,2295 L 7629,2292 L 7601,2292 z " style="fill-opacity:1.000000;fill:rgb(135,112,233);stroke:rgb(0,0,0);stroke-width:2"/></g>
<g fill-rule="evenodd"><path d="M 7415,1909 L 7457,1920 L 7459,1921 L 7461,1922 L 7463,1924 L 7464,1926 L 7465,1928 L 7465,1930 L 7465,1933 L 7465,1935 L 7464,1937 L 7462,1939 L 7461,1941 L 7459,1942 L 7456,1943 L 7338,1971 L 7336,1971 L 7333,1971 L 7331,1970 L 7329,1969 L 7327,1967 L 7325,1965 L 7324,1963 L 7324,1961 L 7324,1958 L 7324,1956 L 7325,1954 L 7327,1952 L 7328,1950 L 7330,1949 L 7333,1948 L 7405,1931 L 7366,1920 L 7364,1919 L 7362,1918 L 7360,1916 L 7359,1914 L 7358,1912 L 7357,1910 L 7357,1908 L 7358,1905 L 7359,1903 L 7360,1901 L 7362,1899 L 7364,1898 L 7366,1897 L 7405,1887 L 7333,1870 L 7330,1869 L 7328,1867 L 7327,1866 L 7325,1864 L 7324,1861 L 7324,1859 L 7324,1857 L 7324,1854 L 7325,1852 L 7327,1850 L 7329,1848 L 7331,1847 L 7333,1846 L 7336,1846 L 7338,1847 L 7456,1875 L 7459,1876 L 7461,1877 L 7462,1878 L 7464,1880 L 7465,1883 L 7465,1885 L 7465,1887 L 7465,1890 L 7464,1892 L 7463,1894 L 7461,1895 L 7459,1897 L 7457,1898 L 7415,1909 z " style="fill-opacity:1.000000;fill:rgb(62,161,65);stroke:rgb(0,0,0);stroke-width:2"/></g>
<g fill-rule="evenodd"><path d="M 7632,1895 L 7632,1934 L 7658,1942 L 7660,1944 L 7662,1945 L 7664,1947 L 7665,1949 L 7666,1951 L 7666,1954 L 7666,1956 L 7665,1959 L 7664,1961 L 7662,1963 L 7660,1964 L 7658,1965 L 7655,1965 L 7653,1965 L 7651,1965 L 7533,1926 L 7530,1925 L 7528,1923 L 7527,1921 L 7525,1919 L 7525,1917 L 7524,1914 L 7525,1912 L 7525,1910 L 7527,1907 L 7528,1906 L 7530,1904 L 7533,1903 L 7651,1864 L 7653,1863 L 7655,1863 L 7658,1864 L 7660,1865 L 7662,1866 L 7664,1868 L 7665,1870 L 7666,1872 L 7666,1875 L 7666,1877 L 7665,1880 L 7664,1882 L 7662,1884 L 7660,1885 L 7658,1886 L 7632,1895M 7609,1903 L 7574,1914 L 7609,1926 L 7609,1903 z " style="fill-opacity:1.000000;fill:rgb(225,252,103);stroke:rgb(0,0,0);stroke-width:2"/></g>
<g fill-rule="evenodd"><path d="M 7162,2238 L 7135,2238 L 7132,2238 L 7130,2237 L 7128,2236 L 7126,2234 L 7124,2232 L 7123,2230 L 7123,2228 L 7123,2225 L 7123,2223 L 7124,2221 L 7126,2219 L 7128,2217 L 7130,2216 L 7132,2215 L 7135,2215 L 7253,2215 L 7255,2215 L 7258,2216 L 7260,2217 L 7262,2219 L 7263,2221 L 7264,2223 L 7265,2225 L 7265,2228 L 7264,2230 L 7263,2232 L 7264,2234 L 7265,2238 L 7265,2260 L 7264,2264 L 7258,2277 L 7256,2280 L 7248,2287 L 7236,2293 L 7234,2294 L 7230,2294 L 7197,2294 L 7193,2294 L 7178,2287 L 7171,2280 L 7169,2277 L 7164,2265 L 7162,2262 L 7162,2238M 7199,2271 L 7228,2271 L 7235,2267 L 7237,2264 L 7241,2257 L 7241,2240 L 7240,2238 L 7187,2238 L 7186,2240 L 7186,2257 L 7189,2264 L 7192,2267 L 7199,2271 z " style="fill-opacity:1.000000;fill:rgb(62,1,126);stroke:rgb(0,0,0);stroke-width:2"/></g>
<g fill-rule="evenodd"><path d="M 7223,2164 L 7233,2164 L 7238,2161 L 7241,2156 L 7241,2139 L 7237,2131 L 7236,2128 L 7235,2126 L 7236,2123 L 7236,2121 L 7237,2119 L 7239,2117 L 7241,2115 L 7243,2114 L 7245,2114 L 7248,2113 L 7250,2114 L 7253,2115 L 7255,2116 L 7256,2118 L 7258,2120 L 7263,2131 L 7264,2135 L 7265,2159 L 7264,2163 L 7258,2175 L 7256,2179 L 7252,2181 L 7241,2186 L 7240,2187 L 7236,2188 L 7189,2187 L 7186,2186 L 7174,2181 L 7171,2179 L 7169,2175 L 7164,2164 L 7163,2163 L 7162,2159 L 7162,2135 L 7164,2131 L 7169,2120 L 7171,2117 L 7174,2115 L 7186,2109 L 7189,2108 L 7202,2108 L 7205,2108 L 7207,2109 L 7209,2110 L 7211,2111 L 7212,2113 L 7213,2115 L 7214,2117 L 7223,2164M 7193,2132 L 7189,2134 L 7186,2139 L 7186,2156 L 7189,2161 L 7194,2164 L 7199,2164 L 7193,2132 z " style="fill-opacity:1.000000;fill:rgb(151,234,220);stroke:rgb(0,0,0);stroke-width:2"/></g>
<g fill-rule="evenodd"><path d="M 7186,1999 L 7189,2004 L 7194,2007 L 7253,2007 L 7255,2007 L 7258,2008 L 7260,2009 L 7262,2010 L 7263,2012 L 7264,2015 L 7265,2017 L 7265,2020 L 7264,2022 L 7263,2024 L 7262,2026 L 7260,2028 L 7258,2029 L 7255,2030 L 7253,2030 L 7194,2030 L 7189,2033 L 7186,2038 L 7186,2049 L 7189,2056 L 7190,2057 L 7253,2057 L 7255,2057 L 7258,2058 L 7260,2059 L 7262,2061 L 7263,2063 L 7264,2065 L 7265,2068 L 7265,2070 L 7264,2073 L 7263,2075 L 7262,2077 L 7260,2079 L 7258,2080 L 7255,2081 L 7253,2081 L 7174,2081 L 7172,2081 L 7169,2080 L 7167,2079 L 7165,2077 L 7164,2075 L 7163,2073 L 7162,2070 L 7162,2068 L 7163,2065 L 7164,2063 L 7165,2061 L 7163,2056 L 7162,2052 L 7162,2033 L 7164,2030 L 7169,2018 L 7164,2007 L 7162,2003 L 7162,1983 L 7164,1979 L 7169,1968 L 7171,1965 L 7174,1963 L 7186,1957 L 7189,1956 L 7191,1956 L 7253,1956 L 7255,1956 L 7258,1957 L 7260,1958 L 7262,1960 L 7263,1962 L 7264,1964 L 7265,1967 L 7265,1969 L 7264,1971 L 7263,1974 L 7262,1976 L 7260,1977 L 7258,1979 L 7255,1979 L 7253,1980 L 7194,1980 L 7189,1982 L 7186,1987 L 7186,1999 z " style="fill-opacity:1.000000;fill:rgb(107,150,143);stroke:rgb(0,0,0);stroke-width:2"/></g>
<g fill-rule="evenodd"><path d="M 7390,2211 L 7393,2214 L 7400,2217 L 7454,2217 L 7456,2218 L 7458,2218 L 7461,2220 L 7462,2221 L 7464,2223 L 7465,2226 L 7465,2228 L 7465,2230 L 7465,2233 L 7464,2235 L 7462,2237 L 7461,2239 L 7458,2240 L 7456,2241 L 7454,2241 L 7375,2241 L 7372,2241 L 7370,2240 L 7368,2239 L 7366,2237 L 7365,2235 L 7364,2233 L 7363,2230 L 7363,2228 L 7364,2226 L 7365,2223 L 7366,2221 L 7368,2220 L 7364,2210 L 7363,2207 L 7363,2196 L 7363,2193 L 7364,2191 L 7365,2189 L 7367,2187 L 7369,2185 L 7371,2184 L 7374,2184 L 7376,2184 L 7378,2184 L 7381,2185 L 7383,2187 L 7384,2189 L 7386,2191 L 7386,2193 L 7387,2196 L 7387,2204 L 7390,2211 z " style="fill-opacity:1.000000;fill:rgb(56,92,42);stroke:rgb(0,0,0);stroke-width:2"/></g>
<g fill-rule="evenodd"><path d="M 7706,2240 L 7705,2242 L 7705,2245 L 7704,2247 L 7702,2249 L 7700,2250 L 7698,2252 L 7695,2252 L 7693,2252 L 7691,2252 L 7688,2251 L 7686,2250 L 7684,2248 L 7683,2246 L 7678,2236 L 7676,2234 L 7654,2225 L 7580,2252 L 7577,2252 L 7575,2252 L 7572,2252 L 7570,2251 L 7568,2250 L 7566,2248 L 7565,2246 L 7564,2243 L 7564,2241 L 7564,2238 L 7565,2236 L 7566,2234 L 7567,2232 L 7569,2230 L 7572,2229 L 7619,2212 L 7572,2195 L 7569,2194 L 7567,2193 L 7566,2191 L 7565,2189 L 7564,2186 L 7564,2184 L 7564,2181 L 7565,2179 L 7566,2177 L 7568,2175 L 7570,2174 L 7572,2173 L 7575,2172 L 7577,2173 L 7580,2173 L 7658,2201 L 7687,2213 L 7689,2214 L 7691,2215 L 7696,2221 L 7699,2224 L 7704,2235 L 7705,2238 L 7706,2240 z " style="fill-opacity:1.000000;fill:rgb(236,176,59);stroke:rgb(0,0,0);stroke-width:2"/></g>
<g fill-rule="evenodd"><path d="M 7388,2060 L 7402,2060 L 7421,2055 L 7430,2051 L 7438,2043 L 7442,2031 L 7442,2023 L 7438,2011 L 7434,2007 L 7432,2005 L 7431,2003 L 7431,2001 L 7431,1998 L 7431,1996 L 7432,1993 L 7433,1991 L 7435,1990 L 7437,1988 L 7439,1987 L 7442,1987 L 7444,1987 L 7447,1988 L 7449,1989 L 7451,1990 L 7456,1996 L 7458,1999 L 7465,2019 L 7465,2034 L 7458,2055 L 7456,2058 L 7445,2069 L 7442,2071 L 7430,2077 L 7406,2083 L 7403,2084 L 7385,2084 L 7359,2077 L 7345,2070 L 7332,2056 L 7330,2053 L 7324,2034 L 7324,2021 L 7324,2017 L 7330,2001 L 7331,1999 L 7333,1996 L 7340,1989 L 7342,1988 L 7345,1987 L 7347,1987 L 7350,1987 L 7352,1988 L 7354,1990 L 7356,1991 L 7357,1993 L 7358,1996 L 7359,1998 L 7358,2001 L 7358,2003 L 7357,2005 L 7355,2007 L 7351,2011 L 7347,2023 L 7347,2031 L 7351,2043 L 7359,2051 L 7368,2055 L 7388,2060 z " style="fill-opacity:1.000000;fill:rgb(251,50,175);stroke:rgb(0,0,0);stroke-width:2"/></g>
<g fill-rule="evenodd"><path d="M 7636,2003 L 7629,1999 L 7623,1999 L 7616,2003 L 7613,2006 L 7609,2014 L 7604,2037 L 7596,2051 L 7588,2059 L 7574,2066 L 7570,2067 L 7557,2067 L 7553,2065 L 7541,2059 L 7532,2051 L 7525,2036 L 7524,2032 L 7525,2002 L 7531,1984 L 7532,1981 L 7533,1979 L 7535,1978 L 7537,1977 L 7539,1976 L 7542,1976 L 7544,1976 L 7547,1977 L 7549,1978 L 7551,1980 L 7552,1982 L 7553,1984 L 7554,1986 L 7554,1989 L 7553,1991 L 7548,2006 L 7548,2030 L 7552,2037 L 7554,2040 L 7562,2043 L 7567,2043 L 7574,2040 L 7577,2037 L 7581,2028 L 7587,2007 L 7588,2005 L 7594,1992 L 7601,1985 L 7604,1983 L 7617,1976 L 7621,1976 L 7632,1976 L 7635,1976 L 7650,1983 L 7657,1990 L 7659,1993 L 7665,2005 L 7666,2008 L 7666,2038 L 7666,2042 L 7660,2059 L 7659,2061 L 7657,2063 L 7656,2065 L 7653,2066 L 7651,2066 L 7649,2067 L 7646,2066 L 7644,2066 L 7642,2064 L 7640,2063 L 7638,2061 L 7637,2058 L 7637,2056 L 7637,2054 L 7638,2051 L 7643,2036 L 7643,2013 L 7639,2006 L 7636,2003 z " style="fill-opacity:1.000000;fill:rgb(60,84,236);stroke:rgb(0,0,0);stroke-width:2"/></g>
<g fill-rule="evenodd"><path d="M 7162,1727 L 7152,1727 L 7148,1726 L 7135,1720 L 7132,1717 L 7131,1716 L 7124,1703 L 7123,1701 L 7123,1698 L 7123,1687 L 7123,1684 L 7124,1682 L 7125,1680 L 7127,1678 L 7129,1676 L 7131,1675 L 7133,1675 L 7136,1675 L 7138,1675 L 7141,1676 L 7143,1678 L 7144,1680 L 7146,1682 L 7146,1684 L 7147,1687 L 7147,1695 L 7149,1700 L 7154,1703 L 7162,1703 L 7162,1687 L 7163,1684 L 7163,1682 L 7165,1680 L 7166,1678 L 7168,1676 L 7170,1675 L 7173,1675 L 7175,1675 L 7178,1675 L 7180,1676 L 7182,1678 L 7184,1680 L 7185,1682 L 7186,1684 L 7186,1687 L 7186,1703 L 7253,1703 L 7255,1703 L 7258,1704 L 7260,1705 L 7262,1707 L 7263,1709 L 7264,1711 L 7265,1713 L 7265,1716 L 7264,1718 L 7263,1721 L 7262,1723 L 7260,1724 L 7258,1725 L 7255,1726 L 7253,1727 L 7186,1727 L 7186,1734 L 7185,1736 L 7184,1739 L 7182,1740 L 7180,1742 L 7178,1743 L 7175,1743 L 7173,1743 L 7170,1743 L 7168,1742 L 7166,1740 L 7165,1739 L 7163,1736 L 7163,1734 L 7162,1727 z " style="fill-opacity:1.000000;fill:rgb(24,219,92);stroke:rgb(0,0,0);stroke-width:2"/></g>
<g fill-rule="evenodd"><path d="M 7265,1895 L 7264,1897 L 7264,1899 L 7258,1911 L 7256,1914 L 7248,1921 L 7236,1928 L 7234,1928 L 7230,1929 L 7195,1929 L 7191,1928 L 7178,1921 L 7170,1913 L 7164,1900 L 7162,1896 L 7162,1876 L 7164,1872 L 7169,1861 L 7171,1858 L 7178,1851 L 7191,1845 L 7195,1844 L 7197,1843 L 7232,1844 L 7236,1845 L 7248,1851 L 7257,1860 L 7263,1872 L 7264,1876 L 7265,1895M 7228,1867 L 7199,1867 L 7192,1871 L 7189,1874 L 7186,1881 L 7186,1892 L 7189,1899 L 7192,1902 L 7199,1905 L 7228,1905 L 7235,1902 L 7237,1899 L 7241,1892 L 7241,1881 L 7237,1874 L 7235,1871 L 7228,1867 z " style="fill-opacity:1.000000;fill:rgb(2,26,254);stroke:rgb(0,0,0);stroke-width:2"/></g>
<g fill-rule="evenodd"><path d="M 7265,1631 L 7264,1633 L 7264,1635 L 7258,1647 L 7256,1650 L 7248,1657 L 7236,1663 L 7234,1664 L 7230,1665 L 7195,1665 L 7191,1663 L 7178,1657 L 7170,1648 L 7164,1636 L 7162,1632 L 7162,1612 L 7164,1608 L 7169,1597 L 7171,1594 L 7178,1587 L 7191,1580 L 7195,1579 L 7197,1579 L 7232,1579 L 7236,1580 L 7248,1587 L 7257,1595 L 7263,1608 L 7264,1612 L 7265,1631M 7199,1641 L 7228,1641 L 7235,1638 L 7237,1635 L 7241,1628 L 7241,1616 L 7237,1609 L 7235,1606 L 7228,1603 L 7199,1603 L 7192,1606 L 7189,1609 L 7186,1616 L 7186,1628 L 7189,1635 L 7192,1638 L 7199,1641 z " style="fill-opacity:1.000000;fill:rgb(67,251,250);stroke:rgb(0,0,0);stroke-width:2"/></g>
<g fill-rule="evenodd"><path d="M 7363,1735 L 7335,1735 L 7333,1735 L 7331,1734 L 7329,1733 L 7327,1731 L 7325,1729 L 7324,1727 L 7324,1724 L 7324,1722 L 7324,1719 L 7325,1717 L 7327,1715 L 7329,1714 L 7331,1712 L 7333,1712 L 7335,1711 L 7363,1711 L 7363,1695 L 7363,1693 L 7364,1690 L 7365,1688 L 7367,1686 L 7369,1685 L 7371,1684 L 7374,1683 L 7376,1683 L 7378,1684 L 7381,1685 L 7383,1686 L 7384,1688 L 7386,1690 L 7386,1693 L 7387,1695 L 7387,1711 L 7434,1711 L 7439,1709 L 7442,1703 L 7442,1695 L 7442,1693 L 7443,1690 L 7444,1688 L 7446,1686 L 7448,1685 L 7450,1684 L 7452,1683 L 7455,1683 L 7457,1684 L 7459,1685 L 7461,1686 L 7463,1688 L 7464,1690 L 7465,1693 L 7465,1695 L 7465,1708 L 7464,1712 L 7459,1723 L 7456,1726 L 7455,1727 L 7442,1734 L 7440,1734 L 7437,1735 L 7387,1735 L 7386,1742 L 7386,1745 L 7384,1747 L 7383,1749 L 7381,1750 L 7378,1751 L 7376,1752 L 7374,1752 L 7371,1751 L 7369,1750 L 7367,1749 L 7365,1747 L 7364,1745 L 7363,1742 L 7363,1735 z " style="fill-opacity:1.000000;fill:rgb(170,58,251);stroke:rgb(0,0,0);stroke-width:2"/></g>
<g fill-rule="evenodd"><path d="M 7548,1718 L 7548,1740 L 7548,1742 L 7547,1745 L 7546,1747 L 7544,1749 L 7542,1750 L 7540,1751 L 7537,1752 L 7535,1752 L 7533,1751 L 7530,1750 L 7528,1749 L 7527,1747 L 7525,1745 L 7525,1742 L 7524,1740 L 7524,1673 L 7525,1670 L 7525,1668 L 7527,1666 L 7528,1664 L 7530,1662 L 7533,1661 L 7535,1661 L 7537,1661 L 7540,1661 L 7542,1662 L 7544,1664 L 7546,1666 L 7547,1668 L 7548,1670 L 7548,1673 L 7548,1694 L 7654,1694 L 7657,1695 L 7659,1695 L 7661,1697 L 7663,1698 L 7665,1700 L 7666,1703 L 7666,1705 L 7666,1707 L 7666,1710 L 7665,1712 L 7663,1714 L 7661,1716 L 7659,1717 L 7657,1718 L 7654,1718 L 7548,1718 z " style="fill-opacity:1.000000;fill:rgb(41,209,230);stroke:rgb(0,0,0);stroke-width:2"/></g>
<g fill-rule="evenodd"><path d="M 7643,1818 L 7643,1774 L 7643,1771 L 7644,1769 L 7645,1767 L 7646,1765 L 7648,1764 L 7651,1763 L 7653,1762 L 7656,1762 L 7658,1763 L 7660,1764 L 7662,1765 L 7664,1767 L 7665,1769 L 7666,1771 L 7666,1774 L 7666,1847 L 7666,1849 L 7665,1851 L 7664,1853 L 7663,1855 L 7661,1857 L 7659,1858 L 7657,1858 L 7654,1859 L 7652,1858 L 7650,1858 L 7648,1857 L 7646,1855 L 7580,1790 L 7568,1786 L 7562,1786 L 7554,1789 L 7552,1792 L 7548,1799 L 7548,1822 L 7552,1829 L 7557,1835 L 7559,1837 L 7559,1839 L 7559,1842 L 7559,1844 L 7558,1847 L 7557,1849 L 7555,1850 L 7553,1852 L 7551,1853 L 7548,1853 L 7546,1853 L 7543,1852 L 7541,1851 L 7539,1850 L 7532,1843 L 7525,1828 L 7524,1824 L 7525,1794 L 7526,1791 L 7532,1778 L 7541,1770 L 7555,1762 L 7559,1762 L 7572,1762 L 7591,1768 L 7594,1770 L 7643,1818 z " style="fill-opacity:1.000000;fill:rgb(5,60,124);stroke:rgb(0,0,0);stroke-width:2"/></g>
<g fill-rule="evenodd"><path d="M 7393,1640 L 7400,1644 L 7454,1644 L 7456,1644 L 7458,1645 L 7461,1646 L 7462,1648 L 7464,1650 L 7465,1652 L 7465,1654 L 7465,1657 L 7465,1659 L 7464,1662 L 7462,1664 L 7461,1665 L 7458,1666 L 7456,1667 L 7454,1667 L 7375,1667 L 7372,1667 L 7370,1666 L 7368,1665 L 7366,1664 L 7365,1662 L 7364,1659 L 7363,1657 L 7363,1654 L 7364,1652 L 7365,1650 L 7366,1648 L 7368,1646 L 7364,1637 L 7363,1633 L 7363,1622 L 7363,1619 L 7364,1617 L 7365,1615 L 7367,1613 L 7369,1612 L 7371,1611 L 7374,1610 L 7376,1610 L 7378,1611 L 7381,1612 L 7383,1613 L 7384,1615 L 7386,1617 L 7386,1619 L 7387,1622 L 7387,1630 L 7390,1637 L 7393,1640 z " style="fill-opacity:1.000000;fill:rgb(148,117,216);stroke:rgb(0,0,0);stroke-width:2"/></g>
<g fill-rule="evenodd"><path d="M 7186,1232 L 7246,1188 L 7248,1187 L 7250,1186 L 7253,1186 L 7255,1186 L 7257,1186 L 7260,1188 L 7261,1189 L 7263,1191 L 7264,1194 L 7265,1196 L 7265,1198 L 7264,1201 L 7263,1203 L 7262,1205 L 7260,1207 L 7203,1249 L 7207,1253 L 7253,1253 L 7255,1253 L 7258,1254 L 7260,1255 L 7262,1257 L 7263,1259 L 7264,1261 L 7265,1264 L 7265,1266 L 7264,1268 L 7263,1271 L 7262,1273 L 7260,1274 L 7258,1276 L 7255,1276 L 7253,1277 L 7135,1277 L 7132,1276 L 7130,1276 L 7128,1274 L 7126,1273 L 7124,1271 L 7123,1268 L 7123,1266 L 7123,1264 L 7123,1261 L 7124,1259 L 7126,1257 L 7128,1255 L 7130,1254 L 7132,1253 L 7135,1253 L 7174,1253 L 7126,1206 L 7125,1204 L 7124,1202 L 7123,1199 L 7123,1197 L 7123,1194 L 7124,1192 L 7126,1190 L 7127,1188 L 7129,1187 L 7132,1186 L 7134,1186 L 7137,1186 L 7139,1186 L 7141,1187 L 7143,1189 L 7186,1232 z " style="fill-opacity:1.000000;fill:rgb(190,97,137);stroke:rgb(0,0,0);stroke-width:2"/></g>
<g fill-rule="evenodd"><path d="M 7387,1192 L 7387,1203 L 7389,1208 L 7395,1211 L 7454,1211 L 7456,1211 L 7458,1212 L 7461,1213 L 7462,1215 L 7464,1217 L 7465,1219 L 7465,1221 L 7465,1224 L 7465,1226 L 7464,1229 L 7462,1231 L 7461,1232 L 7458,1233 L 7456,1234 L 7454,1234 L 7395,1234 L 7389,1237 L 7387,1242 L 7387,1254 L 7390,1261 L 7391,1261 L 7454,1261 L 7456,1262 L 7458,1262 L 7461,1264 L 7462,1265 L 7464,1267 L 7465,1270 L 7465,1272 L 7465,1274 L 7465,1277 L 7464,1279 L 7462,1281 L 7461,1283 L 7458,1284 L 7456,1285 L 7454,1285 L 7375,1285 L 7372,1285 L 7370,1284 L 7368,1283 L 7366,1281 L 7365,1279 L 7364,1277 L 7363,1274 L 7363,1272 L 7364,1270 L 7365,1267 L 7366,1265 L 7364,1262 L 7363,1258 L 7363,1240 L 7364,1236 L 7364,1234 L 7370,1223 L 7364,1211 L 7363,1208 L 7363,1189 L 7364,1185 L 7364,1184 L 7370,1172 L 7372,1169 L 7375,1167 L 7388,1161 L 7392,1160 L 7454,1160 L 7456,1160 L 7458,1161 L 7461,1162 L 7462,1164 L 7464,1166 L 7465,1168 L 7465,1171 L 7465,1173 L 7465,1176 L 7464,1178 L 7462,1180 L 7461,1182 L 7458,1183 L 7456,1184 L 7454,1184 L 7395,1184 L 7389,1186 L 7387,1192 z " style="fill-opacity:1.000000;fill:rgb(249,92,187);stroke:rgb(0,0,0);stroke-width:2"/></g>
<g fill-rule="evenodd"><path d="M 7160,1371 L 7166,1371 L 7173,1368 L 7176,1365 L 7180,1356 L 7186,1334 L 7193,1320 L 7201,1311 L 7215,1304 L 7219,1304 L 7232,1304 L 7236,1305 L 7248,1311 L 7257,1320 L 7264,1334 L 7265,1338 L 7264,1368 L 7258,1387 L 7257,1389 L 7256,1391 L 7254,1393 L 7252,1394 L 7250,1394 L 7247,1395 L 7245,1394 L 7242,1394 L 7240,1392 L 7238,1391 L 7237,1389 L 7236,1386 L 7235,1384 L 7235,1382 L 7236,1379 L 7241,1364 L 7241,1341 L 7237,1334 L 7235,1331 L 7228,1327 L 7222,1327 L 7215,1331 L 7212,1334 L 7208,1342 L 7202,1365 L 7196,1377 L 7194,1380 L 7187,1387 L 7172,1394 L 7168,1395 L 7155,1395 L 7152,1393 L 7139,1387 L 7132,1380 L 7130,1377 L 7124,1366 L 7123,1362 L 7123,1330 L 7129,1312 L 7130,1309 L 7132,1307 L 7133,1306 L 7136,1305 L 7138,1304 L 7140,1304 L 7143,1304 L 7145,1305 L 7147,1306 L 7149,1308 L 7151,1310 L 7152,1312 L 7152,1314 L 7152,1317 L 7152,1319 L 7147,1334 L 7147,1358 L 7150,1365 L 7153,1368 L 7160,1371 z " style="fill-opacity:1.000000;fill:rgb(168,153,15);stroke:rgb(0,0,0);stroke-width:2"/></g>
<g fill-rule="evenodd"><path d="M 7199,1529 L 7253,1529 L 7255,1529 L 7258,1530 L 7260,1531 L 7262,1532 L 7263,1534 L 7264,1537 L 7265,1539 L 7265,1542 L 7264,1544 L 7263,1546 L 7262,1548 L 7260,1550 L 7258,1551 L 7255,1552 L 7253,1552 L 7174,1552 L 7172,1552 L 7169,1551 L 7167,1550 L 7165,1548 L 7164,1546 L 7163,1544 L 7162,1542 L 7162,1539 L 7163,1537 L 7164,1534 L 7165,1532 L 7167,1531 L 7164,1523 L 7162,1520 L 7162,1507 L 7163,1504 L 7163,1502 L 7165,1500 L 7166,1498 L 7168,1496 L 7170,1495 L 7173,1495 L 7175,1495 L 7178,1495 L 7180,1496 L 7182,1498 L 7184,1500 L 7185,1502 L 7186,1504 L 7186,1507 L 7186,1515 L 7189,1522 L 7192,1525 L 7199,1529 z " style="fill-opacity:1.000000;fill:rgb(149,177,235);stroke:rgb(0,0,0);stroke-width:2"/></g>
<g fill-rule="evenodd"><path d="M 7390,1463 L 7391,1464 L 7454,1464 L 7456,1464 L 7458,1465 L 7461,1466 L 7462,1468 L 7464,1470 L 7465,1472 L 7465,1474 L 7465,1477 L 7465,1479 L 7464,1482 L 7462,1484 L 7461,1485 L 7458,1486 L 7456,1487 L 7454,1488 L 7375,1488 L 7372,1487 L 7370,1486 L 7368,1485 L 7366,1484 L 7365,1482 L 7364,1479 L 7363,1477 L 7363,1474 L 7364,1472 L 7365,1470 L 7366,1468 L 7364,1464 L 7363,1461 L 7363,1442 L 7364,1438 L 7364,1437 L 7370,1425 L 7372,1422 L 7375,1420 L 7386,1415 L 7390,1413 L 7454,1413 L 7456,1414 L 7458,1414 L 7461,1416 L 7462,1417 L 7464,1419 L 7465,1421 L 7465,1424 L 7465,1426 L 7465,1429 L 7464,1431 L 7462,1433 L 7461,1435 L 7458,1436 L 7456,1437 L 7454,1437 L 7395,1437 L 7389,1440 L 7387,1445 L 7387,1456 L 7390,1463 z " style="fill-opacity:1.000000;fill:rgb(241,179,5);stroke:rgb(0,0,0);stroke-width:2"/></g>
<g fill-rule="evenodd"><path d="M 7643,1462 L 7639,1455 L 7636,1452 L 7629,1448 L 7623,1448 L 7616,1452 L 7613,1455 L 7609,1463 L 7604,1485 L 7596,1499 L 7588,1508 L 7575,1514 L 7572,1515 L 7559,1516 L 7555,1515 L 7541,1508 L 7532,1499 L 7526,1487 L 7525,1483 L 7524,1453 L 7525,1449 L 7531,1433 L 7532,1430 L 7533,1428 L 7535,1427 L 7537,1426 L 7539,1425 L 7542,1425 L 7544,1425 L 7547,1426 L 7549,1427 L 7551,1428 L 7552,1431 L 7553,1433 L 7554,1435 L 7554,1438 L 7553,1440 L 7548,1455 L 7548,1479 L 7552,1486 L 7554,1488 L 7562,1492 L 7567,1492 L 7574,1488 L 7577,1486 L 7581,1477 L 7587,1456 L 7588,1454 L 7594,1441 L 7601,1434 L 7604,1431 L 7617,1425 L 7621,1425 L 7632,1425 L 7635,1425 L 7650,1432 L 7657,1439 L 7659,1442 L 7665,1454 L 7666,1457 L 7666,1489 L 7660,1508 L 7659,1510 L 7657,1512 L 7656,1513 L 7653,1515 L 7651,1515 L 7649,1516 L 7646,1515 L 7644,1515 L 7642,1513 L 7640,1512 L 7638,1510 L 7637,1507 L 7637,1505 L 7637,1502 L 7638,1500 L 7643,1485 L 7643,1462 z " style="fill-opacity:1.000000;fill:rgb(239,247,0);stroke:rgb(0,0,0);stroke-width:2"/></g>
<g fill-rule="evenodd"><path d="M 7389,1360 L 7395,1363 L 7400,1360 L 7402,1355 L 7402,1341 L 7403,1337 L 7409,1324 L 7411,1321 L 7413,1320 L 7427,1313 L 7431,1312 L 7437,1312 L 7440,1313 L 7455,1320 L 7458,1323 L 7459,1324 L 7465,1337 L 7465,1341 L 7465,1363 L 7465,1367 L 7459,1380 L 7457,1382 L 7455,1384 L 7453,1385 L 7451,1386 L 7449,1386 L 7446,1386 L 7444,1386 L 7442,1384 L 7440,1383 L 7438,1381 L 7437,1379 L 7436,1376 L 7436,1374 L 7437,1372 L 7437,1369 L 7442,1360 L 7442,1344 L 7439,1338 L 7434,1336 L 7429,1338 L 7426,1344 L 7426,1358 L 7425,1361 L 7419,1374 L 7417,1377 L 7414,1379 L 7401,1386 L 7397,1386 L 7390,1386 L 7386,1385 L 7375,1379 L 7372,1377 L 7370,1374 L 7364,1363 L 7363,1359 L 7363,1341 L 7364,1337 L 7370,1324 L 7371,1322 L 7373,1320 L 7375,1319 L 7377,1318 L 7380,1318 L 7382,1318 L 7385,1318 L 7387,1320 L 7389,1321 L 7390,1323 L 7391,1325 L 7392,1328 L 7392,1330 L 7392,1332 L 7391,1335 L 7387,1344 L 7387,1355 L 7389,1360 z " style="fill-opacity:1.000000;fill:rgb(233,161,58);stroke:rgb(0,0,0);stroke-width:2"/></g>
<g fill-rule="evenodd"><path d="M 7231,992 L 7231,1031 L 7257,1040 L 7259,1041 L 7261,1042 L 7262,1044 L 7264,1046 L 7264,1049 L 7265,1051 L 7264,1054 L 7264,1056 L 7262,1058 L 7261,1060 L 7259,1061 L 7256,1062 L 7254,1063 L 7251,1063 L 7249,1062 L 7131,1023 L 7129,1022 L 7127,1020 L 7125,1019 L 7124,1017 L 7123,1014 L 7123,1012 L 7123,1009 L 7124,1007 L 7125,1005 L 7127,1003 L 7129,1002 L 7131,1001 L 7249,961 L 7251,961 L 7254,961 L 7256,961 L 7259,962 L 7261,964 L 7262,965 L 7264,967 L 7264,970 L 7265,972 L 7264,975 L 7264,977 L 7262,979 L 7261,981 L 7259,983 L 7257,984 L 7231,992M 7207,1000 L 7172,1012 L 7207,1023 L 7207,1000 z " style="fill-opacity:1.000000;fill:rgb(229,202,11);stroke:rgb(0,0,0);stroke-width:2"/></g>
<g fill-rule="evenodd"><path d="M 7241,1129 L 7241,1085 L 7241,1082 L 7242,1080 L 7243,1078 L 7245,1076 L 7247,1075 L 7249,1074 L 7252,1073 L 7254,1073 L 7256,1074 L 7259,1075 L 7261,1076 L 7262,1078 L 7264,1080 L 7264,1082 L 7265,1085 L 7265,1158 L 7264,1160 L 7264,1162 L 7263,1165 L 7261,1166 L 7259,1168 L 7257,1169 L 7255,1170 L 7253,1170 L 7251,1170 L 7248,1169 L 7246,1168 L 7244,1166 L 7179,1101 L 7167,1097 L 7160,1097 L 7153,1100 L 7150,1103 L 7147,1110 L 7147,1133 L 7150,1140 L 7156,1146 L 7157,1148 L 7158,1150 L 7158,1153 L 7157,1155 L 7156,1158 L 7155,1160 L 7153,1162 L 7151,1163 L 7149,1164 L 7147,1164 L 7144,1164 L 7142,1163 L 7140,1162 L 7138,1161 L 7131,1154 L 7123,1139 L 7123,1135 L 7123,1106 L 7124,1102 L 7131,1089 L 7139,1081 L 7154,1074 L 7157,1073 L 7170,1073 L 7189,1079 L 7192,1081 L 7241,1129 z " style="fill-opacity:1.000000;fill:rgb(203,208,72);stroke:rgb(0,0,0);stroke-width:2"/></g>
<g fill-rule="evenodd"><path d="M 7147,928 L 7147,950 L 7146,952 L 7146,955 L 7144,957 L 7143,959 L 7141,960 L 7138,961 L 7136,962 L 7133,962 L 7131,961 L 7129,960 L 7127,959 L 7125,957 L 7124,955 L 7123,952 L 7123,950 L 7123,882 L 7123,880 L 7124,878 L 7125,875 L 7127,874 L 7129,872 L 7131,871 L 7133,871 L 7136,871 L 7138,871 L 7141,872 L 7143,874 L 7144,875 L 7146,878 L 7146,880 L 7147,882 L 7147,904 L 7253,904 L 7255,905 L 7258,905 L 7260,907 L 7262,908 L 7263,910 L 7264,912 L 7265,915 L 7265,917 L 7264,920 L 7263,922 L 7262,924 L 7260,926 L 7258,927 L 7255,928 L 7253,928 L 7147,928 z " style="fill-opacity:1.000000;fill:rgb(71,100,189);stroke:rgb(0,0,0);stroke-width:2"/></g>
<g fill-rule="evenodd"><path d="M 7378,1020 L 7381,1021 L 7383,1023 L 7384,1024 L 7386,1027 L 7386,1029 L 7387,1031 L 7387,1048 L 7434,1048 L 7439,1045 L 7442,1040 L 7442,1029 L 7443,1027 L 7444,1024 L 7446,1023 L 7448,1021 L 7450,1020 L 7452,1020 L 7455,1020 L 7457,1020 L 7459,1021 L 7461,1023 L 7463,1024 L 7464,1027 L 7465,1029 L 7465,1031 L 7465,1044 L 7464,1048 L 7459,1059 L 7456,1062 L 7455,1064 L 7442,1070 L 7439,1071 L 7387,1071 L 7386,1079 L 7386,1081 L 7384,1083 L 7383,1085 L 7381,1087 L 7378,1088 L 7376,1088 L 7374,1088 L 7371,1088 L 7369,1087 L 7367,1085 L 7365,1083 L 7364,1081 L 7363,1079 L 7363,1071 L 7335,1071 L 7333,1071 L 7331,1070 L 7329,1069 L 7327,1067 L 7325,1065 L 7324,1063 L 7324,1061 L 7324,1058 L 7324,1056 L 7325,1054 L 7327,1052 L 7329,1050 L 7331,1049 L 7333,1048 L 7335,1048 L 7363,1048 L 7363,1031 L 7363,1029 L 7364,1027 L 7365,1024 L 7367,1023 L 7369,1021 L 7371,1020 L 7369,1019 L 7367,1018 L 7365,1016 L 7364,1014 L 7363,1011 L 7363,1009 L 7363,1004 L 7335,1004 L 7333,1004 L 7331,1003 L 7329,1002 L 7327,1000 L 7325,998 L 7324,996 L 7324,993 L 7324,991 L 7324,988 L 7325,986 L 7327,984 L 7329,983 L 7331,981 L 7333,981 L 7335,980 L 7363,980 L 7363,964 L 7363,961 L 7364,959 L 7365,957 L 7367,955 L 7369,954 L 7371,953 L 7374,952 L 7376,952 L 7378,953 L 7381,954 L 7383,955 L 7384,957 L 7386,959 L 7386,961 L 7387,964 L 7387,980 L 7434,980 L 7439,978 L 7442,972 L 7442,961 L 7443,959 L 7444,957 L 7446,955 L 7448,954 L 7450,953 L 7452,952 L 7455,952 L 7457,953 L 7459,954 L 7461,955 L 7463,957 L 7464,959 L 7465,961 L 7465,964 L 7465,977 L 7464,980 L 7459,992 L 7456,995 L 7455,996 L 7442,1003 L 7439,1004 L 7387,1004 L 7387,1009 L 7386,1011 L 7386,1014 L 7384,1016 L 7383,1018 L 7381,1019 L 7378,1020 z " style="fill-opacity:1.000000;fill:rgb(31,35,30);stroke:rgb(0,0,0);stroke-width:2"/></g>
<g fill-rule="evenodd"><path d="M 7327,1124 L 7326,1122 L 7325,1120 L 7324,1118 L 7324,1115 L 7325,1111 L 7326,1109 L 7327,1107 L 7333,1102 L 7335,1100 L 7337,1099 L 7339,1099 L 7341,1098 L 7343,1099 L 7346,1099 L 7348,1100 L 7356,1108 L 7358,1111 L 7358,1115 L 7358,1117 L 7358,1119 L 7357,1122 L 7356,1124 L 7349,1130 L 7348,1131 L 7346,1132 L 7343,1133 L 7341,1133 L 7339,1133 L 7337,1132 L 7335,1131 L 7333,1130 L 7327,1124 z " style="fill-opacity:1.000000;fill:rgb(168,28,123);stroke:rgb(0,0,0);stroke-width:2"/></g>
<g fill-rule="evenodd"><path d="M 7424,918 L 7434,918 L 7439,916 L 7442,911 L 7442,894 L 7437,885 L 7437,883 L 7436,880 L 7436,878 L 7437,875 L 7438,873 L 7440,871 L 7442,870 L 7444,869 L 7446,868 L 7449,868 L 7451,868 L 7453,869 L 7455,870 L 7457,872 L 7459,874 L 7464,886 L 7465,889 L 7465,913 L 7465,917 L 7459,930 L 7456,933 L 7453,935 L 7442,941 L 7440,941 L 7437,942 L 7390,942 L 7386,941 L 7375,935 L 7372,933 L 7370,930 L 7364,919 L 7364,917 L 7363,913 L 7363,889 L 7364,886 L 7370,874 L 7372,871 L 7375,869 L 7386,863 L 7390,862 L 7403,862 L 7405,862 L 7407,863 L 7410,864 L 7411,866 L 7413,867 L 7414,869 L 7415,872 L 7424,918M 7393,886 L 7389,888 L 7387,894 L 7387,911 L 7389,916 L 7395,918 L 7400,918 L 7393,886 z " style="fill-opacity:1.000000;fill:rgb(100,197,20);stroke:rgb(0,0,0);stroke-width:2"/></g>
<g fill-rule="evenodd"><path d="M 7390,805 L 7393,808 L 7400,812 L 7454,812 L 7456,812 L 7458,813 L 7461,814 L 7462,815 L 7464,817 L 7465,820 L 7465,822 L 7465,825 L 7465,827 L 7464,829 L 7462,831 L 7461,833 L 7458,834 L 7456,835 L 7454,835 L 7375,835 L 7372,835 L 7370,834 L 7368,833 L 7366,831 L 7365,829 L 7364,827 L 7363,825 L 7363,822 L 7364,820 L 7365,817 L 7366,815 L 7368,814 L 7364,804 L 7363,801 L 7363,790 L 7363,787 L 7364,785 L 7365,783 L 7367,781 L 7369,779 L 7371,778 L 7374,778 L 7376,778 L 7378,778 L 7381,779 L 7383,781 L 7384,783 L 7386,785 L 7386,787 L 7387,790 L 7387,798 L 7390,805 z " style="fill-opacity:1.000000;fill:rgb(115,90,197);stroke:rgb(0,0,0);stroke-width:2"/></g>
<g fill-rule="evenodd"><path d="M 80,898 L 121,898 L 123,898 L 125,899 L 127,900 L 129,901 L 130,903 L 131,905 L 131,907 L 131,909 L 131,911 L 130,913 L 129,914 L 127,916 L 125,917 L 123,917 L 121,918 L 43,918 L 41,917 L 37,916 L 34,913 L 33,909 L 33,905 L 35,902 L 36,900 L 84,873 L 43,873 L 41,872 L 39,872 L 37,871 L 35,869 L 34,868 L 33,866 L 33,864 L 33,862 L 33,860 L 34,858 L 35,856 L 37,855 L 39,854 L 41,853 L 43,853 L 121,853 L 123,853 L 125,854 L 127,855 L 128,856 L 131,859 L 131,861 L 131,863 L 131,865 L 130,867 L 129,869 L 128,870 L 80,898 z " style="fill-opacity:1.000000;fill:rgb(94,75,121);stroke:rgb(0,0,0);stroke-width:2"/></g>
<g fill-rule="evenodd"><path d="M 86,790 L 78,790 L 65,793 L 60,796 L 55,801 L 52,808 L 52,812 L 55,819 L 67,819 L 67,812 L 67,810 L 68,808 L 70,807 L 71,805 L 73,805 L 75,804 L 77,804 L 79,805 L 81,805 L 83,807 L 84,808 L 85,810 L 86,812 L 86,814 L 86,831 L 85,833 L 83,836 L 80,838 L 76,839 L 50,839 L 46,838 L 45,837 L 39,832 L 38,830 L 37,828 L 33,817 L 33,814 L 33,805 L 37,792 L 38,789 L 48,780 L 58,775 L 75,770 L 88,770 L 90,771 L 106,775 L 114,779 L 117,781 L 125,788 L 126,791 L 131,805 L 131,818 L 131,821 L 130,822 L 126,830 L 125,831 L 124,833 L 122,834 L 120,835 L 118,835 L 116,835 L 114,834 L 112,834 L 111,832 L 109,831 L 108,829 L 108,827 L 108,825 L 108,823 L 112,815 L 112,808 L 109,801 L 104,796 L 99,793 L 86,790 z " style="fill-opacity:1.000000;fill:rgb(99,59,112);stroke:rgb(0,0,0);stroke-width:2"/></g>
<g fill-rule="evenodd"><path d="M 33,945 L 34,941 L 35,939 L 37,937 L 39,936 L 42,935 L 123,936 L 125,936 L 128,938 L 130,941 L 131,943 L 131,966 L 127,978 L 126,981 L 117,990 L 114,991 L 106,996 L 90,1000 L 88,1000 L 76,1000 L 74,1000 L 58,996 L 49,991 L 47,990 L 38,981 L 37,978 L 33,966 L 33,945M 86,980 L 99,977 L 104,975 L 109,970 L 112,962 L 112,955 L 52,955 L 52,962 L 55,970 L 60,975 L 65,977 L 78,980 L 86,980 z " style="fill-opacity:1.000000;fill:rgb(100,36,17);stroke:rgb(0,0,0);stroke-width:2"/></g>
<g fill-rule="evenodd"><path d="M 428,1778 L 479,1795 L 481,1796 L 482,1797 L 484,1799 L 485,1801 L 485,1803 L 485,1805 L 485,1807 L 485,1809 L 484,1811 L 482,1812 L 480,1813 L 479,1814 L 477,1814 L 475,1814 L 473,1814 L 394,1788 L 392,1787 L 390,1786 L 389,1784 L 388,1782 L 387,1780 L 387,1778 L 387,1776 L 388,1774 L 389,1773 L 390,1771 L 392,1770 L 394,1769 L 473,1743 L 475,1742 L 477,1742 L 479,1743 L 480,1744 L 482,1745 L 484,1746 L 485,1748 L 485,1750 L 485,1752 L 485,1754 L 485,1756 L 484,1758 L 482,1759 L 481,1761 L 479,1762 L 428,1778 z " style="fill-opacity:1.000000;fill:rgb(158,9,220);stroke:rgb(0,0,0);stroke-width:2"/></g>
<g fill-rule="evenodd"><path d="M 417,1611 L 417,1591 L 417,1589 L 418,1587 L 419,1585 L 420,1584 L 422,1582 L 424,1582 L 426,1581 L 428,1581 L 430,1582 L 432,1582 L 433,1584 L 435,1585 L 436,1587 L 437,1589 L 437,1611 L 457,1611 L 459,1611 L 461,1612 L 463,1613 L 464,1614 L 465,1616 L 466,1618 L 467,1620 L 467,1622 L 466,1624 L 465,1626 L 464,1628 L 463,1629 L 461,1630 L 459,1631 L 437,1631 L 437,1651 L 437,1653 L 436,1655 L 435,1657 L 433,1658 L 432,1659 L 430,1660 L 428,1661 L 426,1661 L 424,1660 L 422,1659 L 420,1658 L 419,1657 L 418,1655 L 417,1653 L 417,1631 L 395,1631 L 393,1630 L 391,1629 L 390,1628 L 388,1626 L 388,1624 L 387,1622 L 387,1620 L 388,1618 L 388,1616 L 390,1614 L 391,1613 L 393,1612 L 395,1611 L 397,1611 L 417,1611 z " style="fill-opacity:1.000000;fill:rgb(170,212,172);stroke:rgb(0,0,0);stroke-width:2"/></g>
<g fill-rule="evenodd"><path d="M 411,1711 L 417,1715 L 417,1698 L 418,1695 L 422,1688 L 424,1685 L 429,1680 L 437,1676 L 440,1675 L 462,1675 L 465,1676 L 473,1680 L 475,1681 L 480,1686 L 484,1695 L 485,1698 L 485,1716 L 484,1719 L 481,1727 L 479,1729 L 474,1734 L 465,1738 L 462,1739 L 431,1740 L 428,1739 L 412,1735 L 399,1727 L 393,1720 L 388,1712 L 387,1709 L 387,1692 L 387,1690 L 388,1688 L 389,1686 L 390,1685 L 392,1684 L 394,1683 L 396,1682 L 398,1682 L 400,1683 L 402,1684 L 403,1685 L 405,1686 L 406,1688 L 407,1690 L 407,1692 L 407,1705 L 409,1709 L 411,1711M 458,1720 L 462,1718 L 464,1716 L 466,1712 L 466,1702 L 464,1698 L 462,1697 L 458,1695 L 444,1695 L 440,1697 L 439,1698 L 437,1702 L 437,1712 L 439,1716 L 440,1718 L 444,1720 L 458,1720 z " style="fill-opacity:1.000000;fill:rgb(242,27,16);stroke:rgb(0,0,0);stroke-width:2"/></g>
<g fill-rule="evenodd"><path d="M 474,314 L 471,348 L 461,379 L 444,408 L 421,433 L 394,453 L 364,467 L 331,474 L 298,474 L 265,467 L 234,453 L 207,433 L 185,408 L 168,379 L 158,348 L 154,314 L 158,281 L 168,249 L 185,220 L 207,196 L 234,176 L 265,162 L 298,155 L 331,155 L 364,162 L 394,176 L 421,196 L 444,220 L 461,249 L 471,281 L 474,314 z " style="fill-opacity:1.000000;fill:rgb(175,59,51);stroke:rgb(0,0,0);stroke-width:2"/></g>
<g fill-rule="evenodd"><path d="M 474,3464 L 471,3497 L 461,3529 L 444,3558 L 421,3583 L 394,3602 L 364,3616 L 331,3623 L 298,3623 L 265,3616 L 234,3602 L 207,3583 L 185,3558 L 168,3529 L 158,3497 L 154,3464 L 158,3430 L 168,3399 L 185,3370 L 207,3345 L 234,3325 L 265,3311 L 298,3305 L 331,3305 L 364,3311 L 394,3325 L 421,3345 L 444,3370 L 461,3399 L 471,3430 L 474,3464 z " style="fill-opacity:1.000000;fill:rgb(205,227,80);stroke:rgb(0,0,0);stroke-width:2"/></g>
<g fill-rule="evenodd"><path d="M 7560,3464 L 7557,3497 L 7546,3529 L 7530,3558 L 7507,3583 L 7480,3602 L 7450,3616 L 7417,3623 L 7383,3623 L 7351,3616 L 7320,3602 L 7293,3583 L 7271,3558 L 7254,3529 L 7244,3497 L 7240,3464 L 7244,3430 L 7254,3399 L 7271,3370 L 7293,3345 L 7320,3325 L 7351,3311 L 7383,3305 L 7417,3305 L 7450,3311 L 7480,3325 L 7507,3345 L 7530,3370 L 7546,3399 L 7557,3430 L 7560,3464 z " style="fill-opacity:1.000000;fill:rgb(72,71,21);stroke:rgb(0,0,0);stroke-width:2"/></g>
<g fill-rule="evenodd"><path d="M 7560,314 L 7557,348 L 7546,379 L 7530,408 L 7507,433 L 7480,453 L 7450,467 L 7417,474 L 7383,474 L 7351,467 L 7320,453 L 7293,433 L 7271,408 L 7254,379 L 7244,348 L 7240,314 L 7244,281 L 7254,249 L 7271,220 L 7293,196 L 7320,176 L 7351,162 L 7383,155 L 7417,155 L 7450,162 L 7480,176 L 7507,196 L 7530,220 L 7546,249 L 7557,281 L 7560,314 z " style="fill-opacity:1.000000;fill:rgb(92,187,111);stroke:rgb(0,0,0);stroke-width:2"/></g>
<g fill-rule="evenodd"><path d="M 0,2617 L 0,1215 L 0,1208 L 2,1200 L 6,1194 L 11,1188 L 88,1110 L 94,1105 L 101,1102 L 109,1099 L 116,1099 L 195,1099 L 195,1058 L 236,1058 L 236,1023 L 236,1015 L 239,1008 L 242,1001 L 247,995 L 1231,11 L 1237,6 L 1244,2 L 1252,0 L 1259,0 L 4646,0 L 4654,0 L 4661,2 L 4668,6 L 4674,11 L 5028,365 L 5033,371 L 5037,378 L 5039,386 L 5040,393 L 5040,472 L 5066,472 L 5066,456 L 5342,488 L 5342,614 L 5066,645 L 5066,629 L 5040,629 L 5040,852 L 5066,852 L 5066,836 L 5342,868 L 5342,994 L 5066,1025 L 5066,1009 L 5040,1009 L 5040,1259 L 5066,1259 L 5066,1244 L 5342,1275 L 5342,1401 L 5066,1432 L 5066,1417 L 5040,1417 L 5040,2045 L 5039,2053 L 5037,2060 L 5033,2067 L 5028,2073 L 4640,2461 L 4849,2671 L 4911,2671 L 4911,2631 L 5056,2631 L 5056,2616 L 5332,2647 L 5332,2773 L 5056,2804 L 5056,2789 L 5029,2789 L 5029,3025 L 5056,3025 L 5056,3009 L 5332,3041 L 5332,3167 L 5056,3198 L 5056,3182 L 5029,3182 L 5029,3419 L 5056,3419 L 5056,3403 L 5332,3434 L 5332,3560 L 5056,3592 L 5056,3576 L 4911,3576 L 4911,3419 L 4951,3419 L 4951,3182 L 4911,3182 L 4911,3025 L 4951,3025 L 4951,2789 L 4911,2789 L 4911,2749 L 4833,2749 L 4825,2749 L 4818,2746 L 4811,2743 L 4805,2738 L 4584,2517 L 4358,2744 L 4352,2748 L 4345,2752 L 4337,2754 L 4330,2755 L 3818,2755 L 3818,2794 L 3779,2794 L 3779,3031 L 3818,3031 L 3818,3188 L 3779,3188 L 3779,3424 L 3818,3424 L 3818,3582 L 3673,3582 L 3673,3597 L 3398,3566 L 3398,3440 L 3673,3409 L 3673,3424 L 3700,3424 L 3700,3188 L 3673,3188 L 3673,3204 L 3398,3172 L 3398,3046 L 3673,3015 L 3673,3031 L 3700,3031 L 3700,2794 L 3673,2794 L 3673,2810 L 3398,2779 L 3398,2653 L 3673,2621 L 3673,2637 L 3818,2637 L 3818,2676 L 4313,2676 L 4961,2029 L 4961,1417 L 4922,1417 L 4922,1259 L 4961,1259 L 4961,1009 L 4922,1009 L 4922,852 L 4961,852 L 4961,629 L 4922,629 L 4922,472 L 4961,472 L 4961,410 L 4630,78 L 2558,78 L 2558,266 L 2607,266 L 2607,442 L 2431,442 L 2431,266 L 2480,266 L 2480,78 L 2224,78 L 2224,266 L 2272,266 L 2272,442 L 2096,442 L 2096,266 L 2145,266 L 2145,78 L 1275,78 L 314,1039 L 314,1058 L 355,1058 L 355,1218 L 195,1218 L 195,1177 L 133,1177 L 78,1232 L 78,2601 L 134,2657 L 196,2657 L 196,2630 L 181,2630 L 212,2355 L 338,2355 L 369,2630 L 354,2630 L 354,2657 L 593,2657 L 669,2581 L 669,2361 L 629,2361 L 629,2204 L 774,2204 L 774,2188 L 1050,2220 L 1050,2346 L 774,2377 L 774,2361 L 747,2361 L 747,2581 L 1397,3230 L 1408,3228 L 1425,3228 L 1441,3231 L 1456,3238 L 1469,3248 L 1480,3260 L 1484,3267 L 1861,3267 L 1865,3260 L 1876,3248 L 1889,3238 L 1904,3231 L 1920,3228 L 1937,3228 L 1953,3231 L 1968,3238 L 1981,3248 L 1992,3260 L 2000,3274 L 2005,3290 L 2007,3306 L 2005,3323 L 2000,3338 L 1992,3352 L 1981,3365 L 1968,3374 L 1953,3381 L 1937,3384 L 1920,3384 L 1904,3381 L 1889,3374 L 1876,3365 L 1865,3352 L 1861,3346 L 1484,3346 L 1480,3352 L 1469,3365 L 1456,3374 L 1441,3381 L 1425,3384 L 1408,3384 L 1392,3381 L 1377,3374 L 1364,3365 L 1353,3352 L 1345,3338 L 1340,3323 L 1338,3306 L 1340,3290 L 1341,3286 L 708,2653 L 637,2724 L 631,2729 L 625,2732 L 617,2735 L 610,2735 L 354,2735 L 354,2775 L 196,2775 L 196,2735 L 118,2735 L 110,2735 L 103,2732 L 96,2729 L 90,2724 L 11,2645 L 6,2639 L 2,2632 L 0,2625 L 0,2617 z " style="fill-opacity:1.000000;fill:rgb(34,25,186);stroke:rgb(0,0,0);stroke-width:2"/></g>
<g fill-rule="evenodd"><path d="M 3031,511 L 3267,511 L 3267,472 L 3424,472 L 3424,511 L 3660,511 L 3660,472 L 3818,472 L 3818,511 L 3966,511 L 3966,463 L 4142,463 L 4142,639 L 3966,639 L 3966,590 L 3818,590 L 3818,617 L 3834,617 L 3802,892 L 3676,892 L 3645,617 L 3660,617 L 3660,590 L 3424,590 L 3424,617 L 3440,617 L 3409,892 L 3283,892 L 3251,617 L 3267,617 L 3267,590 L 3031,590 L 3031,617 L 3046,617 L 3015,892 L 2889,892 L 2881,826 L 2783,826 L 2779,833 L 2768,845 L 2755,855 L 2740,862 L 2724,865 L 2707,865 L 2691,862 L 2676,855 L 2663,845 L 2652,833 L 2648,826 L 2555,826 L 2250,1131 L 2250,1361 L 2436,1548 L 2446,1548 L 2459,1550 L 2470,1555 L 2480,1563 L 2489,1572 L 2495,1583 L 2499,1595 L 2500,1607 L 2499,1620 L 2495,1632 L 2489,1642 L 2480,1652 L 2470,1659 L 2459,1664 L 2446,1667 L 2434,1667 L 2422,1664 L 2410,1659 L 2400,1652 L 2392,1642 L 2385,1632 L 2381,1620 L 2380,1607 L 2381,1603 L 2194,1417 L 2027,1417 L 2027,1522 L 2026,1530 L 2024,1538 L 2024,1565 L 2033,1575 L 2039,1586 L 2043,1598 L 2044,1610 L 2043,1623 L 2039,1635 L 2033,1646 L 2024,1655 L 2014,1662 L 2003,1667 L 1991,1670 L 1978,1670 L 1966,1667 L 1954,1662 L 1944,1655 L 1936,1646 L 1929,1635 L 1926,1623 L 1924,1610 L 1926,1598 L 1929,1586 L 1936,1575 L 1945,1565 L 1945,1525 L 1946,1518 L 1948,1510 L 1948,1417 L 1571,1417 L 1571,1565 L 1580,1575 L 1586,1586 L 1590,1598 L 1592,1610 L 1590,1623 L 1586,1635 L 1580,1646 L 1572,1655 L 1562,1662 L 1550,1667 L 1538,1670 L 1525,1670 L 1513,1667 L 1502,1662 L 1491,1655 L 1483,1646 L 1477,1635 L 1473,1623 L 1472,1610 L 1473,1598 L 1477,1586 L 1483,1575 L 1492,1565 L 1492,1430 L 1473,1410 L 1082,1410 L 1080,1413 L 1071,1419 L 1060,1424 L 1049,1427 L 1037,1427 L 1025,1424 L 1015,1419 L 1005,1413 L 997,1404 L 992,1394 L 988,1383 L 987,1371 L 988,1359 L 992,1348 L 997,1338 L 1005,1329 L 1015,1322 L 1025,1318 L 1037,1315 L 1049,1315 L 1060,1318 L 1071,1322 L 1080,1329 L 1082,1332 L 1489,1332 L 1497,1332 L 1504,1335 L 1510,1338 L 2171,1338 L 2171,1115 L 2172,1107 L 2174,1100 L 2178,1093 L 2182,1087 L 2511,759 L 2517,754 L 2523,750 L 2531,748 L 2539,747 L 2648,747 L 2652,741 L 2663,728 L 2676,719 L 2691,712 L 2707,709 L 2724,709 L 2740,712 L 2755,719 L 2768,728 L 2779,741 L 2783,747 L 2872,747 L 2857,617 L 2873,617 L 2873,472 L 3031,472 L 3031,511 z " style="fill-opacity:1.000000;fill:rgb(155,125,245);stroke:rgb(0,0,0);stroke-width:2"/></g>
<g fill-rule="evenodd"><path d="M 2991,2637 L 3018,2637 L 3018,2621 L 3293,2653 L 3293,2779 L 3018,2810 L 3018,2794 L 2991,2794 L 2991,3031 L 3018,3031 L 3018,3015 L 3293,3046 L 3293,3172 L 3018,3204 L 3018,3188 L 2991,3188 L 2991,3424 L 3018,3424 L 3018,3409 L 3293,3440 L 3293,3566 L 3018,3597 L 3018,3582 L 2873,3582 L 2873,3424 L 2913,3424 L 2913,3188 L 2873,3188 L 2873,3149 L 2646,3149 L 2646,3197 L 2470,3197 L 2470,3021 L 2646,3021 L 2646,3070 L 2873,3070 L 2873,3031 L 2913,3031 L 2913,2794 L 2873,2794 L 2873,2637 L 2913,2637 L 2913,2095 L 2899,2085 L 2888,2073 L 2880,2059 L 2875,2043 L 2873,2027 L 2875,2010 L 2880,1995 L 2888,1981 L 2899,1968 L 2913,1959 L 2913,1417 L 2873,1417 L 2873,1272 L 2857,1272 L 2889,997 L 3015,997 L 3046,1272 L 3031,1272 L 3031,1299 L 3267,1299 L 3267,1272 L 3251,1272 L 3283,997 L 3409,997 L 3440,1272 L 3424,1272 L 3424,1299 L 3660,1299 L 3660,1272 L 3645,1272 L 3676,997 L 3802,997 L 3834,1272 L 3818,1272 L 3818,1417 L 3660,1417 L 3660,1377 L 3424,1377 L 3424,1417 L 3267,1417 L 3267,1377 L 3031,1377 L 3031,1417 L 2991,1417 L 2991,1959 L 3005,1968 L 3016,1981 L 3024,1995 L 3029,2010 L 3031,2027 L 3029,2043 L 3024,2059 L 3016,2073 L 3005,2085 L 2991,2095 L 2991,2637 z " style="fill-opacity:1.000000;fill:rgb(11,225,26);stroke:rgb(0,0,0);stroke-width:2"/></g>
<g fill-rule="evenodd"><path d="M 2601,1852 L 2595,1847 L 2232,1847 L 2224,1855 L 2214,1862 L 2203,1867 L 2191,1870 L 2178,1870 L 2166,1867 L 2154,1862 L 2144,1855 L 2139,1850 L 1776,1850 L 1772,1855 L 1762,1862 L 1750,1867 L 1738,1870 L 1725,1870 L 1713,1867 L 1702,1862 L 1691,1855 L 1687,1850 L 1082,1850 L 1074,1849 L 1067,1847 L 1060,1843 L 1054,1838 L 1043,1827 L 952,1917 L 946,1922 L 940,1925 L 932,1928 L 924,1928 L 747,1928 L 747,1968 L 590,1968 L 590,1823 L 574,1823 L 606,1548 L 732,1548 L 763,1823 L 747,1823 L 747,1850 L 908,1850 L 987,1771 L 988,1759 L 992,1748 L 997,1738 L 1005,1729 L 1015,1722 L 1025,1718 L 1037,1715 L 1049,1715 L 1060,1718 L 1071,1722 L 1080,1729 L 1088,1738 L 1094,1748 L 1097,1759 L 1099,1771 L 1687,1771 L 1691,1766 L 1702,1758 L 1713,1753 L 1725,1751 L 1738,1751 L 1750,1753 L 1762,1758 L 1772,1766 L 1776,1771 L 2139,1771 L 2144,1766 L 2154,1758 L 2166,1753 L 2178,1751 L 2191,1751 L 2203,1753 L 2214,1758 L 2224,1766 L 2226,1768 L 2595,1768 L 2600,1763 L 2610,1755 L 2622,1750 L 2634,1747 L 2646,1747 L 2659,1750 L 2670,1755 L 2680,1763 L 2689,1772 L 2695,1783 L 2699,1795 L 2700,1807 L 2699,1820 L 2695,1832 L 2689,1842 L 2679,1852 L 2679,2142 L 2679,2149 L 2676,2157 L 2673,2164 L 2668,2170 L 2598,2240 L 2598,2451 L 2646,2451 L 2646,2627 L 2470,2627 L 2470,2451 L 2519,2451 L 2519,2224 L 2520,2216 L 2522,2209 L 2526,2202 L 2530,2196 L 2601,2125 L 2601,1852 z " style="fill-opacity:1.000000;fill:rgb(28,127,35);stroke:rgb(0,0,0);stroke-width:2"/></g>
<g fill-rule="evenodd"><path d="M 314,1407 L 314,1830 L 354,1830 L 354,1975 L 369,1975 L 338,2250 L 212,2250 L 181,1975 L 196,1975 L 196,1830 L 236,1830 L 236,1407 L 229,1404 L 217,1393 L 207,1380 L 200,1366 L 196,1350 L 195,1334 L 198,1318 L 203,1303 L 212,1289 L 223,1277 L 236,1268 L 251,1262 L 267,1258 L 275,1258 L 291,1260 L 307,1264 L 321,1272 L 333,1283 L 343,1296 L 344,1299 L 589,1299 L 574,1168 L 590,1168 L 590,1023 L 747,1023 L 747,1062 L 810,1062 L 1065,807 L 1064,803 L 1062,787 L 1064,770 L 1069,755 L 1077,741 L 1088,728 L 1102,719 L 1117,712 L 1133,709 L 1149,709 L 1161,711 L 1377,495 L 1377,442 L 1329,442 L 1329,266 L 1505,266 L 1505,314 L 1663,314 L 1663,266 L 1839,266 L 1839,442 L 1663,442 L 1663,393 L 1505,393 L 1505,442 L 1456,442 L 1456,511 L 1455,519 L 1453,526 L 1449,533 L 1444,539 L 1217,767 L 1218,770 L 1220,787 L 1218,803 L 1213,819 L 1205,833 L 1194,845 L 1180,855 L 1165,862 L 1149,865 L 1133,865 L 1121,863 L 854,1129 L 848,1134 L 841,1138 L 834,1140 L 826,1141 L 747,1141 L 747,1168 L 763,1168 L 732,1443 L 606,1443 L 598,1377 L 344,1377 L 338,1387 L 327,1399 L 314,1407 z " style="fill-opacity:1.000000;fill:rgb(248,41,248);stroke:rgb(0,0,0);stroke-width:2"/></g>
<g fill-rule="evenodd"><path d="M 1574,2243 L 1945,2243 L 1945,2055 L 1936,2046 L 1929,2035 L 1926,2023 L 1924,2010 L 1926,1998 L 1929,1986 L 1936,1975 L 1944,1966 L 1954,1958 L 1966,1953 L 1978,1951 L 1991,1951 L 2003,1953 L 2014,1958 L 2024,1966 L 2033,1975 L 2039,1986 L 2043,1998 L 2044,2010 L 2043,2023 L 2039,2035 L 2033,2046 L 2024,2055 L 2024,2243 L 2148,2243 L 2381,2011 L 2380,2007 L 2381,1995 L 2385,1983 L 2392,1972 L 2400,1963 L 2410,1955 L 2422,1950 L 2434,1947 L 2446,1947 L 2459,1950 L 2470,1955 L 2480,1963 L 2489,1972 L 2495,1983 L 2499,1995 L 2500,2007 L 2499,2020 L 2495,2032 L 2489,2042 L 2480,2052 L 2470,2059 L 2459,2064 L 2446,2067 L 2436,2067 L 2192,2311 L 2186,2315 L 2180,2319 L 2172,2321 L 2165,2322 L 2027,2322 L 2027,2451 L 2075,2451 L 2075,2627 L 1899,2627 L 1899,2451 L 1948,2451 L 1948,2322 L 1574,2322 L 1574,2361 L 1535,2361 L 1535,2873 L 1534,2881 L 1532,2888 L 1528,2895 L 1523,2901 L 1512,2913 L 1861,2913 L 1865,2906 L 1876,2893 L 1889,2884 L 1904,2877 L 1920,2874 L 1937,2874 L 1953,2877 L 1968,2884 L 1981,2893 L 1992,2906 L 2000,2920 L 2005,2936 L 2007,2952 L 2005,2968 L 2000,2984 L 1992,2998 L 1981,3010 L 1968,3020 L 1953,3027 L 1937,3030 L 1920,3030 L 1904,3027 L 1889,3020 L 1876,3010 L 1865,2998 L 1861,2991 L 1484,2991 L 1480,2998 L 1469,3010 L 1456,3020 L 1441,3027 L 1425,3030 L 1408,3030 L 1392,3027 L 1377,3020 L 1364,3010 L 1353,2998 L 1345,2984 L 1340,2968 L 1338,2952 L 1340,2936 L 1345,2920 L 1353,2906 L 1364,2893 L 1377,2884 L 1392,2877 L 1408,2874 L 1425,2874 L 1437,2876 L 1456,2857 L 1456,2361 L 1430,2361 L 1430,2377 L 1154,2346 L 1154,2220 L 1430,2188 L 1430,2204 L 1456,2204 L 1456,2046 L 1457,2039 L 1459,2031 L 1463,2024 L 1468,2018 L 1472,2014 L 1472,2010 L 1473,1998 L 1477,1986 L 1483,1975 L 1491,1966 L 1502,1958 L 1513,1953 L 1525,1951 L 1538,1951 L 1550,1953 L 1562,1958 L 1572,1966 L 1580,1975 L 1586,1986 L 1590,1998 L 1592,2010 L 1590,2023 L 1586,2035 L 1580,2046 L 1572,2055 L 1562,2062 L 1550,2067 L 1538,2070 L 1535,2070 L 1535,2204 L 1574,2204 L 1574,2243 z " style="fill-opacity:1.000000;fill:rgb(164,27,19);stroke:rgb(0,0,0);stroke-width:2"/></g>
<g fill-rule="evenodd"><path d="M 6543,3807 L 6367,3807 L 6367,3632 L 6416,3632 L 6416,3534 L 6410,3536 L 6402,3537 L 5856,3537 L 5856,3576 L 5712,3576 L 5712,3592 L 5436,3560 L 5436,3434 L 5712,3403 L 5712,3419 L 5738,3419 L 5738,3182 L 5712,3182 L 5712,3198 L 5436,3167 L 5436,3041 L 5712,3009 L 5712,3025 L 5738,3025 L 5738,2789 L 5712,2789 L 5712,2804 L 5436,2773 L 5436,2647 L 5712,2616 L 5712,2631 L 5738,2631 L 5738,2089 L 5733,2085 L 5722,2073 L 5714,2059 L 5709,2043 L 5707,2027 L 5709,2010 L 5714,1995 L 5722,1981 L 5733,1968 L 5747,1959 L 5762,1952 L 5778,1949 L 5794,1949 L 5811,1952 L 5826,1959 L 5839,1968 L 5850,1981 L 5858,1995 L 5863,2010 L 5865,2027 L 5863,2043 L 5858,2059 L 5850,2073 L 5839,2085 L 5826,2095 L 5817,2099 L 5817,2631 L 5856,2631 L 5856,2789 L 5817,2789 L 5817,3025 L 5856,3025 L 5856,3182 L 5817,3182 L 5817,3419 L 5856,3419 L 5856,3458 L 6378,3458 L 6377,3444 L 6378,3428 L 6383,3412 L 6392,3398 L 6403,3385 L 6416,3376 L 6431,3369 L 6447,3366 L 6464,3366 L 6480,3369 L 6495,3376 L 6508,3385 L 6519,3398 L 6527,3412 L 6532,3428 L 6534,3444 L 6532,3460 L 6527,3476 L 6519,3490 L 6508,3502 L 6495,3512 L 6495,3632 L 6543,3632 L 6543,3807 z " style="fill-opacity:1.000000;fill:rgb(181,202,78);stroke:rgb(0,0,0);stroke-width:2"/></g>
<g fill-rule="evenodd"><path d="M 5867,511 L 6301,511 L 6172,382 L 6167,376 L 6163,369 L 6161,361 L 6160,354 L 6160,206 L 6112,206 L 6112,30 L 6288,30 L 6288,206 L 6239,206 L 6239,337 L 6435,534 L 6447,531 L 6464,531 L 6475,534 L 6573,436 L 6573,206 L 6525,206 L 6525,30 L 6701,30 L 6701,206 L 6652,206 L 6652,452 L 6651,460 L 6649,467 L 6646,474 L 6641,480 L 6531,590 L 6532,593 L 6534,610 L 6532,626 L 6527,642 L 6519,656 L 6508,668 L 6495,678 L 6480,685 L 6464,688 L 6447,688 L 6431,685 L 6416,678 L 6403,668 L 6392,656 L 6383,642 L 6378,626 L 6377,610 L 6378,593 L 6379,590 L 5867,590 L 5867,629 L 5827,629 L 5827,852 L 5867,852 L 5867,1009 L 5827,1009 L 5827,1259 L 5867,1259 L 5867,1417 L 5722,1417 L 5722,1432 L 5446,1401 L 5446,1275 L 5722,1244 L 5722,1259 L 5749,1259 L 5749,1009 L 5722,1009 L 5722,1025 L 5446,994 L 5446,868 L 5722,836 L 5722,852 L 5749,852 L 5749,629 L 5722,629 L 5722,645 L 5446,614 L 5446,488 L 5722,456 L 5722,472 L 5867,472 L 5867,511 z " style="fill-opacity:1.000000;fill:rgb(232,152,50);stroke:rgb(0,0,0);stroke-width:2"/></g>
</svg>
