<?xml version="1.0" standalone="no"?>
<!DOCTYPE svg PUBLIC "-//W3C//DTD SVG 1.1//EN"
"http://www.w3.org/Graphics/SVG/1.1/DTD/svg11.dtd">
<svg width="7874" height="3937" viewBox="0 0 7874 3937" version="1.1"
xmlns="http://www.w3.org/2000/svg"
xmlns:xlink="http://www.w3.org/1999/xlink">
<g fill-rule="evenodd"><path d="M 7332,2852 L 7254,2852 L 7251,2851 L 7249,2851 L 7247,2849 L 7245,2848 L 7243,2846 L 7242,2843 L 7242,2841 L 7242,2839 L 7242,2836 L 7243,2834 L 7245,2832 L 7247,2830 L 7249,2829 L 7251,2828 L 7254,2828 L 7332,2828 L 7335,2828 L 7337,2829 L 7339,2830 L 7341,2832 L 7343,2834 L 7344,2836 L 7344,2839 L 7344,2841 L 7344,2843 L 7343,2846 L 7341,2848 L 7339,2849 L 7337,2851 L 7335,2851 L 7332,2852 z " style="fill-opacity:1.000000;fill:rgb(103,198,105);stroke:rgb(0,0,0);stroke-width:2"/></g>
<g fill-rule="evenodd"><path d="M 7533,1206 L 7454,1206 L 7452,1206 L 7450,1205 L 7448,1204 L 7446,1203 L 7444,1201 L 7443,1198 L 7443,1196 L 7443,1193 L 7443,1191 L 7444,1189 L 7446,1187 L 7448,1185 L 7450,1184 L 7452,1183 L 7454,1183 L 7533,1183 L 7536,1183 L 7538,1184 L 7540,1185 L 7542,1187 L 7543,1189 L 7544,1191 L 7545,1193 L 7545,1196 L 7544,1198 L 7543,1201 L 7542,1203 L 7540,1204 L 7538,1205 L 7536,1206 L 7533,1206 z " style="fill-opacity:1.000000;fill:rgb(115,81,255);stroke:rgb(0,0,0);stroke-width:2"/></g>
<g fill-rule="evenodd"><path d="M 1267,528 L 1290,552 L 1292,554 L 1293,556 L 1294,558 L 1294,561 L 1293,563 L 1293,565 L 1291,567 L 1289,569 L 1287,571 L 1285,571 L 1283,572 L 1280,572 L 1278,571 L 1276,570 L 1274,568 L 1250,545 L 1227,568 L 1225,570 L 1223,571 L 1220,572 L 1218,572 L 1215,571 L 1213,571 L 1211,569 L 1209,567 L 1208,565 L 1207,563 L 1207,561 L 1207,558 L 1207,556 L 1208,554 L 1210,552 L 1233,528 L 1210,505 L 1208,503 L 1207,501 L 1207,498 L 1207,496 L 1207,493 L 1208,491 L 1209,489 L 1211,487 L 1213,486 L 1215,485 L 1218,485 L 1220,485 L 1223,485 L 1225,486 L 1227,488 L 1250,512 L 1274,488 L 1276,486 L 1278,485 L 1280,485 L 1283,485 L 1285,485 L 1287,486 L 1289,487 L 1291,489 L 1293,491 L 1293,493 L 1294,496 L 1294,498 L 1293,501 L 1292,503 L 1290,505 L 1267,528 z " style="fill-opacity:1.000000;fill:rgb(74,236,41);stroke:rgb(0,0,0);stroke-width:2"/></g>
<g fill-rule="evenodd"><path d="M 1078,690 L 1118,769 L 1118,772 L 1119,774 L 1119,777 L 1118,779 L 1117,781 L 1115,783 L 1113,785 L 1111,786 L 1109,786 L 1106,787 L 1104,786 L 1102,785 L 1100,784 L 1098,782 L 1096,780 L 1041,669 L 1040,666 L 1040,664 L 1040,662 L 1040,659 L 1041,657 L 1043,655 L 1045,654 L 1047,652 L 1049,652 L 1052,652 L 1054,652 L 1057,653 L 1168,709 L 1170,710 L 1172,712 L 1173,714 L 1174,716 L 1174,718 L 1174,721 L 1174,723 L 1173,725 L 1171,727 L 1169,729 L 1167,730 L 1165,731 L 1162,731 L 1160,731 L 1157,730 L 1078,690 z " style="fill-opacity:1.000000;fill:rgb(205,186,171);stroke:rgb(0,0,0);stroke-width:2"/></g>
<g fill-rule="evenodd"><path d="M 1138,623 L 1139,625 L 1140,622 L 1142,619 L 1158,603 L 1160,602 L 1163,601 L 1177,596 L 1187,596 L 1190,597 L 1204,601 L 1207,603 L 1227,623 L 1229,626 L 1230,628 L 1234,642 L 1234,651 L 1234,655 L 1229,669 L 1227,672 L 1211,688 L 1208,690 L 1192,695 L 1181,695 L 1167,691 L 1164,689 L 1130,655 L 1116,632 L 1111,610 L 1111,608 L 1111,598 L 1116,584 L 1117,581 L 1134,564 L 1136,562 L 1139,561 L 1141,560 L 1143,560 L 1146,561 L 1148,561 L 1150,563 L 1152,565 L 1153,567 L 1154,569 L 1155,571 L 1154,574 L 1154,576 L 1153,578 L 1151,580 L 1137,594 L 1135,602 L 1135,607 L 1138,623M 1208,638 L 1192,622 L 1185,620 L 1181,620 L 1173,622 L 1161,634 L 1159,641 L 1159,646 L 1161,653 L 1177,669 L 1185,672 L 1189,672 L 1196,669 L 1208,657 L 1211,650 L 1211,645 L 1208,638 z " style="fill-opacity:1.000000;fill:rgb(242,251,227);stroke:rgb(0,0,0);stroke-width:2"/></g>
<g fill-rule="evenodd"><path d="M 2935,276 L 2935,202 L 2935,200 L 2936,197 L 2937,195 L 2939,193 L 2941,192 L 2943,191 L 2945,190 L 2948,190 L 2950,191 L 2953,192 L 2955,193 L 2956,195 L 2957,197 L 2958,200 L 2958,202 L 2958,320 L 2958,322 L 2957,325 L 2956,327 L 2955,329 L 2953,330 L 2951,331 L 2948,332 L 2946,332 L 2944,332 L 2942,331 L 2939,329 L 2938,328 L 2936,326 L 2891,246 L 2891,320 L 2891,323 L 2890,325 L 2889,327 L 2887,329 L 2885,330 L 2883,331 L 2880,332 L 2878,332 L 2875,331 L 2873,330 L 2871,329 L 2870,327 L 2868,325 L 2868,323 L 2867,320 L 2867,202 L 2868,200 L 2868,197 L 2869,195 L 2871,193 L 2873,192 L 2875,191 L 2877,190 L 2880,190 L 2882,191 L 2884,191 L 2886,193 L 2888,194 L 2889,196 L 2935,276 z " style="fill-opacity:1.000000;fill:rgb(70,124,194);stroke:rgb(0,0,0);stroke-width:2"/></g>
<g fill-rule="evenodd"><path d="M 2825,190 L 2827,191 L 2829,192 L 2832,194 L 2834,197 L 2835,201 L 2835,320 L 2834,322 L 2834,325 L 2833,327 L 2831,328 L 2829,330 L 2827,331 L 2825,332 L 2823,332 L 2793,332 L 2774,326 L 2771,324 L 2758,312 L 2756,308 L 2750,296 L 2744,272 L 2744,269 L 2744,253 L 2744,250 L 2750,226 L 2756,214 L 2758,210 L 2771,198 L 2774,196 L 2793,190 L 2825,190M 2772,288 L 2776,296 L 2784,304 L 2797,308 L 2811,308 L 2811,214 L 2797,214 L 2784,218 L 2776,226 L 2772,234 L 2767,254 L 2767,268 L 2772,288 z " style="fill-opacity:1.000000;fill:rgb(84,248,27);stroke:rgb(0,0,0);stroke-width:2"/></g>
<g fill-rule="evenodd"><path d="M 3054,288 L 3059,268 L 3059,254 L 3054,234 L 3049,226 L 3041,218 L 3029,214 L 3022,214 L 3009,218 L 3009,241 L 3020,241 L 3022,241 L 3025,242 L 3027,243 L 3029,245 L 3030,247 L 3031,249 L 3031,251 L 3031,254 L 3031,256 L 3030,258 L 3029,260 L 3027,262 L 3025,263 L 3022,264 L 3020,264 L 2997,264 L 2995,264 L 2993,264 L 2991,262 L 2989,261 L 2987,259 L 2986,257 L 2986,255 L 2985,253 L 2985,213 L 2986,211 L 2986,209 L 2987,207 L 2989,205 L 2996,198 L 2999,196 L 3016,191 L 3020,190 L 3033,190 L 3052,196 L 3055,198 L 3069,212 L 3076,226 L 3082,251 L 3082,269 L 3082,272 L 3076,296 L 3070,308 L 3067,312 L 3056,323 L 3053,325 L 3033,332 L 3012,332 L 3009,331 L 2998,325 L 2996,324 L 2994,322 L 2992,320 L 2991,318 L 2991,315 L 2991,313 L 2992,310 L 2993,308 L 2994,306 L 2996,305 L 2999,303 L 3001,303 L 3003,303 L 3006,303 L 3008,304 L 3017,308 L 3029,308 L 3041,304 L 3049,296 L 3054,288 z " style="fill-opacity:1.000000;fill:rgb(232,231,141);stroke:rgb(0,0,0);stroke-width:2"/></g>
<g fill-rule="evenodd"><path d="M 7466,1631 L 7466,1647 L 7471,1656 L 7472,1659 L 7472,1661 L 7472,1663 L 7471,1666 L 7470,1668 L 7468,1670 L 7466,1671 L 7464,1673 L 7462,1673 L 7459,1673 L 7457,1673 L 7455,1672 L 7453,1671 L 7451,1669 L 7450,1667 L 7444,1656 L 7443,1652 L 7443,1626 L 7444,1622 L 7450,1611 L 7452,1608 L 7455,1606 L 7466,1600 L 7470,1599 L 7533,1599 L 7536,1599 L 7538,1600 L 7540,1601 L 7542,1603 L 7543,1605 L 7544,1607 L 7545,1610 L 7545,1612 L 7544,1615 L 7544,1616 L 7544,1619 L 7545,1622 L 7545,1650 L 7544,1654 L 7537,1668 L 7536,1670 L 7533,1672 L 7522,1678 L 7518,1679 L 7505,1679 L 7502,1678 L 7489,1672 L 7486,1670 L 7483,1667 L 7478,1656 L 7477,1654 L 7476,1650 L 7476,1625 L 7475,1623 L 7474,1623 L 7469,1625 L 7466,1631M 7500,1647 L 7503,1653 L 7508,1655 L 7514,1655 L 7519,1653 L 7521,1647 L 7521,1625 L 7520,1623 L 7500,1623 L 7500,1647 z " style="fill-opacity:1.000000;fill:rgb(118,90,46);stroke:rgb(0,0,0);stroke-width:2"/></g>
<g fill-rule="evenodd"><path d="M 7669,1645 L 7705,1662 L 7707,1663 L 7709,1665 L 7711,1667 L 7712,1669 L 7712,1672 L 7712,1674 L 7712,1676 L 7711,1679 L 7709,1681 L 7707,1682 L 7705,1683 L 7669,1700 L 7734,1700 L 7736,1701 L 7739,1701 L 7741,1703 L 7743,1704 L 7744,1706 L 7745,1708 L 7746,1711 L 7746,1713 L 7745,1716 L 7744,1718 L 7743,1720 L 7741,1722 L 7739,1723 L 7736,1724 L 7734,1724 L 7616,1724 L 7613,1724 L 7611,1723 L 7609,1722 L 7607,1720 L 7606,1718 L 7605,1716 L 7604,1713 L 7604,1711 L 7605,1709 L 7606,1706 L 7607,1704 L 7609,1703 L 7611,1701 L 7672,1673 L 7611,1644 L 7609,1643 L 7607,1641 L 7606,1639 L 7605,1637 L 7604,1634 L 7604,1632 L 7605,1630 L 7606,1627 L 7607,1625 L 7609,1624 L 7611,1623 L 7613,1622 L 7616,1622 L 7734,1622 L 7736,1622 L 7739,1623 L 7741,1624 L 7743,1625 L 7744,1627 L 7745,1630 L 7746,1632 L 7746,1635 L 7745,1637 L 7744,1639 L 7743,1641 L 7741,1643 L 7739,1644 L 7736,1645 L 7734,1645 L 7669,1645 z " style="fill-opacity:1.000000;fill:rgb(99,51,159);stroke:rgb(0,0,0);stroke-width:2"/></g>
<g fill-rule="evenodd"><path d="M 7466,2716 L 7470,2723 L 7471,2724 L 7533,2724 L 7536,2724 L 7538,2725 L 7540,2726 L 7542,2728 L 7543,2730 L 7544,2732 L 7545,2734 L 7545,2737 L 7544,2739 L 7543,2742 L 7542,2744 L 7540,2745 L 7538,2747 L 7536,2747 L 7533,2748 L 7454,2748 L 7452,2747 L 7450,2747 L 7448,2745 L 7446,2744 L 7444,2742 L 7443,2739 L 7443,2737 L 7443,2734 L 7443,2732 L 7444,2730 L 7446,2728 L 7444,2724 L 7443,2721 L 7443,2700 L 7444,2697 L 7450,2685 L 7444,2674 L 7443,2670 L 7443,2650 L 7444,2646 L 7450,2635 L 7452,2632 L 7455,2630 L 7466,2624 L 7470,2623 L 7533,2623 L 7536,2623 L 7538,2624 L 7540,2625 L 7542,2627 L 7543,2629 L 7544,2631 L 7545,2633 L 7545,2636 L 7544,2638 L 7543,2640 L 7542,2642 L 7540,2644 L 7538,2645 L 7536,2646 L 7533,2646 L 7474,2646 L 7469,2649 L 7466,2654 L 7466,2665 L 7469,2671 L 7474,2673 L 7533,2673 L 7536,2674 L 7538,2674 L 7540,2676 L 7542,2677 L 7543,2679 L 7544,2681 L 7545,2684 L 7545,2686 L 7544,2689 L 7543,2691 L 7542,2693 L 7540,2695 L 7538,2696 L 7536,2697 L 7533,2697 L 7474,2697 L 7469,2700 L 7466,2705 L 7466,2716 z " style="fill-opacity:1.000000;fill:rgb(201,154,102);stroke:rgb(0,0,0);stroke-width:2"/></g>
<g fill-rule="evenodd"><path d="M 7266,2925 L 7325,2881 L 7327,2880 L 7330,2879 L 7332,2879 L 7335,2879 L 7337,2880 L 7339,2881 L 7341,2882 L 7343,2884 L 7344,2887 L 7344,2889 L 7344,2891 L 7344,2894 L 7343,2896 L 7341,2898 L 7340,2900 L 7283,2942 L 7287,2946 L 7332,2946 L 7335,2946 L 7337,2947 L 7339,2948 L 7341,2950 L 7343,2952 L 7344,2954 L 7344,2957 L 7344,2959 L 7344,2962 L 7343,2964 L 7341,2966 L 7339,2967 L 7337,2969 L 7335,2969 L 7332,2970 L 7214,2970 L 7212,2969 L 7210,2969 L 7207,2967 L 7206,2966 L 7204,2964 L 7203,2962 L 7203,2959 L 7203,2957 L 7203,2954 L 7204,2952 L 7206,2950 L 7207,2948 L 7210,2947 L 7212,2946 L 7214,2946 L 7253,2946 L 7206,2899 L 7204,2897 L 7203,2895 L 7203,2892 L 7203,2890 L 7203,2887 L 7204,2885 L 7205,2883 L 7207,2881 L 7209,2880 L 7211,2879 L 7214,2879 L 7216,2879 L 7219,2879 L 7221,2880 L 7223,2882 L 7266,2925 z " style="fill-opacity:1.000000;fill:rgb(50,13,183);stroke:rgb(0,0,0);stroke-width:2"/></g>
<g fill-rule="evenodd"><path d="M 7237,2841 L 7236,2844 L 7235,2846 L 7228,2854 L 7227,2855 L 7224,2856 L 7222,2857 L 7220,2857 L 7218,2857 L 7215,2856 L 7213,2855 L 7206,2848 L 7205,2846 L 7203,2844 L 7203,2842 L 7203,2839 L 7203,2837 L 7205,2833 L 7212,2826 L 7213,2824 L 7215,2823 L 7218,2823 L 7220,2822 L 7222,2823 L 7224,2823 L 7227,2824 L 7234,2832 L 7236,2834 L 7237,2836 L 7237,2839 L 7237,2841 z " style="fill-opacity:1.000000;fill:rgb(49,88,163);stroke:rgb(0,0,0);stroke-width:2"/></g>
<g fill-rule="evenodd"><path d="M 7247,2772 L 7266,2777 L 7280,2777 L 7300,2772 L 7309,2768 L 7316,2760 L 7321,2748 L 7321,2740 L 7316,2728 L 7313,2724 L 7311,2722 L 7310,2720 L 7310,2718 L 7309,2715 L 7310,2713 L 7311,2711 L 7312,2709 L 7314,2707 L 7316,2706 L 7318,2705 L 7321,2704 L 7323,2704 L 7325,2705 L 7328,2706 L 7330,2708 L 7336,2715 L 7338,2718 L 7344,2735 L 7344,2739 L 7344,2752 L 7338,2770 L 7336,2774 L 7322,2787 L 7308,2795 L 7283,2801 L 7264,2801 L 7238,2795 L 7226,2788 L 7223,2786 L 7212,2775 L 7209,2772 L 7203,2752 L 7203,2737 L 7209,2716 L 7212,2713 L 7219,2706 L 7221,2705 L 7224,2704 L 7226,2704 L 7229,2705 L 7231,2706 L 7233,2707 L 7235,2709 L 7236,2711 L 7237,2713 L 7237,2715 L 7237,2718 L 7237,2720 L 7235,2722 L 7230,2728 L 7226,2740 L 7226,2748 L 7230,2760 L 7238,2768 L 7247,2772 z " style="fill-opacity:1.000000;fill:rgb(90,37,93);stroke:rgb(0,0,0);stroke-width:2"/></g>
<g fill-rule="evenodd"><path d="M 7482,2988 L 7482,2981 L 7483,2978 L 7484,2976 L 7486,2974 L 7488,2973 L 7490,2972 L 7493,2971 L 7495,2971 L 7498,2972 L 7500,2973 L 7502,2974 L 7503,2976 L 7505,2978 L 7505,2981 L 7506,2988 L 7533,2988 L 7536,2989 L 7538,2989 L 7540,2991 L 7542,2992 L 7543,2994 L 7544,2996 L 7545,2999 L 7545,3001 L 7544,3004 L 7543,3006 L 7542,3008 L 7540,3010 L 7538,3011 L 7536,3012 L 7533,3012 L 7506,3012 L 7506,3056 L 7505,3059 L 7505,3061 L 7504,3063 L 7502,3064 L 7501,3066 L 7499,3067 L 7497,3068 L 7495,3068 L 7492,3068 L 7490,3068 L 7406,3039 L 7404,3038 L 7402,3037 L 7400,3035 L 7399,3033 L 7398,3031 L 7398,3028 L 7398,3026 L 7399,3023 L 7400,3021 L 7402,3019 L 7404,3018 L 7406,3017 L 7408,3016 L 7411,3016 L 7413,3017 L 7482,3040 L 7482,3012 L 7454,3012 L 7452,3012 L 7450,3011 L 7448,3010 L 7446,3008 L 7444,3006 L 7443,3004 L 7443,3001 L 7443,2999 L 7443,2996 L 7444,2994 L 7446,2992 L 7448,2991 L 7450,2989 L 7452,2989 L 7454,2988 L 7482,2988 z " style="fill-opacity:1.000000;fill:rgb(5,23,88);stroke:rgb(0,0,0);stroke-width:2"/></g>
<g fill-rule="evenodd"><path d="M 7404,2921 L 7404,2919 L 7403,2916 L 7403,2903 L 7405,2899 L 7410,2888 L 7412,2885 L 7419,2878 L 7432,2871 L 7435,2870 L 7459,2865 L 7490,2865 L 7514,2870 L 7516,2871 L 7529,2878 L 7536,2885 L 7538,2888 L 7544,2899 L 7545,2903 L 7545,2916 L 7544,2919 L 7537,2934 L 7530,2941 L 7527,2943 L 7515,2949 L 7490,2956 L 7459,2956 L 7434,2949 L 7421,2943 L 7418,2941 L 7411,2934 L 7404,2921M 7507,2893 L 7487,2888 L 7462,2888 L 7442,2893 L 7433,2897 L 7430,2900 L 7427,2907 L 7427,2913 L 7430,2920 L 7433,2923 L 7442,2927 L 7462,2932 L 7487,2932 L 7507,2927 L 7515,2923 L 7518,2920 L 7521,2913 L 7521,2907 L 7518,2900 L 7515,2897 L 7507,2893 z " style="fill-opacity:1.000000;fill:rgb(233,94,212);stroke:rgb(0,0,0);stroke-width:2"/></g>
<g fill-rule="evenodd"><path d="M 7311,2623 L 7311,2663 L 7336,2671 L 7338,2672 L 7340,2674 L 7342,2675 L 7343,2678 L 7344,2680 L 7344,2682 L 7344,2685 L 7343,2687 L 7342,2689 L 7340,2691 L 7338,2693 L 7336,2694 L 7334,2694 L 7331,2694 L 7329,2693 L 7211,2654 L 7208,2653 L 7206,2652 L 7205,2650 L 7204,2648 L 7203,2645 L 7203,2643 L 7203,2640 L 7204,2638 L 7205,2636 L 7206,2634 L 7208,2633 L 7211,2632 L 7329,2592 L 7331,2592 L 7334,2592 L 7336,2592 L 7338,2593 L 7340,2595 L 7342,2597 L 7343,2599 L 7344,2601 L 7344,2603 L 7344,2606 L 7343,2608 L 7342,2610 L 7340,2612 L 7338,2614 L 7336,2615 L 7311,2623M 7287,2631 L 7252,2643 L 7287,2655 L 7287,2631 z " style="fill-opacity:1.000000;fill:rgb(171,178,205);stroke:rgb(0,0,0);stroke-width:2"/></g>
<g fill-rule="evenodd"><path d="M 7344,2566 L 7344,2568 L 7343,2570 L 7340,2573 L 7337,2575 L 7334,2576 L 7214,2576 L 7212,2576 L 7210,2575 L 7208,2574 L 7206,2573 L 7205,2571 L 7203,2569 L 7203,2566 L 7203,2564 L 7203,2534 L 7209,2515 L 7210,2512 L 7223,2500 L 7226,2497 L 7238,2491 L 7262,2485 L 7265,2485 L 7282,2485 L 7285,2485 L 7308,2491 L 7321,2497 L 7324,2500 L 7336,2512 L 7338,2515 L 7344,2534 L 7344,2566M 7321,2538 L 7316,2526 L 7309,2518 L 7300,2513 L 7280,2508 L 7266,2508 L 7247,2513 L 7238,2518 L 7230,2526 L 7226,2538 L 7226,2552 L 7321,2552 L 7321,2538 z " style="fill-opacity:1.000000;fill:rgb(198,155,180);stroke:rgb(0,0,0);stroke-width:2"/></g>
<g fill-rule="evenodd"><path d="M 7504,2572 L 7514,2572 L 7519,2569 L 7521,2564 L 7521,2547 L 7517,2539 L 7516,2536 L 7516,2534 L 7516,2531 L 7517,2529 L 7518,2527 L 7519,2525 L 7521,2523 L 7523,2522 L 7526,2522 L 7528,2521 L 7531,2522 L 7533,2523 L 7535,2524 L 7537,2526 L 7538,2528 L 7544,2539 L 7545,2543 L 7545,2567 L 7544,2571 L 7538,2584 L 7536,2587 L 7533,2589 L 7522,2594 L 7520,2595 L 7516,2596 L 7470,2596 L 7466,2594 L 7455,2589 L 7452,2587 L 7450,2584 L 7444,2572 L 7443,2569 L 7443,2544 L 7443,2541 L 7444,2539 L 7450,2528 L 7452,2525 L 7455,2523 L 7466,2517 L 7470,2516 L 7483,2516 L 7485,2516 L 7487,2517 L 7489,2518 L 7491,2519 L 7492,2521 L 7494,2523 L 7494,2525 L 7504,2572M 7469,2542 L 7466,2547 L 7466,2564 L 7469,2569 L 7474,2572 L 7479,2572 L 7473,2540 L 7469,2542 z " style="fill-opacity:1.000000;fill:rgb(84,17,14);stroke:rgb(0,0,0);stroke-width:2"/></g>
<g fill-rule="evenodd"><path d="M 7443,2465 L 7443,2449 L 7443,2446 L 7444,2444 L 7445,2442 L 7447,2440 L 7449,2439 L 7451,2438 L 7453,2437 L 7456,2437 L 7458,2438 L 7460,2439 L 7462,2440 L 7464,2442 L 7465,2444 L 7466,2446 L 7466,2449 L 7466,2465 L 7514,2465 L 7519,2463 L 7521,2457 L 7521,2449 L 7522,2446 L 7522,2444 L 7524,2442 L 7525,2440 L 7527,2439 L 7530,2438 L 7532,2437 L 7534,2437 L 7537,2438 L 7539,2439 L 7541,2440 L 7543,2442 L 7544,2444 L 7545,2446 L 7545,2449 L 7545,2460 L 7544,2464 L 7538,2477 L 7536,2480 L 7535,2481 L 7522,2488 L 7518,2489 L 7466,2489 L 7466,2496 L 7465,2499 L 7464,2501 L 7462,2503 L 7460,2504 L 7458,2505 L 7456,2506 L 7453,2506 L 7451,2505 L 7449,2504 L 7447,2503 L 7445,2501 L 7444,2499 L 7443,2496 L 7443,2489 L 7415,2489 L 7413,2489 L 7410,2488 L 7408,2487 L 7406,2485 L 7405,2483 L 7404,2481 L 7403,2478 L 7403,2476 L 7404,2473 L 7405,2471 L 7406,2469 L 7408,2467 L 7410,2466 L 7413,2465 L 7415,2465 L 7443,2465 z " style="fill-opacity:1.000000;fill:rgb(130,116,65);stroke:rgb(0,0,0);stroke-width:2"/></g>
<g fill-rule="evenodd"><path d="M 7521,2395 L 7521,2379 L 7517,2370 L 7516,2367 L 7516,2365 L 7516,2363 L 7517,2360 L 7518,2358 L 7519,2356 L 7521,2355 L 7523,2353 L 7526,2353 L 7528,2353 L 7531,2353 L 7533,2354 L 7535,2355 L 7537,2357 L 7538,2359 L 7544,2370 L 7545,2374 L 7545,2400 L 7544,2404 L 7538,2415 L 7536,2418 L 7533,2420 L 7522,2426 L 7518,2427 L 7471,2427 L 7468,2426 L 7455,2420 L 7452,2418 L 7450,2415 L 7444,2404 L 7443,2402 L 7443,2398 L 7443,2376 L 7443,2372 L 7451,2358 L 7452,2356 L 7455,2354 L 7466,2348 L 7470,2347 L 7483,2347 L 7485,2347 L 7487,2348 L 7489,2349 L 7491,2351 L 7492,2352 L 7494,2354 L 7494,2357 L 7504,2403 L 7514,2403 L 7519,2401 L 7521,2395M 7469,2373 L 7466,2379 L 7466,2395 L 7469,2401 L 7474,2403 L 7479,2403 L 7473,2371 L 7469,2373 z " style="fill-opacity:1.000000;fill:rgb(33,61,220);stroke:rgb(0,0,0);stroke-width:2"/></g>
<g fill-rule="evenodd"><path d="M 7643,2403 L 7644,2380 L 7645,2376 L 7650,2365 L 7653,2362 L 7660,2355 L 7674,2348 L 7678,2347 L 7712,2347 L 7715,2348 L 7717,2348 L 7730,2355 L 7737,2362 L 7739,2365 L 7745,2378 L 7746,2381 L 7746,2404 L 7745,2407 L 7744,2410 L 7745,2411 L 7746,2414 L 7746,2416 L 7745,2419 L 7744,2421 L 7743,2423 L 7741,2425 L 7739,2426 L 7736,2427 L 7734,2427 L 7616,2427 L 7613,2427 L 7611,2426 L 7609,2425 L 7607,2423 L 7606,2421 L 7605,2419 L 7604,2416 L 7604,2414 L 7605,2411 L 7606,2409 L 7607,2407 L 7609,2406 L 7611,2404 L 7613,2404 L 7616,2403 L 7643,2403M 7681,2371 L 7674,2374 L 7671,2377 L 7667,2384 L 7667,2401 L 7668,2403 L 7721,2403 L 7722,2401 L 7722,2384 L 7719,2377 L 7716,2374 L 7709,2371 L 7681,2371 z " style="fill-opacity:1.000000;fill:rgb(135,112,233);stroke:rgb(0,0,0);stroke-width:2"/></g>
<g fill-rule="evenodd"><path d="M 7495,1988 L 7536,1999 L 7539,2000 L 7541,2001 L 7542,2003 L 7544,2005 L 7545,2007 L 7545,2009 L 7545,2012 L 7544,2014 L 7543,2016 L 7542,2018 L 7540,2020 L 7538,2021 L 7536,2022 L 7418,2050 L 7415,2050 L 7413,2050 L 7411,2049 L 7408,2048 L 7407,2046 L 7405,2044 L 7404,2042 L 7403,2040 L 7403,2037 L 7404,2035 L 7405,2033 L 7406,2031 L 7408,2029 L 7410,2028 L 7412,2027 L 7485,2010 L 7446,1999 L 7444,1998 L 7442,1997 L 7440,1995 L 7439,1993 L 7438,1991 L 7437,1989 L 7437,1986 L 7438,1984 L 7439,1982 L 7440,1980 L 7442,1978 L 7444,1977 L 7446,1976 L 7485,1966 L 7412,1949 L 7410,1948 L 7408,1946 L 7406,1945 L 7405,1943 L 7404,1940 L 7403,1938 L 7403,1936 L 7404,1933 L 7405,1931 L 7407,1929 L 7408,1927 L 7411,1926 L 7413,1925 L 7415,1925 L 7418,1926 L 7536,1954 L 7538,1954 L 7540,1956 L 7542,1957 L 7543,1959 L 7544,1961 L 7545,1964 L 7545,1966 L 7545,1969 L 7544,1971 L 7542,1973 L 7541,1974 L 7539,1976 L 7536,1977 L 7495,1988 z " style="fill-opacity:1.000000;fill:rgb(62,161,65);stroke:rgb(0,0,0);stroke-width:2"/></g>
<g fill-rule="evenodd"><path d="M 7712,1974 L 7712,2013 L 7738,2021 L 7740,2022 L 7742,2024 L 7744,2026 L 7745,2028 L 7746,2030 L 7746,2033 L 7746,2035 L 7745,2038 L 7744,2040 L 7742,2042 L 7740,2043 L 7738,2044 L 7735,2044 L 7733,2044 L 7730,2044 L 7612,2005 L 7610,2003 L 7608,2002 L 7606,2000 L 7605,1998 L 7604,1996 L 7604,1993 L 7604,1991 L 7605,1989 L 7606,1986 L 7608,1985 L 7610,1983 L 7612,1982 L 7730,1943 L 7733,1942 L 7735,1942 L 7738,1943 L 7740,1944 L 7742,1945 L 7744,1947 L 7745,1949 L 7746,1951 L 7746,1954 L 7746,1956 L 7745,1959 L 7744,1961 L 7742,1963 L 7740,1964 L 7738,1965 L 7712,1974M 7688,1982 L 7653,1993 L 7688,2005 L 7688,1982 z " style="fill-opacity:1.000000;fill:rgb(225,252,103);stroke:rgb(0,0,0);stroke-width:2"/></g>
<g fill-rule="evenodd"><path d="M 7242,2317 L 7214,2317 L 7212,2317 L 7210,2316 L 7207,2315 L 7206,2313 L 7204,2311 L 7203,2309 L 7203,2307 L 7203,2304 L 7203,2302 L 7204,2300 L 7206,2298 L 7207,2296 L 7210,2295 L 7212,2294 L 7214,2294 L 7332,2294 L 7335,2294 L 7337,2295 L 7339,2296 L 7341,2298 L 7343,2300 L 7344,2302 L 7344,2304 L 7344,2307 L 7344,2309 L 7343,2311 L 7344,2313 L 7344,2317 L 7344,2339 L 7344,2343 L 7337,2356 L 7335,2359 L 7328,2366 L 7315,2372 L 7314,2373 L 7310,2374 L 7276,2374 L 7273,2373 L 7258,2366 L 7251,2359 L 7249,2356 L 7243,2344 L 7242,2341 L 7242,2317M 7279,2350 L 7307,2350 L 7314,2346 L 7317,2343 L 7321,2336 L 7321,2319 L 7320,2317 L 7267,2317 L 7266,2319 L 7266,2336 L 7269,2343 L 7272,2346 L 7279,2350 z " style="fill-opacity:1.000000;fill:rgb(62,1,126);stroke:rgb(0,0,0);stroke-width:2"/></g>
<g fill-rule="evenodd"><path d="M 7303,2243 L 7313,2243 L 7318,2240 L 7321,2235 L 7321,2218 L 7316,2210 L 7315,2207 L 7315,2205 L 7315,2202 L 7316,2200 L 7317,2198 L 7319,2196 L 7320,2194 L 7323,2193 L 7325,2193 L 7328,2192 L 7330,2193 L 7332,2194 L 7334,2195 L 7336,2197 L 7337,2199 L 7343,2210 L 7344,2214 L 7344,2238 L 7344,2242 L 7337,2254 L 7335,2258 L 7332,2260 L 7321,2265 L 7319,2266 L 7316,2267 L 7269,2267 L 7265,2265 L 7254,2260 L 7251,2258 L 7249,2254 L 7243,2243 L 7242,2242 L 7242,2238 L 7242,2214 L 7243,2210 L 7249,2199 L 7251,2196 L 7254,2194 L 7265,2188 L 7269,2187 L 7282,2187 L 7284,2187 L 7286,2188 L 7288,2189 L 7290,2190 L 7292,2192 L 7293,2194 L 7293,2196 L 7303,2243M 7272,2211 L 7268,2213 L 7266,2218 L 7266,2235 L 7268,2240 L 7273,2243 L 7279,2243 L 7272,2211 z " style="fill-opacity:1.000000;fill:rgb(151,234,220);stroke:rgb(0,0,0);stroke-width:2"/></g>
<g fill-rule="evenodd"><path d="M 7266,2078 L 7268,2083 L 7273,2086 L 7332,2086 L 7335,2086 L 7337,2087 L 7339,2088 L 7341,2089 L 7343,2091 L 7344,2094 L 7344,2096 L 7344,2099 L 7344,2101 L 7343,2103 L 7341,2105 L 7339,2107 L 7337,2108 L 7335,2109 L 7332,2109 L 7273,2109 L 7268,2112 L 7266,2117 L 7266,2128 L 7269,2135 L 7270,2136 L 7332,2136 L 7335,2136 L 7337,2137 L 7339,2138 L 7341,2140 L 7343,2142 L 7344,2144 L 7344,2147 L 7344,2149 L 7344,2152 L 7343,2154 L 7341,2156 L 7339,2158 L 7337,2159 L 7335,2160 L 7332,2160 L 7254,2160 L 7251,2160 L 7249,2159 L 7247,2158 L 7245,2156 L 7243,2154 L 7242,2152 L 7242,2149 L 7242,2147 L 7242,2144 L 7243,2142 L 7245,2140 L 7242,2135 L 7242,2131 L 7242,2112 L 7243,2109 L 7249,2097 L 7243,2086 L 7242,2082 L 7242,2062 L 7243,2058 L 7249,2047 L 7251,2044 L 7254,2042 L 7265,2036 L 7269,2035 L 7271,2035 L 7332,2035 L 7335,2035 L 7337,2036 L 7339,2037 L 7341,2039 L 7343,2041 L 7344,2043 L 7344,2046 L 7344,2048 L 7344,2050 L 7343,2053 L 7341,2055 L 7339,2056 L 7337,2058 L 7335,2058 L 7332,2059 L 7273,2059 L 7268,2061 L 7266,2066 L 7266,2078 z " style="fill-opacity:1.000000;fill:rgb(107,150,143);stroke:rgb(0,0,0);stroke-width:2"/></g>
<g fill-rule="evenodd"><path d="M 7470,2290 L 7473,2293 L 7480,2296 L 7533,2296 L 7536,2297 L 7538,2297 L 7540,2299 L 7542,2300 L 7543,2302 L 7544,2305 L 7545,2307 L 7545,2310 L 7544,2312 L 7543,2314 L 7542,2316 L 7540,2318 L 7538,2319 L 7536,2320 L 7533,2320 L 7454,2320 L 7452,2320 L 7450,2319 L 7448,2318 L 7446,2316 L 7444,2314 L 7443,2312 L 7443,2310 L 7443,2307 L 7443,2305 L 7444,2302 L 7446,2300 L 7448,2299 L 7443,2289 L 7443,2286 L 7443,2275 L 7443,2272 L 7444,2270 L 7445,2268 L 7447,2266 L 7449,2264 L 7451,2263 L 7453,2263 L 7456,2263 L 7458,2263 L 7460,2264 L 7462,2266 L 7464,2268 L 7465,2270 L 7466,2272 L 7466,2275 L 7466,2283 L 7470,2290 z " style="fill-opacity:1.000000;fill:rgb(56,92,42);stroke:rgb(0,0,0);stroke-width:2"/></g>
<g fill-rule="evenodd"><path d="M 7699,2291 L 7651,2274 L 7649,2273 L 7647,2272 L 7646,2270 L 7644,2268 L 7644,2265 L 7643,2263 L 7644,2260 L 7645,2258 L 7646,2256 L 7648,2254 L 7650,2253 L 7652,2252 L 7654,2251 L 7657,2252 L 7659,2252 L 7738,2280 L 7767,2292 L 7769,2293 L 7770,2294 L 7776,2300 L 7778,2303 L 7784,2314 L 7785,2317 L 7785,2319 L 7785,2321 L 7784,2324 L 7783,2326 L 7782,2328 L 7780,2329 L 7778,2331 L 7775,2331 L 7773,2331 L 7770,2331 L 7768,2330 L 7766,2329 L 7764,2327 L 7763,2325 L 7758,2315 L 7756,2313 L 7734,2304 L 7659,2331 L 7657,2331 L 7654,2331 L 7652,2331 L 7650,2330 L 7648,2329 L 7646,2327 L 7645,2325 L 7644,2322 L 7643,2320 L 7644,2317 L 7644,2315 L 7646,2313 L 7647,2311 L 7649,2309 L 7651,2308 L 7699,2291 z " style="fill-opacity:1.000000;fill:rgb(236,176,59);stroke:rgb(0,0,0);stroke-width:2"/></g>
<g fill-rule="evenodd"><path d="M 7467,2139 L 7481,2139 L 7501,2134 L 7509,2130 L 7517,2122 L 7521,2109 L 7521,2102 L 7517,2090 L 7514,2086 L 7512,2084 L 7511,2082 L 7510,2080 L 7510,2077 L 7511,2075 L 7511,2072 L 7513,2070 L 7515,2068 L 7517,2067 L 7519,2066 L 7521,2066 L 7524,2066 L 7526,2067 L 7528,2068 L 7530,2069 L 7536,2075 L 7538,2078 L 7545,2098 L 7545,2113 L 7538,2134 L 7536,2137 L 7525,2148 L 7522,2150 L 7509,2156 L 7485,2162 L 7483,2163 L 7464,2163 L 7439,2156 L 7425,2149 L 7411,2135 L 7410,2132 L 7403,2113 L 7403,2100 L 7404,2096 L 7410,2080 L 7410,2078 L 7412,2075 L 7420,2068 L 7422,2067 L 7425,2066 L 7427,2066 L 7429,2066 L 7432,2067 L 7434,2068 L 7436,2070 L 7437,2072 L 7438,2075 L 7438,2077 L 7438,2080 L 7437,2082 L 7436,2084 L 7435,2086 L 7431,2090 L 7427,2102 L 7427,2110 L 7431,2122 L 7439,2130 L 7447,2134 L 7467,2139 z " style="fill-opacity:1.000000;fill:rgb(251,50,175);stroke:rgb(0,0,0);stroke-width:2"/></g>
<g fill-rule="evenodd"><path d="M 7716,2082 L 7709,2078 L 7703,2078 L 7696,2082 L 7693,2085 L 7689,2093 L 7683,2116 L 7676,2130 L 7668,2138 L 7653,2145 L 7650,2146 L 7637,2146 L 7633,2144 L 7620,2138 L 7612,2130 L 7605,2115 L 7604,2111 L 7604,2081 L 7610,2063 L 7611,2060 L 7613,2058 L 7615,2057 L 7617,2056 L 7619,2055 L 7622,2055 L 7624,2055 L 7626,2056 L 7629,2057 L 7630,2059 L 7632,2061 L 7633,2063 L 7633,2065 L 7633,2068 L 7633,2070 L 7628,2085 L 7628,2109 L 7631,2116 L 7634,2119 L 7641,2122 L 7647,2122 L 7654,2119 L 7657,2116 L 7661,2107 L 7666,2086 L 7667,2084 L 7674,2071 L 7681,2064 L 7684,2061 L 7697,2055 L 7700,2055 L 7712,2055 L 7715,2055 L 7730,2062 L 7737,2069 L 7739,2072 L 7745,2084 L 7746,2087 L 7746,2117 L 7745,2121 L 7740,2138 L 7739,2140 L 7737,2142 L 7735,2144 L 7733,2145 L 7731,2145 L 7728,2146 L 7726,2145 L 7724,2145 L 7721,2143 L 7720,2142 L 7718,2140 L 7717,2137 L 7717,2135 L 7717,2133 L 7717,2130 L 7722,2115 L 7722,2092 L 7719,2085 L 7716,2082 z " style="fill-opacity:1.000000;fill:rgb(60,84,236);stroke:rgb(0,0,0);stroke-width:2"/></g>
<g fill-rule="evenodd"><path d="M 7242,1805 L 7231,1805 L 7228,1805 L 7215,1799 L 7212,1796 L 7210,1795 L 7204,1782 L 7203,1780 L 7203,1777 L 7203,1766 L 7203,1763 L 7204,1761 L 7205,1759 L 7206,1757 L 7208,1755 L 7211,1754 L 7213,1754 L 7216,1754 L 7218,1754 L 7220,1755 L 7222,1757 L 7224,1759 L 7225,1761 L 7226,1763 L 7226,1766 L 7226,1774 L 7229,1779 L 7234,1782 L 7242,1782 L 7242,1766 L 7242,1763 L 7243,1761 L 7244,1759 L 7246,1757 L 7248,1755 L 7250,1754 L 7252,1754 L 7255,1754 L 7257,1754 L 7260,1755 L 7262,1757 L 7263,1759 L 7264,1761 L 7265,1763 L 7266,1766 L 7266,1782 L 7332,1782 L 7335,1782 L 7337,1783 L 7339,1784 L 7341,1786 L 7343,1788 L 7344,1790 L 7344,1792 L 7344,1795 L 7344,1797 L 7343,1800 L 7341,1802 L 7339,1803 L 7337,1804 L 7335,1805 L 7332,1805 L 7266,1805 L 7265,1813 L 7264,1815 L 7263,1817 L 7262,1819 L 7260,1821 L 7257,1822 L 7255,1822 L 7252,1822 L 7250,1822 L 7248,1821 L 7246,1819 L 7244,1817 L 7243,1815 L 7242,1813 L 7242,1805 z " style="fill-opacity:1.000000;fill:rgb(24,219,92);stroke:rgb(0,0,0);stroke-width:2"/></g>
<g fill-rule="evenodd"><path d="M 7344,1974 L 7344,1976 L 7343,1978 L 7337,1990 L 7335,1993 L 7328,2000 L 7315,2007 L 7314,2007 L 7310,2008 L 7274,2008 L 7271,2007 L 7258,2000 L 7250,1992 L 7243,1979 L 7242,1975 L 7242,1955 L 7243,1951 L 7249,1940 L 7251,1937 L 7258,1930 L 7271,1924 L 7274,1923 L 7276,1922 L 7312,1923 L 7315,1924 L 7328,1930 L 7336,1939 L 7343,1951 L 7344,1955 L 7344,1974M 7307,1946 L 7279,1946 L 7272,1950 L 7269,1953 L 7266,1960 L 7266,1971 L 7269,1978 L 7272,1981 L 7279,1984 L 7307,1984 L 7314,1981 L 7317,1978 L 7321,1971 L 7321,1960 L 7317,1953 L 7314,1950 L 7307,1946 z " style="fill-opacity:1.000000;fill:rgb(2,26,254);stroke:rgb(0,0,0);stroke-width:2"/></g>
<g fill-rule="evenodd"><path d="M 7344,1710 L 7344,1712 L 7343,1714 L 7337,1726 L 7335,1729 L 7328,1736 L 7315,1742 L 7314,1743 L 7310,1744 L 7274,1743 L 7271,1742 L 7258,1736 L 7250,1727 L 7243,1715 L 7242,1711 L 7242,1691 L 7243,1687 L 7249,1676 L 7251,1673 L 7258,1666 L 7271,1659 L 7274,1658 L 7276,1658 L 7312,1658 L 7315,1659 L 7328,1666 L 7336,1674 L 7343,1687 L 7344,1691 L 7344,1710M 7279,1720 L 7307,1720 L 7314,1716 L 7317,1714 L 7321,1706 L 7321,1695 L 7317,1688 L 7314,1685 L 7307,1682 L 7279,1682 L 7272,1685 L 7269,1688 L 7266,1695 L 7266,1706 L 7269,1714 L 7272,1716 L 7279,1720 z " style="fill-opacity:1.000000;fill:rgb(67,251,250);stroke:rgb(0,0,0);stroke-width:2"/></g>
<g fill-rule="evenodd"><path d="M 7443,1814 L 7415,1814 L 7413,1814 L 7410,1813 L 7408,1812 L 7406,1810 L 7405,1808 L 7404,1806 L 7403,1803 L 7403,1801 L 7404,1798 L 7405,1796 L 7406,1794 L 7408,1793 L 7410,1791 L 7413,1791 L 7415,1790 L 7443,1790 L 7443,1774 L 7443,1772 L 7444,1769 L 7445,1767 L 7447,1765 L 7449,1764 L 7451,1763 L 7453,1762 L 7456,1762 L 7458,1763 L 7460,1764 L 7462,1765 L 7464,1767 L 7465,1769 L 7466,1772 L 7466,1774 L 7466,1790 L 7514,1790 L 7519,1788 L 7521,1782 L 7521,1774 L 7522,1772 L 7522,1769 L 7524,1767 L 7525,1765 L 7527,1764 L 7530,1763 L 7532,1762 L 7534,1762 L 7537,1763 L 7539,1764 L 7541,1765 L 7543,1767 L 7544,1769 L 7545,1772 L 7545,1774 L 7545,1787 L 7544,1790 L 7538,1802 L 7536,1805 L 7535,1806 L 7522,1813 L 7520,1813 L 7516,1814 L 7466,1814 L 7466,1821 L 7465,1824 L 7464,1826 L 7462,1828 L 7460,1829 L 7458,1830 L 7456,1831 L 7453,1831 L 7451,1830 L 7449,1829 L 7447,1828 L 7445,1826 L 7444,1824 L 7443,1821 L 7443,1814 z " style="fill-opacity:1.000000;fill:rgb(170,58,251);stroke:rgb(0,0,0);stroke-width:2"/></g>
<g fill-rule="evenodd"><path d="M 7628,1797 L 7628,1819 L 7627,1821 L 7627,1824 L 7625,1826 L 7624,1828 L 7622,1829 L 7620,1830 L 7617,1831 L 7615,1831 L 7612,1830 L 7610,1829 L 7608,1828 L 7606,1826 L 7605,1824 L 7604,1821 L 7604,1819 L 7604,1751 L 7604,1749 L 7605,1747 L 7606,1745 L 7608,1743 L 7610,1741 L 7612,1740 L 7615,1740 L 7617,1740 L 7620,1740 L 7622,1741 L 7624,1743 L 7625,1745 L 7627,1747 L 7627,1749 L 7628,1751 L 7628,1773 L 7734,1773 L 7736,1774 L 7739,1774 L 7741,1776 L 7743,1777 L 7744,1779 L 7745,1782 L 7746,1784 L 7746,1786 L 7745,1789 L 7744,1791 L 7743,1793 L 7741,1795 L 7739,1796 L 7736,1797 L 7734,1797 L 7628,1797 z " style="fill-opacity:1.000000;fill:rgb(41,209,230);stroke:rgb(0,0,0);stroke-width:2"/></g>
<g fill-rule="evenodd"><path d="M 7722,1897 L 7722,1853 L 7722,1850 L 7723,1848 L 7724,1846 L 7726,1844 L 7728,1842 L 7730,1841 L 7733,1841 L 7735,1841 L 7738,1841 L 7740,1842 L 7742,1844 L 7744,1846 L 7745,1848 L 7746,1850 L 7746,1853 L 7746,1926 L 7746,1928 L 7745,1930 L 7744,1932 L 7742,1934 L 7741,1936 L 7739,1937 L 7736,1937 L 7734,1938 L 7732,1937 L 7729,1937 L 7727,1936 L 7726,1934 L 7660,1869 L 7648,1865 L 7641,1865 L 7634,1868 L 7631,1871 L 7628,1878 L 7628,1901 L 7631,1908 L 7637,1914 L 7638,1916 L 7639,1918 L 7639,1921 L 7639,1923 L 7638,1926 L 7636,1928 L 7635,1929 L 7633,1931 L 7630,1932 L 7628,1932 L 7625,1932 L 7623,1931 L 7621,1930 L 7619,1929 L 7612,1921 L 7605,1907 L 7604,1903 L 7604,1873 L 7605,1870 L 7612,1857 L 7620,1849 L 7635,1841 L 7638,1841 L 7652,1841 L 7670,1847 L 7673,1849 L 7722,1897 z " style="fill-opacity:1.000000;fill:rgb(5,60,124);stroke:rgb(0,0,0);stroke-width:2"/></g>
<g fill-rule="evenodd"><path d="M 7473,1719 L 7480,1723 L 7533,1723 L 7536,1723 L 7538,1724 L 7540,1725 L 7542,1727 L 7543,1729 L 7544,1731 L 7545,1733 L 7545,1736 L 7544,1738 L 7543,1740 L 7542,1742 L 7540,1744 L 7538,1745 L 7536,1746 L 7533,1746 L 7454,1746 L 7452,1746 L 7450,1745 L 7448,1744 L 7446,1742 L 7444,1740 L 7443,1738 L 7443,1736 L 7443,1733 L 7443,1731 L 7444,1729 L 7446,1727 L 7448,1725 L 7443,1716 L 7443,1712 L 7443,1701 L 7443,1698 L 7444,1696 L 7445,1694 L 7447,1692 L 7449,1691 L 7451,1690 L 7453,1689 L 7456,1689 L 7458,1690 L 7460,1691 L 7462,1692 L 7464,1694 L 7465,1696 L 7466,1698 L 7466,1701 L 7466,1709 L 7470,1716 L 7473,1719 z " style="fill-opacity:1.000000;fill:rgb(148,117,216);stroke:rgb(0,0,0);stroke-width:2"/></g>
<g fill-rule="evenodd"><path d="M 7266,1311 L 7325,1267 L 7327,1265 L 7330,1265 L 7332,1264 L 7335,1265 L 7337,1265 L 7339,1267 L 7341,1268 L 7343,1270 L 7344,1272 L 7344,1275 L 7344,1277 L 7344,1280 L 7343,1282 L 7341,1284 L 7340,1286 L 7283,1328 L 7287,1332 L 7332,1332 L 7335,1332 L 7337,1333 L 7339,1334 L 7341,1336 L 7343,1338 L 7344,1340 L 7344,1342 L 7344,1345 L 7344,1347 L 7343,1350 L 7341,1352 L 7339,1353 L 7337,1354 L 7335,1355 L 7332,1356 L 7214,1356 L 7212,1355 L 7210,1354 L 7207,1353 L 7206,1352 L 7204,1350 L 7203,1347 L 7203,1345 L 7203,1342 L 7203,1340 L 7204,1338 L 7206,1336 L 7207,1334 L 7210,1333 L 7212,1332 L 7214,1332 L 7253,1332 L 7206,1285 L 7204,1283 L 7203,1280 L 7203,1278 L 7203,1276 L 7203,1273 L 7204,1271 L 7205,1269 L 7207,1267 L 7209,1266 L 7211,1265 L 7214,1264 L 7216,1265 L 7219,1265 L 7221,1266 L 7223,1268 L 7266,1311 z " style="fill-opacity:1.000000;fill:rgb(190,97,137);stroke:rgb(0,0,0);stroke-width:2"/></g>
<g fill-rule="evenodd"><path d="M 7466,1271 L 7466,1282 L 7469,1287 L 7474,1290 L 7533,1290 L 7536,1290 L 7538,1291 L 7540,1292 L 7542,1294 L 7543,1296 L 7544,1298 L 7545,1300 L 7545,1303 L 7544,1305 L 7543,1307 L 7542,1309 L 7540,1311 L 7538,1312 L 7536,1313 L 7533,1313 L 7474,1313 L 7469,1316 L 7466,1321 L 7466,1332 L 7470,1340 L 7471,1340 L 7533,1340 L 7536,1341 L 7538,1341 L 7540,1343 L 7542,1344 L 7543,1346 L 7544,1348 L 7545,1351 L 7545,1353 L 7544,1356 L 7543,1358 L 7542,1360 L 7540,1362 L 7538,1363 L 7536,1364 L 7533,1364 L 7454,1364 L 7452,1364 L 7450,1363 L 7448,1362 L 7446,1360 L 7444,1358 L 7443,1356 L 7443,1353 L 7443,1351 L 7443,1348 L 7444,1346 L 7446,1344 L 7444,1341 L 7443,1337 L 7443,1318 L 7443,1315 L 7444,1313 L 7450,1302 L 7444,1290 L 7443,1286 L 7443,1268 L 7443,1264 L 7444,1262 L 7450,1251 L 7452,1248 L 7455,1246 L 7468,1240 L 7471,1239 L 7533,1239 L 7536,1239 L 7538,1240 L 7540,1241 L 7542,1243 L 7543,1245 L 7544,1247 L 7545,1250 L 7545,1252 L 7544,1255 L 7543,1257 L 7542,1259 L 7540,1260 L 7538,1262 L 7536,1262 L 7533,1263 L 7474,1263 L 7469,1265 L 7466,1271 z " style="fill-opacity:1.000000;fill:rgb(249,92,187);stroke:rgb(0,0,0);stroke-width:2"/></g>
<g fill-rule="evenodd"><path d="M 7240,1450 L 7245,1450 L 7252,1446 L 7255,1444 L 7259,1435 L 7265,1413 L 7272,1399 L 7281,1390 L 7295,1383 L 7299,1383 L 7312,1383 L 7315,1384 L 7328,1390 L 7336,1399 L 7344,1413 L 7344,1417 L 7344,1447 L 7338,1466 L 7337,1468 L 7336,1470 L 7334,1471 L 7332,1473 L 7329,1473 L 7327,1474 L 7324,1473 L 7322,1473 L 7320,1471 L 7318,1470 L 7317,1468 L 7316,1465 L 7315,1463 L 7315,1460 L 7316,1458 L 7321,1443 L 7321,1420 L 7317,1413 L 7314,1410 L 7307,1406 L 7301,1406 L 7294,1410 L 7292,1413 L 7287,1421 L 7282,1443 L 7276,1456 L 7273,1459 L 7266,1466 L 7252,1473 L 7248,1474 L 7235,1473 L 7232,1472 L 7219,1466 L 7212,1459 L 7209,1456 L 7204,1445 L 7203,1441 L 7203,1409 L 7209,1391 L 7210,1388 L 7211,1386 L 7213,1385 L 7215,1383 L 7218,1383 L 7220,1383 L 7223,1383 L 7225,1384 L 7227,1385 L 7229,1386 L 7230,1388 L 7231,1391 L 7232,1393 L 7232,1396 L 7231,1398 L 7226,1413 L 7226,1437 L 7230,1444 L 7233,1446 L 7240,1450 z " style="fill-opacity:1.000000;fill:rgb(168,153,15);stroke:rgb(0,0,0);stroke-width:2"/></g>
<g fill-rule="evenodd"><path d="M 7279,1607 L 7332,1607 L 7335,1608 L 7337,1609 L 7339,1610 L 7341,1611 L 7343,1613 L 7344,1616 L 7344,1618 L 7344,1621 L 7344,1623 L 7343,1625 L 7341,1627 L 7339,1629 L 7337,1630 L 7335,1631 L 7332,1631 L 7254,1631 L 7251,1631 L 7249,1630 L 7247,1629 L 7245,1627 L 7243,1625 L 7242,1623 L 7242,1621 L 7242,1618 L 7242,1616 L 7243,1613 L 7245,1611 L 7247,1610 L 7243,1602 L 7242,1599 L 7242,1586 L 7242,1583 L 7243,1581 L 7244,1579 L 7246,1577 L 7248,1575 L 7250,1574 L 7252,1574 L 7255,1574 L 7257,1574 L 7260,1575 L 7262,1577 L 7263,1579 L 7264,1581 L 7265,1583 L 7266,1586 L 7266,1594 L 7269,1601 L 7272,1604 L 7279,1607 z " style="fill-opacity:1.000000;fill:rgb(149,177,235);stroke:rgb(0,0,0);stroke-width:2"/></g>
<g fill-rule="evenodd"><path d="M 7470,1542 L 7471,1543 L 7533,1543 L 7536,1543 L 7538,1544 L 7540,1545 L 7542,1547 L 7543,1549 L 7544,1551 L 7545,1553 L 7545,1556 L 7544,1558 L 7543,1561 L 7542,1563 L 7540,1564 L 7538,1565 L 7536,1566 L 7533,1566 L 7454,1566 L 7452,1566 L 7450,1565 L 7448,1564 L 7446,1563 L 7444,1561 L 7443,1558 L 7443,1556 L 7443,1553 L 7443,1551 L 7444,1549 L 7446,1547 L 7444,1543 L 7443,1540 L 7443,1521 L 7443,1517 L 7444,1516 L 7450,1504 L 7452,1501 L 7455,1499 L 7466,1493 L 7470,1492 L 7533,1492 L 7536,1492 L 7538,1493 L 7540,1494 L 7542,1496 L 7543,1498 L 7544,1500 L 7545,1503 L 7545,1505 L 7544,1508 L 7543,1510 L 7542,1512 L 7540,1514 L 7538,1515 L 7536,1516 L 7533,1516 L 7474,1516 L 7469,1518 L 7466,1524 L 7466,1535 L 7470,1542 z " style="fill-opacity:1.000000;fill:rgb(241,179,5);stroke:rgb(0,0,0);stroke-width:2"/></g>
<g fill-rule="evenodd"><path d="M 7722,1541 L 7719,1533 L 7716,1531 L 7709,1527 L 7703,1527 L 7696,1531 L 7693,1533 L 7689,1542 L 7683,1564 L 7676,1578 L 7668,1587 L 7655,1593 L 7651,1594 L 7638,1595 L 7635,1594 L 7620,1587 L 7612,1578 L 7605,1566 L 7604,1562 L 7604,1532 L 7605,1528 L 7610,1512 L 7611,1509 L 7613,1507 L 7615,1506 L 7617,1504 L 7619,1504 L 7622,1503 L 7624,1504 L 7626,1504 L 7629,1506 L 7630,1507 L 7632,1509 L 7633,1512 L 7633,1514 L 7633,1517 L 7633,1519 L 7628,1534 L 7628,1557 L 7631,1564 L 7634,1567 L 7641,1571 L 7647,1571 L 7654,1567 L 7657,1564 L 7661,1556 L 7666,1535 L 7667,1532 L 7674,1520 L 7681,1513 L 7684,1510 L 7697,1504 L 7700,1503 L 7712,1503 L 7715,1504 L 7730,1511 L 7737,1518 L 7739,1521 L 7745,1532 L 7746,1536 L 7746,1568 L 7740,1586 L 7739,1589 L 7737,1591 L 7735,1592 L 7733,1594 L 7731,1594 L 7728,1595 L 7726,1594 L 7724,1593 L 7721,1592 L 7720,1591 L 7718,1589 L 7717,1586 L 7717,1584 L 7717,1581 L 7717,1579 L 7722,1564 L 7722,1541 z " style="fill-opacity:1.000000;fill:rgb(239,247,0);stroke:rgb(0,0,0);stroke-width:2"/></g>
<g fill-rule="evenodd"><path d="M 7469,1439 L 7474,1442 L 7479,1439 L 7482,1434 L 7482,1420 L 7483,1416 L 7489,1403 L 7491,1400 L 7493,1399 L 7507,1392 L 7511,1391 L 7516,1391 L 7520,1392 L 7535,1399 L 7537,1401 L 7538,1403 L 7544,1416 L 7545,1420 L 7545,1442 L 7544,1446 L 7538,1459 L 7537,1461 L 7535,1462 L 7533,1464 L 7531,1465 L 7528,1465 L 7526,1465 L 7523,1464 L 7521,1463 L 7519,1462 L 7518,1460 L 7517,1458 L 7516,1455 L 7516,1453 L 7516,1450 L 7517,1448 L 7521,1439 L 7521,1422 L 7519,1417 L 7514,1415 L 7508,1417 L 7506,1422 L 7506,1437 L 7505,1440 L 7499,1453 L 7497,1456 L 7494,1458 L 7481,1465 L 7477,1465 L 7470,1465 L 7466,1464 L 7455,1458 L 7452,1456 L 7450,1453 L 7444,1442 L 7443,1438 L 7443,1420 L 7443,1416 L 7450,1403 L 7451,1401 L 7453,1399 L 7455,1398 L 7457,1397 L 7459,1397 L 7462,1397 L 7464,1397 L 7466,1398 L 7468,1400 L 7470,1402 L 7471,1404 L 7472,1406 L 7472,1409 L 7472,1411 L 7471,1414 L 7466,1422 L 7466,1434 L 7469,1439 z " style="fill-opacity:1.000000;fill:rgb(233,161,58);stroke:rgb(0,0,0);stroke-width:2"/></g>
<g fill-rule="evenodd"><path d="M 7311,1071 L 7311,1110 L 7336,1119 L 7338,1120 L 7340,1121 L 7342,1123 L 7343,1125 L 7344,1128 L 7344,1130 L 7344,1133 L 7343,1135 L 7342,1137 L 7340,1139 L 7338,1140 L 7336,1141 L 7334,1142 L 7331,1142 L 7329,1141 L 7211,1102 L 7208,1101 L 7206,1099 L 7205,1098 L 7204,1095 L 7203,1093 L 7203,1091 L 7203,1088 L 7204,1086 L 7205,1084 L 7206,1082 L 7208,1080 L 7211,1079 L 7329,1040 L 7331,1040 L 7334,1039 L 7336,1040 L 7338,1041 L 7340,1042 L 7342,1044 L 7343,1046 L 7344,1049 L 7344,1051 L 7344,1054 L 7343,1056 L 7342,1058 L 7340,1060 L 7338,1061 L 7336,1062 L 7311,1071M 7287,1079 L 7252,1091 L 7287,1102 L 7287,1079 z " style="fill-opacity:1.000000;fill:rgb(229,202,11);stroke:rgb(0,0,0);stroke-width:2"/></g>
<g fill-rule="evenodd"><path d="M 7321,1208 L 7321,1164 L 7321,1161 L 7322,1159 L 7323,1157 L 7325,1155 L 7327,1153 L 7329,1152 L 7331,1152 L 7334,1152 L 7336,1152 L 7338,1153 L 7340,1155 L 7342,1157 L 7343,1159 L 7344,1161 L 7344,1164 L 7344,1237 L 7344,1239 L 7343,1241 L 7342,1243 L 7341,1245 L 7339,1247 L 7337,1248 L 7335,1248 L 7332,1249 L 7330,1248 L 7328,1248 L 7326,1247 L 7324,1245 L 7259,1180 L 7246,1176 L 7240,1176 L 7233,1179 L 7230,1182 L 7226,1189 L 7226,1212 L 7230,1219 L 7235,1225 L 7237,1227 L 7237,1229 L 7237,1232 L 7237,1234 L 7236,1237 L 7235,1239 L 7233,1240 L 7231,1242 L 7229,1243 L 7226,1243 L 7224,1243 L 7221,1242 L 7219,1241 L 7217,1240 L 7210,1232 L 7203,1218 L 7203,1214 L 7203,1184 L 7204,1181 L 7210,1168 L 7219,1160 L 7233,1152 L 7237,1152 L 7250,1152 L 7269,1158 L 7272,1160 L 7321,1208 z " style="fill-opacity:1.000000;fill:rgb(203,208,72);stroke:rgb(0,0,0);stroke-width:2"/></g>
<g fill-rule="evenodd"><path d="M 7226,1007 L 7226,1029 L 7226,1031 L 7225,1034 L 7224,1036 L 7222,1038 L 7220,1039 L 7218,1040 L 7216,1040 L 7213,1040 L 7211,1040 L 7208,1039 L 7206,1038 L 7205,1036 L 7204,1034 L 7203,1031 L 7203,1029 L 7203,961 L 7203,959 L 7204,956 L 7205,954 L 7206,952 L 7208,951 L 7211,950 L 7213,950 L 7216,950 L 7218,950 L 7220,951 L 7222,952 L 7224,954 L 7225,956 L 7226,959 L 7226,961 L 7226,983 L 7332,983 L 7335,983 L 7337,984 L 7339,985 L 7341,987 L 7343,989 L 7344,991 L 7344,994 L 7344,996 L 7344,999 L 7343,1001 L 7341,1003 L 7339,1005 L 7337,1006 L 7335,1007 L 7332,1007 L 7226,1007 z " style="fill-opacity:1.000000;fill:rgb(71,100,189);stroke:rgb(0,0,0);stroke-width:2"/></g>
<g fill-rule="evenodd"><path d="M 7458,1099 L 7460,1100 L 7462,1102 L 7464,1103 L 7465,1105 L 7466,1108 L 7466,1110 L 7466,1127 L 7514,1127 L 7519,1124 L 7521,1119 L 7522,1108 L 7522,1105 L 7524,1103 L 7525,1102 L 7527,1100 L 7530,1099 L 7532,1099 L 7534,1099 L 7537,1099 L 7539,1100 L 7541,1102 L 7543,1103 L 7544,1105 L 7545,1108 L 7545,1110 L 7545,1123 L 7544,1127 L 7538,1138 L 7536,1141 L 7535,1142 L 7522,1149 L 7518,1150 L 7466,1150 L 7466,1158 L 7465,1160 L 7464,1162 L 7462,1164 L 7460,1166 L 7458,1167 L 7456,1167 L 7453,1167 L 7451,1167 L 7449,1166 L 7447,1164 L 7445,1162 L 7444,1160 L 7443,1158 L 7443,1150 L 7415,1150 L 7413,1150 L 7410,1149 L 7408,1148 L 7406,1146 L 7405,1144 L 7404,1142 L 7403,1140 L 7403,1137 L 7404,1135 L 7405,1133 L 7406,1131 L 7408,1129 L 7410,1128 L 7413,1127 L 7415,1127 L 7443,1127 L 7443,1110 L 7443,1108 L 7444,1105 L 7445,1103 L 7447,1102 L 7449,1100 L 7451,1099 L 7449,1098 L 7447,1097 L 7445,1095 L 7444,1093 L 7443,1090 L 7443,1088 L 7443,1083 L 7415,1083 L 7413,1082 L 7410,1082 L 7408,1080 L 7406,1079 L 7405,1077 L 7404,1075 L 7403,1072 L 7403,1070 L 7404,1067 L 7405,1065 L 7406,1063 L 7408,1061 L 7410,1060 L 7413,1059 L 7415,1059 L 7443,1059 L 7443,1043 L 7443,1040 L 7444,1038 L 7445,1036 L 7447,1034 L 7449,1033 L 7451,1032 L 7453,1031 L 7456,1031 L 7458,1032 L 7460,1033 L 7462,1034 L 7464,1036 L 7465,1038 L 7466,1040 L 7466,1043 L 7466,1059 L 7514,1059 L 7519,1057 L 7521,1051 L 7522,1040 L 7522,1038 L 7524,1036 L 7525,1034 L 7527,1033 L 7530,1032 L 7532,1031 L 7534,1031 L 7537,1032 L 7539,1033 L 7541,1034 L 7543,1036 L 7544,1038 L 7545,1040 L 7545,1043 L 7545,1056 L 7544,1059 L 7538,1071 L 7536,1074 L 7535,1075 L 7522,1081 L 7518,1083 L 7466,1083 L 7466,1088 L 7466,1090 L 7465,1093 L 7464,1095 L 7462,1097 L 7460,1098 L 7458,1099 z " style="fill-opacity:1.000000;fill:rgb(31,35,30);stroke:rgb(0,0,0);stroke-width:2"/></g>
<g fill-rule="evenodd"><path d="M 7407,1203 L 7405,1201 L 7404,1199 L 7404,1197 L 7403,1194 L 7404,1190 L 7405,1188 L 7407,1186 L 7412,1181 L 7414,1179 L 7416,1178 L 7418,1177 L 7421,1177 L 7423,1177 L 7425,1178 L 7427,1179 L 7435,1187 L 7437,1190 L 7438,1193 L 7438,1196 L 7438,1198 L 7437,1201 L 7435,1203 L 7429,1209 L 7427,1210 L 7425,1211 L 7423,1212 L 7421,1212 L 7418,1212 L 7416,1211 L 7414,1210 L 7412,1209 L 7407,1203 z " style="fill-opacity:1.000000;fill:rgb(168,28,123);stroke:rgb(0,0,0);stroke-width:2"/></g>
<g fill-rule="evenodd"><path d="M 7504,997 L 7514,997 L 7519,995 L 7521,989 L 7521,972 L 7517,964 L 7516,961 L 7516,959 L 7516,957 L 7517,954 L 7518,952 L 7519,950 L 7521,948 L 7523,947 L 7526,947 L 7528,947 L 7531,947 L 7533,948 L 7535,949 L 7537,951 L 7538,953 L 7544,964 L 7545,968 L 7545,992 L 7544,996 L 7538,1009 L 7536,1012 L 7533,1014 L 7522,1020 L 7520,1020 L 7516,1021 L 7470,1021 L 7466,1020 L 7455,1014 L 7452,1012 L 7450,1009 L 7444,997 L 7443,996 L 7443,992 L 7443,968 L 7444,964 L 7450,953 L 7452,950 L 7455,948 L 7466,942 L 7470,941 L 7483,941 L 7485,941 L 7487,942 L 7489,943 L 7491,944 L 7492,946 L 7494,948 L 7494,951 L 7504,997M 7473,965 L 7469,967 L 7466,972 L 7466,989 L 7469,995 L 7474,997 L 7479,997 L 7473,965 z " style="fill-opacity:1.000000;fill:rgb(100,197,20);stroke:rgb(0,0,0);stroke-width:2"/></g>
<g fill-rule="evenodd"><path d="M 7470,884 L 7473,887 L 7480,890 L 7533,890 L 7536,891 L 7538,891 L 7540,893 L 7542,894 L 7543,896 L 7544,899 L 7545,901 L 7545,903 L 7544,906 L 7543,908 L 7542,910 L 7540,912 L 7538,913 L 7536,914 L 7533,914 L 7454,914 L 7452,914 L 7450,913 L 7448,912 L 7446,910 L 7444,908 L 7443,906 L 7443,903 L 7443,901 L 7443,899 L 7444,896 L 7446,894 L 7448,893 L 7443,883 L 7443,880 L 7443,868 L 7443,866 L 7444,864 L 7445,862 L 7447,860 L 7449,858 L 7451,857 L 7453,857 L 7456,857 L 7458,857 L 7460,858 L 7462,860 L 7464,862 L 7465,864 L 7466,866 L 7466,868 L 7466,877 L 7470,884 z " style="fill-opacity:1.000000;fill:rgb(115,90,197);stroke:rgb(0,0,0);stroke-width:2"/></g>
<g fill-rule="evenodd"><path d="M 158,977 L 200,977 L 202,977 L 204,978 L 206,979 L 207,980 L 209,982 L 209,984 L 210,986 L 210,988 L 209,990 L 209,991 L 207,993 L 206,995 L 204,996 L 202,996 L 200,996 L 121,996 L 119,996 L 116,995 L 113,992 L 112,988 L 112,984 L 114,981 L 115,979 L 163,951 L 121,951 L 119,951 L 117,951 L 116,950 L 114,948 L 113,946 L 112,945 L 112,943 L 112,941 L 112,939 L 113,937 L 114,935 L 116,934 L 117,933 L 119,932 L 121,932 L 200,932 L 202,932 L 204,933 L 206,933 L 207,935 L 209,938 L 210,940 L 210,942 L 210,944 L 209,946 L 208,948 L 207,949 L 158,977 z " style="fill-opacity:1.000000;fill:rgb(94,75,121);stroke:rgb(0,0,0);stroke-width:2"/></g>
<g fill-rule="evenodd"><path d="M 165,869 L 156,869 L 144,872 L 138,875 L 134,879 L 131,887 L 131,891 L 133,898 L 145,898 L 145,891 L 146,889 L 147,887 L 149,886 L 150,884 L 152,883 L 154,883 L 156,883 L 158,883 L 160,884 L 162,886 L 163,887 L 164,889 L 165,891 L 165,893 L 165,910 L 164,912 L 162,915 L 159,917 L 155,918 L 129,918 L 125,917 L 123,916 L 118,911 L 116,909 L 116,907 L 112,896 L 112,893 L 112,884 L 116,871 L 117,868 L 127,859 L 137,854 L 154,849 L 166,849 L 169,850 L 185,854 L 193,858 L 196,860 L 203,867 L 205,870 L 210,884 L 210,897 L 209,900 L 209,901 L 205,908 L 204,910 L 203,912 L 201,913 L 199,914 L 197,914 L 195,914 L 193,913 L 191,912 L 189,911 L 188,909 L 187,908 L 187,906 L 187,904 L 187,902 L 190,894 L 190,887 L 188,879 L 183,875 L 178,872 L 165,869 z " style="fill-opacity:1.000000;fill:rgb(99,59,112);stroke:rgb(0,0,0);stroke-width:2"/></g>
<g fill-rule="evenodd"><path d="M 112,1024 L 112,1020 L 114,1017 L 116,1016 L 117,1015 L 120,1014 L 202,1014 L 204,1015 L 207,1017 L 209,1020 L 210,1022 L 210,1044 L 206,1057 L 204,1060 L 196,1069 L 193,1070 L 185,1075 L 169,1079 L 166,1079 L 155,1079 L 153,1079 L 137,1075 L 128,1070 L 126,1069 L 117,1060 L 116,1057 L 112,1044 L 112,1024M 165,1059 L 178,1056 L 183,1053 L 188,1049 L 190,1041 L 190,1034 L 131,1034 L 131,1041 L 134,1049 L 138,1053 L 144,1056 L 156,1059 L 165,1059 z " style="fill-opacity:1.000000;fill:rgb(100,36,17);stroke:rgb(0,0,0);stroke-width:2"/></g>
<g fill-rule="evenodd"><path d="M 507,1857 L 558,1874 L 559,1875 L 561,1876 L 562,1878 L 563,1880 L 564,1882 L 564,1884 L 564,1886 L 563,1888 L 562,1889 L 561,1891 L 559,1892 L 557,1893 L 555,1893 L 553,1893 L 551,1893 L 473,1867 L 471,1866 L 469,1865 L 468,1863 L 467,1861 L 466,1859 L 466,1857 L 466,1855 L 467,1853 L 468,1852 L 469,1850 L 471,1849 L 473,1848 L 551,1822 L 553,1821 L 555,1821 L 557,1822 L 559,1823 L 561,1824 L 562,1825 L 563,1827 L 564,1829 L 564,1831 L 564,1833 L 563,1835 L 562,1837 L 561,1838 L 559,1840 L 558,1840 L 507,1857 z " style="fill-opacity:1.000000;fill:rgb(158,9,220);stroke:rgb(0,0,0);stroke-width:2"/></g>
<g fill-rule="evenodd"><path d="M 496,1690 L 496,1670 L 496,1668 L 497,1666 L 498,1664 L 499,1663 L 501,1661 L 503,1661 L 505,1660 L 507,1660 L 509,1661 L 511,1661 L 512,1663 L 514,1664 L 515,1666 L 515,1668 L 516,1690 L 536,1690 L 538,1690 L 540,1691 L 541,1692 L 543,1693 L 544,1695 L 545,1697 L 545,1699 L 545,1701 L 545,1703 L 544,1705 L 543,1706 L 541,1708 L 540,1709 L 538,1710 L 516,1710 L 516,1730 L 515,1732 L 515,1734 L 514,1736 L 512,1737 L 511,1738 L 509,1739 L 507,1740 L 505,1740 L 503,1739 L 501,1738 L 499,1737 L 498,1736 L 497,1734 L 496,1732 L 496,1710 L 474,1710 L 472,1709 L 470,1708 L 468,1706 L 467,1705 L 466,1703 L 466,1701 L 466,1699 L 466,1697 L 467,1695 L 468,1693 L 470,1692 L 472,1691 L 474,1690 L 476,1690 L 496,1690 z " style="fill-opacity:1.000000;fill:rgb(170,212,172);stroke:rgb(0,0,0);stroke-width:2"/></g>
<g fill-rule="evenodd"><path d="M 489,1790 L 496,1794 L 496,1777 L 497,1774 L 501,1767 L 502,1764 L 507,1759 L 516,1755 L 519,1754 L 541,1754 L 544,1755 L 551,1759 L 554,1760 L 559,1765 L 563,1774 L 564,1777 L 564,1795 L 563,1798 L 559,1806 L 558,1808 L 553,1813 L 544,1817 L 541,1818 L 509,1818 L 507,1818 L 490,1814 L 478,1806 L 471,1799 L 467,1791 L 466,1788 L 466,1771 L 466,1769 L 467,1767 L 468,1765 L 469,1764 L 471,1763 L 473,1762 L 475,1761 L 477,1761 L 479,1762 L 481,1763 L 482,1764 L 484,1765 L 485,1767 L 485,1769 L 486,1771 L 486,1784 L 488,1788 L 489,1790M 537,1799 L 541,1797 L 543,1795 L 545,1791 L 545,1781 L 543,1777 L 541,1775 L 537,1773 L 523,1773 L 519,1775 L 518,1777 L 516,1781 L 516,1791 L 518,1795 L 519,1797 L 523,1799 L 537,1799 z " style="fill-opacity:1.000000;fill:rgb(242,27,16);stroke:rgb(0,0,0);stroke-width:2"/></g>
<g fill-rule="evenodd"><path d="M 553,393 L 550,426 L 539,458 L 523,487 L 500,512 L 473,532 L 443,545 L 410,552 L 376,552 L 344,545 L 313,532 L 286,512 L 264,487 L 247,458 L 237,426 L 233,393 L 237,360 L 247,328 L 264,299 L 286,274 L 313,255 L 344,241 L 376,234 L 410,234 L 443,241 L 473,255 L 500,274 L 523,299 L 539,328 L 550,360 L 553,393 z " style="fill-opacity:1.000000;fill:rgb(175,59,51);stroke:rgb(0,0,0);stroke-width:2"/></g>
<g fill-rule="evenodd"><path d="M 553,3543 L 550,3576 L 539,3608 L 523,3637 L 500,3662 L 473,3681 L 443,3695 L 410,3702 L 376,3702 L 344,3695 L 313,3681 L 286,3662 L 264,3637 L 247,3608 L 237,3576 L 233,3543 L 237,3510 L 247,3478 L 264,3449 L 286,3424 L 313,3404 L 344,3391 L 376,3384 L 410,3384 L 443,3391 L 473,3404 L 500,3424 L 523,3449 L 539,3478 L 550,3510 L 553,3543 z " style="fill-opacity:1.000000;fill:rgb(205,227,80);stroke:rgb(0,0,0);stroke-width:2"/></g>
<g fill-rule="evenodd"><path d="M 7640,3543 L 7636,3576 L 7626,3608 L 7609,3637 L 7587,3662 L 7560,3681 L 7529,3695 L 7497,3702 L 7463,3702 L 7430,3695 L 7400,3681 L 7373,3662 L 7350,3637 L 7334,3608 L 7323,3576 L 7320,3543 L 7323,3510 L 7334,3478 L 7350,3449 L 7373,3424 L 7400,3404 L 7430,3391 L 7463,3384 L 7497,3384 L 7529,3391 L 7560,3404 L 7587,3424 L 7609,3449 L 7626,3478 L 7636,3510 L 7640,3543 z " style="fill-opacity:1.000000;fill:rgb(72,71,21);stroke:rgb(0,0,0);stroke-width:2"/></g>
<g fill-rule="evenodd"><path d="M 7640,393 L 7636,426 L 7626,458 L 7609,487 L 7587,512 L 7560,532 L 7529,545 L 7497,552 L 7463,552 L 7430,545 L 7400,532 L 7373,512 L 7350,487 L 7334,458 L 7323,426 L 7320,393 L 7323,360 L 7334,328 L 7350,299 L 7373,274 L 7400,255 L 7430,241 L 7463,234 L 7497,234 L 7529,241 L 7560,255 L 7587,274 L 7609,299 L 7626,328 L 7636,360 L 7640,393 z " style="fill-opacity:1.000000;fill:rgb(92,187,111);stroke:rgb(0,0,0);stroke-width:2"/></g>
<g fill-rule="evenodd"><path d="M 3897,2834 L 3897,2873 L 3858,2873 L 3858,3110 L 3897,3110 L 3897,3267 L 3858,3267 L 3858,3503 L 3897,3503 L 3897,3661 L 3753,3661 L 3753,3677 L 3477,3645 L 3477,3519 L 3753,3488 L 3753,3503 L 3779,3503 L 3779,3267 L 3753,3267 L 3753,3283 L 3477,3251 L 3477,3125 L 3753,3094 L 3753,3110 L 3779,3110 L 3779,2873 L 3753,2873 L 3753,2889 L 3477,2858 L 3477,2732 L 3753,2700 L 3753,2716 L 3897,2716 L 3897,2755 L 4393,2755 L 5040,2108 L 5040,1496 L 5001,1496 L 5001,1338 L 5040,1338 L 5040,1088 L 5001,1088 L 5001,931 L 5040,931 L 5040,708 L 5001,708 L 5001,551 L 5040,551 L 5040,488 L 4709,157 L 2637,157 L 2637,345 L 2686,345 L 2686,521 L 2510,521 L 2510,345 L 2559,345 L 2559,157 L 2303,157 L 2303,345 L 2351,345 L 2351,521 L 2175,521 L 2175,345 L 2224,345 L 2224,157 L 1354,157 L 393,1118 L 393,1137 L 434,1137 L 434,1297 L 274,1297 L 274,1256 L 211,1256 L 157,1311 L 157,2680 L 213,2736 L 275,2736 L 275,2709 L 259,2709 L 291,2434 L 417,2434 L 448,2709 L 433,2709 L 433,2736 L 672,2736 L 748,2660 L 748,2440 L 708,2440 L 708,2283 L 853,2283 L 853,2267 L 1128,2299 L 1128,2425 L 853,2456 L 853,2440 L 826,2440 L 826,2660 L 1475,3310 L 1487,3307 L 1504,3307 L 1520,3310 L 1535,3317 L 1548,3327 L 1559,3339 L 1563,3346 L 1940,3346 L 1944,3339 L 1955,3327 L 1968,3317 L 1983,3310 L 1999,3307 L 2016,3307 L 2032,3310 L 2047,3317 L 2060,3327 L 2071,3339 L 2079,3353 L 2084,3369 L 2086,3385 L 2084,3402 L 2079,3417 L 2071,3432 L 2060,3444 L 2047,3454 L 2032,3460 L 2016,3464 L 1999,3464 L 1983,3460 L 1968,3454 L 1955,3444 L 1944,3432 L 1940,3425 L 1563,3425 L 1559,3432 L 1548,3444 L 1535,3454 L 1520,3460 L 1504,3464 L 1487,3464 L 1471,3460 L 1456,3454 L 1443,3444 L 1432,3432 L 1424,3417 L 1419,3402 L 1417,3385 L 1419,3369 L 1420,3365 L 787,2732 L 716,2803 L 710,2808 L 703,2812 L 696,2814 L 688,2815 L 433,2815 L 433,2854 L 275,2854 L 275,2815 L 196,2815 L 189,2814 L 181,2812 L 175,2808 L 169,2803 L 90,2724 L 85,2718 L 81,2711 L 79,2704 L 78,2696 L 78,1294 L 79,1287 L 81,1279 L 85,1272 L 90,1266 L 167,1189 L 173,1184 L 180,1180 L 187,1178 L 195,1177 L 274,1177 L 274,1137 L 314,1137 L 314,1102 L 315,1094 L 317,1087 L 321,1080 L 326,1074 L 1310,90 L 1316,85 L 1323,81 L 1330,79 L 1338,78 L 4725,78 L 4733,79 L 4741,81 L 4747,85 L 4753,90 L 5108,444 L 5113,450 L 5116,457 L 5118,464 L 5119,472 L 5119,551 L 5146,551 L 5146,535 L 5421,566 L 5421,692 L 5146,724 L 5146,708 L 5119,708 L 5119,931 L 5146,931 L 5146,915 L 5421,946 L 5421,1072 L 5146,1104 L 5146,1088 L 5119,1088 L 5119,1338 L 5146,1338 L 5146,1322 L 5421,1354 L 5421,1480 L 5146,1511 L 5146,1496 L 5119,1496 L 5119,2124 L 5118,2132 L 5116,2139 L 5113,2146 L 5108,2152 L 4719,2540 L 4928,2750 L 4991,2750 L 4991,2710 L 5135,2710 L 5135,2695 L 5411,2726 L 5411,2852 L 5135,2883 L 5135,2868 L 5109,2868 L 5109,3104 L 5135,3104 L 5135,3088 L 5411,3120 L 5411,3246 L 5135,3277 L 5135,3261 L 5109,3261 L 5109,3498 L 5135,3498 L 5135,3482 L 5411,3513 L 5411,3639 L 5135,3671 L 5135,3655 L 4991,3655 L 4991,3498 L 5030,3498 L 5030,3261 L 4991,3261 L 4991,3104 L 5030,3104 L 5030,2868 L 4991,2868 L 4991,2828 L 4912,2828 L 4904,2828 L 4897,2825 L 4890,2822 L 4884,2817 L 4663,2596 L 4437,2823 L 4431,2828 L 4424,2831 L 4417,2833 L 4409,2834 L 3897,2834 z " style="fill-opacity:1.000000;fill:rgb(34,25,186);stroke:rgb(0,0,0);stroke-width:2"/></g>
<g fill-rule="evenodd"><path d="M 3110,590 L 3346,590 L 3346,551 L 3503,551 L 3503,590 L 3740,590 L 3740,551 L 3897,551 L 3897,590 L 4045,590 L 4045,541 L 4221,541 L 4221,717 L 4045,717 L 4045,669 L 3897,669 L 3897,695 L 3913,695 L 3881,971 L 3755,971 L 3724,695 L 3740,695 L 3740,669 L 3503,669 L 3503,695 L 3519,695 L 3488,971 L 3362,971 L 3330,695 L 3346,695 L 3346,669 L 3110,669 L 3110,695 L 3125,695 L 3094,971 L 2968,971 L 2960,905 L 2862,905 L 2858,912 L 2847,924 L 2834,934 L 2819,940 L 2803,944 L 2787,944 L 2770,940 L 2755,934 L 2742,924 L 2731,912 L 2727,905 L 2634,905 L 2329,1210 L 2329,1440 L 2515,1626 L 2525,1626 L 2538,1629 L 2549,1634 L 2559,1642 L 2568,1651 L 2574,1662 L 2578,1674 L 2579,1686 L 2578,1699 L 2574,1711 L 2568,1721 L 2559,1731 L 2549,1738 L 2538,1743 L 2525,1746 L 2513,1746 L 2501,1743 L 2489,1738 L 2479,1731 L 2471,1721 L 2464,1711 L 2460,1699 L 2459,1686 L 2460,1682 L 2273,1496 L 2106,1496 L 2106,1601 L 2105,1609 L 2103,1617 L 2103,1644 L 2112,1654 L 2118,1665 L 2122,1677 L 2123,1689 L 2122,1702 L 2118,1714 L 2112,1725 L 2103,1734 L 2093,1741 L 2082,1746 L 2070,1749 L 2057,1749 L 2045,1746 L 2033,1741 L 2023,1734 L 2015,1725 L 2008,1714 L 2005,1702 L 2003,1689 L 2005,1677 L 2008,1665 L 2015,1654 L 2024,1644 L 2024,1604 L 2025,1597 L 2027,1589 L 2027,1496 L 1650,1496 L 1650,1644 L 1659,1654 L 1665,1665 L 1669,1677 L 1671,1689 L 1669,1702 L 1665,1714 L 1659,1725 L 1651,1734 L 1641,1741 L 1629,1746 L 1617,1749 L 1604,1749 L 1592,1746 L 1581,1741 L 1570,1734 L 1562,1725 L 1556,1714 L 1552,1702 L 1551,1689 L 1552,1677 L 1556,1665 L 1562,1654 L 1571,1644 L 1571,1509 L 1552,1489 L 1161,1489 L 1159,1492 L 1150,1498 L 1139,1503 L 1127,1506 L 1116,1506 L 1104,1503 L 1094,1498 L 1084,1492 L 1076,1483 L 1070,1473 L 1067,1462 L 1066,1450 L 1067,1438 L 1070,1427 L 1076,1417 L 1084,1408 L 1094,1401 L 1104,1397 L 1116,1394 L 1127,1394 L 1139,1397 L 1150,1401 L 1159,1408 L 1161,1411 L 1568,1411 L 1576,1411 L 1583,1414 L 1589,1417 L 2250,1417 L 2250,1194 L 2251,1186 L 2253,1179 L 2257,1172 L 2261,1166 L 2590,838 L 2596,833 L 2603,829 L 2610,827 L 2618,826 L 2727,826 L 2731,819 L 2742,807 L 2755,797 L 2770,791 L 2787,787 L 2803,787 L 2819,791 L 2834,797 L 2847,807 L 2858,819 L 2862,826 L 2952,826 L 2937,695 L 2952,695 L 2952,551 L 3110,551 L 3110,590 z " style="fill-opacity:1.000000;fill:rgb(155,125,245);stroke:rgb(0,0,0);stroke-width:2"/></g>
<g fill-rule="evenodd"><path d="M 3070,2716 L 3097,2716 L 3097,2700 L 3373,2732 L 3373,2858 L 3097,2889 L 3097,2873 L 3070,2873 L 3070,3110 L 3097,3110 L 3097,3094 L 3373,3125 L 3373,3251 L 3097,3283 L 3097,3267 L 3070,3267 L 3070,3503 L 3097,3503 L 3097,3488 L 3373,3519 L 3373,3645 L 3097,3677 L 3097,3661 L 2952,3661 L 2952,3503 L 2992,3503 L 2992,3267 L 2952,3267 L 2952,3228 L 2725,3228 L 2725,3276 L 2549,3276 L 2549,3100 L 2725,3100 L 2725,3149 L 2952,3149 L 2952,3110 L 2992,3110 L 2992,2873 L 2952,2873 L 2952,2716 L 2992,2716 L 2992,2174 L 2978,2164 L 2967,2152 L 2959,2138 L 2954,2122 L 2952,2106 L 2954,2089 L 2959,2074 L 2967,2060 L 2978,2047 L 2992,2038 L 2992,1496 L 2952,1496 L 2952,1351 L 2937,1351 L 2968,1075 L 3094,1075 L 3125,1351 L 3110,1351 L 3110,1378 L 3346,1378 L 3346,1351 L 3330,1351 L 3362,1075 L 3488,1075 L 3519,1351 L 3503,1351 L 3503,1378 L 3740,1378 L 3740,1351 L 3724,1351 L 3755,1075 L 3881,1075 L 3913,1351 L 3897,1351 L 3897,1496 L 3740,1496 L 3740,1456 L 3503,1456 L 3503,1496 L 3346,1496 L 3346,1456 L 3110,1456 L 3110,1496 L 3070,1496 L 3070,2038 L 3084,2047 L 3095,2060 L 3103,2074 L 3108,2089 L 3110,2106 L 3108,2122 L 3103,2138 L 3095,2152 L 3084,2164 L 3070,2174 L 3070,2716 z " style="fill-opacity:1.000000;fill:rgb(11,225,26);stroke:rgb(0,0,0);stroke-width:2"/></g>
<g fill-rule="evenodd"><path d="M 2680,1931 L 2674,1925 L 2311,1925 L 2303,1934 L 2293,1941 L 2282,1946 L 2270,1949 L 2257,1949 L 2245,1946 L 2233,1941 L 2223,1934 L 2218,1929 L 1855,1929 L 1851,1934 L 1841,1941 L 1829,1946 L 1817,1949 L 1804,1949 L 1792,1946 L 1781,1941 L 1770,1934 L 1766,1929 L 1161,1929 L 1153,1928 L 1146,1926 L 1139,1922 L 1133,1917 L 1122,1906 L 1031,1996 L 1025,2001 L 1018,2004 L 1011,2007 L 1003,2007 L 826,2007 L 826,2047 L 669,2047 L 669,1902 L 653,1902 L 685,1627 L 811,1627 L 842,1902 L 826,1902 L 826,1929 L 987,1929 L 1066,1850 L 1067,1838 L 1070,1827 L 1076,1817 L 1084,1808 L 1094,1801 L 1104,1797 L 1116,1794 L 1127,1794 L 1139,1797 L 1150,1801 L 1159,1808 L 1167,1817 L 1173,1827 L 1176,1838 L 1178,1850 L 1766,1850 L 1770,1845 L 1781,1837 L 1792,1832 L 1804,1830 L 1817,1830 L 1829,1832 L 1841,1837 L 1851,1845 L 1855,1850 L 2218,1850 L 2223,1845 L 2233,1837 L 2245,1832 L 2257,1830 L 2270,1830 L 2282,1832 L 2293,1837 L 2303,1845 L 2305,1847 L 2674,1847 L 2679,1842 L 2689,1834 L 2701,1829 L 2713,1826 L 2725,1826 L 2738,1829 L 2749,1834 L 2759,1842 L 2768,1851 L 2774,1862 L 2778,1874 L 2779,1886 L 2778,1899 L 2774,1911 L 2768,1921 L 2759,1931 L 2759,2221 L 2758,2228 L 2756,2236 L 2752,2243 L 2747,2249 L 2677,2319 L 2677,2530 L 2725,2530 L 2725,2706 L 2549,2706 L 2549,2530 L 2598,2530 L 2598,2303 L 2599,2295 L 2601,2288 L 2605,2281 L 2609,2275 L 2680,2204 L 2680,1931 z " style="fill-opacity:1.000000;fill:rgb(28,127,35);stroke:rgb(0,0,0);stroke-width:2"/></g>
<g fill-rule="evenodd"><path d="M 393,1486 L 393,1909 L 433,1909 L 433,2054 L 448,2054 L 417,2329 L 291,2329 L 259,2054 L 275,2054 L 275,1909 L 314,1909 L 314,1486 L 308,1482 L 296,1472 L 286,1459 L 279,1445 L 275,1429 L 274,1413 L 276,1397 L 282,1382 L 291,1368 L 302,1356 L 315,1347 L 330,1340 L 346,1337 L 354,1337 L 370,1338 L 385,1343 L 400,1351 L 412,1362 L 422,1375 L 423,1377 L 668,1377 L 653,1247 L 669,1247 L 669,1102 L 826,1102 L 826,1141 L 889,1141 L 1144,886 L 1143,882 L 1141,866 L 1143,849 L 1148,834 L 1156,819 L 1167,807 L 1181,797 L 1196,791 L 1212,787 L 1228,787 L 1240,790 L 1456,574 L 1456,521 L 1408,521 L 1408,345 L 1584,345 L 1584,393 L 1742,393 L 1742,345 L 1918,345 L 1918,521 L 1742,521 L 1742,472 L 1584,472 L 1584,521 L 1535,521 L 1535,590 L 1534,598 L 1532,605 L 1528,612 L 1523,618 L 1296,846 L 1297,849 L 1299,866 L 1297,882 L 1292,898 L 1284,912 L 1273,924 L 1259,934 L 1244,940 L 1228,944 L 1212,944 L 1200,941 L 933,1208 L 927,1213 L 920,1217 L 913,1219 L 905,1220 L 826,1220 L 826,1247 L 842,1247 L 811,1522 L 685,1522 L 677,1456 L 423,1456 L 417,1466 L 406,1478 L 393,1486 z " style="fill-opacity:1.000000;fill:rgb(248,41,248);stroke:rgb(0,0,0);stroke-width:2"/></g>
<g fill-rule="evenodd"><path d="M 1653,2322 L 2024,2322 L 2024,2134 L 2015,2125 L 2008,2114 L 2005,2102 L 2003,2089 L 2005,2077 L 2008,2065 L 2015,2054 L 2023,2045 L 2033,2037 L 2045,2032 L 2057,2030 L 2070,2030 L 2082,2032 L 2093,2037 L 2103,2045 L 2112,2054 L 2118,2065 L 2122,2077 L 2123,2089 L 2122,2102 L 2118,2114 L 2112,2125 L 2103,2134 L 2103,2322 L 2227,2322 L 2460,2090 L 2459,2086 L 2460,2074 L 2464,2062 L 2471,2051 L 2479,2042 L 2489,2034 L 2501,2029 L 2513,2026 L 2525,2026 L 2538,2029 L 2549,2034 L 2559,2042 L 2568,2051 L 2574,2062 L 2578,2074 L 2579,2086 L 2578,2099 L 2574,2111 L 2568,2121 L 2559,2131 L 2549,2138 L 2538,2143 L 2525,2146 L 2515,2146 L 2271,2390 L 2265,2394 L 2259,2398 L 2251,2400 L 2244,2401 L 2106,2401 L 2106,2530 L 2154,2530 L 2154,2706 L 1978,2706 L 1978,2530 L 2027,2530 L 2027,2401 L 1653,2401 L 1653,2440 L 1614,2440 L 1614,2952 L 1613,2960 L 1611,2967 L 1607,2974 L 1602,2980 L 1591,2992 L 1940,2992 L 1944,2985 L 1955,2972 L 1968,2963 L 1983,2956 L 1999,2953 L 2016,2953 L 2032,2956 L 2047,2963 L 2060,2972 L 2071,2985 L 2079,2999 L 2084,3015 L 2086,3031 L 2084,3047 L 2079,3063 L 2071,3077 L 2060,3090 L 2047,3099 L 2032,3106 L 2016,3109 L 1999,3109 L 1983,3106 L 1968,3099 L 1955,3090 L 1944,3077 L 1940,3070 L 1563,3070 L 1559,3077 L 1548,3090 L 1535,3099 L 1520,3106 L 1504,3109 L 1487,3109 L 1471,3106 L 1456,3099 L 1443,3090 L 1432,3077 L 1424,3063 L 1419,3047 L 1417,3031 L 1419,3015 L 1424,2999 L 1432,2985 L 1443,2972 L 1456,2963 L 1471,2956 L 1487,2953 L 1504,2953 L 1516,2955 L 1535,2936 L 1535,2440 L 1508,2440 L 1508,2456 L 1233,2425 L 1233,2299 L 1508,2267 L 1508,2283 L 1535,2283 L 1535,2125 L 1536,2118 L 1538,2110 L 1542,2103 L 1547,2097 L 1551,2093 L 1551,2089 L 1552,2077 L 1556,2065 L 1562,2054 L 1570,2045 L 1581,2037 L 1592,2032 L 1604,2030 L 1617,2030 L 1629,2032 L 1641,2037 L 1651,2045 L 1659,2054 L 1665,2065 L 1669,2077 L 1671,2089 L 1669,2102 L 1665,2114 L 1659,2125 L 1651,2134 L 1641,2141 L 1629,2146 L 1617,2149 L 1614,2149 L 1614,2283 L 1653,2283 L 1653,2322 z " style="fill-opacity:1.000000;fill:rgb(164,27,19);stroke:rgb(0,0,0);stroke-width:2"/></g>
<g fill-rule="evenodd"><path d="M 5936,3616 L 5936,3655 L 5791,3655 L 5791,3671 L 5515,3639 L 5515,3513 L 5791,3482 L 5791,3498 L 5818,3498 L 5818,3261 L 5791,3261 L 5791,3277 L 5515,3246 L 5515,3120 L 5791,3088 L 5791,3104 L 5818,3104 L 5818,2868 L 5791,2868 L 5791,2883 L 5515,2852 L 5515,2726 L 5791,2695 L 5791,2710 L 5818,2710 L 5818,2168 L 5813,2164 L 5802,2152 L 5794,2138 L 5789,2122 L 5787,2106 L 5789,2089 L 5794,2074 L 5802,2060 L 5813,2047 L 5826,2038 L 5841,2031 L 5857,2027 L 5874,2027 L 5890,2031 L 5905,2038 L 5918,2047 L 5929,2060 L 5938,2074 L 5943,2089 L 5944,2106 L 5943,2122 L 5938,2138 L 5929,2152 L 5918,2164 L 5905,2174 L 5896,2178 L 5896,2710 L 5936,2710 L 5936,2868 L 5896,2868 L 5896,3104 L 5936,3104 L 5936,3261 L 5896,3261 L 5896,3498 L 5936,3498 L 5936,3537 L 6458,3537 L 6456,3523 L 6458,3507 L 6463,3491 L 6471,3477 L 6482,3465 L 6496,3455 L 6511,3448 L 6527,3445 L 6543,3445 L 6559,3448 L 6574,3455 L 6588,3465 L 6599,3477 L 6607,3491 L 6612,3507 L 6614,3523 L 6612,3539 L 6607,3555 L 6599,3569 L 6588,3582 L 6574,3591 L 6574,3711 L 6623,3711 L 6623,3887 L 6447,3887 L 6447,3711 L 6496,3711 L 6496,3613 L 6489,3615 L 6482,3616 L 5936,3616 z " style="fill-opacity:1.000000;fill:rgb(181,202,78);stroke:rgb(0,0,0);stroke-width:2"/></g>
<g fill-rule="evenodd"><path d="M 5946,590 L 6381,590 L 6251,460 L 6246,454 L 6243,448 L 6240,440 L 6240,433 L 6240,284 L 6191,284 L 6191,108 L 6367,108 L 6367,284 L 6318,284 L 6318,416 L 6515,613 L 6527,610 L 6543,610 L 6555,613 L 6653,515 L 6653,284 L 6604,284 L 6604,108 L 6780,108 L 6780,284 L 6732,284 L 6732,531 L 6731,539 L 6729,546 L 6725,553 L 6720,559 L 6611,668 L 6612,672 L 6614,688 L 6612,705 L 6607,721 L 6599,735 L 6588,747 L 6574,757 L 6559,763 L 6543,767 L 6527,767 L 6511,763 L 6496,757 L 6482,747 L 6471,735 L 6463,721 L 6458,705 L 6456,688 L 6458,672 L 6459,669 L 5946,669 L 5946,708 L 5907,708 L 5907,931 L 5946,931 L 5946,1088 L 5907,1088 L 5907,1338 L 5946,1338 L 5946,1496 L 5801,1496 L 5801,1511 L 5526,1480 L 5526,1354 L 5801,1322 L 5801,1338 L 5828,1338 L 5828,1088 L 5801,1088 L 5801,1104 L 5526,1072 L 5526,946 L 5801,915 L 5801,931 L 5828,931 L 5828,708 L 5801,708 L 5801,724 L 5526,692 L 5526,566 L 5801,535 L 5801,551 L 5946,551 L 5946,590 z " style="fill-opacity:1.000000;fill:rgb(232,152,50);stroke:rgb(0,0,0);stroke-width:2"/></g>
</svg>
