<?xml version="1.0" standalone="no"?>
<!DOCTYPE svg PUBLIC "-//W3C//DTD SVG 1.1//EN"
"http://www.w3.org/Graphics/SVG/1.1/DTD/svg11.dtd">
<svg width="7998" height="4061" viewBox="0 0 7998 4061" version="1.1"
xmlns="http://www.w3.org/2000/svg"
xmlns:xlink="http://www.w3.org/1999/xlink">
<g fill-rule="evenodd"><path d="M 7935,0 L 7947,1 L 7959,4 L 7970,10 L 7979,18 L 7987,27 L 7993,38 L 7996,50 L 7997,62 L 7997,3998 L 7996,4010 L 7993,4022 L 7987,4033 L 7979,4042 L 7970,4050 L 7959,4056 L 7947,4059 L 7935,4061 L 62,4061 L 50,4059 L 38,4056 L 27,4050 L 18,4042 L 10,4033 L 4,4022 L 1,4010 L 0,3998 L 0,62 L 1,50 L 4,38 L 10,27 L 18,18 L 27,10 L 38,4 L 50,1 L 62,0 L 7935,0 z " style="fill-opacity:1.000000;fill:rgb(103,198,105);stroke:rgb(0,0,0);stroke-width:2"/></g>
</svg>
