<?xml version="1.0" standalone="no"?>
<!DOCTYPE svg PUBLIC "-//W3C//DTD SVG 1.1//EN"
"http://www.w3.org/Graphics/SVG/1.1/DTD/svg11.dtd">
<svg width="8143.83" height="4206.82" viewBox="0 0 8143.83 4206.82" version="1.1"
xmlns="http://www.w3.org/2000/svg"
xmlns:xlink="http://www.w3.org/1999/xlink">
<circle cx="1257" cy="1984" r="30" style=""/>
<circle cx="1257" cy="1584" r="30" style=""/>
<circle cx="1745" cy="2224" r="31" style=""/>
<circle cx="1745" cy="1824" r="31" style=""/>
<circle cx="1945" cy="2024" r="31" style=""/>
<circle cx="2198" cy="2224" r="31" style=""/>
<circle cx="2198" cy="1824" r="31" style=""/>
<circle cx="2398" cy="2024" r="31" style=""/>
<circle cx="2654" cy="1821" r="31" style=""/>
<circle cx="2854" cy="2021" r="31" style=""/>
<circle cx="2654" cy="2221" r="31" style=""/>
<circle cx="489" cy="2910" r="39" style=""/>
<circle cx="922" cy="2496" r="39" style=""/>
<circle cx="883" cy="2103" r="39" style=""/>
<circle cx="489" cy="2122" r="39" style=""/>
<circle cx="883" cy="1315" r="39" style=""/>
<circle cx="1355" cy="1000" r="39" style=""/>
<circle cx="1709" cy="2496" r="39" style=""/>
<circle cx="3166" cy="1453" r="39" style=""/>
<circle cx="3559" cy="1453" r="39" style=""/>
<circle cx="3953" cy="1453" r="39" style=""/>
<circle cx="2929" cy="1000" r="39" style=""/>
<circle cx="3166" cy="666" r="39" style=""/>
<circle cx="3559" cy="666" r="39" style=""/>
<circle cx="3953" cy="666" r="39" style=""/>
<circle cx="5214" cy="1453" r="39" style=""/>
<circle cx="5214" cy="1046" r="39" style=""/>
<circle cx="5214" cy="666" r="39" style=""/>
<circle cx="6002" cy="666" r="39" style=""/>
<circle cx="6002" cy="1046" r="39" style=""/>
<circle cx="6002" cy="1453" r="39" style=""/>
<circle cx="5991" cy="2923" r="39" style=""/>
<circle cx="5991" cy="3317" r="39" style=""/>
<circle cx="5991" cy="3711" r="39" style=""/>
<circle cx="5204" cy="3711" r="39" style=""/>
<circle cx="5204" cy="3317" r="39" style=""/>
<circle cx="5204" cy="2923" r="39" style=""/>
<circle cx="3953" cy="3716" r="39" style=""/>
<circle cx="3953" cy="3323" r="39" style=""/>
<circle cx="3953" cy="2929" r="39" style=""/>
<circle cx="3166" cy="2929" r="39" style=""/>
<circle cx="3166" cy="3323" r="39" style=""/>
<circle cx="3166" cy="3716" r="39" style=""/>
<circle cx="2201" cy="2752" r="40" style=""/>
<circle cx="2772" cy="3323" r="40" style=""/>
<circle cx="2772" cy="2752" r="40" style=""/>
<circle cx="489" cy="1551" r="40" style=""/>
<circle cx="489" cy="1351" r="40" style=""/>
<circle cx="1631" cy="567" r="40" style=""/>
<circle cx="1965" cy="567" r="40" style=""/>
<circle cx="2693" cy="567" r="40" style=""/>
<circle cx="4268" cy="666" r="40" style=""/>
<circle cx="5213" cy="312" r="40" style=""/>
<circle cx="6000" cy="312" r="40" style=""/>
<circle cx="6708" cy="312" r="40" style=""/>
<circle cx="6669" cy="3933" r="40" style=""/>
<circle cx="1631" cy="3165" r="43" style=""/>
<circle cx="1631" cy="3520" r="43" style=""/>
<circle cx="2142" cy="3165" r="43" style=""/>
<circle cx="2142" cy="3520" r="43" style=""/>
<circle cx="3107" cy="1748" r="59" style=""/>
<circle cx="3107" cy="2142" r="59" style=""/>
<circle cx="3107" cy="2535" r="59" style=""/>
<circle cx="6315" cy="3559" r="59" style=""/>
<circle cx="6708" cy="3559" r="59" style=""/>
<circle cx="7102" cy="3559" r="59" style=""/>
<circle cx="5941" cy="2535" r="59" style=""/>
<circle cx="5941" cy="2142" r="59" style=""/>
<circle cx="5941" cy="1748" r="59" style=""/>
<circle cx="6315" cy="725" r="59" style=""/>
<circle cx="6708" cy="725" r="59" style=""/>
<circle cx="7102" cy="725" r="59" style=""/>
<circle cx="528" cy="3677" r="125" style=""/>
<circle cx="528" cy="528" r="125" style=""/>
<circle cx="4524" cy="1670" r="125" style=""/>
<circle cx="4524" cy="2614" r="125" style=""/>
<circle cx="6236" cy="2142" r="125" style=""/>
<circle cx="7614" cy="3677" r="125" style=""/>
<circle cx="7181" cy="2142" r="125" style=""/>
<circle cx="7614" cy="528" r="125" style=""/>
</svg>
