<?xml version="1.0" standalone="no"?>
<!DOCTYPE svg PUBLIC "-//W3C//DTD SVG 1.1//EN"
"http://www.w3.org/Graphics/SVG/1.1/DTD/svg11.dtd">
<svg width="8018.24" height="4081.23" viewBox="0 0 8018.24 4081.23" version="1.1"
xmlns="http://www.w3.org/2000/svg"
xmlns:xlink="http://www.w3.org/1999/xlink">
<circle cx="1194" cy="1522" r="30" style=""/>
<circle cx="1194" cy="1922" r="30" style=""/>
<circle cx="2591" cy="1758" r="31" style=""/>
<circle cx="2791" cy="1958" r="31" style=""/>
<circle cx="2591" cy="2158" r="31" style=""/>
<circle cx="2335" cy="1961" r="31" style=""/>
<circle cx="2135" cy="1761" r="31" style=""/>
<circle cx="1883" cy="1961" r="31" style=""/>
<circle cx="1683" cy="1761" r="31" style=""/>
<circle cx="1683" cy="2161" r="31" style=""/>
<circle cx="2135" cy="2161" r="31" style=""/>
<circle cx="3103" cy="2178" r="39" style=""/>
<circle cx="6607" cy="761" r="39" style=""/>
<circle cx="5938" cy="2178" r="39" style=""/>
<circle cx="6607" cy="3595" r="39" style=""/>
<circle cx="1292" cy="938" r="39" style=""/>
<circle cx="820" cy="1253" r="39" style=""/>
<circle cx="820" cy="2040" r="39" style=""/>
<circle cx="426" cy="2060" r="39" style=""/>
<circle cx="426" cy="2847" r="39" style=""/>
<circle cx="859" cy="2434" r="39" style=""/>
<circle cx="1647" cy="2434" r="39" style=""/>
<circle cx="3103" cy="1489" r="39" style=""/>
<circle cx="3497" cy="1489" r="39" style=""/>
<circle cx="3890" cy="1489" r="39" style=""/>
<circle cx="2867" cy="938" r="39" style=""/>
<circle cx="3103" cy="701" r="39" style=""/>
<circle cx="3497" cy="701" r="39" style=""/>
<circle cx="3890" cy="701" r="39" style=""/>
<circle cx="5152" cy="1489" r="39" style=""/>
<circle cx="5152" cy="1081" r="39" style=""/>
<circle cx="5152" cy="701" r="39" style=""/>
<circle cx="5939" cy="701" r="39" style=""/>
<circle cx="5939" cy="1081" r="39" style=""/>
<circle cx="5939" cy="1489" r="39" style=""/>
<circle cx="5929" cy="2861" r="39" style=""/>
<circle cx="5929" cy="3255" r="39" style=""/>
<circle cx="5929" cy="3648" r="39" style=""/>
<circle cx="5141" cy="3648" r="39" style=""/>
<circle cx="5141" cy="3255" r="39" style=""/>
<circle cx="5141" cy="2861" r="39" style=""/>
<circle cx="3891" cy="3654" r="39" style=""/>
<circle cx="3891" cy="3260" r="39" style=""/>
<circle cx="3891" cy="2867" r="39" style=""/>
<circle cx="3103" cy="2867" r="39" style=""/>
<circle cx="3103" cy="3260" r="39" style=""/>
<circle cx="3103" cy="3654" r="39" style=""/>
<circle cx="1568" cy="505" r="40" style=""/>
<circle cx="1902" cy="505" r="40" style=""/>
<circle cx="2335" cy="505" r="40" style=""/>
<circle cx="2670" cy="505" r="40" style=""/>
<circle cx="426" cy="1289" r="40" style=""/>
<circle cx="426" cy="1489" r="40" style=""/>
<circle cx="2139" cy="2690" r="40" style=""/>
<circle cx="2709" cy="3260" r="40" style=""/>
<circle cx="2709" cy="2690" r="40" style=""/>
<circle cx="4205" cy="701" r="40" style=""/>
<circle cx="6351" cy="268" r="40" style=""/>
<circle cx="6764" cy="268" r="40" style=""/>
<circle cx="6607" cy="3871" r="40" style=""/>
<circle cx="1568" cy="3103" r="43" style=""/>
<circle cx="1568" cy="3457" r="43" style=""/>
<circle cx="2079" cy="3103" r="43" style=""/>
<circle cx="2079" cy="3457" r="43" style=""/>
<circle cx="465" cy="465" r="125" style=""/>
<circle cx="465" cy="3615" r="125" style=""/>
<circle cx="7552" cy="465" r="125" style=""/>
<circle cx="7552" cy="3615" r="125" style=""/>
</svg>
