<?xml version="1.0" standalone="no"?>
<!DOCTYPE svg PUBLIC "-//W3C//DTD SVG 1.1//EN"
"http://www.w3.org/Graphics/SVG/1.1/DTD/svg11.dtd">
<svg width="6988" height="3808" viewBox="0 0 6988 3808" version="1.1"
xmlns="http://www.w3.org/2000/svg"
xmlns:xlink="http://www.w3.org/1999/xlink">
<g fill-rule="evenodd"><path d="M 3031,413 L 3267,413 L 3267,374 L 3425,374 L 3425,413 L 3661,413 L 3661,374 L 3818,374 L 3818,413 L 3966,413 L 3966,364 L 4142,364 L 4142,540 L 3966,540 L 3966,492 L 3818,492 L 3818,518 L 3834,518 L 3803,794 L 3677,794 L 3645,518 L 3661,518 L 3661,492 L 3425,492 L 3425,518 L 3440,518 L 3409,794 L 3283,794 L 3251,518 L 3267,518 L 3267,492 L 3031,492 L 3031,518 L 3047,518 L 3015,794 L 2889,794 L 2879,700 L 2794,784 L 2795,787 L 2793,803 L 2788,819 L 2780,833 L 2769,845 L 2755,855 L 2740,862 L 2724,865 L 2708,865 L 2692,862 L 2677,855 L 2663,845 L 2652,833 L 2648,826 L 2555,826 L 2250,1131 L 2250,1361 L 2436,1548 L 2447,1548 L 2459,1550 L 2470,1555 L 2481,1563 L 2489,1572 L 2495,1583 L 2499,1595 L 2500,1607 L 2499,1620 L 2495,1632 L 2489,1643 L 2481,1652 L 2470,1659 L 2459,1664 L 2447,1667 L 2434,1667 L 2422,1664 L 2410,1659 L 2400,1652 L 2392,1643 L 2386,1632 L 2382,1620 L 2380,1607 L 2381,1603 L 2194,1417 L 2027,1417 L 2027,1522 L 2026,1530 L 2024,1538 L 2024,1565 L 2033,1575 L 2039,1586 L 2043,1598 L 2045,1610 L 2043,1623 L 2039,1635 L 2033,1646 L 2025,1655 L 2015,1662 L 2003,1667 L 1991,1670 L 1978,1670 L 1966,1667 L 1955,1662 L 1944,1655 L 1936,1646 L 1930,1635 L 1926,1623 L 1925,1610 L 1926,1598 L 1930,1586 L 1936,1575 L 1945,1565 L 1945,1525 L 1946,1518 L 1948,1510 L 1948,1417 L 1571,1417 L 1571,1565 L 1580,1575 L 1587,1586 L 1591,1598 L 1592,1610 L 1591,1623 L 1587,1635 L 1580,1646 L 1572,1655 L 1562,1662 L 1550,1667 L 1538,1670 L 1526,1670 L 1513,1667 L 1502,1662 L 1492,1655 L 1483,1646 L 1477,1635 L 1473,1623 L 1472,1610 L 1473,1598 L 1477,1586 L 1483,1575 L 1493,1565 L 1493,1430 L 1473,1410 L 1082,1410 L 1080,1413 L 1071,1420 L 1060,1424 L 1049,1427 L 1037,1427 L 1026,1424 L 1015,1420 L 1006,1413 L 998,1404 L 992,1394 L 988,1383 L 987,1371 L 988,1359 L 992,1348 L 998,1338 L 1006,1329 L 1015,1323 L 1026,1318 L 1037,1315 L 1049,1315 L 1060,1318 L 1071,1323 L 1080,1329 L 1082,1332 L 1490,1332 L 1497,1332 L 1505,1335 L 1511,1338 L 2171,1338 L 2171,1115 L 2172,1107 L 2174,1100 L 2178,1093 L 2183,1087 L 2511,759 L 2517,754 L 2524,750 L 2531,748 L 2539,747 L 2648,747 L 2652,741 L 2663,728 L 2677,719 L 2692,712 L 2708,709 L 2724,709 L 2740,712 L 2750,716 L 2839,628 L 2845,623 L 2851,620 L 2859,617 L 2869,617 L 2858,518 L 2874,518 L 2874,374 L 3031,374 L 3031,413 z " style="fill-opacity:1.000000;fill:rgb(103,198,105);stroke:rgb(0,0,0);stroke-width:2"/></g>
<g fill-rule="evenodd"><path d="M 3425,1200 L 3661,1200 L 3661,1174 L 3645,1174 L 3677,898 L 3803,898 L 3834,1174 L 3818,1174 L 3818,1318 L 3661,1318 L 3661,1279 L 3425,1279 L 3425,1318 L 3267,1318 L 3267,1279 L 3031,1279 L 3031,1318 L 2992,1318 L 2992,1476 L 2991,1483 L 2989,1491 L 2985,1498 L 2984,1499 L 2989,1514 L 2991,1535 L 2989,1555 L 2983,1575 L 2973,1592 L 2959,1608 L 2942,1620 L 2932,1624 L 2932,1839 L 2942,1843 L 2959,1855 L 2973,1871 L 2983,1888 L 2989,1908 L 2991,1928 L 2989,1949 L 2983,1968 L 2973,1986 L 2959,2002 L 2942,2014 L 2932,2018 L 2932,2232 L 2942,2237 L 2959,2249 L 2973,2264 L 2983,2282 L 2989,2301 L 2991,2322 L 2989,2342 L 2984,2358 L 2985,2359 L 2989,2366 L 2991,2373 L 2992,2381 L 2992,2637 L 3018,2637 L 3018,2621 L 3294,2653 L 3294,2779 L 3018,2810 L 3018,2794 L 2992,2794 L 2992,3031 L 3018,3031 L 3018,3015 L 3294,3046 L 3294,3172 L 3018,3204 L 3018,3188 L 2992,3188 L 2992,3424 L 3018,3424 L 3018,3409 L 3294,3440 L 3294,3566 L 3018,3597 L 3018,3582 L 2874,3582 L 2874,3424 L 2913,3424 L 2913,3188 L 2874,3188 L 2874,3149 L 2647,3149 L 2647,3197 L 2471,3197 L 2471,3021 L 2647,3021 L 2647,3070 L 2874,3070 L 2874,3031 L 2913,3031 L 2913,2794 L 2874,2794 L 2874,2637 L 2913,2637 L 2913,2418 L 2903,2420 L 2883,2420 L 2863,2416 L 2844,2407 L 2827,2395 L 2814,2380 L 2803,2362 L 2797,2342 L 2795,2322 L 2797,2301 L 2803,2282 L 2814,2264 L 2827,2249 L 2844,2237 L 2854,2232 L 2854,2018 L 2844,2014 L 2827,2002 L 2814,1986 L 2803,1968 L 2797,1949 L 2795,1928 L 2797,1908 L 2803,1888 L 2814,1871 L 2827,1855 L 2844,1843 L 2854,1839 L 2854,1624 L 2844,1620 L 2827,1608 L 2814,1592 L 2803,1575 L 2797,1555 L 2795,1535 L 2797,1514 L 2803,1495 L 2814,1477 L 2827,1462 L 2844,1449 L 2863,1441 L 2883,1437 L 2903,1437 L 2913,1439 L 2913,1318 L 2874,1318 L 2874,1174 L 2858,1174 L 2889,898 L 3015,898 L 3047,1174 L 3031,1174 L 3031,1200 L 3267,1200 L 3267,1174 L 3251,1174 L 3283,898 L 3409,898 L 3440,1174 L 3425,1174 L 3425,1200 z " style="fill-opacity:1.000000;fill:rgb(115,81,255);stroke:rgb(0,0,0);stroke-width:2"/></g>
<g fill-rule="evenodd"><path d="M 2601,1852 L 2596,1847 L 2232,1847 L 2225,1855 L 2215,1862 L 2203,1867 L 2191,1870 L 2178,1870 L 2166,1867 L 2155,1862 L 2144,1855 L 2140,1850 L 1777,1850 L 1772,1855 L 1762,1862 L 1750,1867 L 1738,1870 L 1726,1870 L 1713,1867 L 1702,1862 L 1692,1855 L 1687,1850 L 1082,1850 L 1075,1849 L 1067,1847 L 1061,1843 L 1055,1838 L 1043,1827 L 953,1917 L 947,1922 L 940,1926 L 932,1928 L 925,1929 L 748,1929 L 748,1968 L 590,1968 L 590,1823 L 575,1823 L 606,1548 L 732,1548 L 763,1823 L 748,1823 L 748,1850 L 908,1850 L 987,1771 L 988,1759 L 992,1748 L 998,1738 L 1006,1729 L 1015,1723 L 1026,1718 L 1037,1715 L 1049,1715 L 1060,1718 L 1071,1723 L 1080,1729 L 1088,1738 L 1094,1748 L 1098,1759 L 1099,1771 L 1687,1771 L 1692,1766 L 1702,1758 L 1713,1753 L 1726,1751 L 1738,1751 L 1750,1753 L 1762,1758 L 1772,1766 L 1777,1771 L 2140,1771 L 2144,1766 L 2155,1758 L 2166,1753 L 2178,1751 L 2191,1751 L 2203,1753 L 2215,1758 L 2225,1766 L 2227,1768 L 2596,1768 L 2600,1763 L 2610,1755 L 2622,1750 L 2634,1748 L 2647,1748 L 2659,1750 L 2670,1755 L 2680,1763 L 2689,1772 L 2695,1783 L 2699,1795 L 2700,1807 L 2699,1820 L 2695,1832 L 2689,1842 L 2680,1852 L 2680,2142 L 2679,2149 L 2677,2157 L 2673,2164 L 2668,2170 L 2598,2240 L 2598,2451 L 2647,2451 L 2647,2626 L 2471,2626 L 2471,2451 L 2519,2451 L 2519,2224 L 2520,2216 L 2522,2208 L 2526,2202 L 2531,2196 L 2601,2125 L 2601,1852 z " style="fill-opacity:1.000000;fill:rgb(74,236,41);stroke:rgb(0,0,0);stroke-width:2"/></g>
<g fill-rule="evenodd"><path d="M 315,1407 L 315,1830 L 354,1830 L 354,1975 L 370,1975 L 338,2250 L 213,2250 L 181,1975 L 197,1975 L 197,1830 L 236,1830 L 236,1407 L 230,1404 L 218,1393 L 208,1380 L 200,1366 L 196,1350 L 196,1334 L 198,1318 L 204,1303 L 212,1289 L 223,1277 L 237,1268 L 252,1262 L 267,1258 L 276,1258 L 292,1260 L 307,1264 L 321,1272 L 333,1283 L 343,1296 L 345,1298 L 590,1298 L 575,1168 L 590,1168 L 590,1023 L 748,1023 L 748,1062 L 810,1062 L 1066,807 L 1064,803 L 1063,787 L 1064,770 L 1069,755 L 1078,741 L 1089,728 L 1102,719 L 1117,712 L 1133,709 L 1150,709 L 1161,711 L 1378,495 L 1378,442 L 1329,442 L 1329,266 L 1505,266 L 1505,314 L 1664,314 L 1664,266 L 1840,266 L 1840,442 L 1664,442 L 1664,393 L 1505,393 L 1505,442 L 1456,442 L 1456,511 L 1456,519 L 1453,526 L 1450,533 L 1445,539 L 1217,767 L 1218,770 L 1220,787 L 1218,803 L 1213,819 L 1205,833 L 1194,845 L 1181,855 L 1166,862 L 1150,865 L 1133,865 L 1121,863 L 854,1130 L 849,1134 L 842,1138 L 834,1140 L 827,1141 L 748,1141 L 748,1168 L 763,1168 L 732,1443 L 606,1443 L 599,1377 L 345,1377 L 339,1387 L 328,1399 L 315,1407 z " style="fill-opacity:1.000000;fill:rgb(205,186,171);stroke:rgb(0,0,0);stroke-width:2"/></g>
<g fill-rule="evenodd"><path d="M 0,2617 L 0,1216 L 1,1208 L 3,1200 L 7,1194 L 11,1188 L 89,1110 L 95,1105 L 102,1102 L 109,1099 L 117,1099 L 196,1099 L 196,1058 L 236,1058 L 236,1023 L 237,1015 L 239,1008 L 243,1001 L 248,995 L 1232,11 L 1238,6 L 1244,2 L 1252,0 L 1260,0 L 4646,0 L 4654,0 L 4661,2 L 4668,6 L 4674,11 L 4722,58 L 4911,58 L 4911,10 L 5087,10 L 5087,186 L 5039,186 L 5039,374 L 5067,374 L 5067,358 L 5342,389 L 5342,515 L 5067,547 L 5067,531 L 5040,531 L 5040,753 L 5067,753 L 5067,738 L 5342,769 L 5342,895 L 5067,927 L 5067,911 L 5040,911 L 5040,1161 L 5067,1161 L 5067,1145 L 5342,1177 L 5342,1302 L 5067,1334 L 5067,1318 L 5040,1318 L 5040,2458 L 5039,2466 L 5037,2473 L 5034,2480 L 5030,2485 L 5030,2631 L 5056,2631 L 5056,2615 L 5332,2647 L 5332,2773 L 5056,2804 L 5056,2789 L 5030,2789 L 5030,3025 L 5056,3025 L 5056,3009 L 5332,3041 L 5332,3167 L 5056,3198 L 5056,3182 L 5030,3182 L 5030,3418 L 5056,3418 L 5056,3403 L 5332,3434 L 5332,3560 L 5056,3592 L 5056,3576 L 4912,3576 L 4912,3418 L 4951,3418 L 4951,3182 L 4912,3182 L 4912,3025 L 4951,3025 L 4951,2789 L 4912,2789 L 4912,2749 L 3818,2749 L 3818,2794 L 3779,2794 L 3779,3031 L 3818,3031 L 3818,3188 L 3779,3188 L 3779,3424 L 3818,3424 L 3818,3582 L 3674,3582 L 3674,3597 L 3398,3566 L 3398,3440 L 3674,3409 L 3674,3424 L 3700,3424 L 3700,3188 L 3674,3188 L 3674,3204 L 3398,3172 L 3398,3046 L 3674,3015 L 3674,3031 L 3700,3031 L 3700,2794 L 3674,2794 L 3674,2810 L 3398,2779 L 3398,2653 L 3674,2621 L 3674,2637 L 3818,2637 L 3818,2670 L 4912,2670 L 4912,2631 L 4951,2631 L 4951,2469 L 4952,2461 L 4954,2453 L 4958,2447 L 4961,2442 L 4961,1318 L 4922,1318 L 4922,1161 L 4961,1161 L 4961,911 L 4922,911 L 4922,753 L 4961,753 L 4961,531 L 4922,531 L 4922,374 L 4960,374 L 4960,186 L 4911,186 L 4911,137 L 4705,137 L 4698,137 L 4690,134 L 4684,131 L 4678,126 L 4630,78 L 2519,78 L 2519,266 L 2568,266 L 2568,442 L 2392,442 L 2392,266 L 2440,266 L 2440,78 L 1276,78 L 315,1039 L 315,1058 L 355,1058 L 355,1218 L 196,1218 L 196,1177 L 133,1177 L 79,1232 L 79,2601 L 134,2657 L 197,2657 L 197,2630 L 181,2630 L 213,2355 L 338,2355 L 370,2630 L 354,2630 L 354,2657 L 594,2657 L 669,2581 L 669,2361 L 630,2361 L 630,2204 L 774,2204 L 774,2188 L 1050,2220 L 1050,2346 L 774,2377 L 774,2361 L 748,2361 L 748,2581 L 1397,3230 L 1409,3228 L 1425,3228 L 1441,3231 L 1456,3238 L 1470,3248 L 1481,3260 L 1485,3267 L 1861,3267 L 1865,3260 L 1876,3248 L 1889,3238 L 1904,3231 L 1920,3228 L 1937,3228 L 1953,3231 L 1968,3238 L 1981,3248 L 1992,3260 L 2001,3274 L 2006,3290 L 2007,3306 L 2006,3323 L 2001,3338 L 1992,3352 L 1981,3365 L 1968,3374 L 1953,3381 L 1937,3384 L 1920,3384 L 1904,3381 L 1889,3374 L 1876,3365 L 1865,3352 L 1861,3346 L 1485,3346 L 1481,3352 L 1470,3365 L 1456,3374 L 1441,3381 L 1425,3384 L 1409,3384 L 1393,3381 L 1378,3374 L 1364,3365 L 1353,3352 L 1345,3338 L 1340,3323 L 1338,3306 L 1340,3290 L 1341,3286 L 708,2653 L 638,2724 L 632,2729 L 625,2732 L 618,2735 L 610,2735 L 354,2735 L 354,2775 L 197,2775 L 197,2735 L 118,2735 L 110,2735 L 103,2732 L 96,2729 L 90,2724 L 11,2645 L 7,2639 L 3,2632 L 1,2625 L 0,2617 z " style="fill-opacity:1.000000;fill:rgb(242,251,227);stroke:rgb(0,0,0);stroke-width:2"/></g>
<g fill-rule="evenodd"><path d="M 1575,2243 L 1945,2243 L 1945,2055 L 1936,2045 L 1930,2035 L 1926,2023 L 1925,2010 L 1926,1998 L 1930,1986 L 1936,1975 L 1944,1966 L 1955,1958 L 1966,1953 L 1978,1951 L 1991,1951 L 2003,1953 L 2015,1958 L 2025,1966 L 2033,1975 L 2039,1986 L 2043,1998 L 2045,2010 L 2043,2023 L 2039,2035 L 2033,2045 L 2024,2055 L 2024,2243 L 2149,2243 L 2381,2011 L 2380,2007 L 2382,1995 L 2386,1983 L 2392,1972 L 2400,1963 L 2410,1955 L 2422,1950 L 2434,1948 L 2447,1948 L 2459,1950 L 2470,1955 L 2481,1963 L 2489,1972 L 2495,1983 L 2499,1995 L 2500,2007 L 2499,2020 L 2495,2032 L 2489,2042 L 2481,2052 L 2470,2059 L 2459,2064 L 2447,2067 L 2436,2067 L 2193,2311 L 2187,2315 L 2180,2319 L 2173,2321 L 2165,2322 L 2027,2322 L 2027,2451 L 2076,2451 L 2076,2626 L 1900,2626 L 1900,2451 L 1948,2451 L 1948,2322 L 1575,2322 L 1575,2361 L 1535,2361 L 1535,2873 L 1535,2881 L 1532,2888 L 1529,2895 L 1524,2901 L 1512,2912 L 1861,2912 L 1865,2906 L 1876,2893 L 1889,2884 L 1904,2877 L 1920,2874 L 1937,2874 L 1953,2877 L 1968,2884 L 1981,2893 L 1992,2906 L 2001,2920 L 2006,2935 L 2007,2952 L 2006,2968 L 2001,2984 L 1992,2998 L 1981,3010 L 1968,3020 L 1953,3027 L 1937,3030 L 1920,3030 L 1904,3027 L 1889,3020 L 1876,3010 L 1865,2998 L 1861,2991 L 1485,2991 L 1481,2998 L 1470,3010 L 1456,3020 L 1441,3027 L 1425,3030 L 1409,3030 L 1393,3027 L 1378,3020 L 1364,3010 L 1353,2998 L 1345,2984 L 1340,2968 L 1338,2952 L 1340,2935 L 1345,2920 L 1353,2906 L 1364,2893 L 1378,2884 L 1393,2877 L 1409,2874 L 1425,2874 L 1437,2876 L 1457,2857 L 1457,2361 L 1430,2361 L 1430,2377 L 1154,2346 L 1154,2220 L 1430,2188 L 1430,2204 L 1457,2204 L 1457,2046 L 1457,2038 L 1460,2031 L 1463,2024 L 1468,2018 L 1472,2014 L 1472,2010 L 1473,1998 L 1477,1986 L 1483,1975 L 1492,1966 L 1502,1958 L 1513,1953 L 1526,1951 L 1538,1951 L 1550,1953 L 1562,1958 L 1572,1966 L 1580,1975 L 1587,1986 L 1591,1998 L 1592,2010 L 1591,2023 L 1587,2035 L 1580,2045 L 1572,2055 L 1562,2062 L 1550,2067 L 1538,2070 L 1535,2070 L 1535,2204 L 1575,2204 L 1575,2243 z " style="fill-opacity:1.000000;fill:rgb(70,124,194);stroke:rgb(0,0,0);stroke-width:2"/></g>
<g fill-rule="evenodd"><path d="M 6987,3346 L 6985,3366 L 6979,3386 L 6968,3403 L 6954,3419 L 6938,3431 L 6919,3439 L 6899,3443 L 6878,3443 L 6858,3439 L 6839,3431 L 6823,3419 L 6809,3403 L 6799,3385 L 6585,3385 L 6575,3403 L 6561,3419 L 6544,3431 L 6525,3439 L 6505,3443 L 6495,3443 L 6495,3632 L 6544,3632 L 6544,3808 L 6368,3808 L 6368,3632 L 6416,3632 L 6416,3404 L 6415,3403 L 6405,3385 L 6191,3385 L 6181,3403 L 6167,3419 L 6151,3431 L 6132,3439 L 6112,3443 L 6091,3443 L 6071,3439 L 6066,3437 L 5977,3525 L 5971,3530 L 5965,3534 L 5957,3536 L 5950,3537 L 5857,3537 L 5857,3576 L 5712,3576 L 5712,3592 L 5436,3560 L 5436,3434 L 5712,3403 L 5712,3418 L 5738,3418 L 5738,3182 L 5712,3182 L 5712,3198 L 5436,3167 L 5436,3041 L 5712,3009 L 5712,3025 L 5738,3025 L 5738,2789 L 5712,2789 L 5712,2804 L 5436,2773 L 5436,2647 L 5712,2615 L 5712,2631 L 5738,2631 L 5738,2420 L 5717,2420 L 5697,2416 L 5678,2407 L 5661,2395 L 5648,2380 L 5637,2362 L 5631,2342 L 5629,2322 L 5631,2301 L 5637,2282 L 5648,2264 L 5661,2249 L 5678,2237 L 5688,2232 L 5688,2018 L 5678,2014 L 5661,2002 L 5648,1986 L 5637,1968 L 5631,1949 L 5629,1928 L 5631,1908 L 5637,1888 L 5648,1871 L 5661,1855 L 5678,1843 L 5688,1839 L 5688,1624 L 5678,1620 L 5661,1608 L 5648,1592 L 5637,1575 L 5631,1555 L 5629,1535 L 5631,1514 L 5637,1495 L 5648,1477 L 5661,1462 L 5678,1449 L 5697,1441 L 5717,1437 L 5738,1437 L 5758,1441 L 5776,1449 L 5793,1462 L 5807,1477 L 5817,1495 L 5823,1514 L 5826,1535 L 5823,1555 L 5817,1575 L 5807,1592 L 5793,1608 L 5776,1620 L 5767,1624 L 5767,1839 L 5776,1843 L 5793,1855 L 5807,1871 L 5817,1888 L 5823,1908 L 5826,1928 L 5823,1949 L 5817,1968 L 5807,1986 L 5793,2002 L 5776,2014 L 5767,2018 L 5767,2232 L 5776,2237 L 5793,2249 L 5807,2264 L 5817,2282 L 5823,2301 L 5826,2322 L 5823,2342 L 5817,2362 L 5816,2364 L 5816,2365 L 5817,2373 L 5817,2631 L 5857,2631 L 5857,2789 L 5817,2789 L 5817,3025 L 5857,3025 L 5857,3182 L 5817,3182 L 5817,3418 L 5857,3418 L 5857,3458 L 5933,3458 L 6010,3381 L 6005,3366 L 6003,3346 L 6005,3325 L 6012,3306 L 6022,3288 L 6036,3272 L 6052,3260 L 6071,3252 L 6091,3248 L 6112,3248 L 6132,3252 L 6151,3260 L 6167,3272 L 6181,3288 L 6191,3306 L 6405,3306 L 6415,3288 L 6429,3272 L 6446,3260 L 6465,3252 L 6485,3248 L 6505,3248 L 6525,3252 L 6544,3260 L 6561,3272 L 6575,3288 L 6585,3306 L 6799,3306 L 6809,3288 L 6823,3272 L 6839,3260 L 6858,3252 L 6878,3248 L 6899,3248 L 6919,3252 L 6938,3260 L 6954,3272 L 6968,3288 L 6979,3306 L 6985,3325 L 6987,3346 z " style="fill-opacity:1.000000;fill:rgb(84,248,27);stroke:rgb(0,0,0);stroke-width:2"/></g>
<g fill-rule="evenodd"><path d="M 6987,511 L 6985,532 L 6979,551 L 6968,569 L 6954,584 L 6938,596 L 6919,605 L 6899,609 L 6878,609 L 6858,605 L 6839,596 L 6823,584 L 6809,569 L 6799,551 L 6585,551 L 6575,569 L 6561,584 L 6544,596 L 6525,605 L 6505,609 L 6485,609 L 6465,605 L 6446,596 L 6429,584 L 6415,569 L 6405,551 L 6191,551 L 6181,569 L 6167,584 L 6151,596 L 6132,605 L 6112,609 L 6091,609 L 6071,605 L 6052,596 L 6036,584 L 6022,569 L 6012,551 L 6005,532 L 6003,511 L 6005,492 L 5867,492 L 5867,531 L 5828,531 L 5828,753 L 5867,753 L 5867,911 L 5828,911 L 5828,1161 L 5867,1161 L 5867,1318 L 5722,1318 L 5722,1334 L 5447,1302 L 5447,1177 L 5722,1145 L 5722,1161 L 5749,1161 L 5749,911 L 5722,911 L 5722,927 L 5447,895 L 5447,769 L 5722,738 L 5722,753 L 5749,753 L 5749,531 L 5722,531 L 5722,547 L 5447,515 L 5447,389 L 5722,358 L 5722,374 L 5747,374 L 5747,186 L 5698,186 L 5698,10 L 5874,10 L 5874,186 L 5826,186 L 5826,374 L 5867,374 L 5867,413 L 6042,413 L 6050,414 L 6057,416 L 6064,419 L 6065,420 L 6071,418 L 6091,413 L 6112,413 L 6132,418 L 6151,426 L 6167,438 L 6181,453 L 6191,472 L 6405,472 L 6415,453 L 6429,438 L 6446,426 L 6456,422 L 6456,186 L 6407,186 L 6407,10 L 6583,10 L 6583,186 L 6534,186 L 6534,422 L 6544,426 L 6561,438 L 6575,453 L 6585,472 L 6799,472 L 6809,453 L 6823,438 L 6839,426 L 6858,418 L 6878,413 L 6899,413 L 6919,418 L 6938,426 L 6954,438 L 6968,453 L 6979,471 L 6985,491 L 6987,511 z " style="fill-opacity:1.000000;fill:rgb(232,231,141);stroke:rgb(0,0,0);stroke-width:2"/></g>
</svg>
