<?xml version="1.0" standalone="no"?>
<!DOCTYPE svg PUBLIC "-//W3C//DTD SVG 1.1//EN"
"http://www.w3.org/Graphics/SVG/1.1/DTD/svg11.dtd">
<svg width="7874" height="3937" viewBox="0 0 7874 3937" version="1.1"
xmlns="http://www.w3.org/2000/svg"
xmlns:xlink="http://www.w3.org/1999/xlink">
<g fill-rule="evenodd"><path d="M 3110,492 L 3346,492 L 3346,452 L 3503,452 L 3503,492 L 3740,492 L 3740,452 L 3897,452 L 3897,492 L 4045,492 L 4045,443 L 4221,443 L 4221,619 L 4045,619 L 4045,570 L 3897,570 L 3897,597 L 3913,597 L 3881,873 L 3755,873 L 3724,597 L 3740,597 L 3740,570 L 3503,570 L 3503,597 L 3519,597 L 3488,873 L 3362,873 L 3330,597 L 3346,597 L 3346,570 L 3110,570 L 3110,597 L 3125,597 L 3094,873 L 2968,873 L 2957,778 L 2873,863 L 2873,866 L 2872,882 L 2867,898 L 2858,912 L 2847,924 L 2834,934 L 2819,940 L 2803,944 L 2786,944 L 2770,940 L 2755,934 L 2742,924 L 2731,912 L 2727,905 L 2634,905 L 2329,1210 L 2329,1440 L 2515,1627 L 2525,1627 L 2538,1629 L 2549,1634 L 2559,1642 L 2568,1651 L 2574,1662 L 2578,1674 L 2579,1686 L 2578,1699 L 2574,1711 L 2568,1721 L 2559,1731 L 2549,1738 L 2538,1743 L 2525,1746 L 2513,1746 L 2501,1743 L 2489,1738 L 2479,1731 L 2471,1721 L 2464,1711 L 2460,1699 L 2459,1686 L 2459,1682 L 2273,1496 L 2106,1496 L 2106,1601 L 2105,1609 L 2103,1617 L 2103,1644 L 2112,1654 L 2118,1665 L 2122,1677 L 2123,1689 L 2122,1702 L 2118,1714 L 2112,1724 L 2103,1734 L 2093,1741 L 2082,1746 L 2070,1749 L 2057,1749 L 2045,1746 L 2033,1741 L 2023,1734 L 2015,1724 L 2008,1714 L 2005,1702 L 2003,1689 L 2005,1677 L 2008,1665 L 2015,1654 L 2024,1644 L 2024,1604 L 2025,1597 L 2027,1589 L 2027,1496 L 1650,1496 L 1650,1644 L 1659,1654 L 1665,1665 L 1669,1677 L 1670,1689 L 1669,1702 L 1665,1714 L 1659,1724 L 1651,1734 L 1640,1741 L 1629,1746 L 1617,1749 L 1604,1749 L 1592,1746 L 1580,1741 L 1570,1734 L 1562,1724 L 1556,1714 L 1552,1702 L 1550,1689 L 1552,1677 L 1556,1665 L 1562,1654 L 1571,1644 L 1571,1509 L 1552,1489 L 1161,1489 L 1159,1492 L 1149,1498 L 1139,1503 L 1127,1506 L 1116,1506 L 1104,1503 L 1093,1498 L 1084,1492 L 1076,1483 L 1070,1473 L 1067,1462 L 1065,1450 L 1067,1438 L 1070,1427 L 1076,1417 L 1084,1408 L 1093,1401 L 1104,1397 L 1116,1394 L 1127,1394 L 1139,1397 L 1149,1401 L 1159,1408 L 1161,1411 L 1568,1411 L 1576,1411 L 1583,1414 L 1589,1417 L 2250,1417 L 2250,1194 L 2251,1186 L 2253,1179 L 2257,1172 L 2261,1166 L 2590,838 L 2596,833 L 2603,829 L 2610,827 L 2618,826 L 2727,826 L 2731,819 L 2742,807 L 2755,797 L 2770,791 L 2786,787 L 2803,787 L 2819,791 L 2829,795 L 2917,707 L 2923,702 L 2930,698 L 2938,696 L 2948,695 L 2937,597 L 2952,597 L 2952,452 L 3110,452 L 3110,492 z " style="fill-opacity:1.000000;fill:rgb(103,198,105);stroke:rgb(0,0,0);stroke-width:2"/></g>
<g fill-rule="evenodd"><path d="M 3503,1279 L 3740,1279 L 3740,1253 L 3724,1253 L 3755,977 L 3881,977 L 3913,1253 L 3897,1253 L 3897,1397 L 3740,1397 L 3740,1358 L 3503,1358 L 3503,1397 L 3346,1397 L 3346,1358 L 3110,1358 L 3110,1397 L 3070,1397 L 3070,1555 L 3070,1562 L 3067,1570 L 3064,1577 L 3063,1577 L 3068,1593 L 3070,1614 L 3068,1634 L 3062,1654 L 3051,1671 L 3038,1687 L 3021,1699 L 3011,1703 L 3011,1918 L 3021,1922 L 3038,1934 L 3051,1950 L 3062,1967 L 3068,1987 L 3070,2007 L 3068,2028 L 3062,2047 L 3051,2065 L 3038,2081 L 3021,2093 L 3011,2097 L 3011,2311 L 3021,2316 L 3038,2328 L 3051,2343 L 3062,2361 L 3068,2381 L 3070,2401 L 3068,2421 L 3063,2437 L 3064,2438 L 3067,2445 L 3070,2452 L 3070,2460 L 3070,2716 L 3097,2716 L 3097,2700 L 3373,2732 L 3373,2858 L 3097,2889 L 3097,2873 L 3070,2873 L 3070,3110 L 3097,3110 L 3097,3094 L 3373,3125 L 3373,3251 L 3097,3283 L 3097,3267 L 3070,3267 L 3070,3503 L 3097,3503 L 3097,3488 L 3373,3519 L 3373,3645 L 3097,3677 L 3097,3661 L 2952,3661 L 2952,3503 L 2992,3503 L 2992,3267 L 2952,3267 L 2952,3228 L 2725,3228 L 2725,3276 L 2549,3276 L 2549,3100 L 2725,3100 L 2725,3149 L 2952,3149 L 2952,3110 L 2992,3110 L 2992,2873 L 2952,2873 L 2952,2716 L 2992,2716 L 2992,2497 L 2982,2499 L 2962,2499 L 2941,2495 L 2923,2486 L 2906,2474 L 2892,2459 L 2882,2441 L 2876,2421 L 2873,2401 L 2876,2381 L 2882,2361 L 2892,2343 L 2906,2328 L 2923,2316 L 2932,2311 L 2932,2097 L 2923,2093 L 2906,2081 L 2892,2065 L 2882,2047 L 2876,2028 L 2873,2007 L 2876,1987 L 2882,1967 L 2892,1950 L 2906,1934 L 2923,1922 L 2932,1918 L 2932,1703 L 2923,1699 L 2906,1687 L 2892,1671 L 2882,1654 L 2876,1634 L 2873,1614 L 2876,1593 L 2882,1574 L 2892,1556 L 2906,1540 L 2923,1528 L 2941,1520 L 2962,1516 L 2982,1516 L 2992,1518 L 2992,1397 L 2952,1397 L 2952,1253 L 2937,1253 L 2968,977 L 3094,977 L 3125,1253 L 3110,1253 L 3110,1279 L 3346,1279 L 3346,1253 L 3330,1253 L 3362,977 L 3488,977 L 3519,1253 L 3503,1253 L 3503,1279 z " style="fill-opacity:1.000000;fill:rgb(115,81,255);stroke:rgb(0,0,0);stroke-width:2"/></g>
<g fill-rule="evenodd"><path d="M 2680,1931 L 2674,1926 L 2311,1926 L 2303,1934 L 2293,1941 L 2282,1946 L 2270,1949 L 2257,1949 L 2245,1946 L 2233,1941 L 2223,1934 L 2218,1929 L 1855,1929 L 1851,1934 L 1840,1941 L 1829,1946 L 1817,1949 L 1804,1949 L 1792,1946 L 1780,1941 L 1770,1934 L 1766,1929 L 1161,1929 L 1153,1928 L 1146,1926 L 1139,1922 L 1133,1917 L 1122,1906 L 1031,1996 L 1025,2001 L 1018,2005 L 1011,2007 L 1003,2008 L 826,2008 L 826,2047 L 669,2047 L 669,1902 L 653,1902 L 684,1627 L 810,1627 L 842,1902 L 826,1902 L 826,1929 L 987,1929 L 1066,1850 L 1067,1838 L 1070,1827 L 1076,1817 L 1084,1808 L 1093,1801 L 1104,1797 L 1116,1794 L 1127,1794 L 1139,1797 L 1149,1801 L 1159,1808 L 1167,1817 L 1173,1827 L 1176,1838 L 1177,1850 L 1766,1850 L 1770,1845 L 1780,1837 L 1792,1832 L 1804,1830 L 1817,1830 L 1829,1832 L 1840,1837 L 1851,1845 L 1855,1850 L 2218,1850 L 2223,1845 L 2233,1837 L 2245,1832 L 2257,1830 L 2270,1830 L 2282,1832 L 2293,1837 L 2303,1845 L 2305,1847 L 2674,1847 L 2679,1842 L 2689,1834 L 2701,1829 L 2713,1827 L 2725,1827 L 2738,1829 L 2749,1834 L 2759,1842 L 2768,1851 L 2774,1862 L 2778,1874 L 2779,1886 L 2778,1899 L 2774,1911 L 2768,1921 L 2758,1931 L 2758,2221 L 2758,2228 L 2755,2236 L 2752,2243 L 2747,2249 L 2677,2319 L 2677,2530 L 2725,2530 L 2725,2706 L 2549,2706 L 2549,2530 L 2598,2530 L 2598,2303 L 2599,2295 L 2601,2288 L 2605,2281 L 2609,2275 L 2680,2204 L 2680,1931 z " style="fill-opacity:1.000000;fill:rgb(74,236,41);stroke:rgb(0,0,0);stroke-width:2"/></g>
<g fill-rule="evenodd"><path d="M 393,1486 L 393,1909 L 433,1909 L 433,2054 L 448,2054 L 417,2329 L 291,2329 L 259,2054 L 275,2054 L 275,1909 L 314,1909 L 314,1486 L 308,1482 L 296,1472 L 286,1459 L 279,1445 L 275,1429 L 274,1413 L 276,1397 L 282,1382 L 291,1368 L 302,1356 L 315,1347 L 330,1340 L 346,1337 L 354,1337 L 370,1338 L 385,1343 L 400,1351 L 412,1362 L 422,1374 L 423,1377 L 668,1377 L 653,1247 L 669,1247 L 669,1102 L 826,1102 L 826,1141 L 889,1141 L 1144,886 L 1143,882 L 1141,866 L 1143,849 L 1148,834 L 1156,819 L 1167,807 L 1181,797 L 1196,791 L 1212,787 L 1228,787 L 1240,790 L 1456,574 L 1456,521 L 1407,521 L 1407,345 L 1583,345 L 1583,393 L 1742,393 L 1742,345 L 1918,345 L 1918,521 L 1742,521 L 1742,472 L 1583,472 L 1583,521 L 1535,521 L 1535,590 L 1534,598 L 1532,605 L 1528,612 L 1523,618 L 1296,846 L 1297,849 L 1299,866 L 1297,882 L 1292,898 L 1284,912 L 1273,924 L 1259,934 L 1244,940 L 1228,944 L 1212,944 L 1200,941 L 933,1208 L 927,1213 L 920,1217 L 913,1219 L 905,1220 L 826,1220 L 826,1247 L 842,1247 L 810,1522 L 684,1522 L 677,1456 L 423,1456 L 417,1466 L 406,1477 L 393,1486 z " style="fill-opacity:1.000000;fill:rgb(205,186,171);stroke:rgb(0,0,0);stroke-width:2"/></g>
<g fill-rule="evenodd"><path d="M 1563,3346 L 1940,3346 L 1944,3339 L 1955,3327 L 1968,3317 L 1983,3311 L 1999,3307 L 2016,3307 L 2032,3311 L 2047,3317 L 2060,3327 L 2071,3339 L 2079,3353 L 2084,3369 L 2086,3385 L 2084,3402 L 2079,3417 L 2071,3432 L 2060,3444 L 2047,3454 L 2032,3460 L 2016,3464 L 1999,3464 L 1983,3460 L 1968,3454 L 1955,3444 L 1944,3432 L 1940,3425 L 1563,3425 L 1559,3432 L 1548,3444 L 1535,3454 L 1520,3460 L 1504,3464 L 1487,3464 L 1471,3460 L 1456,3454 L 1443,3444 L 1432,3432 L 1424,3417 L 1419,3402 L 1417,3385 L 1419,3369 L 1420,3365 L 787,2732 L 716,2803 L 710,2808 L 703,2812 L 696,2814 L 688,2815 L 433,2815 L 433,2854 L 275,2854 L 275,2815 L 196,2815 L 189,2814 L 181,2812 L 174,2808 L 168,2803 L 90,2724 L 85,2718 L 81,2711 L 79,2704 L 78,2696 L 78,1294 L 79,1287 L 81,1279 L 85,1273 L 90,1267 L 167,1189 L 173,1184 L 180,1180 L 187,1178 L 195,1177 L 274,1177 L 274,1137 L 314,1137 L 314,1102 L 315,1094 L 317,1087 L 321,1080 L 326,1074 L 1310,90 L 1316,85 L 1323,81 L 1330,79 L 1338,78 L 4725,78 L 4733,79 L 4741,81 L 4747,85 L 4753,90 L 4801,137 L 4990,137 L 4990,89 L 5166,89 L 5166,265 L 5118,265 L 5118,452 L 5146,452 L 5146,437 L 5421,468 L 5421,594 L 5146,625 L 5146,610 L 5119,610 L 5119,832 L 5146,832 L 5146,817 L 5421,848 L 5421,974 L 5146,1005 L 5146,990 L 5119,990 L 5119,1240 L 5146,1240 L 5146,1224 L 5421,1255 L 5421,1381 L 5146,1413 L 5146,1397 L 5119,1397 L 5119,2537 L 5119,2545 L 5116,2552 L 5113,2559 L 5109,2564 L 5109,2710 L 5135,2710 L 5135,2695 L 5411,2726 L 5411,2852 L 5135,2883 L 5135,2868 L 5109,2868 L 5109,3104 L 5135,3104 L 5135,3088 L 5411,3120 L 5411,3246 L 5135,3277 L 5135,3261 L 5109,3261 L 5109,3498 L 5135,3498 L 5135,3482 L 5411,3513 L 5411,3639 L 5135,3671 L 5135,3655 L 4991,3655 L 4991,3498 L 5030,3498 L 5030,3261 L 4991,3261 L 4991,3104 L 5030,3104 L 5030,2868 L 4991,2868 L 4991,2828 L 3897,2828 L 3897,2873 L 3858,2873 L 3858,3110 L 3897,3110 L 3897,3267 L 3858,3267 L 3858,3503 L 3897,3503 L 3897,3661 L 3753,3661 L 3753,3677 L 3477,3645 L 3477,3519 L 3753,3488 L 3753,3503 L 3779,3503 L 3779,3267 L 3753,3267 L 3753,3283 L 3477,3251 L 3477,3125 L 3753,3094 L 3753,3110 L 3779,3110 L 3779,2873 L 3753,2873 L 3753,2889 L 3477,2858 L 3477,2732 L 3753,2700 L 3753,2716 L 3897,2716 L 3897,2750 L 4991,2750 L 4991,2710 L 5030,2710 L 5030,2548 L 5031,2540 L 5033,2533 L 5037,2526 L 5040,2521 L 5040,1397 L 5001,1397 L 5001,1240 L 5040,1240 L 5040,990 L 5001,990 L 5001,832 L 5040,832 L 5040,610 L 5001,610 L 5001,452 L 5039,452 L 5039,265 L 4990,265 L 4990,216 L 4784,216 L 4777,215 L 4769,213 L 4763,209 L 4757,204 L 4709,157 L 2598,157 L 2598,345 L 2646,345 L 2646,521 L 2470,521 L 2470,345 L 2519,345 L 2519,157 L 1354,157 L 393,1118 L 393,1137 L 434,1137 L 434,1297 L 274,1297 L 274,1256 L 211,1256 L 157,1311 L 157,2680 L 213,2736 L 275,2736 L 275,2709 L 259,2709 L 291,2434 L 417,2434 L 448,2709 L 433,2709 L 433,2736 L 672,2736 L 747,2660 L 747,2440 L 708,2440 L 708,2283 L 853,2283 L 853,2267 L 1128,2299 L 1128,2425 L 853,2456 L 853,2440 L 826,2440 L 826,2660 L 1475,3310 L 1487,3307 L 1504,3307 L 1520,3311 L 1535,3317 L 1548,3327 L 1559,3339 L 1563,3346 z " style="fill-opacity:1.000000;fill:rgb(242,251,227);stroke:rgb(0,0,0);stroke-width:2"/></g>
<g fill-rule="evenodd"><path d="M 1653,2322 L 2024,2322 L 2024,2134 L 2015,2124 L 2008,2114 L 2005,2102 L 2003,2089 L 2005,2077 L 2008,2065 L 2015,2054 L 2023,2045 L 2033,2037 L 2045,2032 L 2057,2030 L 2070,2030 L 2082,2032 L 2093,2037 L 2103,2045 L 2112,2054 L 2118,2065 L 2122,2077 L 2123,2089 L 2122,2102 L 2118,2114 L 2112,2124 L 2103,2134 L 2103,2322 L 2227,2322 L 2459,2090 L 2459,2086 L 2460,2074 L 2464,2062 L 2471,2051 L 2479,2042 L 2489,2034 L 2501,2029 L 2513,2027 L 2525,2027 L 2538,2029 L 2549,2034 L 2559,2042 L 2568,2051 L 2574,2062 L 2578,2074 L 2579,2086 L 2578,2099 L 2574,2111 L 2568,2121 L 2559,2131 L 2549,2138 L 2538,2143 L 2525,2146 L 2515,2146 L 2272,2390 L 2266,2395 L 2259,2398 L 2251,2400 L 2244,2401 L 2106,2401 L 2106,2530 L 2154,2530 L 2154,2706 L 1978,2706 L 1978,2530 L 2027,2530 L 2027,2401 L 1653,2401 L 1653,2440 L 1614,2440 L 1614,2952 L 1613,2960 L 1611,2967 L 1607,2974 L 1602,2980 L 1591,2992 L 1940,2992 L 1944,2985 L 1955,2972 L 1968,2963 L 1983,2956 L 1999,2953 L 2016,2953 L 2032,2956 L 2047,2963 L 2060,2972 L 2071,2985 L 2079,2999 L 2084,3015 L 2086,3031 L 2084,3047 L 2079,3063 L 2071,3077 L 2060,3089 L 2047,3099 L 2032,3106 L 2016,3109 L 1999,3109 L 1983,3106 L 1968,3099 L 1955,3089 L 1944,3077 L 1940,3070 L 1563,3070 L 1559,3077 L 1548,3089 L 1535,3099 L 1520,3106 L 1504,3109 L 1487,3109 L 1471,3106 L 1456,3099 L 1443,3089 L 1432,3077 L 1424,3063 L 1419,3047 L 1417,3031 L 1419,3015 L 1424,2999 L 1432,2985 L 1443,2972 L 1456,2963 L 1471,2956 L 1487,2953 L 1504,2953 L 1516,2955 L 1535,2936 L 1535,2440 L 1508,2440 L 1508,2456 L 1233,2425 L 1233,2299 L 1508,2267 L 1508,2283 L 1535,2283 L 1535,2125 L 1536,2117 L 1538,2110 L 1542,2103 L 1547,2097 L 1551,2093 L 1550,2089 L 1552,2077 L 1556,2065 L 1562,2054 L 1570,2045 L 1580,2037 L 1592,2032 L 1604,2030 L 1617,2030 L 1629,2032 L 1640,2037 L 1651,2045 L 1659,2054 L 1665,2065 L 1669,2077 L 1670,2089 L 1669,2102 L 1665,2114 L 1659,2124 L 1651,2134 L 1640,2141 L 1629,2146 L 1617,2149 L 1614,2149 L 1614,2283 L 1653,2283 L 1653,2322 z " style="fill-opacity:1.000000;fill:rgb(70,124,194);stroke:rgb(0,0,0);stroke-width:2"/></g>
<g fill-rule="evenodd"><path d="M 5767,1918 L 5767,1703 L 5757,1699 L 5741,1687 L 5727,1671 L 5717,1654 L 5710,1634 L 5708,1614 L 5710,1593 L 5717,1574 L 5727,1556 L 5741,1540 L 5757,1528 L 5776,1520 L 5796,1516 L 5817,1516 L 5837,1520 L 5856,1528 L 5872,1540 L 5886,1556 L 5896,1574 L 5903,1593 L 5905,1614 L 5903,1634 L 5896,1654 L 5886,1671 L 5872,1687 L 5856,1699 L 5846,1703 L 5846,1918 L 5856,1922 L 5872,1934 L 5886,1950 L 5896,1967 L 5903,1987 L 5905,2007 L 5903,2028 L 5896,2047 L 5886,2065 L 5872,2081 L 5856,2093 L 5846,2097 L 5846,2311 L 5856,2316 L 5872,2328 L 5886,2343 L 5896,2361 L 5903,2381 L 5905,2401 L 5903,2421 L 5896,2441 L 5895,2443 L 5896,2444 L 5896,2452 L 5896,2710 L 5936,2710 L 5936,2868 L 5896,2868 L 5896,3104 L 5936,3104 L 5936,3261 L 5896,3261 L 5896,3498 L 5936,3498 L 5936,3537 L 6013,3537 L 6089,3460 L 6084,3445 L 6082,3425 L 6084,3404 L 6091,3385 L 6101,3367 L 6115,3352 L 6131,3340 L 6150,3331 L 6170,3327 L 6191,3327 L 6211,3331 L 6230,3340 L 6247,3352 L 6260,3367 L 6271,3385 L 6484,3385 L 6495,3367 L 6508,3352 L 6525,3340 L 6544,3331 L 6564,3327 L 6585,3327 L 6605,3331 L 6623,3340 L 6640,3352 L 6654,3367 L 6664,3385 L 6878,3385 L 6888,3367 L 6902,3352 L 6919,3340 L 6938,3331 L 6958,3327 L 6978,3327 L 6998,3331 L 7017,3340 L 7034,3352 L 7048,3367 L 7058,3385 L 7064,3404 L 7066,3425 L 7064,3445 L 7058,3465 L 7048,3483 L 7034,3498 L 7017,3510 L 6998,3518 L 6978,3523 L 6958,3523 L 6938,3518 L 6919,3510 L 6902,3498 L 6888,3483 L 6878,3464 L 6664,3464 L 6654,3483 L 6640,3498 L 6623,3510 L 6605,3518 L 6585,3523 L 6574,3523 L 6574,3711 L 6623,3711 L 6623,3887 L 6447,3887 L 6447,3711 L 6495,3711 L 6495,3484 L 6495,3483 L 6484,3464 L 6271,3464 L 6260,3483 L 6247,3498 L 6230,3510 L 6211,3518 L 6191,3523 L 6170,3523 L 6150,3518 L 6145,3516 L 6057,3604 L 6051,3609 L 6044,3613 L 6037,3615 L 6029,3616 L 5936,3616 L 5936,3655 L 5791,3655 L 5791,3671 L 5515,3639 L 5515,3513 L 5791,3482 L 5791,3498 L 5818,3498 L 5818,3261 L 5791,3261 L 5791,3277 L 5515,3246 L 5515,3120 L 5791,3088 L 5791,3104 L 5818,3104 L 5818,2868 L 5791,2868 L 5791,2883 L 5515,2852 L 5515,2726 L 5791,2695 L 5791,2710 L 5818,2710 L 5818,2499 L 5796,2499 L 5776,2495 L 5757,2486 L 5741,2474 L 5727,2459 L 5717,2441 L 5710,2421 L 5708,2401 L 5710,2381 L 5717,2361 L 5727,2343 L 5741,2328 L 5757,2316 L 5767,2311 L 5767,2097 L 5757,2093 L 5741,2081 L 5727,2065 L 5717,2047 L 5710,2028 L 5708,2007 L 5710,1987 L 5717,1967 L 5727,1950 L 5741,1934 L 5757,1922 L 5767,1918 z " style="fill-opacity:1.000000;fill:rgb(84,248,27);stroke:rgb(0,0,0);stroke-width:2"/></g>
<g fill-rule="evenodd"><path d="M 5828,1240 L 5828,990 L 5801,990 L 5801,1005 L 5526,974 L 5526,848 L 5801,817 L 5801,832 L 5828,832 L 5828,610 L 5801,610 L 5801,625 L 5526,594 L 5526,468 L 5801,437 L 5801,452 L 5826,452 L 5826,265 L 5778,265 L 5778,89 L 5954,89 L 5954,265 L 5905,265 L 5905,452 L 5946,452 L 5946,492 L 6121,492 L 6129,492 L 6137,495 L 6143,498 L 6144,499 L 6150,496 L 6170,492 L 6191,492 L 6211,496 L 6230,505 L 6247,517 L 6260,532 L 6271,551 L 6484,551 L 6495,532 L 6508,517 L 6525,505 L 6535,500 L 6535,265 L 6486,265 L 6486,89 L 6662,89 L 6662,265 L 6614,265 L 6614,500 L 6623,505 L 6640,517 L 6654,532 L 6664,551 L 6878,551 L 6888,532 L 6902,517 L 6919,505 L 6938,496 L 6958,492 L 6978,492 L 6998,496 L 7017,505 L 7034,517 L 7048,532 L 7058,550 L 7064,570 L 7066,590 L 7064,610 L 7058,630 L 7048,648 L 7034,663 L 7017,675 L 6998,684 L 6978,688 L 6958,688 L 6938,684 L 6919,675 L 6902,663 L 6888,648 L 6878,629 L 6664,629 L 6654,648 L 6640,663 L 6623,675 L 6605,684 L 6585,688 L 6564,688 L 6544,684 L 6525,675 L 6508,663 L 6495,648 L 6484,629 L 6271,629 L 6260,648 L 6247,663 L 6230,675 L 6211,684 L 6191,688 L 6170,688 L 6150,684 L 6131,675 L 6115,663 L 6101,648 L 6091,630 L 6084,610 L 6082,590 L 6084,570 L 5946,570 L 5946,610 L 5907,610 L 5907,832 L 5946,832 L 5946,990 L 5907,990 L 5907,1240 L 5946,1240 L 5946,1397 L 5801,1397 L 5801,1413 L 5526,1381 L 5526,1255 L 5801,1224 L 5801,1240 L 5828,1240 z " style="fill-opacity:1.000000;fill:rgb(232,231,141);stroke:rgb(0,0,0);stroke-width:2"/></g>
</svg>
