<?xml version="1.0" standalone="no"?>
<!DOCTYPE svg PUBLIC "-//W3C//DTD SVG 1.1//EN"
"http://www.w3.org/Graphics/SVG/1.1/DTD/svg11.dtd">
<svg width="7937" height="4000" viewBox="0 0 7937 4000" version="1.1"
xmlns="http://www.w3.org/2000/svg"
xmlns:xlink="http://www.w3.org/1999/xlink">
<g fill-rule="evenodd"><path d="M 974,1494 L 975,1469 L 976,1457 L 980,1432 L 983,1420 L 990,1394 L 994,1383 L 997,1374 L 1012,1362 L 1012,1362 L 1019,1357 L 1021,1355 L 1038,1342 L 1042,1338 L 1044,1337 L 1051,1331 L 1054,1329 L 1072,1315 L 1082,1308 L 1107,1293 L 1118,1287 L 1147,1273 L 1159,1268 L 1195,1256 L 1208,1252 L 1243,1243 L 1340,1203 L 1376,1196 L 1392,1193 L 1446,1178 L 1462,1173 L 1521,1151 L 1537,1143 L 1600,1112 L 1603,1110 L 1620,1100 L 1634,1093 L 1642,1088 L 1671,1072 L 1682,1065 L 1838,1000 L 1889,1000 L 1890,999 L 1898,995 L 1950,966 L 1979,950 L 1987,946 L 2023,927 L 2133,856 L 2226,769 L 2370,766 L 2490,738 L 2502,733 L 2508,731 L 2516,728 L 2549,718 L 2557,716 L 2588,710 L 2596,709 L 2626,706 L 2634,705 L 2649,705 L 2678,705 L 2697,704 L 2726,693 L 2741,686 L 2770,673 L 2785,666 L 2801,658 L 2807,650 L 2808,647 L 2831,561 L 2831,552 L 2831,484 L 2836,430 L 2850,376 L 2854,365 L 2919,343 L 2984,336 L 3141,336 L 3195,341 L 3249,356 L 3270,356 L 3324,341 L 3377,336 L 3535,336 L 3589,341 L 3643,356 L 3664,356 L 3717,341 L 3771,336 L 3929,336 L 3994,343 L 4077,331 L 4253,331 L 4324,340 L 4396,367 L 4467,412 L 4539,474 L 4608,544 L 4621,565 L 4625,573 L 4643,601 L 4643,641 L 4643,650 L 4644,752 L 4614,864 L 4555,1021 L 4495,1146 L 4489,1154 L 4359,1073 L 4253,990 L 4233,972 L 4214,956 L 3913,956 L 3787,956 L 3653,956 L 3519,956 L 3393,956 L 3259,956 L 3126,956 L 3000,956 L 2959,956 L 2954,962 L 2945,975 L 2938,987 L 2931,1001 L 2930,1002 L 2923,1016 L 2914,1032 L 2903,1049 L 2892,1064 L 2875,1085 L 2861,1100 L 2834,1126 L 2818,1141 L 2776,1175 L 2756,1189 L 2738,1202 L 2712,1255 L 2674,1357 L 2687,1379 L 2698,1405 L 2704,1414 L 2716,1467 L 2718,1477 L 2721,1493 L 2722,1494 L 2732,1546 L 2733,1546 L 2735,1560 L 2737,1569 L 2743,1599 L 2745,1608 L 2746,1612 L 2749,1629 L 2751,1646 L 2754,1658 L 2754,1661 L 2758,1681 L 2759,1689 L 2761,1702 L 2762,1707 L 2757,1712 L 2744,1724 L 2737,1731 L 2726,1742 L 2721,1748 L 2710,1758 L 2706,1762 L 2696,1772 L 2694,1775 L 2684,1784 L 2682,1786 L 2676,1792 L 2671,1795 L 2655,1803 L 2642,1809 L 2628,1814 L 2616,1818 L 2604,1822 L 2591,1824 L 2580,1826 L 2567,1827 L 2557,1828 L 2544,1828 L 2534,1827 L 2521,1826 L 2510,1824 L 2497,1822 L 2485,1818 L 2473,1814 L 2459,1809 L 2446,1803 L 2430,1795 L 2417,1787 L 2397,1774 L 2387,1767 L 2371,1761 L 2362,1754 L 2340,1740 L 2328,1734 L 2301,1721 L 2296,1719 L 2289,1727 L 2281,1734 L 2270,1745 L 2265,1751 L 2254,1761 L 2251,1765 L 2241,1775 L 2238,1778 L 2228,1787 L 2226,1789 L 2220,1795 L 2216,1798 L 2199,1806 L 2187,1812 L 2173,1817 L 2160,1821 L 2148,1825 L 2135,1827 L 2124,1829 L 2112,1830 L 2101,1831 L 2089,1831 L 2078,1830 L 2065,1829 L 2054,1827 L 2042,1825 L 2029,1821 L 2017,1817 L 2003,1812 L 1990,1806 L 1974,1798 L 1961,1790 L 1941,1777 L 1928,1768 L 1925,1765 L 1920,1760 L 1912,1749 L 1910,1746 L 1901,1735 L 1891,1723 L 1880,1710 L 1876,1704 L 1869,1695 L 1868,1695 L 1858,1704 L 1848,1715 L 1836,1727 L 1829,1734 L 1817,1745 L 1812,1751 L 1802,1761 L 1798,1765 L 1788,1775 L 1785,1778 L 1776,1787 L 1773,1789 L 1767,1795 L 1763,1798 L 1746,1806 L 1734,1812 L 1720,1817 L 1707,1821 L 1695,1825 L 1683,1827 L 1671,1829 L 1659,1830 L 1648,1831 L 1636,1831 L 1625,1830 L 1613,1829 L 1601,1827 L 1589,1825 L 1577,1821 L 1564,1817 L 1550,1812 L 1538,1806 L 1521,1798 L 1509,1790 L 1488,1777 L 1476,1768 L 1450,1747 L 1437,1736 L 1404,1702 L 1403,1701 L 1305,1701 L 1294,1697 L 1282,1693 L 1247,1684 L 1236,1682 L 1236,1681 L 1201,1681 L 1190,1681 L 1159,1681 L 1147,1681 L 1116,1681 L 1104,1681 L 1070,1681 L 1070,1681 L 1058,1681 L 1058,1681 L 1027,1681 L 1021,1673 L 1015,1662 L 1003,1640 L 998,1629 L 992,1618 L 985,1606 L 983,1587 L 981,1574 L 980,1569 L 976,1545 L 975,1533 L 974,1506 L 974,1494 z " style="fill-opacity:0.300000;fill:rgb(103,198,105);"/></g>
<g fill-rule="evenodd"><path d="M 3456,3999 L 2437,3999 L 2441,3984 L 2446,3963 L 2479,3824 L 2481,3816 L 2476,3799 L 2428,3651 L 2421,3628 L 2395,3541 L 2389,3522 L 2372,3460 L 2368,3443 L 2356,3392 L 2353,3376 L 2343,3327 L 2340,3310 L 2339,3308 L 2329,3259 L 2324,3242 L 2324,3240 L 2324,3237 L 2329,3220 L 2340,3169 L 2342,3152 L 2345,3132 L 2349,3103 L 2351,3087 L 2358,3037 L 2361,3020 L 2372,2963 L 2375,2945 L 2376,2942 L 2383,2934 L 2581,2934 L 2757,2934 L 2786,2934 L 2808,2905 L 2853,2826 L 2870,2748 L 2871,2737 L 2890,2653 L 2890,2634 L 2881,2618 L 2871,2598 L 2860,2575 L 2855,2561 L 2852,2555 L 2845,2536 L 2836,2518 L 2826,2501 L 2815,2483 L 2809,2475 L 2808,2463 L 2807,2443 L 2807,2422 L 2808,2402 L 2809,2392 L 2814,2382 L 2826,2364 L 2836,2348 L 2841,2342 L 2846,2335 L 2849,2331 L 2850,2329 L 2859,2317 L 2860,2315 L 2865,2309 L 2871,2299 L 2873,2295 L 2874,2294 L 2875,2286 L 2876,2269 L 2877,2261 L 2877,2252 L 2877,2174 L 2875,2169 L 2867,2148 L 2862,2133 L 2856,2112 L 2853,2098 L 2850,2078 L 2849,2065 L 2848,2045 L 2848,2033 L 2849,2012 L 2850,2000 L 2852,1985 L 2853,1984 L 2855,1980 L 2858,1973 L 2861,1968 L 2864,1961 L 2869,1950 L 2869,1950 L 2875,1937 L 2875,1937 L 2880,1925 L 2883,1917 L 2886,1910 L 2887,1908 L 2886,1897 L 2885,1881 L 2883,1868 L 2879,1851 L 2876,1838 L 2869,1819 L 2865,1807 L 2857,1789 L 2854,1786 L 2845,1778 L 2843,1776 L 2827,1762 L 2825,1760 L 2817,1753 L 2808,1746 L 2796,1735 L 2786,1727 L 2785,1726 L 2767,1711 L 2762,1707 L 2761,1702 L 2759,1689 L 2758,1681 L 2754,1661 L 2754,1658 L 2751,1646 L 2749,1629 L 2746,1612 L 2745,1608 L 2743,1599 L 2737,1569 L 2735,1560 L 2733,1546 L 2732,1546 L 2722,1494 L 2721,1493 L 2718,1477 L 2716,1467 L 2704,1414 L 2698,1405 L 2687,1379 L 2674,1357 L 2712,1255 L 2738,1202 L 2756,1189 L 2776,1175 L 2818,1141 L 2834,1126 L 2861,1100 L 2875,1085 L 2892,1064 L 2903,1049 L 2914,1032 L 2923,1016 L 2930,1002 L 2931,1001 L 2938,987 L 2945,975 L 2954,962 L 2959,956 L 3000,956 L 3126,956 L 3259,956 L 3393,956 L 3519,956 L 3653,956 L 3787,956 L 3913,956 L 4214,956 L 4233,972 L 4253,990 L 4359,1073 L 4489,1154 L 4488,1222 L 4488,1271 L 4481,1415 L 4481,1429 L 4481,1429 L 4481,1641 L 4458,1741 L 4426,1842 L 4385,1943 L 4335,2044 L 4142,2088 L 3929,2088 L 3929,2088 L 3927,2088 L 3771,2080 L 3753,2081 L 3728,2105 L 3714,2118 L 3709,2123 L 3601,2222 L 3584,2236 L 3569,2259 L 3489,2371 L 3471,2394 L 3467,2399 L 3456,2412 L 3456,2763 L 3456,2889 L 3456,3023 L 3456,3157 L 3456,3283 L 3456,3417 L 3456,3551 L 3456,3677 L 3456,3999 z " style="fill-opacity:0.300000;fill:rgb(115,81,255);"/></g>
<g fill-rule="evenodd"><path d="M 574,1940 L 574,1921 L 559,1845 L 571,1642 L 571,1634 L 610,1606 L 716,1606 L 842,1606 L 985,1606 L 992,1618 L 998,1629 L 1003,1640 L 1015,1662 L 1021,1673 L 1027,1681 L 1058,1681 L 1058,1681 L 1070,1681 L 1070,1681 L 1104,1681 L 1116,1681 L 1147,1681 L 1159,1681 L 1190,1681 L 1201,1681 L 1236,1681 L 1236,1682 L 1247,1684 L 1282,1693 L 1294,1697 L 1305,1701 L 1403,1701 L 1404,1702 L 1437,1736 L 1450,1747 L 1476,1768 L 1488,1777 L 1509,1790 L 1521,1798 L 1538,1806 L 1550,1812 L 1564,1817 L 1577,1821 L 1589,1825 L 1601,1827 L 1613,1829 L 1625,1830 L 1636,1831 L 1648,1831 L 1659,1830 L 1671,1829 L 1683,1827 L 1695,1825 L 1707,1821 L 1720,1817 L 1734,1812 L 1746,1806 L 1763,1798 L 1767,1795 L 1773,1789 L 1776,1787 L 1785,1778 L 1788,1775 L 1798,1765 L 1802,1761 L 1812,1751 L 1817,1745 L 1829,1734 L 1836,1727 L 1848,1715 L 1858,1704 L 1868,1695 L 1869,1695 L 1876,1704 L 1880,1710 L 1891,1723 L 1901,1735 L 1910,1746 L 1912,1749 L 1920,1760 L 1925,1765 L 1928,1768 L 1941,1777 L 1961,1790 L 1974,1798 L 1990,1806 L 2003,1812 L 2017,1817 L 2029,1821 L 2042,1825 L 2054,1827 L 2065,1829 L 2078,1830 L 2089,1831 L 2101,1831 L 2112,1830 L 2124,1829 L 2135,1827 L 2148,1825 L 2160,1821 L 2173,1817 L 2187,1812 L 2199,1806 L 2216,1798 L 2220,1795 L 2226,1789 L 2228,1787 L 2238,1778 L 2241,1775 L 2251,1765 L 2254,1761 L 2265,1751 L 2270,1745 L 2281,1734 L 2289,1727 L 2296,1719 L 2301,1721 L 2328,1734 L 2340,1740 L 2362,1754 L 2371,1761 L 2387,1767 L 2397,1774 L 2417,1787 L 2430,1795 L 2446,1803 L 2459,1809 L 2473,1814 L 2485,1818 L 2497,1822 L 2510,1824 L 2521,1826 L 2534,1827 L 2544,1828 L 2557,1828 L 2567,1827 L 2580,1826 L 2591,1824 L 2604,1822 L 2616,1818 L 2628,1814 L 2642,1809 L 2655,1803 L 2671,1795 L 2676,1792 L 2682,1786 L 2684,1784 L 2694,1775 L 2696,1772 L 2706,1762 L 2710,1758 L 2721,1748 L 2726,1742 L 2737,1731 L 2744,1724 L 2757,1712 L 2762,1707 L 2767,1711 L 2785,1726 L 2786,1727 L 2796,1735 L 2808,1746 L 2817,1753 L 2825,1760 L 2827,1762 L 2843,1776 L 2845,1778 L 2854,1786 L 2857,1789 L 2865,1807 L 2869,1819 L 2876,1838 L 2879,1851 L 2883,1868 L 2885,1881 L 2886,1897 L 2887,1908 L 2886,1910 L 2883,1917 L 2880,1925 L 2875,1937 L 2875,1937 L 2869,1950 L 2869,1950 L 2864,1961 L 2861,1968 L 2858,1973 L 2855,1980 L 2853,1984 L 2852,1985 L 2850,2000 L 2849,2012 L 2848,2033 L 2848,2045 L 2849,2065 L 2850,2078 L 2853,2098 L 2856,2112 L 2862,2133 L 2867,2148 L 2875,2169 L 2877,2174 L 2877,2252 L 2877,2261 L 2876,2269 L 2875,2286 L 2874,2294 L 2873,2295 L 2871,2299 L 2865,2309 L 2860,2315 L 2859,2317 L 2850,2329 L 2849,2331 L 2846,2335 L 2841,2342 L 2836,2348 L 2826,2364 L 2814,2382 L 2809,2392 L 2808,2402 L 2807,2422 L 2807,2443 L 2808,2463 L 2809,2475 L 2815,2483 L 2826,2501 L 2836,2518 L 2845,2536 L 2852,2555 L 2855,2561 L 2860,2575 L 2871,2598 L 2881,2618 L 2890,2634 L 2890,2653 L 2871,2737 L 2870,2748 L 2853,2826 L 2808,2905 L 2786,2934 L 2757,2934 L 2581,2934 L 2383,2934 L 2383,2737 L 2383,2604 L 2388,2596 L 2407,2561 L 2407,2560 L 2411,2553 L 2419,2537 L 2447,2491 L 2482,2452 L 2530,2334 L 2534,2325 L 2538,2317 L 2547,2301 L 2551,2294 L 2560,2280 L 2565,2274 L 2575,2262 L 2580,2256 L 2583,2252 L 2585,2251 L 2586,2251 L 2599,2243 L 2610,2235 L 2622,2226 L 2631,2218 L 2642,2208 L 2642,2208 L 2647,2196 L 2651,2183 L 2654,2170 L 2657,2159 L 2659,2146 L 2660,2136 L 2661,2123 L 2661,2112 L 2660,2100 L 2659,2089 L 2657,2077 L 2654,2065 L 2651,2052 L 2647,2039 L 2642,2027 L 2642,2026 L 2628,2021 L 2616,2017 L 2604,2014 L 2591,2011 L 2580,2009 L 2567,2008 L 2557,2008 L 2544,2008 L 2534,2008 L 2521,2009 L 2510,2011 L 2497,2014 L 2485,2017 L 2473,2021 L 2459,2027 L 2446,2032 L 2430,2041 L 2417,2048 L 2397,2061 L 2387,2068 L 2382,2070 L 2372,2078 L 2361,2085 L 2339,2099 L 2328,2105 L 2301,2118 L 2295,2120 L 2289,2114 L 2281,2107 L 2270,2096 L 2265,2091 L 2254,2080 L 2251,2077 L 2241,2067 L 2238,2064 L 2228,2054 L 2226,2052 L 2220,2046 L 2216,2044 L 2199,2035 L 2187,2030 L 2173,2024 L 2160,2020 L 2148,2017 L 2135,2014 L 2124,2012 L 2112,2011 L 2101,2011 L 2089,2011 L 2078,2011 L 2065,2012 L 2054,2014 L 2042,2017 L 2029,2020 L 2017,2024 L 2003,2030 L 1990,2035 L 1974,2044 L 1961,2051 L 1941,2064 L 1928,2073 L 1925,2076 L 1920,2081 L 1912,2092 L 1910,2095 L 1901,2107 L 1891,2119 L 1880,2132 L 1876,2137 L 1868,2147 L 1858,2137 L 1848,2127 L 1836,2114 L 1829,2107 L 1817,2096 L 1812,2091 L 1802,2080 L 1798,2077 L 1788,2067 L 1785,2064 L 1776,2054 L 1773,2052 L 1767,2046 L 1763,2044 L 1746,2035 L 1734,2030 L 1720,2024 L 1707,2020 L 1695,2017 L 1683,2014 L 1671,2012 L 1659,2011 L 1648,2011 L 1636,2011 L 1625,2011 L 1613,2012 L 1601,2014 L 1589,2017 L 1577,2020 L 1564,2024 L 1550,2030 L 1538,2035 L 1521,2044 L 1509,2051 L 1488,2064 L 1476,2073 L 1467,2079 L 1461,2083 L 1435,2101 L 1427,2106 L 1396,2132 L 1390,2137 L 1243,2146 L 1212,2149 L 1208,2148 L 1189,2154 L 1180,2157 L 1171,2160 L 1163,2162 L 1130,2170 L 1122,2171 L 1092,2176 L 1084,2176 L 1056,2178 L 1048,2178 L 1035,2177 L 952,2172 L 897,2185 L 858,2190 L 826,2196 L 740,2196 L 700,2200 L 622,2213 L 599,2154 L 591,2098 L 590,2078 L 582,2026 L 582,1993 L 574,1940 z " style="fill-opacity:0.300000;fill:rgb(74,236,41);"/></g>
<g fill-rule="evenodd"><path d="M 240,2091 L 248,2045 L 248,1940 L 253,1906 L 267,1872 L 267,1554 L 266,1551 L 261,1535 L 257,1521 L 253,1504 L 250,1492 L 248,1475 L 247,1463 L 247,1447 L 247,1435 L 249,1419 L 250,1407 L 253,1391 L 256,1377 L 257,1376 L 278,1372 L 291,1369 L 305,1364 L 308,1363 L 315,1361 L 331,1356 L 336,1354 L 352,1351 L 357,1350 L 373,1349 L 376,1349 L 384,1348 L 387,1348 L 404,1349 L 408,1350 L 424,1352 L 429,1353 L 445,1357 L 451,1359 L 465,1364 L 467,1365 L 476,1368 L 511,1356 L 546,1328 L 576,1298 L 575,1291 L 583,1219 L 583,1168 L 583,1158 L 593,1133 L 635,1069 L 700,1026 L 858,961 L 882,952 L 996,837 L 1003,825 L 1012,811 L 1033,781 L 1043,767 L 1066,741 L 1077,729 L 1102,705 L 1114,695 L 1143,673 L 1156,664 L 1189,644 L 1191,643 L 1257,576 L 1266,552 L 1339,376 L 1374,321 L 1425,283 L 1439,282 L 1615,282 L 1655,286 L 1694,299 L 1734,286 L 1774,282 L 1950,282 L 1997,288 L 2044,306 L 2090,335 L 2137,376 L 2226,465 L 2226,552 L 2226,769 L 2133,856 L 2023,927 L 1987,946 L 1979,950 L 1950,966 L 1898,995 L 1890,999 L 1889,1000 L 1838,1000 L 1682,1065 L 1671,1072 L 1642,1088 L 1634,1093 L 1620,1100 L 1603,1110 L 1600,1112 L 1537,1143 L 1521,1151 L 1462,1173 L 1446,1178 L 1392,1193 L 1376,1196 L 1340,1203 L 1243,1243 L 1208,1252 L 1195,1256 L 1159,1268 L 1147,1273 L 1118,1287 L 1107,1293 L 1082,1308 L 1072,1315 L 1054,1329 L 1051,1331 L 1044,1337 L 1042,1338 L 1038,1342 L 1021,1355 L 1019,1357 L 1012,1362 L 1012,1362 L 997,1374 L 994,1383 L 990,1394 L 983,1420 L 980,1432 L 976,1457 L 975,1469 L 974,1494 L 974,1506 L 975,1533 L 976,1545 L 980,1569 L 981,1574 L 983,1587 L 985,1606 L 842,1606 L 716,1606 L 610,1606 L 571,1634 L 571,1642 L 559,1845 L 574,1921 L 574,1940 L 582,1993 L 582,2026 L 590,2078 L 591,2098 L 599,2154 L 622,2213 L 605,2263 L 597,2315 L 594,2377 L 589,2413 L 448,2413 L 322,2413 L 266,2413 L 256,2368 L 240,2091 z " style="fill-opacity:0.300000;fill:rgb(205,186,171);"/></g>
<g fill-rule="evenodd"><path d="M 5503,0 L 5503,120 L 5503,198 L 5505,200 L 5505,499 L 5505,625 L 5505,752 L 5505,879 L 5505,1005 L 5505,1146 L 5505,1287 L 5505,1413 L 5505,1641 L 5482,1670 L 5480,1672 L 5462,1695 L 5448,1713 L 5454,1759 L 5457,1780 L 5470,1842 L 5457,1904 L 5454,1925 L 5447,1987 L 5446,2008 L 5446,2070 L 5447,2090 L 5454,2153 L 5457,2174 L 5470,2236 L 5457,2298 L 5454,2318 L 5447,2381 L 5446,2402 L 5446,2461 L 5448,2463 L 5467,2482 L 5473,2488 L 5495,2510 L 5495,2757 L 5495,2883 L 5495,3017 L 5495,3151 L 5495,3277 L 5495,3411 L 5495,3545 L 5495,3671 L 5495,3999 L 3456,3999 L 3456,3677 L 3456,3551 L 3456,3417 L 3456,3283 L 3456,3157 L 3456,3023 L 3456,2889 L 3456,2763 L 3456,2412 L 3467,2399 L 3471,2394 L 3489,2371 L 3569,2259 L 3584,2236 L 3601,2222 L 3709,2123 L 3714,2118 L 3728,2105 L 3753,2081 L 3771,2080 L 3927,2088 L 3929,2088 L 3929,2088 L 4142,2088 L 4335,2044 L 4385,1943 L 4426,1842 L 4458,1741 L 4481,1641 L 4481,1429 L 4481,1429 L 4481,1415 L 4488,1271 L 4488,1222 L 4489,1154 L 4495,1146 L 4555,1021 L 4614,864 L 4644,752 L 4643,650 L 4643,641 L 4643,601 L 4625,573 L 4621,565 L 4608,544 L 4539,474 L 4467,412 L 4396,367 L 4324,340 L 4253,331 L 4077,331 L 3994,343 L 3929,336 L 3771,336 L 3717,341 L 3664,356 L 3643,356 L 3589,341 L 3535,336 L 3377,336 L 3324,341 L 3270,356 L 3249,356 L 3195,341 L 3141,336 L 2984,336 L 2919,343 L 2854,365 L 2850,376 L 2836,430 L 2831,484 L 2831,552 L 2831,561 L 2808,647 L 2807,650 L 2801,658 L 2785,666 L 2770,673 L 2741,686 L 2726,693 L 2697,704 L 2678,705 L 2649,705 L 2634,705 L 2626,706 L 2596,709 L 2588,710 L 2557,716 L 2549,718 L 2516,728 L 2508,731 L 2502,733 L 2490,738 L 2370,766 L 2226,769 L 2226,552 L 2226,465 L 2137,376 L 2090,335 L 2044,306 L 1997,288 L 1950,282 L 1774,282 L 1734,286 L 1694,299 L 1655,286 L 1615,282 L 1439,282 L 1425,283 L 1374,321 L 1339,376 L 1266,552 L 1257,576 L 1191,643 L 1189,644 L 1156,664 L 1143,673 L 1114,695 L 1102,705 L 1077,729 L 1066,741 L 1043,767 L 1033,781 L 1012,811 L 1003,825 L 996,837 L 882,952 L 858,961 L 700,1026 L 635,1069 L 593,1133 L 583,1158 L 583,1168 L 583,1219 L 575,1291 L 576,1298 L 546,1328 L 511,1356 L 476,1368 L 467,1365 L 465,1364 L 451,1359 L 445,1357 L 429,1353 L 424,1352 L 408,1350 L 404,1349 L 387,1348 L 384,1348 L 376,1349 L 373,1349 L 357,1350 L 352,1351 L 336,1354 L 331,1356 L 315,1361 L 308,1363 L 305,1364 L 291,1369 L 278,1372 L 257,1376 L 256,1377 L 253,1391 L 250,1407 L 249,1419 L 247,1435 L 247,1447 L 247,1463 L 248,1475 L 250,1492 L 253,1504 L 257,1521 L 261,1535 L 266,1551 L 267,1554 L 267,1872 L 253,1906 L 248,1940 L 248,2045 L 240,2091 L 256,2368 L 266,2413 L 322,2413 L 448,2413 L 589,2413 L 594,2377 L 597,2315 L 605,2263 L 622,2213 L 700,2200 L 740,2196 L 826,2196 L 858,2190 L 897,2185 L 952,2172 L 1035,2177 L 1048,2178 L 1056,2178 L 1084,2176 L 1092,2176 L 1122,2171 L 1130,2170 L 1163,2162 L 1171,2160 L 1180,2157 L 1189,2154 L 1208,2148 L 1212,2149 L 1212,2330 L 1212,2456 L 1212,2697 L 1236,2709 L 1291,2736 L 1323,2813 L 1322,2867 L 1323,2890 L 1327,2937 L 1329,2958 L 1335,2992 L 1340,3010 L 1347,3035 L 1353,3053 L 1361,3072 L 1369,3087 L 1377,3103 L 1386,3117 L 1394,3130 L 1405,3143 L 1414,3153 L 1425,3165 L 1435,3175 L 1448,3186 L 1459,3194 L 1473,3204 L 1487,3212 L 1502,3221 L 1519,3229 L 1535,3235 L 1546,3240 L 1556,3240 L 1573,3240 L 1597,3240 L 1597,3240 L 1615,3240 L 1615,3240 L 1646,3240 L 1646,3240 L 1651,3240 L 1651,3240 L 1915,3240 L 1915,3240 L 1920,3240 L 1920,3240 L 1951,3240 L 1951,3240 L 1969,3240 L 1969,3240 L 1993,3240 L 2010,3240 L 2031,3240 L 2047,3240 L 2068,3240 L 2085,3240 L 2109,3240 L 2109,3240 L 2127,3240 L 2127,3240 L 2157,3240 L 2157,3240 L 2178,3240 L 2178,3240 L 2223,3240 L 2248,3240 L 2324,3240 L 2324,3242 L 2329,3259 L 2339,3308 L 2340,3310 L 2343,3327 L 2353,3376 L 2356,3392 L 2368,3443 L 2372,3460 L 2389,3522 L 2395,3541 L 2421,3628 L 2428,3651 L 2476,3799 L 2481,3816 L 2479,3824 L 2446,3963 L 2441,3984 L 2437,3999 L 0,3999 L 0,0 L 5503,0 z " style="fill-opacity:0.300000;fill:rgb(242,251,227);"/></g>
<g fill-rule="evenodd"><path d="M 1212,2697 L 1212,2456 L 1212,2330 L 1212,2149 L 1243,2146 L 1390,2137 L 1396,2132 L 1427,2106 L 1435,2101 L 1461,2083 L 1467,2079 L 1476,2073 L 1488,2064 L 1509,2051 L 1521,2044 L 1538,2035 L 1550,2030 L 1564,2024 L 1577,2020 L 1589,2017 L 1601,2014 L 1613,2012 L 1625,2011 L 1636,2011 L 1648,2011 L 1659,2011 L 1671,2012 L 1683,2014 L 1695,2017 L 1707,2020 L 1720,2024 L 1734,2030 L 1746,2035 L 1763,2044 L 1767,2046 L 1773,2052 L 1776,2054 L 1785,2064 L 1788,2067 L 1798,2077 L 1802,2080 L 1812,2091 L 1817,2096 L 1829,2107 L 1836,2114 L 1848,2127 L 1858,2137 L 1868,2147 L 1876,2137 L 1880,2132 L 1891,2119 L 1901,2107 L 1910,2095 L 1912,2092 L 1920,2081 L 1925,2076 L 1928,2073 L 1941,2064 L 1961,2051 L 1974,2044 L 1990,2035 L 2003,2030 L 2017,2024 L 2029,2020 L 2042,2017 L 2054,2014 L 2065,2012 L 2078,2011 L 2089,2011 L 2101,2011 L 2112,2011 L 2124,2012 L 2135,2014 L 2148,2017 L 2160,2020 L 2173,2024 L 2187,2030 L 2199,2035 L 2216,2044 L 2220,2046 L 2226,2052 L 2228,2054 L 2238,2064 L 2241,2067 L 2251,2077 L 2254,2080 L 2265,2091 L 2270,2096 L 2281,2107 L 2289,2114 L 2295,2120 L 2301,2118 L 2328,2105 L 2339,2099 L 2361,2085 L 2372,2078 L 2382,2070 L 2387,2068 L 2397,2061 L 2417,2048 L 2430,2041 L 2446,2032 L 2459,2027 L 2473,2021 L 2485,2017 L 2497,2014 L 2510,2011 L 2521,2009 L 2534,2008 L 2544,2008 L 2557,2008 L 2567,2008 L 2580,2009 L 2591,2011 L 2604,2014 L 2616,2017 L 2628,2021 L 2642,2026 L 2642,2027 L 2647,2039 L 2651,2052 L 2654,2065 L 2657,2077 L 2659,2089 L 2660,2100 L 2661,2112 L 2661,2123 L 2660,2136 L 2659,2146 L 2657,2159 L 2654,2170 L 2651,2183 L 2647,2196 L 2642,2208 L 2642,2208 L 2631,2218 L 2622,2226 L 2610,2235 L 2599,2243 L 2586,2251 L 2585,2251 L 2583,2252 L 2580,2256 L 2575,2262 L 2565,2274 L 2560,2280 L 2551,2294 L 2547,2301 L 2538,2317 L 2534,2325 L 2530,2334 L 2482,2452 L 2447,2491 L 2419,2537 L 2411,2553 L 2407,2560 L 2407,2561 L 2388,2596 L 2383,2604 L 2383,2737 L 2383,2934 L 2376,2942 L 2375,2945 L 2372,2963 L 2361,3020 L 2358,3037 L 2351,3087 L 2349,3103 L 2345,3132 L 2342,3152 L 2340,3169 L 2329,3220 L 2324,3237 L 2324,3240 L 2248,3240 L 2223,3240 L 2178,3240 L 2178,3240 L 2157,3240 L 2157,3240 L 2127,3240 L 2127,3240 L 2109,3240 L 2109,3240 L 2085,3240 L 2068,3240 L 2047,3240 L 2031,3240 L 2010,3240 L 1993,3240 L 1969,3240 L 1969,3240 L 1951,3240 L 1951,3240 L 1920,3240 L 1920,3240 L 1915,3240 L 1915,3240 L 1651,3240 L 1651,3240 L 1646,3240 L 1646,3240 L 1615,3240 L 1615,3240 L 1597,3240 L 1597,3240 L 1573,3240 L 1556,3240 L 1546,3240 L 1535,3235 L 1519,3229 L 1502,3221 L 1487,3212 L 1473,3204 L 1459,3194 L 1448,3186 L 1435,3175 L 1425,3165 L 1414,3153 L 1405,3143 L 1394,3130 L 1386,3117 L 1377,3103 L 1369,3087 L 1361,3072 L 1353,3053 L 1347,3035 L 1340,3010 L 1335,2992 L 1329,2958 L 1327,2937 L 1323,2890 L 1322,2867 L 1323,2813 L 1291,2736 L 1236,2709 L 1212,2697 z " style="fill-opacity:0.300000;fill:rgb(70,124,194);"/></g>
<g fill-rule="evenodd"><path d="M 5495,3999 L 5495,3671 L 5495,3545 L 5495,3411 L 5495,3277 L 5495,3151 L 5495,3017 L 5495,2883 L 5495,2757 L 5495,2510 L 5473,2488 L 5467,2482 L 5448,2463 L 5446,2461 L 5446,2402 L 5447,2381 L 5454,2318 L 5457,2298 L 5470,2236 L 5457,2174 L 5454,2153 L 5447,2090 L 5446,2070 L 5446,2008 L 5447,1987 L 5454,1925 L 5457,1904 L 5470,1842 L 5457,1780 L 5454,1759 L 5448,1713 L 5462,1695 L 5480,1672 L 5482,1670 L 5505,1641 L 5529,1623 L 5534,1619 L 5552,1605 L 5591,1576 L 5614,1561 L 5643,1545 L 5665,1533 L 5688,1524 L 5709,1515 L 5727,1510 L 5748,1504 L 5763,1501 L 5784,1498 L 5796,1497 L 5817,1496 L 5827,1496 L 5828,1496 L 5848,1495 L 5860,1493 L 5874,1490 L 5881,1491 L 5895,1493 L 5915,1497 L 5930,1501 L 5950,1508 L 5968,1514 L 5978,1519 L 5989,1523 L 6012,1532 L 6039,1541 L 6085,1554 L 6122,1563 L 6249,1592 L 6315,1605 L 6939,1724 L 6965,1753 L 6985,1776 L 6989,1781 L 7010,1804 L 7043,1842 L 7107,1895 L 7130,1913 L 7284,2039 L 7290,2039 L 7311,2039 L 7619,2039 L 7619,2039 L 7642,2039 L 7642,2039 L 7937,2039 L 7937,3999 L 5495,3999 z " style="fill-opacity:0.300000;fill:rgb(84,248,27);"/></g>
<g fill-rule="evenodd"><path d="M 5503,0 L 7937,0 L 7936,2039 L 7642,2039 L 7642,2039 L 7619,2039 L 7619,2039 L 7311,2039 L 7290,2039 L 7284,2039 L 7130,1913 L 7107,1895 L 7043,1842 L 7010,1804 L 6989,1781 L 6985,1776 L 6965,1753 L 6939,1724 L 6315,1605 L 6249,1592 L 6122,1563 L 6085,1554 L 6039,1541 L 6012,1532 L 5989,1523 L 5978,1519 L 5968,1514 L 5950,1508 L 5930,1501 L 5915,1497 L 5895,1493 L 5881,1491 L 5874,1490 L 5860,1493 L 5848,1495 L 5828,1496 L 5827,1496 L 5817,1496 L 5796,1497 L 5784,1498 L 5763,1501 L 5748,1504 L 5727,1510 L 5709,1515 L 5688,1524 L 5665,1533 L 5643,1545 L 5614,1561 L 5591,1576 L 5552,1605 L 5534,1619 L 5529,1623 L 5505,1641 L 5505,1413 L 5505,1287 L 5505,1146 L 5505,1005 L 5505,879 L 5505,752 L 5505,625 L 5505,499 L 5505,200 L 5503,198 L 5503,120 L 5503,0 z " style="fill-opacity:0.300000;fill:rgb(232,231,141);"/></g>
<g fill-rule="evenodd"><path d="M 2679,968 L 2392,1255 L 2392,1458 L 2560,1627 L 2563,1627 L 2576,1630 L 2579,1631 L 2582,1632 L 2593,1637 L 2599,1640 L 2609,1648 L 2612,1650 L 2614,1652 L 2623,1661 L 2626,1667 L 2633,1678 L 2634,1680 L 2635,1684 L 2639,1695 L 2641,1702 L 2642,1714 L 2642,1718 L 2642,1721 L 2641,1733 L 2639,1740 L 2635,1752 L 2634,1755 L 2633,1758 L 2626,1769 L 2623,1774 L 2614,1783 L 2609,1788 L 2599,1795 L 2596,1797 L 2593,1798 L 2582,1804 L 2576,1806 L 2563,1808 L 2557,1809 L 2544,1809 L 2538,1808 L 2525,1806 L 2522,1805 L 2519,1804 L 2508,1798 L 2502,1795 L 2492,1788 L 2489,1786 L 2487,1783 L 2479,1774 L 2475,1769 L 2468,1758 L 2467,1755 L 2466,1752 L 2462,1740 L 2461,1733 L 2460,1727 L 2291,1559 L 2169,1559 L 2169,1633 L 2169,1636 L 2168,1643 L 2167,1650 L 2166,1653 L 2166,1663 L 2166,1664 L 2169,1667 L 2171,1670 L 2177,1681 L 2178,1683 L 2180,1687 L 2183,1698 L 2185,1705 L 2186,1717 L 2186,1721 L 2186,1724 L 2185,1736 L 2183,1743 L 2180,1755 L 2178,1758 L 2177,1761 L 2171,1772 L 2167,1777 L 2158,1786 L 2153,1791 L 2143,1798 L 2141,1800 L 2138,1801 L 2126,1807 L 2120,1809 L 2108,1811 L 2101,1812 L 2089,1812 L 2082,1811 L 2070,1809 L 2067,1808 L 2063,1807 L 2052,1801 L 2046,1798 L 2036,1791 L 2034,1789 L 2031,1786 L 2023,1777 L 2019,1772 L 2013,1761 L 2011,1758 L 2010,1755 L 2006,1743 L 2005,1736 L 2003,1724 L 2003,1721 L 2003,1717 L 2005,1705 L 2006,1698 L 2010,1687 L 2011,1683 L 2013,1681 L 2019,1670 L 2021,1667 L 2023,1664 L 2024,1663 L 2024,1636 L 2024,1633 L 2025,1625 L 2026,1619 L 2027,1616 L 2027,1559 L 1713,1559 L 1713,1663 L 1714,1664 L 1716,1667 L 1718,1670 L 1724,1681 L 1726,1683 L 1727,1687 L 1731,1698 L 1732,1705 L 1733,1717 L 1733,1721 L 1733,1724 L 1732,1736 L 1731,1743 L 1727,1755 L 1726,1758 L 1724,1761 L 1718,1772 L 1714,1777 L 1706,1786 L 1701,1791 L 1691,1798 L 1688,1800 L 1685,1801 L 1673,1807 L 1667,1809 L 1655,1811 L 1648,1812 L 1636,1812 L 1629,1811 L 1617,1809 L 1614,1808 L 1611,1807 L 1599,1801 L 1593,1798 L 1583,1791 L 1581,1789 L 1578,1786 L 1570,1777 L 1566,1772 L 1560,1761 L 1558,1758 L 1557,1755 L 1553,1743 L 1552,1736 L 1551,1724 L 1550,1721 L 1551,1717 L 1552,1705 L 1553,1698 L 1557,1687 L 1558,1683 L 1560,1681 L 1566,1670 L 1568,1667 L 1570,1664 L 1571,1663 L 1571,1553 L 1570,1552 L 1204,1552 L 1200,1555 L 1194,1559 L 1183,1564 L 1180,1565 L 1177,1566 L 1165,1568 L 1159,1569 L 1147,1569 L 1141,1568 L 1129,1566 L 1126,1565 L 1123,1564 L 1112,1559 L 1106,1555 L 1097,1549 L 1094,1547 L 1092,1544 L 1084,1535 L 1080,1530 L 1075,1520 L 1073,1517 L 1072,1514 L 1068,1503 L 1067,1496 L 1066,1485 L 1065,1481 L 1066,1478 L 1067,1467 L 1068,1460 L 1072,1449 L 1073,1446 L 1075,1443 L 1080,1433 L 1084,1427 L 1092,1419 L 1094,1416 L 1097,1414 L 1106,1408 L 1112,1404 L 1123,1399 L 1126,1398 L 1129,1397 L 1141,1395 L 1147,1394 L 1159,1394 L 1165,1395 L 1177,1397 L 1180,1398 L 1183,1399 L 1194,1404 L 1199,1408 L 1204,1411 L 1600,1411 L 1603,1411 L 1610,1411 L 1616,1413 L 1624,1415 L 1628,1417 L 2250,1417 L 2250,1225 L 2250,1222 L 2251,1215 L 2252,1209 L 2254,1201 L 2257,1196 L 2260,1189 L 2264,1184 L 2269,1178 L 2271,1175 L 2599,847 L 2601,845 L 2607,840 L 2612,837 L 2619,833 L 2625,831 L 2632,828 L 2638,827 L 2646,826 L 2649,826 L 2742,826 L 2750,818 L 2755,813 L 2768,803 L 2771,802 L 2774,800 L 2789,793 L 2795,791 L 2811,788 L 2818,787 L 2834,787 L 2841,788 L 2852,790 L 2927,716 L 2929,714 L 2935,709 L 2940,706 L 2945,703 L 2937,632 L 2937,626 L 2938,620 L 2940,615 L 2943,610 L 2947,605 L 2951,602 L 2952,601 L 2952,484 L 2953,478 L 2955,472 L 2958,466 L 2962,462 L 2966,458 L 2972,455 L 2978,453 L 2984,452 L 3141,452 L 3147,453 L 3153,455 L 3159,458 L 3164,462 L 3167,466 L 3170,472 L 3172,478 L 3173,484 L 3173,492 L 3346,492 L 3346,484 L 3347,478 L 3348,472 L 3351,466 L 3355,462 L 3360,458 L 3365,455 L 3371,453 L 3377,452 L 3535,452 L 3541,453 L 3547,455 L 3552,458 L 3557,462 L 3561,466 L 3564,472 L 3566,478 L 3566,484 L 3566,492 L 3740,492 L 3740,484 L 3740,478 L 3742,472 L 3745,466 L 3749,462 L 3754,458 L 3759,455 L 3765,453 L 3771,452 L 3929,452 L 3935,453 L 3941,455 L 3946,458 L 3951,462 L 3955,466 L 3958,472 L 3960,478 L 3960,484 L 3960,492 L 4045,492 L 4045,474 L 4046,468 L 4048,462 L 4051,457 L 4055,452 L 4059,448 L 4065,445 L 4071,444 L 4077,443 L 4253,443 L 4259,444 L 4265,445 L 4270,448 L 4275,452 L 4279,457 L 4282,462 L 4284,468 L 4284,474 L 4284,650 L 4284,657 L 4282,663 L 4279,668 L 4275,673 L 4270,677 L 4265,680 L 4259,681 L 4253,682 L 4077,682 L 4071,681 L 4065,680 L 4059,677 L 4055,673 L 4051,668 L 4048,663 L 4046,657 L 4045,650 L 4045,633 L 3976,633 L 3944,908 L 3943,914 L 3940,920 L 3936,925 L 3931,930 L 3926,933 L 3919,935 L 3913,936 L 3787,936 L 3780,935 L 3774,933 L 3769,930 L 3764,925 L 3760,920 L 3757,914 L 3756,908 L 3724,633 L 3582,633 L 3550,908 L 3549,914 L 3546,920 L 3542,925 L 3538,930 L 3532,933 L 3526,935 L 3519,936 L 3393,936 L 3387,935 L 3380,933 L 3375,930 L 3370,925 L 3366,920 L 3363,914 L 3362,908 L 3331,633 L 3188,633 L 3157,908 L 3155,914 L 3153,920 L 3149,925 L 3144,930 L 3138,933 L 3132,935 L 3126,936 L 3000,936 L 2993,935 L 2987,933 L 2981,930 L 2976,925 L 2972,920 L 2970,914 L 2968,908 L 2965,878 L 2935,908 L 2934,917 L 2933,923 L 2928,939 L 2927,942 L 2925,945 L 2917,959 L 2913,964 L 2902,977 L 2897,981 L 2884,991 L 2881,993 L 2878,994 L 2863,1001 L 2857,1003 L 2841,1006 L 2834,1007 L 2818,1007 L 2811,1006 L 2795,1003 L 2792,1002 L 2789,1001 L 2774,994 L 2771,993 L 2768,991 L 2755,981 L 2752,979 L 2750,977 L 2742,968 L 2679,968 z " style="fill-opacity:0.600000;fill:rgb(103,198,105);stroke:rgb(0,0,0);stroke-width:2"/></g>
<g fill-rule="evenodd"><path d="M 3173,1421 L 3173,1429 L 3172,1435 L 3170,1441 L 3167,1446 L 3164,1451 L 3159,1455 L 3153,1458 L 3147,1460 L 3141,1460 L 3133,1460 L 3133,1586 L 3133,1589 L 3133,1597 L 3131,1603 L 3129,1610 L 3129,1612 L 3130,1615 L 3131,1621 L 3133,1642 L 3133,1645 L 3133,1648 L 3131,1669 L 3130,1675 L 3123,1695 L 3122,1698 L 3121,1701 L 3110,1719 L 3108,1721 L 3106,1724 L 3093,1739 L 3088,1744 L 3074,1753 L 3074,1931 L 3088,1940 L 3090,1942 L 3093,1945 L 3106,1960 L 3108,1963 L 3110,1965 L 3121,1983 L 3122,1986 L 3123,1989 L 3130,2009 L 3131,2015 L 3133,2036 L 3133,2039 L 3133,2042 L 3131,2063 L 3130,2069 L 3123,2089 L 3122,2092 L 3121,2095 L 3110,2112 L 3108,2115 L 3106,2118 L 3093,2133 L 3088,2137 L 3074,2147 L 3074,2324 L 3088,2334 L 3090,2336 L 3093,2338 L 3106,2354 L 3108,2356 L 3110,2359 L 3121,2377 L 3122,2380 L 3123,2383 L 3130,2402 L 3131,2409 L 3133,2429 L 3133,2432 L 3133,2436 L 3131,2456 L 3130,2463 L 3129,2466 L 3129,2467 L 3131,2475 L 3133,2481 L 3133,2489 L 3133,2492 L 3133,2701 L 3408,2732 L 3414,2733 L 3420,2736 L 3425,2740 L 3430,2745 L 3433,2751 L 3435,2757 L 3436,2763 L 3436,2889 L 3435,2896 L 3433,2902 L 3430,2908 L 3425,2913 L 3420,2916 L 3414,2919 L 3408,2921 L 3133,2952 L 3133,3094 L 3408,3126 L 3414,3127 L 3420,3130 L 3425,3134 L 3430,3138 L 3433,3144 L 3435,3150 L 3436,3157 L 3436,3283 L 3435,3289 L 3433,3296 L 3430,3301 L 3425,3306 L 3420,3310 L 3414,3313 L 3408,3314 L 3133,3345 L 3133,3488 L 3408,3519 L 3414,3521 L 3420,3524 L 3425,3527 L 3430,3532 L 3433,3538 L 3435,3544 L 3436,3551 L 3436,3677 L 3435,3683 L 3433,3689 L 3430,3695 L 3425,3700 L 3420,3704 L 3414,3707 L 3408,3708 L 3132,3739 L 3126,3739 L 3120,3739 L 3115,3736 L 3110,3733 L 3106,3730 L 3102,3725 L 3101,3724 L 2984,3724 L 2978,3723 L 2972,3721 L 2966,3719 L 2962,3715 L 2958,3710 L 2955,3704 L 2953,3699 L 2952,3692 L 2952,3535 L 2953,3529 L 2955,3523 L 2958,3517 L 2962,3513 L 2966,3509 L 2972,3506 L 2978,3504 L 2984,3503 L 2992,3503 L 2992,3330 L 2984,3330 L 2978,3329 L 2972,3328 L 2966,3325 L 2962,3321 L 2958,3316 L 2955,3311 L 2953,3305 L 2952,3299 L 2952,3291 L 2788,3291 L 2788,3308 L 2788,3314 L 2786,3320 L 2783,3325 L 2779,3330 L 2774,3334 L 2769,3337 L 2763,3339 L 2757,3339 L 2581,3339 L 2575,3339 L 2569,3337 L 2563,3334 L 2559,3330 L 2555,3325 L 2552,3320 L 2550,3314 L 2549,3308 L 2549,3132 L 2550,3126 L 2552,3120 L 2555,3114 L 2559,3110 L 2563,3106 L 2569,3103 L 2575,3101 L 2581,3100 L 2757,3100 L 2763,3101 L 2769,3103 L 2774,3106 L 2779,3110 L 2783,3114 L 2786,3120 L 2788,3126 L 2788,3132 L 2788,3149 L 2952,3149 L 2952,3141 L 2953,3135 L 2955,3129 L 2958,3124 L 2962,3119 L 2966,3115 L 2972,3112 L 2978,3110 L 2984,3110 L 2992,3110 L 2992,2936 L 2984,2936 L 2978,2936 L 2972,2934 L 2966,2931 L 2962,2927 L 2958,2922 L 2955,2917 L 2953,2911 L 2952,2905 L 2952,2748 L 2953,2741 L 2955,2736 L 2958,2730 L 2962,2725 L 2966,2721 L 2972,2718 L 2978,2717 L 2984,2716 L 2992,2716 L 2992,2562 L 2990,2562 L 2987,2561 L 2966,2557 L 2960,2555 L 2941,2546 L 2938,2545 L 2936,2543 L 2919,2531 L 2916,2529 L 2914,2527 L 2900,2511 L 2898,2509 L 2897,2506 L 2886,2488 L 2885,2485 L 2884,2482 L 2877,2463 L 2876,2456 L 2874,2436 L 2873,2432 L 2874,2429 L 2876,2409 L 2877,2402 L 2884,2383 L 2885,2380 L 2886,2377 L 2897,2359 L 2898,2356 L 2900,2354 L 2914,2338 L 2919,2334 L 2932,2324 L 2932,2147 L 2919,2137 L 2916,2135 L 2914,2133 L 2900,2118 L 2898,2115 L 2897,2112 L 2886,2095 L 2885,2092 L 2884,2089 L 2877,2069 L 2876,2063 L 2874,2042 L 2873,2039 L 2874,2036 L 2876,2015 L 2877,2009 L 2884,1989 L 2885,1986 L 2886,1983 L 2897,1965 L 2898,1963 L 2900,1960 L 2914,1945 L 2919,1940 L 2932,1931 L 2932,1753 L 2919,1744 L 2916,1742 L 2914,1739 L 2900,1724 L 2898,1721 L 2897,1719 L 2886,1701 L 2885,1698 L 2884,1695 L 2877,1675 L 2876,1669 L 2874,1648 L 2873,1645 L 2874,1642 L 2876,1621 L 2877,1615 L 2884,1595 L 2885,1592 L 2886,1589 L 2897,1572 L 2898,1569 L 2900,1566 L 2914,1551 L 2919,1546 L 2936,1534 L 2938,1533 L 2941,1531 L 2960,1523 L 2966,1521 L 2987,1516 L 2990,1516 L 2992,1516 L 2992,1460 L 2984,1460 L 2978,1460 L 2972,1458 L 2966,1455 L 2962,1451 L 2958,1446 L 2955,1441 L 2953,1435 L 2952,1429 L 2952,1311 L 2951,1311 L 2947,1307 L 2943,1303 L 2940,1298 L 2938,1292 L 2937,1286 L 2937,1281 L 2968,1005 L 2970,999 L 2972,993 L 2976,987 L 2981,983 L 2987,980 L 2993,978 L 3000,977 L 3126,977 L 3132,978 L 3138,980 L 3144,983 L 3149,987 L 3153,993 L 3155,999 L 3157,1005 L 3188,1279 L 3331,1279 L 3362,1005 L 3363,999 L 3366,993 L 3370,987 L 3375,983 L 3380,980 L 3387,978 L 3393,977 L 3519,977 L 3526,978 L 3532,980 L 3538,983 L 3542,987 L 3546,993 L 3549,999 L 3550,1005 L 3582,1279 L 3724,1279 L 3756,1005 L 3757,999 L 3760,993 L 3764,987 L 3769,983 L 3774,980 L 3780,978 L 3787,977 L 3913,977 L 3919,978 L 3926,980 L 3931,983 L 3936,987 L 3940,993 L 3943,999 L 3944,1005 L 3976,1281 L 3976,1286 L 3975,1292 L 3973,1298 L 3970,1303 L 3966,1307 L 3961,1311 L 3960,1311 L 3960,1429 L 3960,1435 L 3958,1441 L 3955,1446 L 3951,1451 L 3946,1455 L 3941,1458 L 3935,1460 L 3929,1460 L 3771,1460 L 3765,1460 L 3759,1458 L 3754,1455 L 3749,1451 L 3745,1446 L 3742,1441 L 3740,1435 L 3740,1429 L 3740,1421 L 3566,1421 L 3566,1429 L 3566,1435 L 3564,1441 L 3561,1446 L 3557,1451 L 3552,1455 L 3547,1458 L 3541,1460 L 3535,1460 L 3377,1460 L 3371,1460 L 3365,1458 L 3360,1455 L 3355,1451 L 3351,1446 L 3348,1441 L 3347,1435 L 3346,1429 L 3346,1421 L 3173,1421 z " style="fill-opacity:0.600000;fill:rgb(115,81,255);stroke:rgb(0,0,0);stroke-width:2"/></g>
<g fill-rule="evenodd"><path d="M 1234,1850 L 1784,1850 L 1793,1843 L 1796,1841 L 1799,1840 L 1811,1835 L 1817,1833 L 1829,1830 L 1836,1830 L 1848,1830 L 1855,1830 L 1867,1833 L 1870,1834 L 1873,1835 L 1885,1840 L 1890,1843 L 1900,1850 L 2237,1850 L 2246,1843 L 2249,1841 L 2252,1840 L 2263,1835 L 2270,1833 L 2282,1830 L 2289,1830 L 2301,1830 L 2308,1830 L 2320,1833 L 2323,1834 L 2326,1835 L 2338,1840 L 2343,1843 L 2348,1847 L 2693,1847 L 2702,1840 L 2705,1838 L 2708,1837 L 2719,1832 L 2725,1830 L 2738,1827 L 2744,1827 L 2757,1827 L 2763,1827 L 2776,1830 L 2779,1831 L 2782,1832 L 2793,1837 L 2799,1840 L 2809,1848 L 2812,1850 L 2814,1852 L 2823,1861 L 2826,1867 L 2833,1878 L 2834,1880 L 2835,1884 L 2839,1895 L 2841,1902 L 2842,1914 L 2842,1918 L 2842,1921 L 2841,1933 L 2839,1940 L 2835,1952 L 2834,1955 L 2833,1958 L 2826,1969 L 2824,1972 L 2822,1974 L 2821,1975 L 2821,2252 L 2821,2255 L 2821,2263 L 2819,2269 L 2817,2277 L 2815,2282 L 2811,2289 L 2808,2294 L 2803,2300 L 2801,2302 L 2740,2363 L 2740,2530 L 2757,2530 L 2763,2530 L 2769,2532 L 2774,2535 L 2779,2539 L 2783,2544 L 2786,2549 L 2788,2555 L 2788,2561 L 2788,2737 L 2788,2743 L 2786,2749 L 2783,2755 L 2779,2759 L 2774,2763 L 2769,2766 L 2763,2768 L 2757,2769 L 2581,2769 L 2575,2768 L 2569,2766 L 2563,2763 L 2559,2759 L 2555,2755 L 2552,2749 L 2550,2743 L 2549,2737 L 2549,2561 L 2550,2555 L 2552,2549 L 2555,2544 L 2559,2539 L 2563,2535 L 2569,2532 L 2575,2530 L 2581,2530 L 2598,2530 L 2598,2334 L 2598,2331 L 2599,2323 L 2600,2317 L 2602,2310 L 2605,2304 L 2608,2297 L 2612,2292 L 2617,2286 L 2619,2284 L 2680,2223 L 2680,1989 L 2356,1989 L 2353,1991 L 2343,1998 L 2341,2000 L 2338,2001 L 2326,2007 L 2320,2009 L 2308,2011 L 2301,2012 L 2289,2012 L 2282,2011 L 2270,2009 L 2267,2008 L 2263,2007 L 2252,2001 L 2246,1998 L 2237,1992 L 1900,1992 L 1891,1998 L 1888,2000 L 1885,2001 L 1873,2007 L 1867,2009 L 1855,2011 L 1848,2012 L 1836,2012 L 1829,2011 L 1817,2009 L 1814,2008 L 1811,2007 L 1799,2001 L 1793,1998 L 1784,1992 L 1192,1992 L 1189,1991 L 1182,1991 L 1176,1989 L 1168,1987 L 1163,1985 L 1156,1981 L 1154,1980 L 1085,2050 L 1083,2052 L 1077,2057 L 1072,2060 L 1065,2064 L 1059,2066 L 1052,2068 L 1046,2070 L 1038,2070 L 1035,2071 L 889,2071 L 889,2078 L 889,2085 L 887,2090 L 884,2096 L 880,2101 L 875,2105 L 870,2107 L 864,2109 L 858,2110 L 700,2110 L 694,2109 L 688,2107 L 683,2105 L 678,2101 L 674,2096 L 671,2090 L 669,2085 L 669,2078 L 669,1961 L 668,1960 L 663,1957 L 659,1952 L 656,1947 L 654,1942 L 653,1936 L 653,1930 L 685,1655 L 686,1648 L 689,1642 L 693,1637 L 698,1633 L 703,1629 L 709,1627 L 716,1627 L 842,1627 L 848,1627 L 855,1629 L 860,1633 L 865,1637 L 869,1642 L 872,1648 L 873,1655 L 905,1929 L 1005,1929 L 1067,1867 L 1067,1867 L 1067,1863 L 1068,1860 L 1072,1849 L 1073,1846 L 1075,1843 L 1080,1833 L 1084,1827 L 1092,1819 L 1094,1816 L 1097,1814 L 1106,1808 L 1112,1804 L 1123,1799 L 1126,1798 L 1129,1797 L 1141,1795 L 1147,1794 L 1159,1794 L 1165,1795 L 1177,1797 L 1180,1798 L 1183,1799 L 1194,1804 L 1199,1808 L 1209,1814 L 1212,1816 L 1214,1819 L 1222,1827 L 1226,1833 L 1231,1843 L 1233,1846 L 1234,1849 L 1234,1850 z " style="fill-opacity:0.600000;fill:rgb(74,236,41);stroke:rgb(0,0,0);stroke-width:2"/></g>
<g fill-rule="evenodd"><path d="M 453,1360 L 464,1369 L 468,1374 L 471,1377 L 664,1377 L 653,1282 L 653,1276 L 654,1270 L 656,1264 L 659,1259 L 663,1255 L 668,1251 L 669,1251 L 669,1133 L 669,1127 L 671,1121 L 674,1116 L 678,1111 L 683,1107 L 688,1104 L 694,1102 L 700,1102 L 858,1102 L 864,1102 L 870,1104 L 875,1107 L 880,1111 L 884,1116 L 887,1121 L 889,1127 L 889,1133 L 889,1141 L 907,1141 L 1142,906 L 1141,900 L 1141,897 L 1141,894 L 1143,877 L 1144,871 L 1150,855 L 1151,852 L 1152,849 L 1160,835 L 1164,830 L 1175,818 L 1180,813 L 1194,803 L 1196,802 L 1199,800 L 1214,793 L 1221,791 L 1237,788 L 1243,787 L 1260,787 L 1261,787 L 1456,592 L 1456,584 L 1439,584 L 1433,583 L 1427,581 L 1421,578 L 1417,574 L 1413,570 L 1410,564 L 1408,558 L 1407,552 L 1407,376 L 1408,370 L 1410,364 L 1413,359 L 1417,354 L 1421,350 L 1427,347 L 1433,345 L 1439,345 L 1615,345 L 1621,345 L 1627,347 L 1632,350 L 1637,354 L 1641,359 L 1644,364 L 1646,370 L 1646,376 L 1646,393 L 1742,393 L 1742,376 L 1743,370 L 1745,364 L 1748,359 L 1752,354 L 1756,350 L 1762,347 L 1768,345 L 1774,345 L 1950,345 L 1956,345 L 1962,347 L 1967,350 L 1972,354 L 1976,359 L 1979,364 L 1981,370 L 1981,376 L 1981,552 L 1981,558 L 1979,564 L 1976,570 L 1972,574 L 1967,578 L 1962,581 L 1956,583 L 1950,584 L 1774,584 L 1768,583 L 1762,581 L 1756,578 L 1752,574 L 1748,570 L 1745,564 L 1743,558 L 1742,552 L 1742,535 L 1646,535 L 1646,552 L 1646,558 L 1644,564 L 1641,570 L 1637,574 L 1632,578 L 1627,581 L 1621,583 L 1615,584 L 1598,584 L 1598,621 L 1598,625 L 1597,632 L 1596,638 L 1594,646 L 1591,651 L 1588,658 L 1584,663 L 1579,669 L 1577,672 L 1361,888 L 1361,894 L 1362,897 L 1361,900 L 1360,917 L 1358,923 L 1353,939 L 1352,942 L 1351,945 L 1342,959 L 1338,964 L 1327,977 L 1323,981 L 1309,991 L 1306,993 L 1304,994 L 1289,1001 L 1282,1003 L 1266,1006 L 1260,1007 L 1243,1007 L 1242,1007 L 987,1262 L 984,1264 L 978,1269 L 973,1273 L 967,1276 L 961,1279 L 953,1281 L 947,1282 L 940,1283 L 937,1283 L 905,1283 L 873,1557 L 872,1564 L 869,1570 L 865,1575 L 860,1579 L 855,1582 L 848,1585 L 842,1585 L 716,1585 L 709,1585 L 703,1582 L 698,1579 L 693,1575 L 689,1570 L 686,1564 L 685,1557 L 680,1519 L 471,1519 L 460,1531 L 456,1534 L 456,1909 L 464,1909 L 470,1909 L 476,1911 L 482,1914 L 486,1918 L 490,1923 L 493,1928 L 495,1934 L 496,1940 L 496,2058 L 497,2058 L 501,2062 L 505,2066 L 508,2071 L 510,2077 L 511,2083 L 511,2089 L 480,2364 L 478,2371 L 476,2377 L 472,2382 L 467,2386 L 461,2389 L 455,2391 L 448,2392 L 322,2392 L 316,2391 L 310,2389 L 304,2386 L 299,2382 L 295,2377 L 293,2371 L 291,2364 L 260,2089 L 260,2083 L 261,2077 L 263,2071 L 266,2066 L 270,2062 L 274,2058 L 275,2058 L 275,1940 L 276,1934 L 278,1928 L 281,1923 L 284,1918 L 289,1914 L 295,1911 L 301,1909 L 307,1909 L 314,1909 L 314,1534 L 307,1527 L 302,1523 L 293,1510 L 289,1504 L 282,1490 L 280,1484 L 276,1468 L 275,1462 L 274,1446 L 274,1439 L 277,1423 L 278,1417 L 284,1402 L 287,1396 L 295,1383 L 299,1378 L 310,1366 L 315,1362 L 318,1360 L 331,1356 L 336,1354 L 352,1351 L 357,1350 L 373,1349 L 376,1349 L 384,1348 L 387,1348 L 404,1349 L 408,1350 L 424,1352 L 429,1353 L 445,1357 L 451,1359 L 453,1360 z " style="fill-opacity:0.600000;fill:rgb(205,186,171);stroke:rgb(0,0,0);stroke-width:2"/></g>
<g fill-rule="evenodd"><path d="M 453,1360 L 451,1359 L 445,1357 L 429,1353 L 424,1352 L 408,1350 L 404,1349 L 387,1348 L 384,1348 L 376,1349 L 373,1349 L 357,1350 L 352,1351 L 336,1354 L 331,1356 L 318,1360 L 305,1360 L 299,1359 L 293,1357 L 288,1354 L 283,1351 L 279,1346 L 276,1340 L 274,1334 L 274,1328 L 274,1319 L 256,1319 L 220,1355 L 220,2699 L 257,2736 L 260,2736 L 291,2462 L 293,2455 L 295,2449 L 299,2444 L 304,2440 L 310,2436 L 316,2434 L 322,2434 L 448,2434 L 455,2434 L 461,2436 L 467,2440 L 472,2444 L 476,2449 L 478,2455 L 480,2462 L 511,2736 L 690,2736 L 747,2679 L 747,2503 L 740,2503 L 734,2503 L 728,2501 L 722,2498 L 717,2494 L 714,2489 L 711,2484 L 709,2478 L 708,2472 L 708,2315 L 709,2308 L 711,2303 L 714,2297 L 717,2292 L 722,2288 L 728,2285 L 734,2284 L 740,2283 L 857,2283 L 858,2282 L 861,2277 L 866,2274 L 871,2270 L 876,2268 L 882,2267 L 888,2268 L 1164,2299 L 1170,2300 L 1176,2303 L 1181,2307 L 1186,2312 L 1189,2318 L 1191,2324 L 1191,2330 L 1191,2456 L 1191,2463 L 1189,2469 L 1186,2475 L 1181,2480 L 1176,2483 L 1170,2486 L 1164,2488 L 889,2519 L 889,2679 L 1518,3307 L 1519,3307 L 1535,3307 L 1542,3308 L 1558,3311 L 1561,3312 L 1564,3313 L 1579,3320 L 1582,3321 L 1585,3323 L 1598,3333 L 1601,3335 L 1603,3337 L 1611,3346 L 1955,3346 L 1963,3337 L 1968,3333 L 1981,3323 L 1984,3321 L 1987,3320 L 2002,3313 L 2008,3311 L 2024,3308 L 2031,3307 L 2047,3307 L 2054,3308 L 2070,3311 L 2073,3312 L 2076,3313 L 2091,3320 L 2094,3321 L 2097,3323 L 2110,3333 L 2113,3335 L 2115,3337 L 2126,3350 L 2130,3355 L 2138,3369 L 2139,3372 L 2141,3375 L 2146,3391 L 2147,3397 L 2149,3414 L 2149,3417 L 2149,3420 L 2147,3437 L 2146,3443 L 2141,3459 L 2139,3462 L 2138,3465 L 2130,3479 L 2126,3484 L 2115,3496 L 2110,3501 L 2097,3511 L 2094,3512 L 2091,3514 L 2076,3521 L 2070,3523 L 2054,3526 L 2047,3527 L 2031,3527 L 2024,3526 L 2008,3523 L 2005,3522 L 2002,3521 L 1987,3514 L 1984,3512 L 1981,3511 L 1968,3501 L 1965,3499 L 1963,3496 L 1955,3488 L 1611,3488 L 1603,3496 L 1598,3501 L 1585,3511 L 1582,3512 L 1579,3514 L 1564,3521 L 1558,3523 L 1542,3526 L 1535,3527 L 1519,3527 L 1512,3526 L 1496,3523 L 1493,3522 L 1490,3521 L 1475,3514 L 1472,3512 L 1469,3511 L 1456,3501 L 1453,3499 L 1451,3496 L 1440,3484 L 1436,3479 L 1428,3465 L 1426,3462 L 1425,3459 L 1420,3443 L 1419,3437 L 1417,3420 L 1417,3417 L 1417,3414 L 1418,3408 L 818,2808 L 770,2857 L 768,2859 L 762,2864 L 757,2867 L 750,2871 L 744,2873 L 737,2875 L 731,2877 L 723,2877 L 720,2878 L 496,2878 L 496,2885 L 495,2892 L 493,2897 L 490,2903 L 486,2908 L 482,2912 L 476,2914 L 470,2916 L 464,2917 L 307,2917 L 301,2916 L 295,2914 L 289,2912 L 284,2908 L 281,2903 L 278,2897 L 276,2892 L 275,2885 L 275,2878 L 228,2878 L 225,2877 L 217,2877 L 211,2875 L 204,2873 L 198,2871 L 191,2867 L 186,2864 L 180,2859 L 178,2857 L 99,2778 L 97,2776 L 92,2770 L 89,2765 L 85,2758 L 83,2752 L 80,2745 L 79,2739 L 78,2731 L 78,2728 L 78,1326 L 78,1323 L 79,1315 L 80,1309 L 83,1302 L 85,1296 L 89,1289 L 92,1284 L 97,1278 L 99,1276 L 176,1198 L 179,1196 L 185,1191 L 190,1188 L 197,1184 L 202,1182 L 210,1180 L 216,1178 L 224,1178 L 227,1177 L 274,1177 L 274,1168 L 274,1162 L 276,1156 L 279,1151 L 283,1146 L 288,1142 L 293,1139 L 299,1137 L 305,1137 L 314,1137 L 314,1133 L 315,1130 L 315,1123 L 317,1116 L 319,1109 L 321,1103 L 325,1097 L 328,1091 L 333,1085 L 335,1083 L 1319,99 L 1322,97 L 1328,92 L 1333,89 L 1340,85 L 1345,83 L 1353,80 L 1359,79 L 1367,78 L 1370,78 L 4757,78 L 4760,78 L 4768,79 L 4774,80 L 4781,83 L 4787,85 L 4794,89 L 4799,92 L 4805,97 L 4807,99 L 4845,137 L 4990,137 L 4990,120 L 4991,114 L 4993,108 L 4996,103 L 5000,98 L 5004,94 L 5010,91 L 5016,89 L 5022,89 L 5198,89 L 5204,89 L 5210,91 L 5215,94 L 5220,98 L 5224,103 L 5227,108 L 5229,114 L 5229,120 L 5229,296 L 5229,302 L 5227,308 L 5224,314 L 5220,318 L 5215,322 L 5210,325 L 5204,327 L 5198,328 L 5181,328 L 5181,437 L 5181,437 L 5457,468 L 5463,470 L 5469,472 L 5474,476 L 5479,481 L 5482,487 L 5484,493 L 5484,499 L 5484,625 L 5484,632 L 5482,638 L 5479,644 L 5474,649 L 5469,653 L 5463,655 L 5457,657 L 5182,688 L 5182,817 L 5457,848 L 5463,850 L 5469,852 L 5474,856 L 5479,861 L 5482,867 L 5484,873 L 5484,879 L 5484,1005 L 5484,1012 L 5482,1018 L 5479,1024 L 5474,1029 L 5469,1033 L 5463,1035 L 5457,1037 L 5182,1068 L 5182,1224 L 5457,1256 L 5463,1257 L 5469,1260 L 5474,1264 L 5479,1268 L 5482,1274 L 5484,1280 L 5484,1287 L 5484,1413 L 5484,1419 L 5482,1426 L 5479,1431 L 5474,1436 L 5469,1440 L 5463,1443 L 5457,1444 L 5182,1475 L 5182,2569 L 5182,2572 L 5181,2579 L 5180,2586 L 5178,2593 L 5176,2599 L 5172,2605 L 5172,2605 L 5172,2695 L 5446,2726 L 5453,2728 L 5459,2730 L 5464,2734 L 5468,2739 L 5471,2745 L 5473,2751 L 5474,2757 L 5474,2883 L 5473,2890 L 5471,2896 L 5468,2902 L 5464,2907 L 5459,2911 L 5453,2913 L 5446,2915 L 5172,2946 L 5172,3089 L 5446,3120 L 5453,3121 L 5459,3124 L 5464,3128 L 5468,3133 L 5471,3139 L 5473,3145 L 5474,3151 L 5474,3277 L 5473,3284 L 5471,3290 L 5468,3296 L 5464,3301 L 5459,3304 L 5453,3307 L 5446,3309 L 5172,3340 L 5172,3482 L 5446,3514 L 5453,3515 L 5459,3518 L 5464,3522 L 5468,3526 L 5471,3532 L 5473,3538 L 5474,3545 L 5474,3671 L 5473,3677 L 5471,3684 L 5468,3689 L 5464,3694 L 5459,3698 L 5453,3701 L 5446,3702 L 5171,3734 L 5165,3734 L 5159,3733 L 5153,3731 L 5148,3728 L 5144,3724 L 5140,3719 L 5140,3718 L 5022,3718 L 5016,3717 L 5010,3716 L 5005,3713 L 5000,3709 L 4996,3704 L 4993,3699 L 4991,3693 L 4991,3687 L 4991,3529 L 4991,3523 L 4993,3517 L 4996,3512 L 5000,3507 L 5005,3503 L 5010,3500 L 5016,3498 L 5022,3498 L 5030,3498 L 5030,3324 L 5022,3324 L 5016,3324 L 5010,3322 L 5005,3319 L 5000,3315 L 4996,3310 L 4993,3305 L 4991,3299 L 4991,3293 L 4991,3136 L 4991,3129 L 4993,3124 L 4996,3118 L 5000,3113 L 5005,3109 L 5010,3106 L 5016,3105 L 5022,3104 L 5030,3104 L 5030,2931 L 5022,2931 L 5016,2930 L 5010,2928 L 5005,2925 L 5000,2921 L 4996,2917 L 4993,2911 L 4991,2905 L 4991,2899 L 4991,2891 L 3960,2891 L 3960,2905 L 3960,2911 L 3958,2917 L 3955,2922 L 3951,2927 L 3946,2931 L 3941,2934 L 3935,2936 L 3929,2936 L 3921,2936 L 3921,3110 L 3929,3110 L 3935,3110 L 3941,3112 L 3946,3115 L 3951,3119 L 3955,3124 L 3958,3129 L 3960,3135 L 3960,3141 L 3960,3299 L 3960,3305 L 3958,3311 L 3955,3316 L 3951,3321 L 3946,3325 L 3941,3328 L 3935,3329 L 3929,3330 L 3921,3330 L 3921,3503 L 3929,3503 L 3935,3504 L 3941,3506 L 3946,3509 L 3951,3513 L 3955,3517 L 3958,3523 L 3960,3529 L 3960,3535 L 3960,3692 L 3960,3699 L 3958,3704 L 3955,3710 L 3951,3715 L 3946,3719 L 3941,3721 L 3935,3723 L 3929,3724 L 3811,3724 L 3811,3725 L 3807,3730 L 3803,3733 L 3798,3736 L 3792,3739 L 3787,3739 L 3781,3739 L 3505,3708 L 3499,3707 L 3493,3704 L 3487,3700 L 3483,3695 L 3480,3689 L 3478,3683 L 3477,3677 L 3477,3551 L 3478,3544 L 3480,3538 L 3483,3532 L 3487,3527 L 3493,3524 L 3499,3521 L 3505,3519 L 3779,3488 L 3779,3345 L 3505,3314 L 3499,3313 L 3493,3310 L 3487,3306 L 3483,3301 L 3480,3296 L 3478,3289 L 3477,3283 L 3477,3157 L 3478,3150 L 3480,3144 L 3483,3138 L 3487,3134 L 3493,3130 L 3499,3127 L 3505,3126 L 3779,3094 L 3779,2952 L 3505,2921 L 3499,2919 L 3493,2916 L 3487,2913 L 3483,2908 L 3480,2902 L 3478,2896 L 3477,2889 L 3477,2763 L 3478,2757 L 3480,2751 L 3483,2745 L 3487,2740 L 3493,2736 L 3499,2733 L 3505,2732 L 3781,2701 L 3787,2700 L 3792,2701 L 3798,2703 L 3803,2707 L 3807,2710 L 3811,2715 L 3811,2716 L 3929,2716 L 3935,2717 L 3941,2718 L 3946,2721 L 3951,2725 L 3955,2730 L 3958,2736 L 3960,2741 L 3960,2748 L 3960,2750 L 4991,2750 L 4991,2742 L 4991,2736 L 4993,2730 L 4996,2724 L 5000,2720 L 5005,2716 L 5010,2713 L 5016,2711 L 5022,2710 L 5030,2710 L 5030,2579 L 5030,2576 L 5031,2568 L 5032,2562 L 5034,2555 L 5037,2549 L 5040,2542 L 5040,2542 L 5040,1460 L 5033,1460 L 5027,1459 L 5021,1458 L 5015,1455 L 5010,1451 L 5006,1446 L 5004,1441 L 5002,1435 L 5001,1429 L 5001,1271 L 5002,1265 L 5004,1259 L 5006,1254 L 5010,1249 L 5015,1245 L 5021,1242 L 5027,1240 L 5033,1240 L 5040,1240 L 5040,1053 L 5033,1053 L 5027,1052 L 5021,1050 L 5015,1047 L 5010,1043 L 5006,1039 L 5004,1033 L 5002,1027 L 5001,1021 L 5001,864 L 5002,858 L 5004,852 L 5006,846 L 5010,842 L 5015,838 L 5021,835 L 5027,833 L 5033,832 L 5040,832 L 5040,673 L 5033,673 L 5027,672 L 5021,670 L 5015,667 L 5010,663 L 5006,659 L 5004,653 L 5002,647 L 5001,641 L 5001,484 L 5002,478 L 5004,472 L 5006,466 L 5010,462 L 5015,458 L 5021,455 L 5027,453 L 5033,452 L 5039,452 L 5039,328 L 5022,328 L 5016,327 L 5010,325 L 5004,322 L 5000,318 L 4996,314 L 4993,308 L 4991,302 L 4990,296 L 4990,279 L 4816,279 L 4813,279 L 4805,278 L 4799,277 L 4792,275 L 4786,272 L 4779,269 L 4774,265 L 4768,260 L 4766,258 L 4728,220 L 2661,220 L 2661,345 L 2678,345 L 2684,345 L 2690,347 L 2695,350 L 2700,354 L 2704,359 L 2707,364 L 2709,370 L 2709,376 L 2709,552 L 2709,558 L 2707,564 L 2704,570 L 2700,574 L 2695,578 L 2690,581 L 2684,583 L 2678,584 L 2502,584 L 2496,583 L 2490,581 L 2484,578 L 2480,574 L 2476,570 L 2473,564 L 2471,558 L 2470,552 L 2470,376 L 2471,370 L 2473,364 L 2476,359 L 2480,354 L 2484,350 L 2490,347 L 2496,345 L 2502,345 L 2519,345 L 2519,220 L 1399,220 L 479,1140 L 483,1142 L 488,1146 L 492,1151 L 494,1156 L 496,1162 L 497,1168 L 497,1328 L 496,1334 L 494,1340 L 492,1346 L 488,1351 L 483,1354 L 477,1357 L 472,1359 L 465,1360 L 453,1360 z " style="fill-opacity:0.600000;fill:rgb(242,251,227);stroke:rgb(0,0,0);stroke-width:2"/></g>
<g fill-rule="evenodd"><path d="M 1716,2322 L 2024,2322 L 2024,2178 L 2023,2177 L 2021,2175 L 2019,2172 L 2013,2161 L 2011,2158 L 2010,2155 L 2006,2143 L 2005,2136 L 2003,2124 L 2003,2121 L 2003,2117 L 2005,2105 L 2006,2098 L 2010,2087 L 2011,2083 L 2013,2081 L 2019,2070 L 2023,2064 L 2031,2055 L 2036,2051 L 2046,2043 L 2049,2041 L 2052,2040 L 2063,2035 L 2070,2033 L 2082,2030 L 2089,2030 L 2101,2030 L 2108,2030 L 2120,2033 L 2123,2034 L 2126,2035 L 2138,2040 L 2143,2043 L 2153,2051 L 2156,2053 L 2158,2055 L 2167,2064 L 2171,2070 L 2177,2081 L 2178,2083 L 2180,2087 L 2183,2098 L 2185,2105 L 2186,2117 L 2186,2121 L 2186,2124 L 2185,2136 L 2183,2143 L 2180,2155 L 2178,2158 L 2177,2161 L 2171,2172 L 2169,2175 L 2166,2177 L 2166,2178 L 2166,2322 L 2246,2322 L 2460,2108 L 2461,2102 L 2462,2095 L 2466,2084 L 2467,2080 L 2468,2078 L 2475,2067 L 2479,2061 L 2487,2052 L 2492,2048 L 2502,2040 L 2505,2038 L 2508,2037 L 2519,2032 L 2525,2030 L 2538,2027 L 2544,2027 L 2557,2027 L 2563,2027 L 2576,2030 L 2579,2031 L 2582,2032 L 2593,2037 L 2599,2040 L 2609,2048 L 2612,2050 L 2614,2052 L 2623,2061 L 2626,2067 L 2633,2078 L 2634,2080 L 2635,2084 L 2639,2095 L 2641,2102 L 2642,2114 L 2642,2118 L 2642,2121 L 2641,2133 L 2639,2140 L 2635,2152 L 2634,2155 L 2633,2158 L 2626,2169 L 2623,2174 L 2614,2183 L 2609,2188 L 2599,2195 L 2596,2197 L 2593,2198 L 2582,2204 L 2576,2206 L 2563,2208 L 2560,2209 L 2325,2443 L 2323,2445 L 2317,2450 L 2312,2454 L 2305,2457 L 2299,2460 L 2292,2462 L 2286,2463 L 2278,2464 L 2275,2464 L 2169,2464 L 2169,2530 L 2186,2530 L 2192,2530 L 2198,2532 L 2203,2535 L 2208,2539 L 2212,2544 L 2215,2549 L 2217,2555 L 2217,2561 L 2217,2737 L 2217,2743 L 2215,2749 L 2212,2755 L 2208,2759 L 2203,2763 L 2198,2766 L 2192,2768 L 2186,2769 L 2010,2769 L 2004,2768 L 1998,2766 L 1992,2763 L 1988,2759 L 1984,2755 L 1981,2749 L 1979,2743 L 1978,2737 L 1978,2561 L 1979,2555 L 1981,2549 L 1984,2544 L 1988,2539 L 1992,2535 L 1998,2532 L 2004,2530 L 2010,2530 L 2027,2530 L 2027,2464 L 1716,2464 L 1716,2472 L 1716,2478 L 1714,2484 L 1711,2489 L 1707,2494 L 1702,2498 L 1697,2501 L 1691,2503 L 1685,2503 L 1677,2503 L 1677,2983 L 1677,2987 L 1676,2992 L 1955,2992 L 1963,2983 L 1968,2979 L 1981,2969 L 1984,2967 L 1987,2966 L 2002,2959 L 2008,2957 L 2024,2953 L 2031,2953 L 2047,2953 L 2054,2953 L 2070,2957 L 2073,2958 L 2076,2959 L 2091,2966 L 2094,2967 L 2097,2969 L 2110,2979 L 2113,2981 L 2115,2983 L 2126,2995 L 2130,3000 L 2138,3015 L 2139,3018 L 2141,3021 L 2146,3036 L 2147,3043 L 2149,3059 L 2149,3062 L 2149,3066 L 2147,3082 L 2146,3089 L 2141,3104 L 2139,3107 L 2138,3110 L 2130,3124 L 2126,3130 L 2115,3142 L 2110,3146 L 2097,3156 L 2094,3158 L 2091,3159 L 2076,3166 L 2070,3168 L 2054,3172 L 2047,3172 L 2031,3172 L 2024,3172 L 2008,3168 L 2005,3167 L 2002,3166 L 1987,3159 L 1984,3158 L 1981,3156 L 1968,3146 L 1965,3144 L 1963,3142 L 1955,3133 L 1611,3133 L 1603,3142 L 1598,3146 L 1585,3156 L 1582,3158 L 1579,3159 L 1564,3166 L 1558,3168 L 1542,3172 L 1535,3172 L 1519,3172 L 1512,3172 L 1496,3168 L 1493,3167 L 1490,3166 L 1475,3159 L 1472,3158 L 1469,3156 L 1456,3146 L 1453,3144 L 1451,3142 L 1440,3130 L 1436,3124 L 1428,3110 L 1426,3107 L 1425,3104 L 1420,3089 L 1419,3082 L 1417,3066 L 1417,3062 L 1417,3059 L 1419,3043 L 1420,3036 L 1425,3021 L 1426,3018 L 1428,3015 L 1436,3000 L 1440,2995 L 1451,2983 L 1456,2979 L 1469,2969 L 1472,2967 L 1475,2966 L 1490,2959 L 1496,2957 L 1512,2953 L 1519,2953 L 1535,2953 L 1535,2519 L 1261,2488 L 1254,2486 L 1248,2483 L 1243,2480 L 1239,2475 L 1236,2469 L 1234,2463 L 1233,2456 L 1233,2330 L 1234,2324 L 1236,2318 L 1239,2312 L 1243,2307 L 1248,2303 L 1254,2300 L 1261,2299 L 1535,2268 L 1535,2157 L 1535,2154 L 1536,2146 L 1537,2140 L 1539,2132 L 1542,2127 L 1545,2120 L 1549,2115 L 1551,2112 L 1552,2105 L 1553,2098 L 1557,2087 L 1558,2083 L 1560,2081 L 1566,2070 L 1570,2064 L 1578,2055 L 1583,2051 L 1593,2043 L 1596,2041 L 1599,2040 L 1611,2035 L 1617,2033 L 1629,2030 L 1636,2030 L 1648,2030 L 1655,2030 L 1667,2033 L 1670,2034 L 1673,2035 L 1685,2040 L 1690,2043 L 1701,2051 L 1703,2053 L 1706,2055 L 1714,2064 L 1718,2070 L 1724,2081 L 1726,2083 L 1727,2087 L 1731,2098 L 1732,2105 L 1733,2117 L 1733,2121 L 1733,2124 L 1732,2136 L 1731,2143 L 1727,2155 L 1726,2158 L 1724,2161 L 1718,2172 L 1714,2177 L 1706,2186 L 1701,2191 L 1691,2198 L 1688,2200 L 1685,2201 L 1677,2205 L 1677,2283 L 1685,2283 L 1691,2284 L 1697,2285 L 1702,2288 L 1707,2292 L 1711,2297 L 1714,2303 L 1716,2308 L 1716,2315 L 1716,2322 z " style="fill-opacity:0.600000;fill:rgb(70,124,194);stroke:rgb(0,0,0);stroke-width:2"/></g>
<g fill-rule="evenodd"><path d="M 6321,3385 L 6497,3385 L 6499,3383 L 6501,3380 L 6503,3377 L 6517,3362 L 6521,3358 L 6538,3346 L 6541,3344 L 6544,3342 L 6563,3334 L 6569,3332 L 6589,3328 L 6592,3327 L 6595,3327 L 6616,3327 L 6619,3327 L 6623,3328 L 6643,3332 L 6649,3334 L 6668,3342 L 6671,3344 L 6673,3346 L 6690,3358 L 6693,3360 L 6695,3362 L 6709,3377 L 6711,3380 L 6713,3383 L 6714,3385 L 6891,3385 L 6893,3383 L 6894,3380 L 6897,3377 L 6910,3362 L 6915,3358 L 6932,3346 L 6935,3344 L 6938,3342 L 6956,3334 L 6963,3332 L 6983,3328 L 6986,3327 L 6989,3327 L 7010,3327 L 7013,3327 L 7016,3328 L 7037,3332 L 7043,3334 L 7062,3342 L 7065,3344 L 7067,3346 L 7084,3358 L 7086,3360 L 7089,3362 L 7103,3377 L 7105,3380 L 7106,3383 L 7117,3401 L 7118,3403 L 7119,3407 L 7126,3426 L 7127,3433 L 7129,3453 L 7129,3456 L 7129,3460 L 7127,3480 L 7126,3486 L 7119,3506 L 7118,3509 L 7117,3512 L 7106,3530 L 7105,3533 L 7103,3535 L 7089,3550 L 7084,3555 L 7067,3567 L 7065,3569 L 7062,3570 L 7043,3579 L 7037,3581 L 7016,3585 L 7013,3585 L 7010,3586 L 6989,3586 L 6986,3585 L 6983,3585 L 6963,3581 L 6956,3579 L 6938,3570 L 6935,3569 L 6932,3567 L 6915,3555 L 6913,3553 L 6910,3550 L 6897,3535 L 6894,3533 L 6893,3530 L 6891,3527 L 6714,3527 L 6713,3530 L 6711,3533 L 6709,3535 L 6695,3550 L 6690,3555 L 6673,3567 L 6671,3569 L 6668,3570 L 6649,3579 L 6643,3581 L 6637,3582 L 6637,3711 L 6654,3711 L 6661,3711 L 6666,3713 L 6672,3716 L 6677,3720 L 6681,3725 L 6683,3730 L 6685,3736 L 6686,3742 L 6686,3918 L 6685,3924 L 6683,3930 L 6681,3936 L 6677,3941 L 6672,3944 L 6666,3947 L 6661,3949 L 6654,3950 L 6478,3950 L 6472,3949 L 6466,3947 L 6461,3944 L 6456,3941 L 6452,3936 L 6449,3930 L 6447,3924 L 6447,3918 L 6447,3742 L 6447,3736 L 6449,3730 L 6452,3725 L 6456,3720 L 6461,3716 L 6466,3713 L 6472,3711 L 6478,3711 L 6495,3711 L 6495,3527 L 6321,3527 L 6319,3530 L 6317,3533 L 6315,3535 L 6301,3550 L 6297,3555 L 6280,3567 L 6277,3569 L 6274,3570 L 6255,3579 L 6249,3581 L 6229,3585 L 6226,3585 L 6222,3586 L 6202,3586 L 6199,3585 L 6195,3585 L 6186,3583 L 6110,3658 L 6108,3660 L 6102,3665 L 6097,3668 L 6090,3672 L 6085,3674 L 6077,3677 L 6071,3678 L 6063,3679 L 6060,3679 L 5999,3679 L 5999,3687 L 5998,3693 L 5996,3699 L 5993,3704 L 5990,3709 L 5985,3713 L 5979,3716 L 5973,3717 L 5967,3718 L 5850,3718 L 5849,3719 L 5846,3724 L 5841,3728 L 5836,3731 L 5831,3733 L 5825,3734 L 5819,3734 L 5543,3702 L 5537,3701 L 5531,3698 L 5526,3694 L 5521,3689 L 5518,3684 L 5516,3677 L 5515,3671 L 5515,3545 L 5516,3538 L 5518,3532 L 5521,3526 L 5526,3522 L 5531,3518 L 5537,3515 L 5543,3514 L 5818,3482 L 5818,3340 L 5543,3309 L 5537,3307 L 5531,3304 L 5526,3301 L 5521,3296 L 5518,3290 L 5516,3284 L 5515,3277 L 5515,3151 L 5516,3145 L 5518,3139 L 5521,3133 L 5526,3128 L 5531,3124 L 5537,3121 L 5543,3120 L 5818,3089 L 5818,2946 L 5543,2915 L 5537,2913 L 5531,2911 L 5526,2907 L 5521,2902 L 5518,2896 L 5516,2890 L 5515,2883 L 5515,2757 L 5516,2751 L 5518,2745 L 5521,2739 L 5526,2734 L 5531,2730 L 5537,2728 L 5543,2726 L 5818,2695 L 5818,2560 L 5801,2557 L 5795,2555 L 5776,2546 L 5773,2545 L 5770,2543 L 5754,2531 L 5751,2529 L 5749,2527 L 5735,2511 L 5733,2509 L 5731,2506 L 5721,2488 L 5719,2485 L 5718,2482 L 5712,2463 L 5710,2456 L 5708,2436 L 5708,2432 L 5708,2429 L 5710,2409 L 5712,2402 L 5718,2383 L 5719,2380 L 5721,2377 L 5731,2359 L 5733,2356 L 5735,2354 L 5749,2338 L 5754,2334 L 5767,2324 L 5767,2147 L 5754,2137 L 5751,2135 L 5749,2133 L 5735,2118 L 5733,2115 L 5731,2112 L 5721,2095 L 5719,2092 L 5718,2089 L 5712,2069 L 5710,2063 L 5708,2042 L 5708,2039 L 5708,2036 L 5710,2015 L 5712,2009 L 5718,1989 L 5719,1986 L 5721,1983 L 5731,1965 L 5733,1963 L 5735,1960 L 5749,1945 L 5754,1940 L 5767,1931 L 5767,1753 L 5754,1744 L 5751,1742 L 5749,1739 L 5735,1724 L 5733,1721 L 5731,1719 L 5721,1701 L 5719,1698 L 5718,1695 L 5712,1675 L 5710,1669 L 5708,1648 L 5708,1645 L 5708,1642 L 5710,1621 L 5712,1615 L 5718,1595 L 5719,1592 L 5721,1589 L 5731,1572 L 5733,1569 L 5735,1566 L 5749,1551 L 5754,1546 L 5770,1534 L 5773,1533 L 5776,1531 L 5795,1523 L 5801,1521 L 5821,1516 L 5824,1516 L 5828,1516 L 5848,1516 L 5852,1516 L 5855,1516 L 5875,1521 L 5881,1523 L 5900,1531 L 5903,1533 L 5906,1534 L 5922,1546 L 5925,1549 L 5927,1551 L 5941,1566 L 5943,1569 L 5945,1572 L 5955,1589 L 5957,1592 L 5958,1595 L 5964,1615 L 5966,1621 L 5968,1642 L 5968,1645 L 5968,1648 L 5966,1669 L 5964,1675 L 5958,1695 L 5957,1698 L 5955,1701 L 5945,1719 L 5943,1721 L 5941,1724 L 5927,1739 L 5922,1744 L 5909,1753 L 5909,1931 L 5922,1940 L 5925,1942 L 5927,1945 L 5941,1960 L 5943,1963 L 5945,1965 L 5955,1983 L 5957,1986 L 5958,1989 L 5964,2009 L 5966,2015 L 5968,2036 L 5968,2039 L 5968,2042 L 5966,2063 L 5964,2069 L 5958,2089 L 5957,2092 L 5955,2095 L 5945,2112 L 5943,2115 L 5941,2118 L 5927,2133 L 5922,2137 L 5909,2147 L 5909,2324 L 5922,2334 L 5925,2336 L 5927,2338 L 5941,2354 L 5943,2356 L 5945,2359 L 5955,2377 L 5957,2380 L 5958,2383 L 5964,2402 L 5966,2409 L 5968,2429 L 5968,2432 L 5968,2436 L 5966,2456 L 5964,2463 L 5959,2478 L 5959,2480 L 5959,2483 L 5959,2710 L 5967,2710 L 5973,2711 L 5979,2713 L 5985,2716 L 5990,2720 L 5993,2724 L 5996,2730 L 5998,2736 L 5999,2742 L 5999,2899 L 5998,2905 L 5996,2911 L 5993,2917 L 5990,2921 L 5985,2925 L 5979,2928 L 5973,2930 L 5967,2931 L 5959,2931 L 5959,3104 L 5967,3104 L 5973,3105 L 5979,3106 L 5985,3109 L 5990,3113 L 5993,3118 L 5996,3124 L 5998,3129 L 5999,3136 L 5999,3293 L 5998,3299 L 5996,3305 L 5993,3310 L 5990,3315 L 5985,3319 L 5979,3322 L 5973,3324 L 5967,3324 L 5959,3324 L 5959,3498 L 5967,3498 L 5973,3498 L 5979,3500 L 5985,3503 L 5990,3507 L 5993,3512 L 5996,3517 L 5998,3523 L 5999,3529 L 5999,3537 L 6031,3537 L 6085,3483 L 6085,3480 L 6082,3460 L 6082,3456 L 6082,3453 L 6085,3433 L 6086,3426 L 6092,3407 L 6094,3403 L 6095,3401 L 6105,3383 L 6107,3380 L 6109,3377 L 6123,3362 L 6128,3358 L 6144,3346 L 6147,3344 L 6150,3342 L 6169,3334 L 6175,3332 L 6195,3328 L 6199,3327 L 6202,3327 L 6222,3327 L 6226,3327 L 6229,3328 L 6249,3332 L 6255,3334 L 6274,3342 L 6277,3344 L 6280,3346 L 6297,3358 L 6299,3360 L 6301,3362 L 6315,3377 L 6317,3380 L 6319,3383 L 6321,3385 z " style="fill-opacity:0.600000;fill:rgb(84,248,27);stroke:rgb(0,0,0);stroke-width:2"/></g>
<g fill-rule="evenodd"><path d="M 6321,551 L 6497,551 L 6499,548 L 6501,545 L 6503,543 L 6517,527 L 6521,523 L 6535,513 L 6535,328 L 6518,328 L 6512,327 L 6506,325 L 6500,322 L 6496,318 L 6492,314 L 6489,308 L 6487,302 L 6486,296 L 6486,120 L 6487,114 L 6489,108 L 6492,103 L 6496,98 L 6500,94 L 6506,91 L 6512,89 L 6518,89 L 6694,89 L 6700,89 L 6706,91 L 6711,94 L 6716,98 L 6720,103 L 6723,108 L 6725,114 L 6725,120 L 6725,296 L 6725,302 L 6723,308 L 6720,314 L 6716,318 L 6711,322 L 6706,325 L 6700,327 L 6694,328 L 6677,328 L 6677,513 L 6690,523 L 6693,525 L 6695,527 L 6709,543 L 6711,545 L 6713,548 L 6714,551 L 6891,551 L 6893,548 L 6894,545 L 6897,543 L 6910,527 L 6915,523 L 6932,511 L 6935,509 L 6938,507 L 6956,499 L 6963,497 L 6983,493 L 6986,492 L 6989,492 L 7010,492 L 7013,492 L 7016,493 L 7037,497 L 7043,499 L 7062,507 L 7065,509 L 7067,511 L 7084,523 L 7086,525 L 7089,527 L 7103,543 L 7105,545 L 7106,548 L 7117,566 L 7118,569 L 7119,572 L 7126,591 L 7127,598 L 7129,618 L 7129,621 L 7129,625 L 7127,645 L 7126,652 L 7119,671 L 7118,674 L 7117,677 L 7106,695 L 7105,698 L 7103,700 L 7089,716 L 7084,720 L 7067,732 L 7065,734 L 7062,735 L 7043,744 L 7037,746 L 7016,750 L 7013,751 L 7010,751 L 6989,751 L 6986,751 L 6983,750 L 6963,746 L 6956,744 L 6938,735 L 6935,734 L 6932,732 L 6915,720 L 6913,718 L 6910,716 L 6897,700 L 6894,698 L 6893,695 L 6891,692 L 6714,692 L 6713,695 L 6711,698 L 6709,700 L 6695,716 L 6690,720 L 6673,732 L 6671,734 L 6668,735 L 6649,744 L 6643,746 L 6623,750 L 6619,751 L 6616,751 L 6595,751 L 6592,751 L 6589,750 L 6569,746 L 6563,744 L 6544,735 L 6541,734 L 6538,732 L 6521,720 L 6519,718 L 6517,716 L 6503,700 L 6501,698 L 6499,695 L 6497,692 L 6321,692 L 6319,695 L 6317,698 L 6315,700 L 6301,716 L 6297,720 L 6280,732 L 6277,734 L 6274,735 L 6255,744 L 6249,746 L 6229,750 L 6226,751 L 6222,751 L 6202,751 L 6199,751 L 6195,750 L 6175,746 L 6169,744 L 6150,735 L 6147,734 L 6144,732 L 6128,720 L 6125,718 L 6123,716 L 6109,700 L 6107,698 L 6105,695 L 6095,677 L 6094,674 L 6092,671 L 6086,652 L 6085,645 L 6083,633 L 6009,633 L 6009,641 L 6009,647 L 6007,653 L 6004,659 L 6000,663 L 5995,667 L 5990,670 L 5984,672 L 5978,673 L 5970,673 L 5970,832 L 5978,832 L 5984,833 L 5990,835 L 5995,838 L 6000,842 L 6004,846 L 6007,852 L 6009,858 L 6009,864 L 6009,1021 L 6009,1027 L 6007,1033 L 6004,1039 L 6000,1043 L 5995,1047 L 5990,1050 L 5984,1052 L 5978,1053 L 5970,1053 L 5970,1240 L 5978,1240 L 5984,1240 L 5990,1242 L 5995,1245 L 6000,1249 L 6004,1254 L 6007,1259 L 6009,1265 L 6009,1271 L 6009,1429 L 6009,1435 L 6007,1441 L 6004,1446 L 6000,1451 L 5995,1455 L 5990,1458 L 5984,1459 L 5978,1460 L 5860,1460 L 5860,1461 L 5856,1466 L 5852,1470 L 5847,1473 L 5841,1475 L 5835,1476 L 5829,1476 L 5554,1444 L 5547,1443 L 5541,1440 L 5536,1436 L 5532,1431 L 5529,1426 L 5527,1419 L 5526,1413 L 5526,1287 L 5527,1280 L 5529,1274 L 5532,1268 L 5536,1264 L 5541,1260 L 5547,1257 L 5554,1256 L 5828,1224 L 5828,1068 L 5554,1037 L 5547,1035 L 5541,1033 L 5536,1029 L 5532,1024 L 5529,1018 L 5527,1012 L 5526,1005 L 5526,879 L 5527,873 L 5529,867 L 5532,861 L 5536,856 L 5541,852 L 5547,850 L 5554,848 L 5828,817 L 5828,688 L 5554,657 L 5547,655 L 5541,653 L 5536,649 L 5532,644 L 5529,638 L 5527,632 L 5526,625 L 5526,499 L 5527,493 L 5529,487 L 5532,481 L 5536,476 L 5541,472 L 5547,470 L 5554,468 L 5826,437 L 5826,328 L 5809,328 L 5803,327 L 5797,325 L 5792,322 L 5787,318 L 5783,314 L 5780,308 L 5778,302 L 5778,296 L 5778,120 L 5778,114 L 5780,108 L 5783,103 L 5787,98 L 5792,94 L 5797,91 L 5803,89 L 5809,89 L 5985,89 L 5991,89 L 5997,91 L 6003,94 L 6007,98 L 6011,103 L 6014,108 L 6016,114 L 6017,120 L 6017,296 L 6016,302 L 6014,308 L 6011,314 L 6007,318 L 6003,322 L 5997,325 L 5991,327 L 5985,328 L 5968,328 L 5968,452 L 5978,452 L 5984,453 L 5990,455 L 5995,458 L 6000,462 L 6004,466 L 6007,472 L 6009,478 L 6009,484 L 6009,492 L 6153,492 L 6156,492 L 6164,492 L 6170,494 L 6177,496 L 6178,496 L 6195,493 L 6199,492 L 6202,492 L 6222,492 L 6226,492 L 6229,493 L 6249,497 L 6255,499 L 6274,507 L 6277,509 L 6280,511 L 6297,523 L 6299,525 L 6301,527 L 6315,543 L 6317,545 L 6319,548 L 6321,551 z " style="fill-opacity:0.600000;fill:rgb(232,231,141);stroke:rgb(0,0,0);stroke-width:2"/></g>
<g fill-rule="evenodd"><path d="M 3141,523 L 3377,523 L 3377,484 L 3535,484 L 3535,523 L 3771,523 L 3771,484 L 3929,484 L 3929,523 L 4077,523 L 4077,474 L 4253,474 L 4253,650 L 4077,650 L 4077,602 L 3929,602 L 3929,628 L 3944,628 L 3913,904 L 3787,904 L 3756,628 L 3771,628 L 3771,602 L 3535,602 L 3535,628 L 3551,628 L 3519,904 L 3393,904 L 3362,628 L 3377,628 L 3377,602 L 3141,602 L 3141,628 L 3157,628 L 3126,904 L 3000,904 L 2989,810 L 2905,894 L 2905,897 L 2903,913 L 2898,929 L 2890,943 L 2879,956 L 2866,965 L 2851,972 L 2834,975 L 2818,975 L 2802,972 L 2787,965 L 2774,956 L 2763,943 L 2759,936 L 2666,936 L 2360,1242 L 2360,1471 L 2547,1658 L 2557,1658 L 2569,1661 L 2581,1666 L 2591,1673 L 2599,1682 L 2605,1693 L 2609,1705 L 2611,1718 L 2609,1730 L 2605,1742 L 2599,1753 L 2591,1762 L 2581,1770 L 2569,1775 L 2557,1777 L 2544,1777 L 2532,1775 L 2521,1770 L 2510,1762 L 2502,1753 L 2496,1742 L 2492,1730 L 2491,1718 L 2491,1714 L 2304,1527 L 2137,1527 L 2137,1633 L 2137,1640 L 2134,1648 L 2134,1676 L 2143,1685 L 2150,1696 L 2153,1708 L 2155,1721 L 2153,1733 L 2150,1745 L 2143,1756 L 2135,1765 L 2125,1773 L 2113,1778 L 2101,1780 L 2089,1780 L 2076,1778 L 2065,1773 L 2055,1765 L 2046,1756 L 2040,1745 L 2036,1733 L 2035,1721 L 2036,1708 L 2040,1696 L 2046,1685 L 2055,1676 L 2055,1636 L 2056,1628 L 2059,1620 L 2059,1527 L 1681,1527 L 1681,1676 L 1691,1685 L 1697,1696 L 1701,1708 L 1702,1721 L 1701,1733 L 1697,1745 L 1691,1756 L 1682,1765 L 1672,1773 L 1661,1778 L 1648,1780 L 1636,1780 L 1623,1778 L 1612,1773 L 1602,1765 L 1593,1756 L 1587,1745 L 1583,1733 L 1582,1721 L 1583,1708 L 1587,1696 L 1593,1685 L 1603,1676 L 1603,1540 L 1583,1521 L 1192,1521 L 1190,1523 L 1181,1530 L 1170,1535 L 1159,1537 L 1147,1537 L 1136,1535 L 1125,1530 L 1116,1523 L 1108,1514 L 1102,1504 L 1098,1493 L 1097,1481 L 1098,1470 L 1102,1459 L 1108,1449 L 1116,1440 L 1125,1433 L 1136,1428 L 1147,1426 L 1159,1426 L 1170,1428 L 1181,1433 L 1190,1440 L 1192,1442 L 1600,1442 L 1607,1443 L 1615,1445 L 1621,1448 L 2281,1448 L 2281,1225 L 2282,1218 L 2284,1210 L 2288,1204 L 2293,1198 L 2621,869 L 2627,864 L 2634,861 L 2641,858 L 2649,858 L 2759,858 L 2763,851 L 2774,839 L 2787,829 L 2802,822 L 2818,819 L 2834,819 L 2851,822 L 2861,827 L 2949,738 L 2955,734 L 2962,730 L 2969,728 L 2979,727 L 2968,628 L 2984,628 L 2984,484 L 3141,484 L 3141,523 z " style="fill-opacity:1.000000;fill:rgb(103,198,105);stroke:rgb(0,0,0);stroke-width:2"/></g>
<g fill-rule="evenodd"><path d="M 3535,1311 L 3771,1311 L 3771,1284 L 3756,1284 L 3787,1008 L 3913,1008 L 3944,1284 L 3929,1284 L 3929,1429 L 3771,1429 L 3771,1389 L 3535,1389 L 3535,1429 L 3377,1429 L 3377,1389 L 3141,1389 L 3141,1429 L 3102,1429 L 3102,1586 L 3101,1594 L 3099,1601 L 3095,1608 L 3095,1609 L 3100,1625 L 3102,1645 L 3100,1666 L 3093,1685 L 3083,1703 L 3069,1718 L 3053,1730 L 3043,1735 L 3043,1949 L 3053,1954 L 3069,1966 L 3083,1981 L 3093,1999 L 3100,2018 L 3102,2039 L 3100,2059 L 3093,2079 L 3083,2097 L 3069,2112 L 3053,2124 L 3043,2128 L 3043,2343 L 3053,2347 L 3069,2359 L 3083,2375 L 3093,2392 L 3100,2412 L 3102,2432 L 3100,2453 L 3094,2469 L 3095,2470 L 3099,2477 L 3101,2484 L 3102,2492 L 3102,2748 L 3129,2748 L 3129,2732 L 3404,2763 L 3404,2889 L 3129,2921 L 3129,2905 L 3102,2905 L 3102,3141 L 3129,3141 L 3129,3125 L 3404,3157 L 3404,3283 L 3129,3314 L 3129,3299 L 3102,3299 L 3102,3535 L 3129,3535 L 3129,3519 L 3404,3551 L 3404,3677 L 3129,3708 L 3129,3692 L 2984,3692 L 2984,3535 L 3023,3535 L 3023,3299 L 2984,3299 L 2984,3259 L 2757,3259 L 2757,3308 L 2581,3308 L 2581,3132 L 2757,3132 L 2757,3180 L 2984,3180 L 2984,3141 L 3023,3141 L 3023,2905 L 2984,2905 L 2984,2748 L 3023,2748 L 3023,2528 L 3014,2530 L 2993,2530 L 2973,2526 L 2954,2518 L 2938,2506 L 2924,2490 L 2913,2473 L 2907,2453 L 2905,2432 L 2907,2412 L 2913,2392 L 2924,2375 L 2938,2359 L 2954,2347 L 2964,2343 L 2964,2128 L 2954,2124 L 2938,2112 L 2924,2097 L 2913,2079 L 2907,2059 L 2905,2039 L 2907,2018 L 2913,1999 L 2924,1981 L 2938,1966 L 2954,1954 L 2964,1949 L 2964,1735 L 2954,1730 L 2938,1718 L 2924,1703 L 2913,1685 L 2907,1666 L 2905,1645 L 2907,1625 L 2913,1605 L 2924,1587 L 2938,1572 L 2954,1560 L 2973,1552 L 2993,1547 L 3014,1547 L 3023,1549 L 3023,1429 L 2984,1429 L 2984,1284 L 2968,1284 L 3000,1008 L 3126,1008 L 3157,1284 L 3141,1284 L 3141,1311 L 3377,1311 L 3377,1284 L 3362,1284 L 3393,1008 L 3519,1008 L 3551,1284 L 3535,1284 L 3535,1311 z " style="fill-opacity:1.000000;fill:rgb(115,81,255);stroke:rgb(0,0,0);stroke-width:2"/></g>
<g fill-rule="evenodd"><path d="M 2711,1963 L 2706,1957 L 2342,1957 L 2335,1965 L 2325,1973 L 2313,1978 L 2301,1980 L 2289,1980 L 2276,1978 L 2265,1973 L 2255,1965 L 2250,1960 L 1887,1960 L 1882,1965 L 1872,1973 L 1861,1978 L 1848,1980 L 1836,1980 L 1823,1978 L 1812,1973 L 1802,1965 L 1797,1960 L 1192,1960 L 1185,1959 L 1177,1957 L 1171,1953 L 1165,1949 L 1153,1937 L 1063,2028 L 1057,2032 L 1050,2036 L 1042,2038 L 1035,2039 L 858,2039 L 858,2078 L 700,2078 L 700,1934 L 685,1934 L 716,1658 L 842,1658 L 873,1934 L 858,1934 L 858,1960 L 1018,1960 L 1097,1882 L 1098,1870 L 1102,1859 L 1108,1849 L 1116,1840 L 1125,1833 L 1136,1828 L 1147,1826 L 1159,1826 L 1170,1828 L 1181,1833 L 1190,1840 L 1198,1849 L 1204,1859 L 1208,1870 L 1209,1881 L 1797,1881 L 1802,1876 L 1812,1869 L 1823,1864 L 1836,1861 L 1848,1861 L 1861,1864 L 1872,1869 L 1882,1876 L 1887,1881 L 2250,1881 L 2255,1876 L 2265,1869 L 2276,1864 L 2289,1861 L 2301,1861 L 2313,1864 L 2325,1869 L 2335,1876 L 2337,1878 L 2706,1878 L 2710,1873 L 2721,1866 L 2732,1861 L 2744,1858 L 2757,1858 L 2769,1861 L 2781,1866 L 2791,1873 L 2799,1882 L 2805,1893 L 2809,1905 L 2811,1918 L 2809,1930 L 2805,1942 L 2799,1953 L 2790,1963 L 2790,2252 L 2789,2260 L 2787,2267 L 2783,2274 L 2778,2280 L 2708,2350 L 2708,2561 L 2757,2561 L 2757,2737 L 2581,2737 L 2581,2561 L 2629,2561 L 2629,2334 L 2630,2326 L 2632,2319 L 2636,2312 L 2641,2306 L 2711,2236 L 2711,1963 z " style="fill-opacity:1.000000;fill:rgb(74,236,41);stroke:rgb(0,0,0);stroke-width:2"/></g>
<g fill-rule="evenodd"><path d="M 425,1518 L 425,1940 L 464,1940 L 464,2085 L 480,2085 L 448,2361 L 322,2361 L 291,2085 L 307,2085 L 307,1940 L 346,1940 L 346,1517 L 340,1514 L 327,1503 L 317,1491 L 310,1476 L 306,1460 L 305,1444 L 308,1428 L 314,1413 L 322,1399 L 333,1388 L 347,1378 L 361,1372 L 377,1369 L 385,1368 L 401,1370 L 417,1375 L 431,1383 L 443,1393 L 453,1406 L 455,1409 L 699,1409 L 685,1278 L 700,1278 L 700,1133 L 858,1133 L 858,1173 L 920,1173 L 1176,917 L 1174,913 L 1173,897 L 1174,881 L 1179,865 L 1188,851 L 1199,839 L 1212,829 L 1227,822 L 1243,819 L 1260,819 L 1271,821 L 1488,605 L 1488,552 L 1439,552 L 1439,376 L 1615,376 L 1615,425 L 1774,425 L 1774,376 L 1950,376 L 1950,552 L 1774,552 L 1774,503 L 1615,503 L 1615,552 L 1566,552 L 1566,621 L 1566,629 L 1563,637 L 1560,643 L 1555,649 L 1327,877 L 1328,881 L 1330,897 L 1328,913 L 1323,929 L 1315,943 L 1304,956 L 1291,965 L 1276,972 L 1260,975 L 1243,975 L 1231,973 L 964,1240 L 958,1245 L 952,1248 L 944,1251 L 937,1251 L 858,1251 L 858,1278 L 873,1278 L 842,1554 L 716,1554 L 708,1488 L 455,1488 L 449,1497 L 437,1509 L 425,1518 z " style="fill-opacity:1.000000;fill:rgb(205,186,171);stroke:rgb(0,0,0);stroke-width:2"/></g>
<g fill-rule="evenodd"><path d="M 1595,3377 L 1971,3377 L 1975,3371 L 1986,3358 L 1999,3349 L 2014,3342 L 2031,3339 L 2047,3339 L 2063,3342 L 2078,3349 L 2091,3358 L 2102,3371 L 2111,3385 L 2116,3401 L 2117,3417 L 2116,3433 L 2111,3449 L 2102,3463 L 2091,3475 L 2078,3485 L 2063,3492 L 2047,3495 L 2031,3495 L 2014,3492 L 1999,3485 L 1986,3475 L 1975,3463 L 1971,3456 L 1595,3456 L 1591,3463 L 1580,3475 L 1566,3485 L 1551,3492 L 1535,3495 L 1519,3495 L 1503,3492 L 1488,3485 L 1474,3475 L 1463,3463 L 1455,3449 L 1450,3433 L 1448,3417 L 1450,3401 L 1451,3397 L 818,2764 L 748,2835 L 742,2839 L 735,2843 L 727,2845 L 720,2846 L 464,2846 L 464,2885 L 307,2885 L 307,2846 L 228,2846 L 220,2845 L 213,2843 L 206,2839 L 200,2835 L 121,2756 L 116,2750 L 113,2743 L 111,2736 L 110,2728 L 110,1326 L 111,1318 L 113,1311 L 116,1304 L 121,1298 L 199,1220 L 205,1216 L 211,1212 L 219,1210 L 227,1209 L 305,1209 L 305,1168 L 346,1168 L 346,1133 L 347,1126 L 349,1118 L 353,1111 L 358,1105 L 1342,121 L 1348,116 L 1355,113 L 1362,110 L 1370,110 L 4757,110 L 4765,110 L 4772,113 L 4779,116 L 4785,121 L 4832,169 L 5022,169 L 5022,120 L 5198,120 L 5198,296 L 5149,296 L 5149,484 L 5177,484 L 5177,468 L 5453,499 L 5453,625 L 5177,657 L 5177,641 L 5151,641 L 5151,864 L 5177,864 L 5177,848 L 5453,879 L 5453,1005 L 5177,1037 L 5177,1021 L 5151,1021 L 5151,1271 L 5177,1271 L 5177,1255 L 5453,1287 L 5453,1413 L 5177,1444 L 5177,1429 L 5151,1429 L 5151,2569 L 5150,2576 L 5148,2584 L 5144,2591 L 5140,2595 L 5140,2742 L 5167,2742 L 5167,2726 L 5443,2757 L 5443,2883 L 5167,2915 L 5167,2899 L 5140,2899 L 5140,3136 L 5167,3136 L 5167,3120 L 5443,3151 L 5443,3277 L 5167,3309 L 5167,3293 L 5140,3293 L 5140,3529 L 5167,3529 L 5167,3513 L 5443,3545 L 5443,3671 L 5167,3702 L 5167,3687 L 5022,3687 L 5022,3529 L 5062,3529 L 5062,3293 L 5022,3293 L 5022,3136 L 5062,3136 L 5062,2899 L 5022,2899 L 5022,2860 L 3929,2860 L 3929,2905 L 3890,2905 L 3890,3141 L 3929,3141 L 3929,3299 L 3890,3299 L 3890,3535 L 3929,3535 L 3929,3692 L 3784,3692 L 3784,3708 L 3509,3677 L 3509,3551 L 3784,3519 L 3784,3535 L 3811,3535 L 3811,3299 L 3784,3299 L 3784,3314 L 3509,3283 L 3509,3157 L 3784,3125 L 3784,3141 L 3811,3141 L 3811,2905 L 3784,2905 L 3784,2921 L 3509,2889 L 3509,2763 L 3784,2732 L 3784,2748 L 3929,2748 L 3929,2781 L 5022,2781 L 5022,2742 L 5062,2742 L 5062,2579 L 5062,2571 L 5065,2564 L 5068,2557 L 5072,2553 L 5072,1429 L 5033,1429 L 5033,1271 L 5072,1271 L 5072,1021 L 5033,1021 L 5033,864 L 5072,864 L 5072,641 L 5033,641 L 5033,484 L 5070,484 L 5070,296 L 5022,296 L 5022,247 L 4816,247 L 4808,247 L 4801,244 L 4794,241 L 4788,236 L 4741,188 L 2629,188 L 2629,376 L 2678,376 L 2678,552 L 2502,552 L 2502,376 L 2551,376 L 2551,188 L 1386,188 L 425,1150 L 425,1168 L 465,1168 L 465,1328 L 305,1328 L 305,1288 L 243,1288 L 189,1342 L 189,2712 L 244,2767 L 307,2767 L 307,2741 L 291,2741 L 322,2465 L 448,2465 L 480,2741 L 464,2741 L 464,2767 L 703,2767 L 779,2692 L 779,2472 L 740,2472 L 740,2315 L 884,2315 L 884,2299 L 1160,2330 L 1160,2456 L 884,2488 L 884,2472 L 858,2472 L 858,2692 L 1507,3341 L 1519,3339 L 1535,3339 L 1551,3342 L 1566,3349 L 1580,3358 L 1591,3371 L 1595,3377 z " style="fill-opacity:1.000000;fill:rgb(242,251,227);stroke:rgb(0,0,0);stroke-width:2"/></g>
<g fill-rule="evenodd"><path d="M 1685,2354 L 2055,2354 L 2055,2166 L 2046,2156 L 2040,2145 L 2036,2133 L 2035,2121 L 2036,2108 L 2040,2096 L 2046,2085 L 2055,2076 L 2065,2069 L 2076,2064 L 2089,2061 L 2101,2061 L 2113,2064 L 2125,2069 L 2135,2076 L 2143,2085 L 2150,2096 L 2153,2108 L 2155,2121 L 2153,2133 L 2150,2145 L 2143,2156 L 2134,2166 L 2134,2354 L 2259,2354 L 2491,2122 L 2491,2118 L 2492,2105 L 2496,2093 L 2502,2082 L 2510,2073 L 2521,2066 L 2532,2061 L 2544,2058 L 2557,2058 L 2569,2061 L 2581,2066 L 2591,2073 L 2599,2082 L 2605,2093 L 2609,2105 L 2611,2118 L 2609,2130 L 2605,2142 L 2599,2153 L 2591,2162 L 2581,2170 L 2569,2175 L 2557,2177 L 2547,2177 L 2303,2421 L 2297,2426 L 2290,2430 L 2283,2432 L 2275,2433 L 2137,2433 L 2137,2561 L 2186,2561 L 2186,2737 L 2010,2737 L 2010,2561 L 2059,2561 L 2059,2433 L 1685,2433 L 1685,2472 L 1645,2472 L 1645,2983 L 1645,2991 L 1642,2999 L 1639,3005 L 1634,3011 L 1622,3023 L 1971,3023 L 1975,3016 L 1986,3004 L 1999,2994 L 2014,2988 L 2031,2984 L 2047,2984 L 2063,2988 L 2078,2994 L 2091,3004 L 2102,3016 L 2111,3030 L 2116,3046 L 2117,3062 L 2116,3079 L 2111,3094 L 2102,3109 L 2091,3121 L 2078,3131 L 2063,3137 L 2047,3141 L 2031,3141 L 2014,3137 L 1999,3131 L 1986,3121 L 1975,3109 L 1971,3102 L 1595,3102 L 1591,3109 L 1580,3121 L 1566,3131 L 1551,3137 L 1535,3141 L 1519,3141 L 1503,3137 L 1488,3131 L 1474,3121 L 1463,3109 L 1455,3094 L 1450,3079 L 1448,3062 L 1450,3046 L 1455,3030 L 1463,3016 L 1474,3004 L 1488,2994 L 1503,2988 L 1519,2984 L 1535,2984 L 1547,2987 L 1567,2967 L 1567,2472 L 1540,2472 L 1540,2488 L 1264,2456 L 1264,2330 L 1540,2299 L 1540,2315 L 1567,2315 L 1567,2157 L 1567,2149 L 1570,2142 L 1573,2135 L 1578,2129 L 1582,2125 L 1582,2121 L 1583,2108 L 1587,2096 L 1593,2085 L 1602,2076 L 1612,2069 L 1623,2064 L 1636,2061 L 1648,2061 L 1661,2064 L 1672,2069 L 1682,2076 L 1691,2085 L 1697,2096 L 1701,2108 L 1702,2121 L 1701,2133 L 1697,2145 L 1691,2156 L 1682,2165 L 1672,2173 L 1661,2178 L 1648,2180 L 1645,2180 L 1645,2315 L 1685,2315 L 1685,2354 z " style="fill-opacity:1.000000;fill:rgb(70,124,194);stroke:rgb(0,0,0);stroke-width:2"/></g>
<g fill-rule="evenodd"><path d="M 5799,1949 L 5799,1735 L 5789,1730 L 5772,1718 L 5758,1703 L 5748,1685 L 5742,1666 L 5740,1645 L 5742,1625 L 5748,1605 L 5758,1587 L 5772,1572 L 5789,1560 L 5808,1552 L 5828,1547 L 5848,1547 L 5868,1552 L 5887,1560 L 5904,1572 L 5918,1587 L 5928,1605 L 5934,1625 L 5936,1645 L 5934,1666 L 5928,1685 L 5918,1703 L 5904,1718 L 5887,1730 L 5877,1735 L 5877,1949 L 5887,1954 L 5904,1966 L 5918,1981 L 5928,1999 L 5934,2018 L 5936,2039 L 5934,2059 L 5928,2079 L 5918,2097 L 5904,2112 L 5887,2124 L 5877,2128 L 5877,2343 L 5887,2347 L 5904,2359 L 5918,2375 L 5928,2392 L 5934,2412 L 5936,2432 L 5934,2453 L 5928,2473 L 5927,2474 L 5927,2475 L 5928,2483 L 5928,2742 L 5967,2742 L 5967,2899 L 5928,2899 L 5928,3136 L 5967,3136 L 5967,3293 L 5928,3293 L 5928,3529 L 5967,3529 L 5967,3568 L 6044,3568 L 6121,3492 L 6116,3477 L 6114,3456 L 6116,3436 L 6122,3416 L 6133,3398 L 6146,3383 L 6163,3371 L 6182,3363 L 6202,3358 L 6222,3358 L 6243,3363 L 6261,3371 L 6278,3383 L 6292,3398 L 6302,3417 L 6516,3417 L 6526,3398 L 6540,3383 L 6557,3371 L 6575,3363 L 6595,3358 L 6616,3358 L 6636,3363 L 6655,3371 L 6672,3383 L 6685,3398 L 6696,3417 L 6909,3417 L 6920,3398 L 6934,3383 L 6950,3371 L 6969,3363 L 6989,3358 L 7010,3358 L 7030,3363 L 7049,3371 L 7065,3383 L 7079,3398 L 7089,3416 L 7096,3436 L 7098,3456 L 7096,3477 L 7089,3496 L 7079,3514 L 7065,3529 L 7049,3542 L 7030,3550 L 7010,3554 L 6989,3554 L 6969,3550 L 6950,3542 L 6934,3529 L 6920,3514 L 6909,3496 L 6696,3496 L 6685,3514 L 6672,3529 L 6655,3542 L 6636,3550 L 6616,3554 L 6606,3554 L 6606,3742 L 6654,3742 L 6654,3918 L 6478,3918 L 6478,3742 L 6527,3742 L 6527,3515 L 6526,3514 L 6516,3496 L 6302,3496 L 6292,3514 L 6278,3529 L 6261,3542 L 6243,3550 L 6222,3554 L 6202,3554 L 6182,3550 L 6177,3548 L 6088,3636 L 6082,3641 L 6075,3644 L 6068,3647 L 6060,3647 L 5967,3647 L 5967,3687 L 5823,3687 L 5823,3702 L 5547,3671 L 5547,3545 L 5823,3513 L 5823,3529 L 5849,3529 L 5849,3293 L 5823,3293 L 5823,3309 L 5547,3277 L 5547,3151 L 5823,3120 L 5823,3136 L 5849,3136 L 5849,2899 L 5823,2899 L 5823,2915 L 5547,2883 L 5547,2757 L 5823,2726 L 5823,2742 L 5849,2742 L 5849,2530 L 5828,2530 L 5808,2526 L 5789,2518 L 5772,2506 L 5758,2490 L 5748,2473 L 5742,2453 L 5740,2432 L 5742,2412 L 5748,2392 L 5758,2375 L 5772,2359 L 5789,2347 L 5799,2343 L 5799,2128 L 5789,2124 L 5772,2112 L 5758,2097 L 5748,2079 L 5742,2059 L 5740,2039 L 5742,2018 L 5748,1999 L 5758,1981 L 5772,1966 L 5789,1954 L 5799,1949 z " style="fill-opacity:1.000000;fill:rgb(84,248,27);stroke:rgb(0,0,0);stroke-width:2"/></g>
<g fill-rule="evenodd"><path d="M 5860,1271 L 5860,1021 L 5833,1021 L 5833,1037 L 5557,1005 L 5557,879 L 5833,848 L 5833,864 L 5860,864 L 5860,641 L 5833,641 L 5833,657 L 5557,625 L 5557,499 L 5833,468 L 5833,484 L 5858,484 L 5858,296 L 5809,296 L 5809,120 L 5985,120 L 5985,296 L 5937,296 L 5937,484 L 5978,484 L 5978,523 L 6153,523 L 6161,524 L 6168,526 L 6175,530 L 6176,531 L 6182,528 L 6202,524 L 6222,524 L 6243,528 L 6261,536 L 6278,548 L 6292,564 L 6302,582 L 6516,582 L 6526,564 L 6540,548 L 6557,536 L 6566,532 L 6566,296 L 6518,296 L 6518,120 L 6694,120 L 6694,296 L 6645,296 L 6645,532 L 6655,536 L 6672,548 L 6685,564 L 6696,582 L 6909,582 L 6920,564 L 6934,548 L 6950,536 L 6969,528 L 6989,524 L 7010,524 L 7030,528 L 7049,536 L 7065,548 L 7079,564 L 7089,581 L 7096,601 L 7098,621 L 7096,642 L 7089,662 L 7079,679 L 7065,695 L 7049,707 L 7030,715 L 7010,719 L 6989,719 L 6969,715 L 6950,707 L 6934,695 L 6920,679 L 6909,661 L 6696,661 L 6685,679 L 6672,695 L 6655,707 L 6636,715 L 6616,719 L 6595,719 L 6575,715 L 6557,707 L 6540,695 L 6526,679 L 6516,661 L 6302,661 L 6292,679 L 6278,695 L 6261,707 L 6243,715 L 6222,719 L 6202,719 L 6182,715 L 6163,707 L 6146,695 L 6133,679 L 6122,662 L 6116,642 L 6114,621 L 6116,602 L 5978,602 L 5978,641 L 5938,641 L 5938,864 L 5978,864 L 5978,1021 L 5938,1021 L 5938,1271 L 5978,1271 L 5978,1429 L 5833,1429 L 5833,1444 L 5557,1413 L 5557,1287 L 5833,1255 L 5833,1271 L 5860,1271 z " style="fill-opacity:1.000000;fill:rgb(232,231,141);stroke:rgb(0,0,0);stroke-width:2"/></g>
</svg>
