<?xml version="1.0" standalone="no"?>
<!DOCTYPE svg PUBLIC "-//W3C//DTD SVG 1.1//EN"
"http://www.w3.org/Graphics/SVG/1.1/DTD/svg11.dtd">
<svg width="8124" height="4187" viewBox="0 0 8124 4187" version="1.1"
xmlns="http://www.w3.org/2000/svg"
xmlns:xlink="http://www.w3.org/1999/xlink">
<g fill-rule="evenodd"><path d="M 0,4186 L 0,0 L 8123,0 L 8123,4186 L 0,4186 z " style="fill-opacity:0.300000;fill:rgb(103,198,105);"/></g>
<g fill-rule="evenodd"><path d="M 7999,0 L 8023,2 L 8046,9 L 8068,21 L 8087,36 L 8102,55 L 8114,77 L 8121,100 L 8123,124 L 8123,4062 L 8121,4086 L 8114,4109 L 8102,4131 L 8087,4150 L 8068,4165 L 8046,4177 L 8023,4184 L 7999,4186 L 124,4186 L 100,4184 L 77,4177 L 55,4165 L 36,4150 L 21,4131 L 9,4109 L 2,4086 L 0,4062 L 0,124 L 2,100 L 9,77 L 21,55 L 36,36 L 55,21 L 77,9 L 100,2 L 124,0 L 7999,0 z " style="fill-opacity:0.600000;fill:rgb(103,198,105);stroke:rgb(0,0,0);stroke-width:2"/></g>
<g fill-rule="evenodd"><path d="M 124,124 L 7999,124 L 7999,4062 L 124,4062 L 124,124 z " style="fill-opacity:1.000000;fill:rgb(103,198,105);stroke:rgb(0,0,0);stroke-width:2"/></g>
</svg>
