M48
;DRILL file {KiCad 4.0.5+dfsg1-4} date Thu Mar 22 10:03:46 2018
;FORMAT={3:3/ absolute / metric / suppress leading zeros}
FMAT,2
METRIC,TZ
T1C0.762
T2C0.800
T3C1.001
T4C1.016
T5C1.100
T6C1.500
T7C3.200
%
G90
G05
M71
T1
X64250Y-93420
X64250Y-98500
T2
X70460Y-96460
X70460Y-101540
X73000Y-99000
X76210Y-96460
X76210Y-101540
X78750Y-99000
X82000Y-96420
X82000Y-101500
X84540Y-98960
T3
X54500Y-100249
X54500Y-110251
X59500Y-89999
X59500Y-100001
X60000Y-105000
X65500Y-86000
X70003Y-105000
X85500Y-86000
X88500Y-81750
X88500Y-91753
X88500Y-110500
X88500Y-115500
X88500Y-120500
X93500Y-81750
X93500Y-91753
X98500Y-81750
X98500Y-91753
X98503Y-110500
X98503Y-115500
X98503Y-120500
X114389Y-110427
X114389Y-115427
X114389Y-120427
X114521Y-81750
X114521Y-86576
X114521Y-91750
X124391Y-110427
X124391Y-115427
X124391Y-120427
X124523Y-81750
X124523Y-86576
X124523Y-91750
T4
X54500Y-90460
X54500Y-93000
X69000Y-80500
X73250Y-80500
X76250Y-108250
X82500Y-80500
X83500Y-108250
X83500Y-115500
X102500Y-81750
X114500Y-77250
X124500Y-77250
X133000Y-123250
X133500Y-77250
T5
X69000Y-113500
X69000Y-118000
X75500Y-113500
X75500Y-118000
T6
X87750Y-95500
X87750Y-100500
X87750Y-105500
X123750Y-95500
X123750Y-100500
X123750Y-105500
X128500Y-82500
X128500Y-118500
X133500Y-82500
X133500Y-118500
X138500Y-82500
X138500Y-118500
T7
X55000Y-80000
X55000Y-120000
X105750Y-94500
X105750Y-106500
X127500Y-100500
X139500Y-100500
X145000Y-80000
X145000Y-120000
T0
M30
