G04 #@! TF.FileFunction,Soldermask,Top*
%FSLAX46Y46*%
G04 Gerber Fmt 4.6, Leading zero omitted, Abs format (unit mm)*
G04 Created by KiCad (PCBNEW 4.0.5+dfsg1-4) date Thu Mar 15 21:00:35 2018*
%MOMM*%
%LPD*%
G01*
G04 APERTURE LIST*
%ADD10C,0.100000*%
G04 APERTURE END LIST*
D10*
G36*
X55234436Y-117769478D02*
X55663215Y-117857494D01*
X56066735Y-118027118D01*
X56429620Y-118271887D01*
X56738053Y-118582481D01*
X56980282Y-118947065D01*
X57147084Y-119351757D01*
X57231830Y-119779754D01*
X57231829Y-119779795D01*
X57232096Y-119781141D01*
X57225115Y-120281097D01*
X57224809Y-120282442D01*
X57224809Y-120282475D01*
X57128146Y-120707942D01*
X56950110Y-121107817D01*
X56697795Y-121465497D01*
X56380812Y-121767356D01*
X56011232Y-122001898D01*
X55603136Y-122160188D01*
X55172062Y-122236198D01*
X54734446Y-122227031D01*
X54306929Y-122133036D01*
X53905828Y-121957798D01*
X53546392Y-121707984D01*
X53242325Y-121393113D01*
X53005210Y-121025182D01*
X52844074Y-120618201D01*
X52765059Y-120187677D01*
X52771170Y-119749996D01*
X52862177Y-119321841D01*
X53034613Y-118919518D01*
X53281908Y-118558353D01*
X53594649Y-118252095D01*
X53960917Y-118012415D01*
X54366765Y-117848442D01*
X54796727Y-117766423D01*
X55234436Y-117769478D01*
X55234436Y-117769478D01*
G37*
G36*
X145234436Y-117769478D02*
X145663215Y-117857494D01*
X146066735Y-118027118D01*
X146429620Y-118271887D01*
X146738053Y-118582481D01*
X146980282Y-118947065D01*
X147147084Y-119351757D01*
X147231830Y-119779754D01*
X147231829Y-119779795D01*
X147232096Y-119781141D01*
X147225115Y-120281097D01*
X147224809Y-120282442D01*
X147224809Y-120282475D01*
X147128146Y-120707942D01*
X146950110Y-121107817D01*
X146697795Y-121465497D01*
X146380812Y-121767356D01*
X146011232Y-122001898D01*
X145603136Y-122160188D01*
X145172062Y-122236198D01*
X144734446Y-122227031D01*
X144306929Y-122133036D01*
X143905828Y-121957798D01*
X143546392Y-121707984D01*
X143242325Y-121393113D01*
X143005210Y-121025182D01*
X142844074Y-120618201D01*
X142765059Y-120187677D01*
X142771170Y-119749996D01*
X142862177Y-119321841D01*
X143034613Y-118919518D01*
X143281908Y-118558353D01*
X143594649Y-118252095D01*
X143960917Y-118012415D01*
X144366765Y-117848442D01*
X144796727Y-117766423D01*
X145234436Y-117769478D01*
X145234436Y-117769478D01*
G37*
G36*
X93038320Y-119521392D02*
X93038320Y-121478608D01*
X89138200Y-121922961D01*
X89138200Y-121899490D01*
X89130282Y-121843771D01*
X89107154Y-121792465D01*
X89070649Y-121749632D01*
X89023656Y-121718666D01*
X88969896Y-121702018D01*
X88938200Y-121699490D01*
X87300510Y-121699490D01*
X87300510Y-119300510D01*
X88938200Y-119300510D01*
X88993919Y-119292592D01*
X89045225Y-119269464D01*
X89088058Y-119232959D01*
X89119024Y-119185966D01*
X89135672Y-119132206D01*
X89138200Y-119100510D01*
X89138200Y-119077039D01*
X93038320Y-119521392D01*
X93038320Y-119521392D01*
G37*
G36*
X97864320Y-119100510D02*
X97872238Y-119156229D01*
X97895366Y-119207535D01*
X97931871Y-119250368D01*
X97978864Y-119281334D01*
X98032624Y-119297982D01*
X98064320Y-119300510D01*
X99702010Y-119300510D01*
X99702010Y-121699490D01*
X98064320Y-121699490D01*
X98008601Y-121707408D01*
X97957295Y-121730536D01*
X97914462Y-121767041D01*
X97883496Y-121814034D01*
X97866848Y-121867794D01*
X97864320Y-121899490D01*
X97864320Y-121922961D01*
X93964200Y-121478608D01*
X93964200Y-119521392D01*
X97864320Y-119077039D01*
X97864320Y-119100510D01*
X97864320Y-119100510D01*
G37*
G36*
X123752945Y-119027871D02*
X123760863Y-119083590D01*
X123783991Y-119134896D01*
X123820496Y-119177729D01*
X123867489Y-119208695D01*
X123921249Y-119225343D01*
X123952945Y-119227871D01*
X125590635Y-119227871D01*
X125590635Y-121626851D01*
X123952945Y-121626851D01*
X123897226Y-121634769D01*
X123845920Y-121657897D01*
X123803087Y-121694402D01*
X123772121Y-121741395D01*
X123755473Y-121795155D01*
X123752945Y-121826851D01*
X123752945Y-121850322D01*
X119852825Y-121405969D01*
X119852825Y-119448753D01*
X123752945Y-119004400D01*
X123752945Y-119027871D01*
X123752945Y-119027871D01*
G37*
G36*
X118926945Y-119448753D02*
X118926945Y-121405969D01*
X115026825Y-121850322D01*
X115026825Y-121826851D01*
X115018907Y-121771132D01*
X114995779Y-121719826D01*
X114959274Y-121676993D01*
X114912281Y-121646027D01*
X114858521Y-121629379D01*
X114826825Y-121626851D01*
X113189135Y-121626851D01*
X113189135Y-119227871D01*
X114826825Y-119227871D01*
X114882544Y-119219953D01*
X114933850Y-119196825D01*
X114976683Y-119160320D01*
X115007649Y-119113327D01*
X115024297Y-119059567D01*
X115026825Y-119027871D01*
X115026825Y-119004400D01*
X118926945Y-119448753D01*
X118926945Y-119448753D01*
G37*
G36*
X133126041Y-118550790D02*
X133356567Y-118598111D01*
X133573517Y-118689308D01*
X133768614Y-118820903D01*
X133934441Y-118987892D01*
X134064671Y-119183904D01*
X134154350Y-119401480D01*
X134199786Y-119630947D01*
X134199785Y-119630992D01*
X134200051Y-119632334D01*
X134196298Y-119901128D01*
X134195994Y-119902468D01*
X134195993Y-119902506D01*
X134144168Y-120130617D01*
X134048451Y-120345600D01*
X133912794Y-120537906D01*
X133742374Y-120700195D01*
X133543675Y-120826294D01*
X133324270Y-120911395D01*
X133092505Y-120952261D01*
X132857230Y-120947333D01*
X132627378Y-120896797D01*
X132411735Y-120802584D01*
X132218484Y-120668271D01*
X132055012Y-120498992D01*
X131927527Y-120301173D01*
X131840896Y-120082367D01*
X131798415Y-119850904D01*
X131801700Y-119615588D01*
X131850629Y-119385397D01*
X131943337Y-119169093D01*
X132076291Y-118974919D01*
X132244433Y-118810263D01*
X132441352Y-118681402D01*
X132659551Y-118593244D01*
X132890712Y-118549148D01*
X133126041Y-118550790D01*
X133126041Y-118550790D01*
G37*
G36*
X75626041Y-116800790D02*
X75856567Y-116848111D01*
X76073517Y-116939308D01*
X76268614Y-117070903D01*
X76434441Y-117237892D01*
X76564671Y-117433904D01*
X76654350Y-117651480D01*
X76699786Y-117880947D01*
X76699785Y-117880992D01*
X76700051Y-117882334D01*
X76696298Y-118151128D01*
X76695994Y-118152468D01*
X76695993Y-118152506D01*
X76644168Y-118380617D01*
X76548451Y-118595600D01*
X76412794Y-118787906D01*
X76242374Y-118950195D01*
X76043675Y-119076294D01*
X75824270Y-119161395D01*
X75592505Y-119202261D01*
X75357230Y-119197333D01*
X75127378Y-119146797D01*
X74911735Y-119052584D01*
X74718484Y-118918271D01*
X74555012Y-118748992D01*
X74427527Y-118551173D01*
X74340896Y-118332367D01*
X74298415Y-118100904D01*
X74301700Y-117865588D01*
X74350629Y-117635397D01*
X74443337Y-117419093D01*
X74576291Y-117224919D01*
X74744433Y-117060263D01*
X74941352Y-116931402D01*
X75159551Y-116843244D01*
X75390712Y-116799148D01*
X75626041Y-116800790D01*
X75626041Y-116800790D01*
G37*
G36*
X69126041Y-116800790D02*
X69356567Y-116848111D01*
X69573517Y-116939308D01*
X69768614Y-117070903D01*
X69934441Y-117237892D01*
X70064671Y-117433904D01*
X70154350Y-117651480D01*
X70199786Y-117880947D01*
X70199785Y-117880992D01*
X70200051Y-117882334D01*
X70196298Y-118151128D01*
X70195994Y-118152468D01*
X70195993Y-118152506D01*
X70144168Y-118380617D01*
X70048451Y-118595600D01*
X69912794Y-118787906D01*
X69742374Y-118950195D01*
X69543675Y-119076294D01*
X69324270Y-119161395D01*
X69092505Y-119202261D01*
X68857230Y-119197333D01*
X68627378Y-119146797D01*
X68411735Y-119052584D01*
X68218484Y-118918271D01*
X68055012Y-118748992D01*
X67927527Y-118551173D01*
X67840896Y-118332367D01*
X67798415Y-118100904D01*
X67801700Y-117865588D01*
X67850629Y-117635397D01*
X67943337Y-117419093D01*
X68076291Y-117224919D01*
X68244433Y-117060263D01*
X68441352Y-116931402D01*
X68659551Y-116843244D01*
X68890712Y-116799148D01*
X69126041Y-116800790D01*
X69126041Y-116800790D01*
G37*
G36*
X97864320Y-114100510D02*
X97872238Y-114156229D01*
X97895366Y-114207535D01*
X97931871Y-114250368D01*
X97978864Y-114281334D01*
X98032624Y-114297982D01*
X98064320Y-114300510D01*
X99702010Y-114300510D01*
X99702010Y-116699490D01*
X98064320Y-116699490D01*
X98008601Y-116707408D01*
X97957295Y-116730536D01*
X97914462Y-116767041D01*
X97883496Y-116814034D01*
X97866848Y-116867794D01*
X97864320Y-116899490D01*
X97864320Y-116922961D01*
X93964200Y-116478608D01*
X93964200Y-114521392D01*
X97864320Y-114077039D01*
X97864320Y-114100510D01*
X97864320Y-114100510D01*
G37*
G36*
X93038320Y-114521392D02*
X93038320Y-116478608D01*
X89138200Y-116922961D01*
X89138200Y-116899490D01*
X89130282Y-116843771D01*
X89107154Y-116792465D01*
X89070649Y-116749632D01*
X89023656Y-116718666D01*
X88969896Y-116702018D01*
X88938200Y-116699490D01*
X87300510Y-116699490D01*
X87300510Y-114300510D01*
X88938200Y-114300510D01*
X88993919Y-114292592D01*
X89045225Y-114269464D01*
X89088058Y-114232959D01*
X89119024Y-114185966D01*
X89135672Y-114132206D01*
X89138200Y-114100510D01*
X89138200Y-114077039D01*
X93038320Y-114521392D01*
X93038320Y-114521392D01*
G37*
G36*
X118926945Y-114448753D02*
X118926945Y-116405969D01*
X115026825Y-116850322D01*
X115026825Y-116826851D01*
X115018907Y-116771132D01*
X114995779Y-116719826D01*
X114959274Y-116676993D01*
X114912281Y-116646027D01*
X114858521Y-116629379D01*
X114826825Y-116626851D01*
X113189135Y-116626851D01*
X113189135Y-114227871D01*
X114826825Y-114227871D01*
X114882544Y-114219953D01*
X114933850Y-114196825D01*
X114976683Y-114160320D01*
X115007649Y-114113327D01*
X115024297Y-114059567D01*
X115026825Y-114027871D01*
X115026825Y-114004400D01*
X118926945Y-114448753D01*
X118926945Y-114448753D01*
G37*
G36*
X123752945Y-114027871D02*
X123760863Y-114083590D01*
X123783991Y-114134896D01*
X123820496Y-114177729D01*
X123867489Y-114208695D01*
X123921249Y-114225343D01*
X123952945Y-114227871D01*
X125590635Y-114227871D01*
X125590635Y-116626851D01*
X123952945Y-116626851D01*
X123897226Y-116634769D01*
X123845920Y-116657897D01*
X123803087Y-116694402D01*
X123772121Y-116741395D01*
X123755473Y-116795155D01*
X123752945Y-116826851D01*
X123752945Y-116850322D01*
X119852825Y-116405969D01*
X119852825Y-114448753D01*
X123752945Y-114004400D01*
X123752945Y-114027871D01*
X123752945Y-114027871D01*
G37*
G36*
X75626041Y-112300790D02*
X75856567Y-112348111D01*
X76073517Y-112439308D01*
X76268614Y-112570903D01*
X76434441Y-112737892D01*
X76564671Y-112933904D01*
X76654350Y-113151480D01*
X76699786Y-113380947D01*
X76699785Y-113380992D01*
X76700051Y-113382334D01*
X76696298Y-113651128D01*
X76695994Y-113652468D01*
X76695993Y-113652506D01*
X76644168Y-113880617D01*
X76548451Y-114095600D01*
X76412794Y-114287906D01*
X76242374Y-114450195D01*
X76043675Y-114576294D01*
X75824270Y-114661395D01*
X75592505Y-114702261D01*
X75357230Y-114697333D01*
X75127378Y-114646797D01*
X74911735Y-114552584D01*
X74718484Y-114418271D01*
X74555012Y-114248992D01*
X74427527Y-114051173D01*
X74340896Y-113832367D01*
X74298415Y-113600904D01*
X74301700Y-113365588D01*
X74350629Y-113135397D01*
X74443337Y-112919093D01*
X74576291Y-112724919D01*
X74744433Y-112560263D01*
X74941352Y-112431402D01*
X75159551Y-112343244D01*
X75390712Y-112299148D01*
X75626041Y-112300790D01*
X75626041Y-112300790D01*
G37*
G36*
X69126041Y-112300790D02*
X69356567Y-112348111D01*
X69573517Y-112439308D01*
X69768614Y-112570903D01*
X69934441Y-112737892D01*
X70064671Y-112933904D01*
X70154350Y-113151480D01*
X70199786Y-113380947D01*
X70199785Y-113380992D01*
X70200051Y-113382334D01*
X70196298Y-113651128D01*
X70195994Y-113652468D01*
X70195993Y-113652506D01*
X70144168Y-113880617D01*
X70048451Y-114095600D01*
X69912794Y-114287906D01*
X69742374Y-114450195D01*
X69543675Y-114576294D01*
X69324270Y-114661395D01*
X69092505Y-114702261D01*
X68857230Y-114697333D01*
X68627378Y-114646797D01*
X68411735Y-114552584D01*
X68218484Y-114418271D01*
X68055012Y-114248992D01*
X67927527Y-114051173D01*
X67840896Y-113832367D01*
X67798415Y-113600904D01*
X67801700Y-113365588D01*
X67850629Y-113135397D01*
X67943337Y-112919093D01*
X68076291Y-112724919D01*
X68244433Y-112560263D01*
X68441352Y-112431402D01*
X68659551Y-112343244D01*
X68890712Y-112299148D01*
X69126041Y-112300790D01*
X69126041Y-112300790D01*
G37*
G36*
X97864320Y-109100510D02*
X97872238Y-109156229D01*
X97895366Y-109207535D01*
X97931871Y-109250368D01*
X97978864Y-109281334D01*
X98032624Y-109297982D01*
X98064320Y-109300510D01*
X99702010Y-109300510D01*
X99702010Y-111699490D01*
X98064320Y-111699490D01*
X98008601Y-111707408D01*
X97957295Y-111730536D01*
X97914462Y-111767041D01*
X97883496Y-111814034D01*
X97866848Y-111867794D01*
X97864320Y-111899490D01*
X97864320Y-111922961D01*
X93964200Y-111478608D01*
X93964200Y-109521392D01*
X97864320Y-109077039D01*
X97864320Y-109100510D01*
X97864320Y-109100510D01*
G37*
G36*
X93038320Y-109521392D02*
X93038320Y-111478608D01*
X89138200Y-111922961D01*
X89138200Y-111899490D01*
X89130282Y-111843771D01*
X89107154Y-111792465D01*
X89070649Y-111749632D01*
X89023656Y-111718666D01*
X88969896Y-111702018D01*
X88938200Y-111699490D01*
X87300510Y-111699490D01*
X87300510Y-109300510D01*
X88938200Y-109300510D01*
X88993919Y-109292592D01*
X89045225Y-109269464D01*
X89088058Y-109232959D01*
X89119024Y-109185966D01*
X89135672Y-109132206D01*
X89138200Y-109100510D01*
X89138200Y-109077039D01*
X93038320Y-109521392D01*
X93038320Y-109521392D01*
G37*
G36*
X123752945Y-109027871D02*
X123760863Y-109083590D01*
X123783991Y-109134896D01*
X123820496Y-109177729D01*
X123867489Y-109208695D01*
X123921249Y-109225343D01*
X123952945Y-109227871D01*
X125590635Y-109227871D01*
X125590635Y-111626851D01*
X123952945Y-111626851D01*
X123897226Y-111634769D01*
X123845920Y-111657897D01*
X123803087Y-111694402D01*
X123772121Y-111741395D01*
X123755473Y-111795155D01*
X123752945Y-111826851D01*
X123752945Y-111850322D01*
X119852825Y-111405969D01*
X119852825Y-109448753D01*
X123752945Y-109004400D01*
X123752945Y-109027871D01*
X123752945Y-109027871D01*
G37*
G36*
X118926945Y-109448753D02*
X118926945Y-111405969D01*
X115026825Y-111850322D01*
X115026825Y-111826851D01*
X115018907Y-111771132D01*
X114995779Y-111719826D01*
X114959274Y-111676993D01*
X114912281Y-111646027D01*
X114858521Y-111629379D01*
X114826825Y-111626851D01*
X113189135Y-111626851D01*
X113189135Y-109227871D01*
X114826825Y-109227871D01*
X114882544Y-109219953D01*
X114933850Y-109196825D01*
X114976683Y-109160320D01*
X115007649Y-109113327D01*
X115024297Y-109059567D01*
X115026825Y-109027871D01*
X115026825Y-109004400D01*
X118926945Y-109448753D01*
X118926945Y-109448753D01*
G37*
G36*
X55922961Y-109613060D02*
X55899490Y-109613060D01*
X55843771Y-109620978D01*
X55792465Y-109644106D01*
X55749632Y-109680611D01*
X55718666Y-109727604D01*
X55702018Y-109781364D01*
X55699490Y-109813060D01*
X55699490Y-111450750D01*
X53300510Y-111450750D01*
X53300510Y-109813060D01*
X53292592Y-109757341D01*
X53269464Y-109706035D01*
X53232959Y-109663202D01*
X53185966Y-109632236D01*
X53132206Y-109615588D01*
X53100510Y-109613060D01*
X53077039Y-109613060D01*
X53521392Y-105712940D01*
X55478608Y-105712940D01*
X55922961Y-109613060D01*
X55922961Y-109613060D01*
G37*
G36*
X64538320Y-104021392D02*
X64538320Y-105978608D01*
X60638200Y-106422961D01*
X60638200Y-106399490D01*
X60630282Y-106343771D01*
X60607154Y-106292465D01*
X60570649Y-106249632D01*
X60523656Y-106218666D01*
X60469896Y-106202018D01*
X60438200Y-106199490D01*
X58800510Y-106199490D01*
X58800510Y-103800510D01*
X60438200Y-103800510D01*
X60493919Y-103792592D01*
X60545225Y-103769464D01*
X60588058Y-103732959D01*
X60619024Y-103685966D01*
X60635672Y-103632206D01*
X60638200Y-103600510D01*
X60638200Y-103577039D01*
X64538320Y-104021392D01*
X64538320Y-104021392D01*
G37*
G36*
X69364320Y-103600510D02*
X69372238Y-103656229D01*
X69395366Y-103707535D01*
X69431871Y-103750368D01*
X69478864Y-103781334D01*
X69532624Y-103797982D01*
X69564320Y-103800510D01*
X71202010Y-103800510D01*
X71202010Y-106199490D01*
X69564320Y-106199490D01*
X69508601Y-106207408D01*
X69457295Y-106230536D01*
X69414462Y-106267041D01*
X69383496Y-106314034D01*
X69366848Y-106367794D01*
X69364320Y-106399490D01*
X69364320Y-106422961D01*
X65464200Y-105978608D01*
X65464200Y-104021392D01*
X69364320Y-103577039D01*
X69364320Y-103600510D01*
X69364320Y-103600510D01*
G37*
G36*
X55699490Y-100686940D02*
X55707408Y-100742659D01*
X55730536Y-100793965D01*
X55767041Y-100836798D01*
X55814034Y-100867764D01*
X55867794Y-100884412D01*
X55899490Y-100886940D01*
X55922961Y-100886940D01*
X55478608Y-104787060D01*
X53521392Y-104787060D01*
X53077039Y-100886940D01*
X53100510Y-100886940D01*
X53156229Y-100879022D01*
X53207535Y-100855894D01*
X53250368Y-100819389D01*
X53281334Y-100772396D01*
X53297982Y-100718636D01*
X53300510Y-100686940D01*
X53300510Y-99049250D01*
X55699490Y-99049250D01*
X55699490Y-100686940D01*
X55699490Y-100686940D01*
G37*
G36*
X88626041Y-100550790D02*
X88856567Y-100598111D01*
X89073517Y-100689308D01*
X89268614Y-100820903D01*
X89434441Y-100987892D01*
X89564671Y-101183904D01*
X89654350Y-101401480D01*
X89699786Y-101630947D01*
X89699785Y-101630992D01*
X89700051Y-101632334D01*
X89696298Y-101901128D01*
X89695994Y-101902468D01*
X89695993Y-101902506D01*
X89644168Y-102130617D01*
X89548451Y-102345600D01*
X89412794Y-102537906D01*
X89242374Y-102700195D01*
X89043675Y-102826294D01*
X88824270Y-102911395D01*
X88592505Y-102952261D01*
X88357230Y-102947333D01*
X88127378Y-102896797D01*
X87911735Y-102802584D01*
X87718484Y-102668271D01*
X87555012Y-102498992D01*
X87427527Y-102301173D01*
X87340896Y-102082367D01*
X87298415Y-101850904D01*
X87301700Y-101615588D01*
X87350629Y-101385397D01*
X87443337Y-101169093D01*
X87576291Y-100974919D01*
X87744433Y-100810263D01*
X87941352Y-100681402D01*
X88159551Y-100593244D01*
X88390712Y-100549148D01*
X88626041Y-100550790D01*
X88626041Y-100550790D01*
G37*
G36*
X124626041Y-100550790D02*
X124856567Y-100598111D01*
X125073517Y-100689308D01*
X125268614Y-100820903D01*
X125434441Y-100987892D01*
X125564671Y-101183904D01*
X125654350Y-101401480D01*
X125699786Y-101630947D01*
X125699785Y-101630992D01*
X125700051Y-101632334D01*
X125696298Y-101901128D01*
X125695994Y-101902468D01*
X125695993Y-101902506D01*
X125644168Y-102130617D01*
X125548451Y-102345600D01*
X125412794Y-102537906D01*
X125242374Y-102700195D01*
X125043675Y-102826294D01*
X124824270Y-102911395D01*
X124592505Y-102952261D01*
X124357230Y-102947333D01*
X124127378Y-102896797D01*
X123911735Y-102802584D01*
X123718484Y-102668271D01*
X123555012Y-102498992D01*
X123427527Y-102301173D01*
X123340896Y-102082367D01*
X123298415Y-101850904D01*
X123301700Y-101615588D01*
X123350629Y-101385397D01*
X123443337Y-101169093D01*
X123576291Y-100974919D01*
X123744433Y-100810263D01*
X123941352Y-100681402D01*
X124159551Y-100593244D01*
X124390712Y-100549148D01*
X124626041Y-100550790D01*
X124626041Y-100550790D01*
G37*
G36*
X76311043Y-100578632D02*
X76495848Y-100616568D01*
X76669770Y-100689678D01*
X76826173Y-100795173D01*
X76959111Y-100929042D01*
X77063513Y-101086179D01*
X77135405Y-101260602D01*
X77171775Y-101444284D01*
X77171774Y-101444320D01*
X77172042Y-101445671D01*
X77169033Y-101661154D01*
X77168727Y-101662499D01*
X77168727Y-101662534D01*
X77127244Y-101845125D01*
X77050507Y-102017477D01*
X76941759Y-102171637D01*
X76805138Y-102301740D01*
X76645847Y-102402829D01*
X76469956Y-102471053D01*
X76284159Y-102503814D01*
X76095545Y-102499863D01*
X75911281Y-102459350D01*
X75738407Y-102383823D01*
X75583487Y-102276151D01*
X75452429Y-102140437D01*
X75350235Y-101981862D01*
X75280784Y-101806448D01*
X75246728Y-101620892D01*
X75249362Y-101432241D01*
X75288585Y-101247712D01*
X75362905Y-101074310D01*
X75469494Y-100918641D01*
X75604287Y-100786642D01*
X75762150Y-100683339D01*
X75937073Y-100612666D01*
X76122388Y-100577315D01*
X76311043Y-100578632D01*
X76311043Y-100578632D01*
G37*
G36*
X70561043Y-100578632D02*
X70745848Y-100616568D01*
X70919770Y-100689678D01*
X71076173Y-100795173D01*
X71209111Y-100929042D01*
X71313513Y-101086179D01*
X71385405Y-101260602D01*
X71421775Y-101444284D01*
X71421774Y-101444320D01*
X71422042Y-101445671D01*
X71419033Y-101661154D01*
X71418727Y-101662499D01*
X71418727Y-101662534D01*
X71377244Y-101845125D01*
X71300507Y-102017477D01*
X71191759Y-102171637D01*
X71055138Y-102301740D01*
X70895847Y-102402829D01*
X70719956Y-102471053D01*
X70534159Y-102503814D01*
X70345545Y-102499863D01*
X70161281Y-102459350D01*
X69988407Y-102383823D01*
X69833487Y-102276151D01*
X69702429Y-102140437D01*
X69600235Y-101981862D01*
X69530784Y-101806448D01*
X69496728Y-101620892D01*
X69499362Y-101432241D01*
X69538585Y-101247712D01*
X69612905Y-101074310D01*
X69719494Y-100918641D01*
X69854287Y-100786642D01*
X70012150Y-100683339D01*
X70187073Y-100612666D01*
X70372388Y-100577315D01*
X70561043Y-100578632D01*
X70561043Y-100578632D01*
G37*
G36*
X82101043Y-100538632D02*
X82285848Y-100576568D01*
X82459770Y-100649678D01*
X82616173Y-100755173D01*
X82749111Y-100889042D01*
X82853513Y-101046179D01*
X82925405Y-101220602D01*
X82961775Y-101404284D01*
X82961774Y-101404320D01*
X82962042Y-101405671D01*
X82959033Y-101621154D01*
X82958727Y-101622499D01*
X82958727Y-101622534D01*
X82917244Y-101805125D01*
X82840507Y-101977477D01*
X82731759Y-102131637D01*
X82595138Y-102261740D01*
X82435847Y-102362829D01*
X82259956Y-102431053D01*
X82074159Y-102463814D01*
X81885545Y-102459863D01*
X81701281Y-102419350D01*
X81528407Y-102343823D01*
X81373487Y-102236151D01*
X81242429Y-102100437D01*
X81140235Y-101941862D01*
X81070784Y-101766448D01*
X81036728Y-101580892D01*
X81039362Y-101392241D01*
X81078585Y-101207712D01*
X81152905Y-101034310D01*
X81259494Y-100878641D01*
X81394287Y-100746642D01*
X81552150Y-100643339D01*
X81727073Y-100572666D01*
X81912388Y-100537315D01*
X82101043Y-100538632D01*
X82101043Y-100538632D01*
G37*
G36*
X60922961Y-99363060D02*
X60899490Y-99363060D01*
X60843771Y-99370978D01*
X60792465Y-99394106D01*
X60749632Y-99430611D01*
X60718666Y-99477604D01*
X60702018Y-99531364D01*
X60699490Y-99563060D01*
X60699490Y-101200750D01*
X58300510Y-101200750D01*
X58300510Y-99563060D01*
X58292592Y-99507341D01*
X58269464Y-99456035D01*
X58232959Y-99413202D01*
X58185966Y-99382236D01*
X58132206Y-99365588D01*
X58100510Y-99363060D01*
X58077039Y-99363060D01*
X58521392Y-95462940D01*
X60478608Y-95462940D01*
X60922961Y-99363060D01*
X60922961Y-99363060D01*
G37*
G36*
X78851043Y-98038632D02*
X79035848Y-98076568D01*
X79209770Y-98149678D01*
X79366173Y-98255173D01*
X79499111Y-98389042D01*
X79603513Y-98546179D01*
X79675405Y-98720602D01*
X79711775Y-98904284D01*
X79711774Y-98904320D01*
X79712042Y-98905671D01*
X79709033Y-99121154D01*
X79708727Y-99122499D01*
X79708727Y-99122534D01*
X79667244Y-99305125D01*
X79590507Y-99477477D01*
X79481759Y-99631637D01*
X79345138Y-99761740D01*
X79185847Y-99862829D01*
X79009956Y-99931053D01*
X78824159Y-99963814D01*
X78635545Y-99959863D01*
X78451281Y-99919350D01*
X78278407Y-99843823D01*
X78123487Y-99736151D01*
X77992429Y-99600437D01*
X77890235Y-99441862D01*
X77820784Y-99266448D01*
X77786728Y-99080892D01*
X77789362Y-98892241D01*
X77828585Y-98707712D01*
X77902905Y-98534310D01*
X78009494Y-98378641D01*
X78144287Y-98246642D01*
X78302150Y-98143339D01*
X78477073Y-98072666D01*
X78662388Y-98037315D01*
X78851043Y-98038632D01*
X78851043Y-98038632D01*
G37*
G36*
X73101043Y-98038632D02*
X73285848Y-98076568D01*
X73459770Y-98149678D01*
X73616173Y-98255173D01*
X73749111Y-98389042D01*
X73853513Y-98546179D01*
X73925405Y-98720602D01*
X73961775Y-98904284D01*
X73961774Y-98904320D01*
X73962042Y-98905671D01*
X73959033Y-99121154D01*
X73958727Y-99122499D01*
X73958727Y-99122534D01*
X73917244Y-99305125D01*
X73840507Y-99477477D01*
X73731759Y-99631637D01*
X73595138Y-99761740D01*
X73435847Y-99862829D01*
X73259956Y-99931053D01*
X73074159Y-99963814D01*
X72885545Y-99959863D01*
X72701281Y-99919350D01*
X72528407Y-99843823D01*
X72373487Y-99736151D01*
X72242429Y-99600437D01*
X72140235Y-99441862D01*
X72070784Y-99266448D01*
X72036728Y-99080892D01*
X72039362Y-98892241D01*
X72078585Y-98707712D01*
X72152905Y-98534310D01*
X72259494Y-98378641D01*
X72394287Y-98246642D01*
X72552150Y-98143339D01*
X72727073Y-98072666D01*
X72912388Y-98037315D01*
X73101043Y-98038632D01*
X73101043Y-98038632D01*
G37*
G36*
X84641043Y-97998632D02*
X84825848Y-98036568D01*
X84999770Y-98109678D01*
X85156173Y-98215173D01*
X85289111Y-98349042D01*
X85393513Y-98506179D01*
X85465405Y-98680602D01*
X85501775Y-98864284D01*
X85501774Y-98864320D01*
X85502042Y-98865671D01*
X85499033Y-99081154D01*
X85498727Y-99082499D01*
X85498727Y-99082534D01*
X85457244Y-99265125D01*
X85380507Y-99437477D01*
X85271759Y-99591637D01*
X85135138Y-99721740D01*
X84975847Y-99822829D01*
X84799956Y-99891053D01*
X84614159Y-99923814D01*
X84425545Y-99919863D01*
X84241281Y-99879350D01*
X84068407Y-99803823D01*
X83913487Y-99696151D01*
X83782429Y-99560437D01*
X83680235Y-99401862D01*
X83610784Y-99226448D01*
X83576728Y-99040892D01*
X83579362Y-98852241D01*
X83618585Y-98667712D01*
X83692905Y-98494310D01*
X83799494Y-98338641D01*
X83934287Y-98206642D01*
X84092150Y-98103339D01*
X84267073Y-98032666D01*
X84452388Y-97997315D01*
X84641043Y-97998632D01*
X84641043Y-97998632D01*
G37*
G36*
X64345708Y-97589398D02*
X64520756Y-97625330D01*
X64685486Y-97694576D01*
X64833639Y-97794507D01*
X64959552Y-97921302D01*
X65058444Y-98070145D01*
X65126539Y-98235356D01*
X65160974Y-98409270D01*
X65160973Y-98409311D01*
X65161239Y-98410652D01*
X65158389Y-98614756D01*
X65158087Y-98616087D01*
X65158086Y-98616131D01*
X65118807Y-98789015D01*
X65046126Y-98952259D01*
X64943116Y-99098285D01*
X64813712Y-99221516D01*
X64662831Y-99317267D01*
X64496229Y-99381888D01*
X64320242Y-99412919D01*
X64141591Y-99409177D01*
X63967058Y-99370804D01*
X63803306Y-99299263D01*
X63656567Y-99197276D01*
X63532437Y-99068735D01*
X63435634Y-98918526D01*
X63369851Y-98752378D01*
X63337593Y-98576616D01*
X63340088Y-98397941D01*
X63377242Y-98223142D01*
X63447637Y-98058899D01*
X63548596Y-97911451D01*
X63676269Y-97786425D01*
X63825799Y-97688575D01*
X63991486Y-97621634D01*
X64167013Y-97588150D01*
X64345708Y-97589398D01*
X64345708Y-97589398D01*
G37*
G36*
X70561043Y-95498632D02*
X70745848Y-95536568D01*
X70919770Y-95609678D01*
X71076173Y-95715173D01*
X71209111Y-95849042D01*
X71313513Y-96006179D01*
X71385405Y-96180602D01*
X71421775Y-96364284D01*
X71421774Y-96364320D01*
X71422042Y-96365671D01*
X71419033Y-96581154D01*
X71418727Y-96582499D01*
X71418727Y-96582534D01*
X71377244Y-96765125D01*
X71300507Y-96937477D01*
X71191759Y-97091637D01*
X71055138Y-97221740D01*
X70895847Y-97322829D01*
X70719956Y-97391053D01*
X70534159Y-97423814D01*
X70345545Y-97419863D01*
X70161281Y-97379350D01*
X69988407Y-97303823D01*
X69833487Y-97196151D01*
X69702429Y-97060437D01*
X69600235Y-96901862D01*
X69530784Y-96726448D01*
X69496728Y-96540892D01*
X69499362Y-96352241D01*
X69538585Y-96167712D01*
X69612905Y-95994310D01*
X69719494Y-95838641D01*
X69854287Y-95706642D01*
X70012150Y-95603339D01*
X70187073Y-95532666D01*
X70372388Y-95497315D01*
X70561043Y-95498632D01*
X70561043Y-95498632D01*
G37*
G36*
X76311043Y-95498632D02*
X76495848Y-95536568D01*
X76669770Y-95609678D01*
X76826173Y-95715173D01*
X76959111Y-95849042D01*
X77063513Y-96006179D01*
X77135405Y-96180602D01*
X77171775Y-96364284D01*
X77171774Y-96364320D01*
X77172042Y-96365671D01*
X77169033Y-96581154D01*
X77168727Y-96582499D01*
X77168727Y-96582534D01*
X77127244Y-96765125D01*
X77050507Y-96937477D01*
X76941759Y-97091637D01*
X76805138Y-97221740D01*
X76645847Y-97322829D01*
X76469956Y-97391053D01*
X76284159Y-97423814D01*
X76095545Y-97419863D01*
X75911281Y-97379350D01*
X75738407Y-97303823D01*
X75583487Y-97196151D01*
X75452429Y-97060437D01*
X75350235Y-96901862D01*
X75280784Y-96726448D01*
X75246728Y-96540892D01*
X75249362Y-96352241D01*
X75288585Y-96167712D01*
X75362905Y-95994310D01*
X75469494Y-95838641D01*
X75604287Y-95706642D01*
X75762150Y-95603339D01*
X75937073Y-95532666D01*
X76122388Y-95497315D01*
X76311043Y-95498632D01*
X76311043Y-95498632D01*
G37*
G36*
X82101043Y-95458632D02*
X82285848Y-95496568D01*
X82459770Y-95569678D01*
X82616173Y-95675173D01*
X82749111Y-95809042D01*
X82853513Y-95966179D01*
X82925405Y-96140602D01*
X82961775Y-96324284D01*
X82961774Y-96324320D01*
X82962042Y-96325671D01*
X82959033Y-96541154D01*
X82958727Y-96542499D01*
X82958727Y-96542534D01*
X82917244Y-96725125D01*
X82840507Y-96897477D01*
X82731759Y-97051637D01*
X82595138Y-97181740D01*
X82435847Y-97282829D01*
X82259956Y-97351053D01*
X82074159Y-97383814D01*
X81885545Y-97379863D01*
X81701281Y-97339350D01*
X81528407Y-97263823D01*
X81373487Y-97156151D01*
X81242429Y-97020437D01*
X81140235Y-96861862D01*
X81070784Y-96686448D01*
X81036728Y-96500892D01*
X81039362Y-96312241D01*
X81078585Y-96127712D01*
X81152905Y-95954310D01*
X81259494Y-95798641D01*
X81394287Y-95666642D01*
X81552150Y-95563339D01*
X81727073Y-95492666D01*
X81912388Y-95457315D01*
X82101043Y-95458632D01*
X82101043Y-95458632D01*
G37*
G36*
X60699490Y-90436940D02*
X60707408Y-90492659D01*
X60730536Y-90543965D01*
X60767041Y-90586798D01*
X60814034Y-90617764D01*
X60867794Y-90634412D01*
X60899490Y-90636940D01*
X60922961Y-90636940D01*
X60478608Y-94537060D01*
X58521392Y-94537060D01*
X58077039Y-90636940D01*
X58100510Y-90636940D01*
X58156229Y-90629022D01*
X58207535Y-90605894D01*
X58250368Y-90569389D01*
X58281334Y-90522396D01*
X58297982Y-90468636D01*
X58300510Y-90436940D01*
X58300510Y-88799250D01*
X60699490Y-88799250D01*
X60699490Y-90436940D01*
X60699490Y-90436940D01*
G37*
G36*
X119058927Y-92021392D02*
X119058927Y-93978608D01*
X115158807Y-94422961D01*
X115158807Y-94399490D01*
X115150889Y-94343771D01*
X115127761Y-94292465D01*
X115091256Y-94249632D01*
X115044263Y-94218666D01*
X114990503Y-94202018D01*
X114958807Y-94199490D01*
X113321117Y-94199490D01*
X113321117Y-91800510D01*
X114958807Y-91800510D01*
X115014526Y-91792592D01*
X115065832Y-91769464D01*
X115108665Y-91732959D01*
X115139631Y-91685966D01*
X115156279Y-91632206D01*
X115158807Y-91600510D01*
X115158807Y-91577039D01*
X119058927Y-92021392D01*
X119058927Y-92021392D01*
G37*
G36*
X123884927Y-91600510D02*
X123892845Y-91656229D01*
X123915973Y-91707535D01*
X123952478Y-91750368D01*
X123999471Y-91781334D01*
X124053231Y-91797982D01*
X124084927Y-91800510D01*
X125722617Y-91800510D01*
X125722617Y-94199490D01*
X124084927Y-94199490D01*
X124029208Y-94207408D01*
X123977902Y-94230536D01*
X123935069Y-94267041D01*
X123904103Y-94314034D01*
X123887455Y-94367794D01*
X123884927Y-94399490D01*
X123884927Y-94422961D01*
X119984807Y-93978608D01*
X119984807Y-92021392D01*
X123884927Y-91577039D01*
X123884927Y-91600510D01*
X123884927Y-91600510D01*
G37*
G36*
X64345708Y-92509398D02*
X64520756Y-92545330D01*
X64685486Y-92614576D01*
X64833639Y-92714507D01*
X64959552Y-92841302D01*
X65058444Y-92990145D01*
X65126539Y-93155356D01*
X65160974Y-93329270D01*
X65160973Y-93329311D01*
X65161239Y-93330652D01*
X65158389Y-93534756D01*
X65158087Y-93536087D01*
X65158086Y-93536131D01*
X65118807Y-93709015D01*
X65046126Y-93872259D01*
X64943116Y-94018285D01*
X64813712Y-94141516D01*
X64662831Y-94237267D01*
X64496229Y-94301888D01*
X64320242Y-94332919D01*
X64141591Y-94329177D01*
X63967058Y-94290804D01*
X63803306Y-94219263D01*
X63656567Y-94117276D01*
X63532437Y-93988735D01*
X63435634Y-93838526D01*
X63369851Y-93672378D01*
X63337593Y-93496616D01*
X63340088Y-93317941D01*
X63377242Y-93143142D01*
X63447637Y-92978899D01*
X63548596Y-92831451D01*
X63676269Y-92706425D01*
X63825799Y-92608575D01*
X63991486Y-92541634D01*
X64167013Y-92508150D01*
X64345708Y-92509398D01*
X64345708Y-92509398D01*
G37*
G36*
X55716000Y-91676000D02*
X55359711Y-91676000D01*
X55303992Y-91683918D01*
X55252686Y-91707046D01*
X55209853Y-91743551D01*
X55178887Y-91790544D01*
X55162239Y-91844304D01*
X55161226Y-91900573D01*
X55175931Y-91954897D01*
X55205187Y-92002973D01*
X55228610Y-92026640D01*
X55374683Y-92149209D01*
X55523389Y-92334163D01*
X55633340Y-92544478D01*
X55700345Y-92772144D01*
X55700358Y-92772285D01*
X55700370Y-92772326D01*
X55721862Y-93008485D01*
X55697076Y-93244313D01*
X55697065Y-93244348D01*
X55697048Y-93244511D01*
X55626870Y-93471219D01*
X55513994Y-93679979D01*
X55362719Y-93862838D01*
X55178808Y-94012832D01*
X54969266Y-94124248D01*
X54742073Y-94192841D01*
X54505884Y-94216000D01*
X54493829Y-94216000D01*
X54485262Y-94215940D01*
X54485242Y-94215938D01*
X54477138Y-94215881D01*
X54241295Y-94189427D01*
X54015083Y-94117669D01*
X53807116Y-94003338D01*
X53625317Y-93850791D01*
X53476611Y-93665837D01*
X53366660Y-93455522D01*
X53299655Y-93227856D01*
X53299642Y-93227715D01*
X53299630Y-93227674D01*
X53278138Y-92991515D01*
X53302924Y-92755687D01*
X53302935Y-92755652D01*
X53302952Y-92755489D01*
X53373130Y-92528781D01*
X53486006Y-92320021D01*
X53637281Y-92137162D01*
X53769663Y-92029194D01*
X53806180Y-91989637D01*
X53831323Y-91939287D01*
X53841443Y-91883926D01*
X53835739Y-91827938D01*
X53814663Y-91775754D01*
X53779884Y-91731509D01*
X53734155Y-91698705D01*
X53681097Y-91679939D01*
X53641600Y-91676000D01*
X53284000Y-91676000D01*
X53284000Y-89244000D01*
X55716000Y-89244000D01*
X55716000Y-91676000D01*
X55716000Y-91676000D01*
G37*
G36*
X89922961Y-92364320D02*
X89899490Y-92364320D01*
X89843771Y-92372238D01*
X89792465Y-92395366D01*
X89749632Y-92431871D01*
X89718666Y-92478864D01*
X89702018Y-92532624D01*
X89699490Y-92564320D01*
X89699490Y-94202010D01*
X87300510Y-94202010D01*
X87300510Y-92564320D01*
X87292592Y-92508601D01*
X87269464Y-92457295D01*
X87232959Y-92414462D01*
X87185966Y-92383496D01*
X87132206Y-92366848D01*
X87100510Y-92364320D01*
X87077039Y-92364320D01*
X87521392Y-88464200D01*
X89478608Y-88464200D01*
X89922961Y-92364320D01*
X89922961Y-92364320D01*
G37*
G36*
X94922961Y-92364320D02*
X94899490Y-92364320D01*
X94843771Y-92372238D01*
X94792465Y-92395366D01*
X94749632Y-92431871D01*
X94718666Y-92478864D01*
X94702018Y-92532624D01*
X94699490Y-92564320D01*
X94699490Y-94202010D01*
X92300510Y-94202010D01*
X92300510Y-92564320D01*
X92292592Y-92508601D01*
X92269464Y-92457295D01*
X92232959Y-92414462D01*
X92185966Y-92383496D01*
X92132206Y-92366848D01*
X92100510Y-92364320D01*
X92077039Y-92364320D01*
X92521392Y-88464200D01*
X94478608Y-88464200D01*
X94922961Y-92364320D01*
X94922961Y-92364320D01*
G37*
G36*
X99922961Y-92364320D02*
X99899490Y-92364320D01*
X99843771Y-92372238D01*
X99792465Y-92395366D01*
X99749632Y-92431871D01*
X99718666Y-92478864D01*
X99702018Y-92532624D01*
X99699490Y-92564320D01*
X99699490Y-94202010D01*
X97300510Y-94202010D01*
X97300510Y-92564320D01*
X97292592Y-92508601D01*
X97269464Y-92457295D01*
X97232959Y-92414462D01*
X97185966Y-92383496D01*
X97132206Y-92366848D01*
X97100510Y-92364320D01*
X97077039Y-92364320D01*
X97521392Y-88464200D01*
X99478608Y-88464200D01*
X99922961Y-92364320D01*
X99922961Y-92364320D01*
G37*
G36*
X119058927Y-86847224D02*
X119058927Y-88804440D01*
X115158807Y-89248793D01*
X115158807Y-89225322D01*
X115150889Y-89169603D01*
X115127761Y-89118297D01*
X115091256Y-89075464D01*
X115044263Y-89044498D01*
X114990503Y-89027850D01*
X114958807Y-89025322D01*
X113321117Y-89025322D01*
X113321117Y-86626342D01*
X114958807Y-86626342D01*
X115014526Y-86618424D01*
X115065832Y-86595296D01*
X115108665Y-86558791D01*
X115139631Y-86511798D01*
X115156279Y-86458038D01*
X115158807Y-86426342D01*
X115158807Y-86402871D01*
X119058927Y-86847224D01*
X119058927Y-86847224D01*
G37*
G36*
X123884927Y-86426342D02*
X123892845Y-86482061D01*
X123915973Y-86533367D01*
X123952478Y-86576200D01*
X123999471Y-86607166D01*
X124053231Y-86623814D01*
X124084927Y-86626342D01*
X125722617Y-86626342D01*
X125722617Y-89025322D01*
X124084927Y-89025322D01*
X124029208Y-89033240D01*
X123977902Y-89056368D01*
X123935069Y-89092873D01*
X123904103Y-89139866D01*
X123887455Y-89193626D01*
X123884927Y-89225322D01*
X123884927Y-89248793D01*
X119984807Y-88804440D01*
X119984807Y-86847224D01*
X123884927Y-86402871D01*
X123884927Y-86426342D01*
X123884927Y-86426342D01*
G37*
G36*
X94699490Y-83438200D02*
X94707408Y-83493919D01*
X94730536Y-83545225D01*
X94767041Y-83588058D01*
X94814034Y-83619024D01*
X94867794Y-83635672D01*
X94899490Y-83638200D01*
X94922961Y-83638200D01*
X94478608Y-87538320D01*
X92521392Y-87538320D01*
X92077039Y-83638200D01*
X92100510Y-83638200D01*
X92156229Y-83630282D01*
X92207535Y-83607154D01*
X92250368Y-83570649D01*
X92281334Y-83523656D01*
X92297982Y-83469896D01*
X92300510Y-83438200D01*
X92300510Y-81800510D01*
X94699490Y-81800510D01*
X94699490Y-83438200D01*
X94699490Y-83438200D01*
G37*
G36*
X89699490Y-83438200D02*
X89707408Y-83493919D01*
X89730536Y-83545225D01*
X89767041Y-83588058D01*
X89814034Y-83619024D01*
X89867794Y-83635672D01*
X89899490Y-83638200D01*
X89922961Y-83638200D01*
X89478608Y-87538320D01*
X87521392Y-87538320D01*
X87077039Y-83638200D01*
X87100510Y-83638200D01*
X87156229Y-83630282D01*
X87207535Y-83607154D01*
X87250368Y-83570649D01*
X87281334Y-83523656D01*
X87297982Y-83469896D01*
X87300510Y-83438200D01*
X87300510Y-81800510D01*
X89699490Y-81800510D01*
X89699490Y-83438200D01*
X89699490Y-83438200D01*
G37*
G36*
X99699490Y-83438200D02*
X99707408Y-83493919D01*
X99730536Y-83545225D01*
X99767041Y-83588058D01*
X99814034Y-83619024D01*
X99867794Y-83635672D01*
X99899490Y-83638200D01*
X99922961Y-83638200D01*
X99478608Y-87538320D01*
X97521392Y-87538320D01*
X97077039Y-83638200D01*
X97100510Y-83638200D01*
X97156229Y-83630282D01*
X97207535Y-83607154D01*
X97250368Y-83570649D01*
X97281334Y-83523656D01*
X97297982Y-83469896D01*
X97300510Y-83438200D01*
X97300510Y-81800510D01*
X99699490Y-81800510D01*
X99699490Y-83438200D01*
X99699490Y-83438200D01*
G37*
G36*
X65626029Y-84801300D02*
X65856458Y-84848600D01*
X66073311Y-84939757D01*
X66268328Y-85071298D01*
X66434084Y-85238215D01*
X66564259Y-85434144D01*
X66653900Y-85651628D01*
X66699316Y-85880997D01*
X66699315Y-85881038D01*
X66699582Y-85882384D01*
X66695830Y-86151063D01*
X66695526Y-86152403D01*
X66695525Y-86152441D01*
X66643722Y-86380455D01*
X66548046Y-86595348D01*
X66412446Y-86787572D01*
X66242098Y-86949792D01*
X66043486Y-87075836D01*
X65824171Y-87160902D01*
X65592507Y-87201750D01*
X65357325Y-87196825D01*
X65127581Y-87146312D01*
X64912025Y-87052137D01*
X64718859Y-86917884D01*
X64555452Y-86748671D01*
X64428023Y-86550939D01*
X64341428Y-86332226D01*
X64298965Y-86100861D01*
X64302249Y-85865645D01*
X64351157Y-85635550D01*
X64443823Y-85419345D01*
X64576727Y-85225244D01*
X64744791Y-85060664D01*
X64941627Y-84931857D01*
X65159733Y-84843736D01*
X65390803Y-84799658D01*
X65626029Y-84801300D01*
X65626029Y-84801300D01*
G37*
G36*
X85625989Y-84801300D02*
X85856418Y-84848600D01*
X86073271Y-84939757D01*
X86268288Y-85071298D01*
X86434044Y-85238215D01*
X86564219Y-85434144D01*
X86653860Y-85651628D01*
X86699276Y-85880997D01*
X86699275Y-85881038D01*
X86699542Y-85882384D01*
X86695790Y-86151063D01*
X86695486Y-86152403D01*
X86695485Y-86152441D01*
X86643682Y-86380455D01*
X86548006Y-86595348D01*
X86412406Y-86787572D01*
X86242058Y-86949792D01*
X86043446Y-87075836D01*
X85824131Y-87160902D01*
X85592467Y-87201750D01*
X85357285Y-87196825D01*
X85127541Y-87146312D01*
X84911985Y-87052137D01*
X84718819Y-86917884D01*
X84555412Y-86748671D01*
X84427983Y-86550939D01*
X84341388Y-86332226D01*
X84298925Y-86100861D01*
X84302209Y-85865645D01*
X84351117Y-85635550D01*
X84443783Y-85419345D01*
X84576687Y-85225244D01*
X84744751Y-85060664D01*
X84941587Y-84931857D01*
X85159693Y-84843736D01*
X85390763Y-84799658D01*
X85625989Y-84801300D01*
X85625989Y-84801300D01*
G37*
G36*
X133126041Y-82550790D02*
X133356567Y-82598111D01*
X133573517Y-82689308D01*
X133768614Y-82820903D01*
X133934441Y-82987892D01*
X134064671Y-83183904D01*
X134154350Y-83401480D01*
X134199786Y-83630947D01*
X134199785Y-83630992D01*
X134200051Y-83632334D01*
X134196298Y-83901128D01*
X134195994Y-83902468D01*
X134195993Y-83902506D01*
X134144168Y-84130617D01*
X134048451Y-84345600D01*
X133912794Y-84537906D01*
X133742374Y-84700195D01*
X133543675Y-84826294D01*
X133324270Y-84911395D01*
X133092505Y-84952261D01*
X132857230Y-84947333D01*
X132627378Y-84896797D01*
X132411735Y-84802584D01*
X132218484Y-84668271D01*
X132055012Y-84498992D01*
X131927527Y-84301173D01*
X131840896Y-84082367D01*
X131798415Y-83850904D01*
X131801700Y-83615588D01*
X131850629Y-83385397D01*
X131943337Y-83169093D01*
X132076291Y-82974919D01*
X132244433Y-82810263D01*
X132441352Y-82681402D01*
X132659551Y-82593244D01*
X132890712Y-82549148D01*
X133126041Y-82550790D01*
X133126041Y-82550790D01*
G37*
G36*
X123884927Y-81600510D02*
X123892845Y-81656229D01*
X123915973Y-81707535D01*
X123952478Y-81750368D01*
X123999471Y-81781334D01*
X124053231Y-81797982D01*
X124084927Y-81800510D01*
X125722617Y-81800510D01*
X125722617Y-84199490D01*
X124084927Y-84199490D01*
X124029208Y-84207408D01*
X123977902Y-84230536D01*
X123935069Y-84267041D01*
X123904103Y-84314034D01*
X123887455Y-84367794D01*
X123884927Y-84399490D01*
X123884927Y-84422961D01*
X119984807Y-83978608D01*
X119984807Y-82021392D01*
X123884927Y-81577039D01*
X123884927Y-81600510D01*
X123884927Y-81600510D01*
G37*
G36*
X119058927Y-82021392D02*
X119058927Y-83978608D01*
X115158807Y-84422961D01*
X115158807Y-84399490D01*
X115150889Y-84343771D01*
X115127761Y-84292465D01*
X115091256Y-84249632D01*
X115044263Y-84218666D01*
X114990503Y-84202018D01*
X114958807Y-84199490D01*
X113321117Y-84199490D01*
X113321117Y-81800510D01*
X114958807Y-81800510D01*
X115014526Y-81792592D01*
X115065832Y-81769464D01*
X115108665Y-81732959D01*
X115139631Y-81685966D01*
X115156279Y-81632206D01*
X115158807Y-81600510D01*
X115158807Y-81577039D01*
X119058927Y-82021392D01*
X119058927Y-82021392D01*
G37*
G36*
X145234436Y-77769478D02*
X145663215Y-77857494D01*
X146066735Y-78027118D01*
X146429620Y-78271887D01*
X146738053Y-78582481D01*
X146980282Y-78947065D01*
X147147084Y-79351757D01*
X147231830Y-79779754D01*
X147231829Y-79779795D01*
X147232096Y-79781141D01*
X147225115Y-80281097D01*
X147224809Y-80282442D01*
X147224809Y-80282475D01*
X147128146Y-80707942D01*
X146950110Y-81107817D01*
X146697795Y-81465497D01*
X146380812Y-81767356D01*
X146011232Y-82001898D01*
X145603136Y-82160188D01*
X145172062Y-82236198D01*
X144734446Y-82227031D01*
X144306929Y-82133036D01*
X143905828Y-81957798D01*
X143546392Y-81707984D01*
X143242325Y-81393113D01*
X143005210Y-81025182D01*
X142844074Y-80618201D01*
X142765059Y-80187677D01*
X142771170Y-79749996D01*
X142862177Y-79321841D01*
X143034613Y-78919518D01*
X143281908Y-78558353D01*
X143594649Y-78252095D01*
X143960917Y-78012415D01*
X144366765Y-77848442D01*
X144796727Y-77766423D01*
X145234436Y-77769478D01*
X145234436Y-77769478D01*
G37*
G36*
X55234436Y-77769478D02*
X55663215Y-77857494D01*
X56066735Y-78027118D01*
X56429620Y-78271887D01*
X56738053Y-78582481D01*
X56980282Y-78947065D01*
X57147084Y-79351757D01*
X57231830Y-79779754D01*
X57231829Y-79779795D01*
X57232096Y-79781141D01*
X57225115Y-80281097D01*
X57224809Y-80282442D01*
X57224809Y-80282475D01*
X57128146Y-80707942D01*
X56950110Y-81107817D01*
X56697795Y-81465497D01*
X56380812Y-81767356D01*
X56011232Y-82001898D01*
X55603136Y-82160188D01*
X55172062Y-82236198D01*
X54734446Y-82227031D01*
X54306929Y-82133036D01*
X53905828Y-81957798D01*
X53546392Y-81707984D01*
X53242325Y-81393113D01*
X53005210Y-81025182D01*
X52844074Y-80618201D01*
X52765059Y-80187677D01*
X52771170Y-79749996D01*
X52862177Y-79321841D01*
X53034613Y-78919518D01*
X53281908Y-78558353D01*
X53594649Y-78252095D01*
X53960917Y-78012415D01*
X54366765Y-77848442D01*
X54796727Y-77766423D01*
X55234436Y-77769478D01*
X55234436Y-77769478D01*
G37*
G36*
X136317600Y-78817600D02*
X133682400Y-78817600D01*
X133682400Y-76182400D01*
X136317600Y-76182400D01*
X136317600Y-78817600D01*
X136317600Y-78817600D01*
G37*
M02*
