G04 #@! TF.FileFunction,Legend,Top*
%FSLAX46Y46*%
G04 Gerber Fmt 4.6, Leading zero omitted, Abs format (unit mm)*
G04 Created by KiCad (PCBNEW 4.0.5+dfsg1-4) date Sun May  6 19:35:37 2018*
%MOMM*%
%LPD*%
G01*
G04 APERTURE LIST*
%ADD10C,0.100000*%
%ADD11C,0.300000*%
%ADD12C,0.150000*%
%ADD13C,0.410000*%
G04 APERTURE END LIST*
D10*
D11*
X143128571Y-112571427D02*
X141628571Y-112571427D01*
X143128571Y-111714284D02*
X142271429Y-112357141D01*
X141628571Y-111714284D02*
X142485714Y-112571427D01*
X143128571Y-111071427D02*
X142128571Y-111071427D01*
X141628571Y-111071427D02*
X141700000Y-111142856D01*
X141771429Y-111071427D01*
X141700000Y-110999999D01*
X141628571Y-111071427D01*
X141771429Y-111071427D01*
X142985714Y-109499998D02*
X143057143Y-109571427D01*
X143128571Y-109785713D01*
X143128571Y-109928570D01*
X143057143Y-110142855D01*
X142914286Y-110285713D01*
X142771429Y-110357141D01*
X142485714Y-110428570D01*
X142271429Y-110428570D01*
X141985714Y-110357141D01*
X141842857Y-110285713D01*
X141700000Y-110142855D01*
X141628571Y-109928570D01*
X141628571Y-109785713D01*
X141700000Y-109571427D01*
X141771429Y-109499998D01*
X142700000Y-108928570D02*
X142700000Y-108214284D01*
X143128571Y-109071427D02*
X141628571Y-108571427D01*
X143128571Y-108071427D01*
X143128571Y-107571427D02*
X141628571Y-107571427D01*
X141628571Y-107214284D01*
X141700000Y-106999999D01*
X141842857Y-106857141D01*
X141985714Y-106785713D01*
X142271429Y-106714284D01*
X142485714Y-106714284D01*
X142771429Y-106785713D01*
X142914286Y-106857141D01*
X143057143Y-106999999D01*
X143128571Y-107214284D01*
X143128571Y-107571427D01*
X143128571Y-104285713D02*
X141628571Y-104285713D01*
X143057143Y-104285713D02*
X143128571Y-104428570D01*
X143128571Y-104714284D01*
X143057143Y-104857142D01*
X142985714Y-104928570D01*
X142842857Y-104999999D01*
X142414286Y-104999999D01*
X142271429Y-104928570D01*
X142200000Y-104857142D01*
X142128571Y-104714284D01*
X142128571Y-104428570D01*
X142200000Y-104285713D01*
X143057143Y-102999999D02*
X143128571Y-103142856D01*
X143128571Y-103428570D01*
X143057143Y-103571427D01*
X142914286Y-103642856D01*
X142342857Y-103642856D01*
X142200000Y-103571427D01*
X142128571Y-103428570D01*
X142128571Y-103142856D01*
X142200000Y-102999999D01*
X142342857Y-102928570D01*
X142485714Y-102928570D01*
X142628571Y-103642856D01*
X143128571Y-102285713D02*
X142128571Y-102285713D01*
X142271429Y-102285713D02*
X142200000Y-102214285D01*
X142128571Y-102071427D01*
X142128571Y-101857142D01*
X142200000Y-101714285D01*
X142342857Y-101642856D01*
X143128571Y-101642856D01*
X142342857Y-101642856D02*
X142200000Y-101571427D01*
X142128571Y-101428570D01*
X142128571Y-101214285D01*
X142200000Y-101071427D01*
X142342857Y-100999999D01*
X143128571Y-100999999D01*
X143128571Y-100071427D02*
X143057143Y-100214285D01*
X142985714Y-100285713D01*
X142842857Y-100357142D01*
X142414286Y-100357142D01*
X142271429Y-100285713D01*
X142200000Y-100214285D01*
X142128571Y-100071427D01*
X142128571Y-99857142D01*
X142200000Y-99714285D01*
X142271429Y-99642856D01*
X142414286Y-99571427D01*
X142842857Y-99571427D01*
X142985714Y-99642856D01*
X143057143Y-99714285D01*
X143128571Y-99857142D01*
X143128571Y-100071427D01*
X142128571Y-97999999D02*
X142128571Y-97428570D01*
X143128571Y-97785713D02*
X141842857Y-97785713D01*
X141700000Y-97714285D01*
X141628571Y-97571427D01*
X141628571Y-97428570D01*
X143128571Y-96714284D02*
X143057143Y-96857142D01*
X142985714Y-96928570D01*
X142842857Y-96999999D01*
X142414286Y-96999999D01*
X142271429Y-96928570D01*
X142200000Y-96857142D01*
X142128571Y-96714284D01*
X142128571Y-96499999D01*
X142200000Y-96357142D01*
X142271429Y-96285713D01*
X142414286Y-96214284D01*
X142842857Y-96214284D01*
X142985714Y-96285713D01*
X143057143Y-96357142D01*
X143128571Y-96499999D01*
X143128571Y-96714284D01*
X143128571Y-95571427D02*
X142128571Y-95571427D01*
X142414286Y-95571427D02*
X142271429Y-95499999D01*
X142200000Y-95428570D01*
X142128571Y-95285713D01*
X142128571Y-95142856D01*
X143057143Y-93571428D02*
X143128571Y-93357142D01*
X143128571Y-92999999D01*
X143057143Y-92857142D01*
X142985714Y-92785713D01*
X142842857Y-92714285D01*
X142700000Y-92714285D01*
X142557143Y-92785713D01*
X142485714Y-92857142D01*
X142414286Y-92999999D01*
X142342857Y-93285713D01*
X142271429Y-93428571D01*
X142200000Y-93499999D01*
X142057143Y-93571428D01*
X141914286Y-93571428D01*
X141771429Y-93499999D01*
X141700000Y-93428571D01*
X141628571Y-93285713D01*
X141628571Y-92928571D01*
X141700000Y-92714285D01*
X143128571Y-92071428D02*
X141628571Y-92071428D01*
X143128571Y-91214285D02*
X142271429Y-91857142D01*
X141628571Y-91214285D02*
X142485714Y-92071428D01*
X141771429Y-90642857D02*
X141700000Y-90571428D01*
X141628571Y-90428571D01*
X141628571Y-90071428D01*
X141700000Y-89928571D01*
X141771429Y-89857142D01*
X141914286Y-89785714D01*
X142057143Y-89785714D01*
X142271429Y-89857142D01*
X143128571Y-90714285D01*
X143128571Y-89785714D01*
X142700000Y-89214286D02*
X142700000Y-88500000D01*
X143128571Y-89357143D02*
X141628571Y-88857143D01*
X143128571Y-88357143D01*
X141628571Y-88071429D02*
X141628571Y-87214286D01*
X143128571Y-87642857D02*
X141628571Y-87642857D01*
X144678571Y-113107142D02*
X145678571Y-113107142D01*
X144107143Y-113464285D02*
X145178571Y-113821428D01*
X145178571Y-112892856D01*
X144178571Y-112035714D02*
X144178571Y-111892857D01*
X144250000Y-111750000D01*
X144321429Y-111678571D01*
X144464286Y-111607142D01*
X144750000Y-111535714D01*
X145107143Y-111535714D01*
X145392857Y-111607142D01*
X145535714Y-111678571D01*
X145607143Y-111750000D01*
X145678571Y-111892857D01*
X145678571Y-112035714D01*
X145607143Y-112178571D01*
X145535714Y-112250000D01*
X145392857Y-112321428D01*
X145107143Y-112392857D01*
X144750000Y-112392857D01*
X144464286Y-112321428D01*
X144321429Y-112250000D01*
X144250000Y-112178571D01*
X144178571Y-112035714D01*
X145678571Y-109750000D02*
X144678571Y-109750000D01*
X144821429Y-109750000D02*
X144750000Y-109678572D01*
X144678571Y-109535714D01*
X144678571Y-109321429D01*
X144750000Y-109178572D01*
X144892857Y-109107143D01*
X145678571Y-109107143D01*
X144892857Y-109107143D02*
X144750000Y-109035714D01*
X144678571Y-108892857D01*
X144678571Y-108678572D01*
X144750000Y-108535714D01*
X144892857Y-108464286D01*
X145678571Y-108464286D01*
X145607143Y-107178572D02*
X145678571Y-107321429D01*
X145678571Y-107607143D01*
X145607143Y-107750000D01*
X145464286Y-107821429D01*
X144892857Y-107821429D01*
X144750000Y-107750000D01*
X144678571Y-107607143D01*
X144678571Y-107321429D01*
X144750000Y-107178572D01*
X144892857Y-107107143D01*
X145035714Y-107107143D01*
X145178571Y-107821429D01*
X144678571Y-106678572D02*
X144678571Y-106107143D01*
X144178571Y-106464286D02*
X145464286Y-106464286D01*
X145607143Y-106392858D01*
X145678571Y-106250000D01*
X145678571Y-106107143D01*
X145607143Y-105035715D02*
X145678571Y-105178572D01*
X145678571Y-105464286D01*
X145607143Y-105607143D01*
X145464286Y-105678572D01*
X144892857Y-105678572D01*
X144750000Y-105607143D01*
X144678571Y-105464286D01*
X144678571Y-105178572D01*
X144750000Y-105035715D01*
X144892857Y-104964286D01*
X145035714Y-104964286D01*
X145178571Y-105678572D01*
X145678571Y-104321429D02*
X144678571Y-104321429D01*
X144964286Y-104321429D02*
X144821429Y-104250001D01*
X144750000Y-104178572D01*
X144678571Y-104035715D01*
X144678571Y-103892858D01*
X145535714Y-101392858D02*
X145607143Y-101464287D01*
X145678571Y-101678573D01*
X145678571Y-101821430D01*
X145607143Y-102035715D01*
X145464286Y-102178573D01*
X145321429Y-102250001D01*
X145035714Y-102321430D01*
X144821429Y-102321430D01*
X144535714Y-102250001D01*
X144392857Y-102178573D01*
X144250000Y-102035715D01*
X144178571Y-101821430D01*
X144178571Y-101678573D01*
X144250000Y-101464287D01*
X144321429Y-101392858D01*
X144178571Y-100892858D02*
X145678571Y-100535715D01*
X144607143Y-100250001D01*
X145678571Y-99964287D01*
X144178571Y-99607144D01*
X144678571Y-98107144D02*
X144678571Y-97535715D01*
X144178571Y-97892858D02*
X145464286Y-97892858D01*
X145607143Y-97821430D01*
X145678571Y-97678572D01*
X145678571Y-97535715D01*
X145678571Y-97035715D02*
X144678571Y-97035715D01*
X144964286Y-97035715D02*
X144821429Y-96964287D01*
X144750000Y-96892858D01*
X144678571Y-96750001D01*
X144678571Y-96607144D01*
X145678571Y-95464287D02*
X144892857Y-95464287D01*
X144750000Y-95535716D01*
X144678571Y-95678573D01*
X144678571Y-95964287D01*
X144750000Y-96107144D01*
X145607143Y-95464287D02*
X145678571Y-95607144D01*
X145678571Y-95964287D01*
X145607143Y-96107144D01*
X145464286Y-96178573D01*
X145321429Y-96178573D01*
X145178571Y-96107144D01*
X145107143Y-95964287D01*
X145107143Y-95607144D01*
X145035714Y-95464287D01*
X144678571Y-94750001D02*
X145678571Y-94750001D01*
X144821429Y-94750001D02*
X144750000Y-94678573D01*
X144678571Y-94535715D01*
X144678571Y-94321430D01*
X144750000Y-94178573D01*
X144892857Y-94107144D01*
X145678571Y-94107144D01*
X145607143Y-93464287D02*
X145678571Y-93321430D01*
X145678571Y-93035715D01*
X145607143Y-92892858D01*
X145464286Y-92821430D01*
X145392857Y-92821430D01*
X145250000Y-92892858D01*
X145178571Y-93035715D01*
X145178571Y-93250001D01*
X145107143Y-93392858D01*
X144964286Y-93464287D01*
X144892857Y-93464287D01*
X144750000Y-93392858D01*
X144678571Y-93250001D01*
X144678571Y-93035715D01*
X144750000Y-92892858D01*
X145678571Y-92178572D02*
X144678571Y-92178572D01*
X144821429Y-92178572D02*
X144750000Y-92107144D01*
X144678571Y-91964286D01*
X144678571Y-91750001D01*
X144750000Y-91607144D01*
X144892857Y-91535715D01*
X145678571Y-91535715D01*
X144892857Y-91535715D02*
X144750000Y-91464286D01*
X144678571Y-91321429D01*
X144678571Y-91107144D01*
X144750000Y-90964286D01*
X144892857Y-90892858D01*
X145678571Y-90892858D01*
X145678571Y-90178572D02*
X144678571Y-90178572D01*
X144178571Y-90178572D02*
X144250000Y-90250001D01*
X144321429Y-90178572D01*
X144250000Y-90107144D01*
X144178571Y-90178572D01*
X144321429Y-90178572D01*
X144678571Y-89678572D02*
X144678571Y-89107143D01*
X144178571Y-89464286D02*
X145464286Y-89464286D01*
X145607143Y-89392858D01*
X145678571Y-89250000D01*
X145678571Y-89107143D01*
X144678571Y-88821429D02*
X144678571Y-88250000D01*
X144178571Y-88607143D02*
X145464286Y-88607143D01*
X145607143Y-88535715D01*
X145678571Y-88392857D01*
X145678571Y-88250000D01*
X145607143Y-87178572D02*
X145678571Y-87321429D01*
X145678571Y-87607143D01*
X145607143Y-87750000D01*
X145464286Y-87821429D01*
X144892857Y-87821429D01*
X144750000Y-87750000D01*
X144678571Y-87607143D01*
X144678571Y-87321429D01*
X144750000Y-87178572D01*
X144892857Y-87107143D01*
X145035714Y-87107143D01*
X145178571Y-87821429D01*
X145678571Y-86464286D02*
X144678571Y-86464286D01*
X144964286Y-86464286D02*
X144821429Y-86392858D01*
X144750000Y-86321429D01*
X144678571Y-86178572D01*
X144678571Y-86035715D01*
X148228571Y-105678570D02*
X146728571Y-105678570D01*
X147300000Y-105678570D02*
X147228571Y-105535713D01*
X147228571Y-105249999D01*
X147300000Y-105107142D01*
X147371429Y-105035713D01*
X147514286Y-104964284D01*
X147942857Y-104964284D01*
X148085714Y-105035713D01*
X148157143Y-105107142D01*
X148228571Y-105249999D01*
X148228571Y-105535713D01*
X148157143Y-105678570D01*
X147228571Y-104464284D02*
X148228571Y-104107141D01*
X147228571Y-103749999D02*
X148228571Y-104107141D01*
X148585714Y-104249999D01*
X148657143Y-104321427D01*
X148728571Y-104464284D01*
X148157143Y-102107142D02*
X148228571Y-101892856D01*
X148228571Y-101535713D01*
X148157143Y-101392856D01*
X148085714Y-101321427D01*
X147942857Y-101249999D01*
X147800000Y-101249999D01*
X147657143Y-101321427D01*
X147585714Y-101392856D01*
X147514286Y-101535713D01*
X147442857Y-101821427D01*
X147371429Y-101964285D01*
X147300000Y-102035713D01*
X147157143Y-102107142D01*
X147014286Y-102107142D01*
X146871429Y-102035713D01*
X146800000Y-101964285D01*
X146728571Y-101821427D01*
X146728571Y-101464285D01*
X146800000Y-101249999D01*
X147800000Y-100678571D02*
X147800000Y-99964285D01*
X148228571Y-100821428D02*
X146728571Y-100321428D01*
X148228571Y-99821428D01*
X146871429Y-99392857D02*
X146800000Y-99321428D01*
X146728571Y-99178571D01*
X146728571Y-98821428D01*
X146800000Y-98678571D01*
X146871429Y-98607142D01*
X147014286Y-98535714D01*
X147157143Y-98535714D01*
X147371429Y-98607142D01*
X148228571Y-99464285D01*
X148228571Y-98535714D01*
X146728571Y-98107143D02*
X146728571Y-97250000D01*
X148228571Y-97678571D02*
X146728571Y-97678571D01*
X148228571Y-96750000D02*
X146728571Y-96750000D01*
X147800000Y-96250000D01*
X146728571Y-95750000D01*
X148228571Y-95750000D01*
X148157143Y-95107143D02*
X148228571Y-94892857D01*
X148228571Y-94535714D01*
X148157143Y-94392857D01*
X148085714Y-94321428D01*
X147942857Y-94250000D01*
X147800000Y-94250000D01*
X147657143Y-94321428D01*
X147585714Y-94392857D01*
X147514286Y-94535714D01*
X147442857Y-94821428D01*
X147371429Y-94964286D01*
X147300000Y-95035714D01*
X147157143Y-95107143D01*
X147014286Y-95107143D01*
X146871429Y-95035714D01*
X146800000Y-94964286D01*
X146728571Y-94821428D01*
X146728571Y-94464286D01*
X146800000Y-94250000D01*
D12*
X57286000Y-80000000D02*
G75*
G03X57286000Y-80000000I-2286000J0D01*
G01*
X57286000Y-120000000D02*
G75*
G03X57286000Y-120000000I-2286000J0D01*
G01*
X147286000Y-120000000D02*
G75*
G03X147286000Y-120000000I-2286000J0D01*
G01*
X122950000Y-75700000D02*
X124500000Y-75700000D01*
X124500000Y-78800000D02*
X122950000Y-78800000D01*
X122950000Y-78800000D02*
X122950000Y-75700000D01*
X125770000Y-78520000D02*
X125770000Y-75980000D01*
X55770000Y-91730000D02*
X55770000Y-94270000D01*
X56050000Y-88910000D02*
X56050000Y-90460000D01*
X55770000Y-91730000D02*
X53230000Y-91730000D01*
X52950000Y-90460000D02*
X52950000Y-88910000D01*
X52950000Y-88910000D02*
X56050000Y-88910000D01*
X53230000Y-91730000D02*
X53230000Y-94270000D01*
X53230000Y-94270000D02*
X55770000Y-94270000D01*
X66536000Y-93166000D02*
G75*
G03X61964000Y-93166000I-2286000J0D01*
G01*
X61964000Y-98754000D02*
G75*
G03X66536000Y-98754000I2286000J0D01*
G01*
X66536000Y-98754000D02*
X66536000Y-93166000D01*
X61964000Y-98754000D02*
X61964000Y-93166000D01*
X83501020Y-86000000D02*
X83998860Y-86000000D01*
X67499020Y-86000000D02*
X67001180Y-86000000D01*
X67499020Y-83000260D02*
X67499020Y-88999740D01*
X67499020Y-88999740D02*
X83501020Y-88999740D01*
X83501020Y-88999740D02*
X83501020Y-83000260D01*
X83501020Y-83000260D02*
X67499020Y-83000260D01*
X147286000Y-80000000D02*
G75*
G03X147286000Y-80000000I-2286000J0D01*
G01*
X53699900Y-105250000D02*
X53699900Y-105450660D01*
X53699900Y-105250000D02*
X53699900Y-105049340D01*
X55300100Y-105150940D02*
X55300100Y-105049340D01*
X55300100Y-105049340D02*
X55300100Y-105450660D01*
X65001260Y-104199900D02*
X64800600Y-104199900D01*
X65001260Y-104199900D02*
X65201920Y-104199900D01*
X65100320Y-105800100D02*
X65201920Y-105800100D01*
X65201920Y-105800100D02*
X64800600Y-105800100D01*
X87699900Y-86751260D02*
X87699900Y-86951920D01*
X87699900Y-86751260D02*
X87699900Y-86550600D01*
X89300100Y-86652200D02*
X89300100Y-86550600D01*
X89300100Y-86550600D02*
X89300100Y-86951920D01*
X92699900Y-86751260D02*
X92699900Y-86951920D01*
X92699900Y-86751260D02*
X92699900Y-86550600D01*
X94300100Y-86652200D02*
X94300100Y-86550600D01*
X94300100Y-86550600D02*
X94300100Y-86951920D01*
X97699900Y-86751260D02*
X97699900Y-86951920D01*
X97699900Y-86751260D02*
X97699900Y-86550600D01*
X99300100Y-86652200D02*
X99300100Y-86550600D01*
X99300100Y-86550600D02*
X99300100Y-86951920D01*
X93501260Y-121300100D02*
X93701920Y-121300100D01*
X93501260Y-121300100D02*
X93300600Y-121300100D01*
X93402200Y-119699900D02*
X93300600Y-119699900D01*
X93300600Y-119699900D02*
X93701920Y-119699900D01*
X93501260Y-116300100D02*
X93701920Y-116300100D01*
X93501260Y-116300100D02*
X93300600Y-116300100D01*
X93402200Y-114699900D02*
X93300600Y-114699900D01*
X93300600Y-114699900D02*
X93701920Y-114699900D01*
X93501260Y-111300100D02*
X93701920Y-111300100D01*
X93501260Y-111300100D02*
X93300600Y-111300100D01*
X93402200Y-109699900D02*
X93300600Y-109699900D01*
X93300600Y-109699900D02*
X93701920Y-109699900D01*
X119389885Y-119627261D02*
X119189225Y-119627261D01*
X119389885Y-119627261D02*
X119590545Y-119627261D01*
X119488945Y-121227461D02*
X119590545Y-121227461D01*
X119590545Y-121227461D02*
X119189225Y-121227461D01*
X119389885Y-114627261D02*
X119189225Y-114627261D01*
X119389885Y-114627261D02*
X119590545Y-114627261D01*
X119488945Y-116227461D02*
X119590545Y-116227461D01*
X119590545Y-116227461D02*
X119189225Y-116227461D01*
X119389885Y-109627261D02*
X119189225Y-109627261D01*
X119389885Y-109627261D02*
X119590545Y-109627261D01*
X119488945Y-111227461D02*
X119590545Y-111227461D01*
X119590545Y-111227461D02*
X119189225Y-111227461D01*
X119521867Y-90949900D02*
X119321207Y-90949900D01*
X119521867Y-90949900D02*
X119722527Y-90949900D01*
X119620927Y-92550100D02*
X119722527Y-92550100D01*
X119722527Y-92550100D02*
X119321207Y-92550100D01*
X119521867Y-85775732D02*
X119321207Y-85775732D01*
X119521867Y-85775732D02*
X119722527Y-85775732D01*
X119620927Y-87375932D02*
X119722527Y-87375932D01*
X119722527Y-87375932D02*
X119321207Y-87375932D01*
X119521867Y-80949900D02*
X119321207Y-80949900D01*
X119521867Y-80949900D02*
X119722527Y-80949900D01*
X119620927Y-82550100D02*
X119722527Y-82550100D01*
X119722527Y-82550100D02*
X119321207Y-82550100D01*
X70000000Y-119000000D02*
X74500000Y-119000000D01*
X68750000Y-115000000D02*
X68750000Y-116500000D01*
X74500000Y-112500000D02*
X70000000Y-112500000D01*
X75750000Y-116500000D02*
X75750000Y-115000000D01*
X84200000Y-97960000D02*
G75*
G03X83000000Y-96760000I-2200000J-1000000D01*
G01*
X84200000Y-99959999D02*
G75*
G02X83000000Y-101160000I-2200000J999999D01*
G01*
X81003010Y-96772305D02*
G75*
G03X80300000Y-97260000I996990J-2187695D01*
G01*
X81003010Y-101147695D02*
G75*
G02X80300000Y-100660000I996990J2187695D01*
G01*
X80300000Y-97260000D02*
X80300000Y-100660000D01*
X60300100Y-95000000D02*
X60300100Y-94799340D01*
X60300100Y-95000000D02*
X60300100Y-95200660D01*
X58699900Y-95099060D02*
X58699900Y-95200660D01*
X58699900Y-95200660D02*
X58699900Y-94799340D01*
X78410000Y-98000000D02*
G75*
G03X77210000Y-96800000I-2200000J-1000000D01*
G01*
X78410000Y-99999999D02*
G75*
G02X77210000Y-101200000I-2200000J999999D01*
G01*
X75213010Y-96812305D02*
G75*
G03X74510000Y-97300000I996990J-2187695D01*
G01*
X75213010Y-101187695D02*
G75*
G02X74510000Y-100700000I996990J2187695D01*
G01*
X74510000Y-97300000D02*
X74510000Y-100700000D01*
X72660000Y-98000000D02*
G75*
G03X71460000Y-96800000I-2200000J-1000000D01*
G01*
X72660000Y-99999999D02*
G75*
G02X71460000Y-101200000I-2200000J999999D01*
G01*
X69463010Y-96812305D02*
G75*
G03X68760000Y-97300000I996990J-2187695D01*
G01*
X69463010Y-101187695D02*
G75*
G02X68760000Y-100700000I996990J2187695D01*
G01*
X68760000Y-97300000D02*
X68760000Y-100700000D01*
X104050000Y-80200000D02*
X104050000Y-81750000D01*
X100950000Y-81750000D02*
X100950000Y-80200000D01*
X100950000Y-80200000D02*
X104050000Y-80200000D01*
X101230000Y-83020000D02*
X103770000Y-83020000D01*
X85050000Y-106700000D02*
X85050000Y-108250000D01*
X81950000Y-108250000D02*
X81950000Y-106700000D01*
X81950000Y-106700000D02*
X85050000Y-106700000D01*
X82230000Y-109520000D02*
X84770000Y-109520000D01*
X85050000Y-113950000D02*
X85050000Y-115500000D01*
X81950000Y-115500000D02*
X81950000Y-113950000D01*
X81950000Y-113950000D02*
X85050000Y-113950000D01*
X82230000Y-116770000D02*
X84770000Y-116770000D01*
X131450000Y-121700000D02*
X133000000Y-121700000D01*
X133000000Y-124800000D02*
X131450000Y-124800000D01*
X131450000Y-124800000D02*
X131450000Y-121700000D01*
X134270000Y-124520000D02*
X134270000Y-121980000D01*
X131950000Y-75700000D02*
X133500000Y-75700000D01*
X133500000Y-78800000D02*
X131950000Y-78800000D01*
X131950000Y-78800000D02*
X131950000Y-75700000D01*
X134770000Y-78520000D02*
X134770000Y-75980000D01*
X77800000Y-106700000D02*
X77800000Y-108250000D01*
X74700000Y-108250000D02*
X74700000Y-106700000D01*
X74700000Y-106700000D02*
X77800000Y-106700000D01*
X74980000Y-109520000D02*
X77520000Y-109520000D01*
X70550000Y-78950000D02*
X70550000Y-80500000D01*
X67450000Y-80500000D02*
X67450000Y-78950000D01*
X67450000Y-78950000D02*
X70550000Y-78950000D01*
X67730000Y-81770000D02*
X70270000Y-81770000D01*
X74800000Y-78950000D02*
X74800000Y-80500000D01*
X71700000Y-80500000D02*
X71700000Y-78950000D01*
X71700000Y-78950000D02*
X74800000Y-78950000D01*
X71980000Y-81770000D02*
X74520000Y-81770000D01*
X84050000Y-78950000D02*
X84050000Y-80500000D01*
X80950000Y-80500000D02*
X80950000Y-78950000D01*
X80950000Y-78950000D02*
X84050000Y-78950000D01*
X81230000Y-81770000D02*
X83770000Y-81770000D01*
X112950000Y-75700000D02*
X114500000Y-75700000D01*
X114500000Y-78800000D02*
X112950000Y-78800000D01*
X112950000Y-78800000D02*
X112950000Y-75700000D01*
X115770000Y-78520000D02*
X115770000Y-75980000D01*
D13*
X89750000Y-106500000D02*
X103250000Y-106500000D01*
X85750000Y-94500000D02*
X85750000Y-97000000D01*
X108250000Y-106500000D02*
X121750000Y-106500000D01*
X108250000Y-94500000D02*
X121750000Y-94500000D01*
X89750000Y-94500000D02*
X103250000Y-94500000D01*
X85750000Y-104000000D02*
X85750000Y-106500000D01*
X125750000Y-104000000D02*
X125750000Y-106500000D01*
X125750000Y-94500000D02*
X125750000Y-97000000D01*
X139500000Y-116500000D02*
X139500000Y-103000000D01*
X127500000Y-120500000D02*
X130000000Y-120500000D01*
X139500000Y-98000000D02*
X139500000Y-84500000D01*
X127500000Y-98000000D02*
X127500000Y-84500000D01*
X127500000Y-116500000D02*
X127500000Y-103000000D01*
X137000000Y-120500000D02*
X139500000Y-120500000D01*
X137000000Y-80500000D02*
X139500000Y-80500000D01*
X127500000Y-80500000D02*
X130000000Y-80500000D01*
D12*
X122166667Y-78416667D02*
X122166667Y-77940476D01*
X122452381Y-78511905D02*
X121452381Y-78178572D01*
X122452381Y-77845238D01*
X121928571Y-77511905D02*
X121928571Y-77178571D01*
X122452381Y-77035714D02*
X122452381Y-77511905D01*
X121452381Y-77511905D01*
X121452381Y-77035714D01*
X122452381Y-76083333D02*
X122452381Y-76654762D01*
X122452381Y-76369048D02*
X121452381Y-76369048D01*
X121595238Y-76464286D01*
X121690476Y-76559524D01*
X121738095Y-76654762D01*
X64226190Y-96476191D02*
X64702381Y-96476191D01*
X63702381Y-96809524D02*
X64226190Y-96476191D01*
X63702381Y-96142857D01*
X64702381Y-95285714D02*
X64702381Y-95857143D01*
X64702381Y-95571429D02*
X63702381Y-95571429D01*
X63845238Y-95666667D01*
X63940476Y-95761905D01*
X63988095Y-95857143D01*
X75333354Y-86452381D02*
X74857163Y-86452381D01*
X74857163Y-85452381D01*
X76190497Y-86452381D02*
X75619068Y-86452381D01*
X75904782Y-86452381D02*
X75904782Y-85452381D01*
X75809544Y-85595238D01*
X75714306Y-85690476D01*
X75619068Y-85738095D01*
X52357143Y-105417926D02*
X52404762Y-105465545D01*
X52452381Y-105608402D01*
X52452381Y-105703640D01*
X52404762Y-105846498D01*
X52309524Y-105941736D01*
X52214286Y-105989355D01*
X52023810Y-106036974D01*
X51880952Y-106036974D01*
X51690476Y-105989355D01*
X51595238Y-105941736D01*
X51500000Y-105846498D01*
X51452381Y-105703640D01*
X51452381Y-105608402D01*
X51500000Y-105465545D01*
X51547619Y-105417926D01*
X52452381Y-104465545D02*
X52452381Y-105036974D01*
X52452381Y-104751260D02*
X51452381Y-104751260D01*
X51595238Y-104846498D01*
X51690476Y-104941736D01*
X51738095Y-105036974D01*
X64735534Y-108455943D02*
X64687915Y-108503562D01*
X64545058Y-108551181D01*
X64449820Y-108551181D01*
X64306962Y-108503562D01*
X64211724Y-108408324D01*
X64164105Y-108313086D01*
X64116486Y-108122610D01*
X64116486Y-107979752D01*
X64164105Y-107789276D01*
X64211724Y-107694038D01*
X64306962Y-107598800D01*
X64449820Y-107551181D01*
X64545058Y-107551181D01*
X64687915Y-107598800D01*
X64735534Y-107646419D01*
X65116486Y-107646419D02*
X65164105Y-107598800D01*
X65259343Y-107551181D01*
X65497439Y-107551181D01*
X65592677Y-107598800D01*
X65640296Y-107646419D01*
X65687915Y-107741657D01*
X65687915Y-107836895D01*
X65640296Y-107979752D01*
X65068867Y-108551181D01*
X65687915Y-108551181D01*
X91357143Y-87016986D02*
X91404762Y-87064605D01*
X91452381Y-87207462D01*
X91452381Y-87302700D01*
X91404762Y-87445558D01*
X91309524Y-87540796D01*
X91214286Y-87588415D01*
X91023810Y-87636034D01*
X90880952Y-87636034D01*
X90690476Y-87588415D01*
X90595238Y-87540796D01*
X90500000Y-87445558D01*
X90452381Y-87302700D01*
X90452381Y-87207462D01*
X90500000Y-87064605D01*
X90547619Y-87016986D01*
X90452381Y-86683653D02*
X90452381Y-86064605D01*
X90833333Y-86397939D01*
X90833333Y-86255081D01*
X90880952Y-86159843D01*
X90928571Y-86112224D01*
X91023810Y-86064605D01*
X91261905Y-86064605D01*
X91357143Y-86112224D01*
X91404762Y-86159843D01*
X91452381Y-86255081D01*
X91452381Y-86540796D01*
X91404762Y-86636034D01*
X91357143Y-86683653D01*
X96357143Y-87016986D02*
X96404762Y-87064605D01*
X96452381Y-87207462D01*
X96452381Y-87302700D01*
X96404762Y-87445558D01*
X96309524Y-87540796D01*
X96214286Y-87588415D01*
X96023810Y-87636034D01*
X95880952Y-87636034D01*
X95690476Y-87588415D01*
X95595238Y-87540796D01*
X95500000Y-87445558D01*
X95452381Y-87302700D01*
X95452381Y-87207462D01*
X95500000Y-87064605D01*
X95547619Y-87016986D01*
X95785714Y-86159843D02*
X96452381Y-86159843D01*
X95404762Y-86397939D02*
X96119048Y-86636034D01*
X96119048Y-86016986D01*
X101357143Y-87016986D02*
X101404762Y-87064605D01*
X101452381Y-87207462D01*
X101452381Y-87302700D01*
X101404762Y-87445558D01*
X101309524Y-87540796D01*
X101214286Y-87588415D01*
X101023810Y-87636034D01*
X100880952Y-87636034D01*
X100690476Y-87588415D01*
X100595238Y-87540796D01*
X100500000Y-87445558D01*
X100452381Y-87302700D01*
X100452381Y-87207462D01*
X100500000Y-87064605D01*
X100547619Y-87016986D01*
X100452381Y-86112224D02*
X100452381Y-86588415D01*
X100928571Y-86636034D01*
X100880952Y-86588415D01*
X100833333Y-86493177D01*
X100833333Y-86255081D01*
X100880952Y-86159843D01*
X100928571Y-86112224D01*
X101023810Y-86064605D01*
X101261905Y-86064605D01*
X101357143Y-86112224D01*
X101404762Y-86159843D01*
X101452381Y-86255081D01*
X101452381Y-86493177D01*
X101404762Y-86588415D01*
X101357143Y-86636034D01*
X93433654Y-123107143D02*
X93386035Y-123154762D01*
X93243178Y-123202381D01*
X93147940Y-123202381D01*
X93005082Y-123154762D01*
X92909844Y-123059524D01*
X92862225Y-122964286D01*
X92814606Y-122773810D01*
X92814606Y-122630952D01*
X92862225Y-122440476D01*
X92909844Y-122345238D01*
X93005082Y-122250000D01*
X93147940Y-122202381D01*
X93243178Y-122202381D01*
X93386035Y-122250000D01*
X93433654Y-122297619D01*
X94290797Y-122202381D02*
X94100320Y-122202381D01*
X94005082Y-122250000D01*
X93957463Y-122297619D01*
X93862225Y-122440476D01*
X93814606Y-122630952D01*
X93814606Y-123011905D01*
X93862225Y-123107143D01*
X93909844Y-123154762D01*
X94005082Y-123202381D01*
X94195559Y-123202381D01*
X94290797Y-123154762D01*
X94338416Y-123107143D01*
X94386035Y-123011905D01*
X94386035Y-122773810D01*
X94338416Y-122678571D01*
X94290797Y-122630952D01*
X94195559Y-122583333D01*
X94005082Y-122583333D01*
X93909844Y-122630952D01*
X93862225Y-122678571D01*
X93814606Y-122773810D01*
X93433654Y-118107143D02*
X93386035Y-118154762D01*
X93243178Y-118202381D01*
X93147940Y-118202381D01*
X93005082Y-118154762D01*
X92909844Y-118059524D01*
X92862225Y-117964286D01*
X92814606Y-117773810D01*
X92814606Y-117630952D01*
X92862225Y-117440476D01*
X92909844Y-117345238D01*
X93005082Y-117250000D01*
X93147940Y-117202381D01*
X93243178Y-117202381D01*
X93386035Y-117250000D01*
X93433654Y-117297619D01*
X93766987Y-117202381D02*
X94433654Y-117202381D01*
X94005082Y-118202381D01*
X93433654Y-113107143D02*
X93386035Y-113154762D01*
X93243178Y-113202381D01*
X93147940Y-113202381D01*
X93005082Y-113154762D01*
X92909844Y-113059524D01*
X92862225Y-112964286D01*
X92814606Y-112773810D01*
X92814606Y-112630952D01*
X92862225Y-112440476D01*
X92909844Y-112345238D01*
X93005082Y-112250000D01*
X93147940Y-112202381D01*
X93243178Y-112202381D01*
X93386035Y-112250000D01*
X93433654Y-112297619D01*
X94005082Y-112630952D02*
X93909844Y-112583333D01*
X93862225Y-112535714D01*
X93814606Y-112440476D01*
X93814606Y-112392857D01*
X93862225Y-112297619D01*
X93909844Y-112250000D01*
X94005082Y-112202381D01*
X94195559Y-112202381D01*
X94290797Y-112250000D01*
X94338416Y-112297619D01*
X94386035Y-112392857D01*
X94386035Y-112440476D01*
X94338416Y-112535714D01*
X94290797Y-112583333D01*
X94195559Y-112630952D01*
X94005082Y-112630952D01*
X93909844Y-112678571D01*
X93862225Y-112726190D01*
X93814606Y-112821429D01*
X93814606Y-113011905D01*
X93862225Y-113107143D01*
X93909844Y-113154762D01*
X94005082Y-113202381D01*
X94195559Y-113202381D01*
X94290797Y-113154762D01*
X94338416Y-113107143D01*
X94386035Y-113011905D01*
X94386035Y-112821429D01*
X94338416Y-112726190D01*
X94290797Y-112678571D01*
X94195559Y-112630952D01*
X119124159Y-123284504D02*
X119076540Y-123332123D01*
X118933683Y-123379742D01*
X118838445Y-123379742D01*
X118695587Y-123332123D01*
X118600349Y-123236885D01*
X118552730Y-123141647D01*
X118505111Y-122951171D01*
X118505111Y-122808313D01*
X118552730Y-122617837D01*
X118600349Y-122522599D01*
X118695587Y-122427361D01*
X118838445Y-122379742D01*
X118933683Y-122379742D01*
X119076540Y-122427361D01*
X119124159Y-122474980D01*
X119600349Y-123379742D02*
X119790825Y-123379742D01*
X119886064Y-123332123D01*
X119933683Y-123284504D01*
X120028921Y-123141647D01*
X120076540Y-122951171D01*
X120076540Y-122570218D01*
X120028921Y-122474980D01*
X119981302Y-122427361D01*
X119886064Y-122379742D01*
X119695587Y-122379742D01*
X119600349Y-122427361D01*
X119552730Y-122474980D01*
X119505111Y-122570218D01*
X119505111Y-122808313D01*
X119552730Y-122903551D01*
X119600349Y-122951171D01*
X119695587Y-122998790D01*
X119886064Y-122998790D01*
X119981302Y-122951171D01*
X120028921Y-122903551D01*
X120076540Y-122808313D01*
X118647968Y-118284504D02*
X118600349Y-118332123D01*
X118457492Y-118379742D01*
X118362254Y-118379742D01*
X118219396Y-118332123D01*
X118124158Y-118236885D01*
X118076539Y-118141647D01*
X118028920Y-117951171D01*
X118028920Y-117808313D01*
X118076539Y-117617837D01*
X118124158Y-117522599D01*
X118219396Y-117427361D01*
X118362254Y-117379742D01*
X118457492Y-117379742D01*
X118600349Y-117427361D01*
X118647968Y-117474980D01*
X119600349Y-118379742D02*
X119028920Y-118379742D01*
X119314634Y-118379742D02*
X119314634Y-117379742D01*
X119219396Y-117522599D01*
X119124158Y-117617837D01*
X119028920Y-117665456D01*
X120219396Y-117379742D02*
X120314635Y-117379742D01*
X120409873Y-117427361D01*
X120457492Y-117474980D01*
X120505111Y-117570218D01*
X120552730Y-117760694D01*
X120552730Y-117998790D01*
X120505111Y-118189266D01*
X120457492Y-118284504D01*
X120409873Y-118332123D01*
X120314635Y-118379742D01*
X120219396Y-118379742D01*
X120124158Y-118332123D01*
X120076539Y-118284504D01*
X120028920Y-118189266D01*
X119981301Y-117998790D01*
X119981301Y-117760694D01*
X120028920Y-117570218D01*
X120076539Y-117474980D01*
X120124158Y-117427361D01*
X120219396Y-117379742D01*
X118647968Y-113284504D02*
X118600349Y-113332123D01*
X118457492Y-113379742D01*
X118362254Y-113379742D01*
X118219396Y-113332123D01*
X118124158Y-113236885D01*
X118076539Y-113141647D01*
X118028920Y-112951171D01*
X118028920Y-112808313D01*
X118076539Y-112617837D01*
X118124158Y-112522599D01*
X118219396Y-112427361D01*
X118362254Y-112379742D01*
X118457492Y-112379742D01*
X118600349Y-112427361D01*
X118647968Y-112474980D01*
X119600349Y-113379742D02*
X119028920Y-113379742D01*
X119314634Y-113379742D02*
X119314634Y-112379742D01*
X119219396Y-112522599D01*
X119124158Y-112617837D01*
X119028920Y-112665456D01*
X120552730Y-113379742D02*
X119981301Y-113379742D01*
X120267015Y-113379742D02*
X120267015Y-112379742D01*
X120171777Y-112522599D01*
X120076539Y-112617837D01*
X119981301Y-112665456D01*
X118779950Y-89607143D02*
X118732331Y-89654762D01*
X118589474Y-89702381D01*
X118494236Y-89702381D01*
X118351378Y-89654762D01*
X118256140Y-89559524D01*
X118208521Y-89464286D01*
X118160902Y-89273810D01*
X118160902Y-89130952D01*
X118208521Y-88940476D01*
X118256140Y-88845238D01*
X118351378Y-88750000D01*
X118494236Y-88702381D01*
X118589474Y-88702381D01*
X118732331Y-88750000D01*
X118779950Y-88797619D01*
X119732331Y-89702381D02*
X119160902Y-89702381D01*
X119446616Y-89702381D02*
X119446616Y-88702381D01*
X119351378Y-88845238D01*
X119256140Y-88940476D01*
X119160902Y-88988095D01*
X120113283Y-88797619D02*
X120160902Y-88750000D01*
X120256140Y-88702381D01*
X120494236Y-88702381D01*
X120589474Y-88750000D01*
X120637093Y-88797619D01*
X120684712Y-88892857D01*
X120684712Y-88988095D01*
X120637093Y-89130952D01*
X120065664Y-89702381D01*
X120684712Y-89702381D01*
X118779950Y-84607143D02*
X118732331Y-84654762D01*
X118589474Y-84702381D01*
X118494236Y-84702381D01*
X118351378Y-84654762D01*
X118256140Y-84559524D01*
X118208521Y-84464286D01*
X118160902Y-84273810D01*
X118160902Y-84130952D01*
X118208521Y-83940476D01*
X118256140Y-83845238D01*
X118351378Y-83750000D01*
X118494236Y-83702381D01*
X118589474Y-83702381D01*
X118732331Y-83750000D01*
X118779950Y-83797619D01*
X119732331Y-84702381D02*
X119160902Y-84702381D01*
X119446616Y-84702381D02*
X119446616Y-83702381D01*
X119351378Y-83845238D01*
X119256140Y-83940476D01*
X119160902Y-83988095D01*
X120065664Y-83702381D02*
X120684712Y-83702381D01*
X120351378Y-84083333D01*
X120494236Y-84083333D01*
X120589474Y-84130952D01*
X120637093Y-84178571D01*
X120684712Y-84273810D01*
X120684712Y-84511905D01*
X120637093Y-84607143D01*
X120589474Y-84654762D01*
X120494236Y-84702381D01*
X120208521Y-84702381D01*
X120113283Y-84654762D01*
X120065664Y-84607143D01*
X118779950Y-79607143D02*
X118732331Y-79654762D01*
X118589474Y-79702381D01*
X118494236Y-79702381D01*
X118351378Y-79654762D01*
X118256140Y-79559524D01*
X118208521Y-79464286D01*
X118160902Y-79273810D01*
X118160902Y-79130952D01*
X118208521Y-78940476D01*
X118256140Y-78845238D01*
X118351378Y-78750000D01*
X118494236Y-78702381D01*
X118589474Y-78702381D01*
X118732331Y-78750000D01*
X118779950Y-78797619D01*
X119732331Y-79702381D02*
X119160902Y-79702381D01*
X119446616Y-79702381D02*
X119446616Y-78702381D01*
X119351378Y-78845238D01*
X119256140Y-78940476D01*
X119160902Y-78988095D01*
X120589474Y-79035714D02*
X120589474Y-79702381D01*
X120351378Y-78654762D02*
X120113283Y-79369048D01*
X120732331Y-79369048D01*
X71511905Y-111952381D02*
X71511905Y-110952381D01*
X71892858Y-110952381D01*
X71988096Y-111000000D01*
X72035715Y-111047619D01*
X72083334Y-111142857D01*
X72083334Y-111285714D01*
X72035715Y-111380952D01*
X71988096Y-111428571D01*
X71892858Y-111476190D01*
X71511905Y-111476190D01*
X72464286Y-111047619D02*
X72511905Y-111000000D01*
X72607143Y-110952381D01*
X72845239Y-110952381D01*
X72940477Y-111000000D01*
X72988096Y-111047619D01*
X73035715Y-111142857D01*
X73035715Y-111238095D01*
X72988096Y-111380952D01*
X72416667Y-111952381D01*
X73035715Y-111952381D01*
X85297619Y-96515238D02*
X85250000Y-96610476D01*
X85154762Y-96705714D01*
X85011905Y-96848571D01*
X84964286Y-96943810D01*
X84964286Y-97039048D01*
X85202381Y-96991429D02*
X85154762Y-97086667D01*
X85059524Y-97181905D01*
X84869048Y-97229524D01*
X84535714Y-97229524D01*
X84345238Y-97181905D01*
X84250000Y-97086667D01*
X84202381Y-96991429D01*
X84202381Y-96800952D01*
X84250000Y-96705714D01*
X84345238Y-96610476D01*
X84535714Y-96562857D01*
X84869048Y-96562857D01*
X85059524Y-96610476D01*
X85154762Y-96705714D01*
X85202381Y-96800952D01*
X85202381Y-96991429D01*
X85202381Y-95610476D02*
X85202381Y-96181905D01*
X85202381Y-95896191D02*
X84202381Y-95896191D01*
X84345238Y-95991429D01*
X84440476Y-96086667D01*
X84488095Y-96181905D01*
X57452381Y-95067606D02*
X56976190Y-95400940D01*
X57452381Y-95639035D02*
X56452381Y-95639035D01*
X56452381Y-95258082D01*
X56500000Y-95162844D01*
X56547619Y-95115225D01*
X56642857Y-95067606D01*
X56785714Y-95067606D01*
X56880952Y-95115225D01*
X56928571Y-95162844D01*
X56976190Y-95258082D01*
X56976190Y-95639035D01*
X57452381Y-94115225D02*
X57452381Y-94686654D01*
X57452381Y-94400940D02*
X56452381Y-94400940D01*
X56595238Y-94496178D01*
X56690476Y-94591416D01*
X56738095Y-94686654D01*
X79547619Y-96555238D02*
X79500000Y-96650476D01*
X79404762Y-96745714D01*
X79261905Y-96888571D01*
X79214286Y-96983810D01*
X79214286Y-97079048D01*
X79452381Y-97031429D02*
X79404762Y-97126667D01*
X79309524Y-97221905D01*
X79119048Y-97269524D01*
X78785714Y-97269524D01*
X78595238Y-97221905D01*
X78500000Y-97126667D01*
X78452381Y-97031429D01*
X78452381Y-96840952D01*
X78500000Y-96745714D01*
X78595238Y-96650476D01*
X78785714Y-96602857D01*
X79119048Y-96602857D01*
X79309524Y-96650476D01*
X79404762Y-96745714D01*
X79452381Y-96840952D01*
X79452381Y-97031429D01*
X78547619Y-96221905D02*
X78500000Y-96174286D01*
X78452381Y-96079048D01*
X78452381Y-95840952D01*
X78500000Y-95745714D01*
X78547619Y-95698095D01*
X78642857Y-95650476D01*
X78738095Y-95650476D01*
X78880952Y-95698095D01*
X79452381Y-96269524D01*
X79452381Y-95650476D01*
X73797619Y-96555238D02*
X73750000Y-96650476D01*
X73654762Y-96745714D01*
X73511905Y-96888571D01*
X73464286Y-96983810D01*
X73464286Y-97079048D01*
X73702381Y-97031429D02*
X73654762Y-97126667D01*
X73559524Y-97221905D01*
X73369048Y-97269524D01*
X73035714Y-97269524D01*
X72845238Y-97221905D01*
X72750000Y-97126667D01*
X72702381Y-97031429D01*
X72702381Y-96840952D01*
X72750000Y-96745714D01*
X72845238Y-96650476D01*
X73035714Y-96602857D01*
X73369048Y-96602857D01*
X73559524Y-96650476D01*
X73654762Y-96745714D01*
X73702381Y-96840952D01*
X73702381Y-97031429D01*
X72702381Y-96269524D02*
X72702381Y-95650476D01*
X73083333Y-95983810D01*
X73083333Y-95840952D01*
X73130952Y-95745714D01*
X73178571Y-95698095D01*
X73273810Y-95650476D01*
X73511905Y-95650476D01*
X73607143Y-95698095D01*
X73654762Y-95745714D01*
X73702381Y-95840952D01*
X73702381Y-96126667D01*
X73654762Y-96221905D01*
X73607143Y-96269524D01*
X101595238Y-78102381D02*
X101833333Y-79102381D01*
X102023810Y-78388095D01*
X102214286Y-79102381D01*
X102452381Y-78102381D01*
X103357143Y-79102381D02*
X102785714Y-79102381D01*
X103071428Y-79102381D02*
X103071428Y-78102381D01*
X102976190Y-78245238D01*
X102880952Y-78340476D01*
X102785714Y-78388095D01*
X82595238Y-104602381D02*
X82833333Y-105602381D01*
X83023810Y-104888095D01*
X83214286Y-105602381D01*
X83452381Y-104602381D01*
X83785714Y-104697619D02*
X83833333Y-104650000D01*
X83928571Y-104602381D01*
X84166667Y-104602381D01*
X84261905Y-104650000D01*
X84309524Y-104697619D01*
X84357143Y-104792857D01*
X84357143Y-104888095D01*
X84309524Y-105030952D01*
X83738095Y-105602381D01*
X84357143Y-105602381D01*
X82595238Y-111852381D02*
X82833333Y-112852381D01*
X83023810Y-112138095D01*
X83214286Y-112852381D01*
X83452381Y-111852381D01*
X83738095Y-111852381D02*
X84357143Y-111852381D01*
X84023809Y-112233333D01*
X84166667Y-112233333D01*
X84261905Y-112280952D01*
X84309524Y-112328571D01*
X84357143Y-112423810D01*
X84357143Y-112661905D01*
X84309524Y-112757143D01*
X84261905Y-112804762D01*
X84166667Y-112852381D01*
X83880952Y-112852381D01*
X83785714Y-112804762D01*
X83738095Y-112757143D01*
X129352381Y-124154762D02*
X130352381Y-123916667D01*
X129638095Y-123726190D01*
X130352381Y-123535714D01*
X129352381Y-123297619D01*
X129685714Y-122488095D02*
X130352381Y-122488095D01*
X129304762Y-122726191D02*
X130019048Y-122964286D01*
X130019048Y-122345238D01*
X129852381Y-78154762D02*
X130852381Y-77916667D01*
X130138095Y-77726190D01*
X130852381Y-77535714D01*
X129852381Y-77297619D01*
X129852381Y-76440476D02*
X129852381Y-76916667D01*
X130328571Y-76964286D01*
X130280952Y-76916667D01*
X130233333Y-76821429D01*
X130233333Y-76583333D01*
X130280952Y-76488095D01*
X130328571Y-76440476D01*
X130423810Y-76392857D01*
X130661905Y-76392857D01*
X130757143Y-76440476D01*
X130804762Y-76488095D01*
X130852381Y-76583333D01*
X130852381Y-76821429D01*
X130804762Y-76916667D01*
X130757143Y-76964286D01*
X75345238Y-104602381D02*
X75583333Y-105602381D01*
X75773810Y-104888095D01*
X75964286Y-105602381D01*
X76202381Y-104602381D01*
X77011905Y-104602381D02*
X76821428Y-104602381D01*
X76726190Y-104650000D01*
X76678571Y-104697619D01*
X76583333Y-104840476D01*
X76535714Y-105030952D01*
X76535714Y-105411905D01*
X76583333Y-105507143D01*
X76630952Y-105554762D01*
X76726190Y-105602381D01*
X76916667Y-105602381D01*
X77011905Y-105554762D01*
X77059524Y-105507143D01*
X77107143Y-105411905D01*
X77107143Y-105173810D01*
X77059524Y-105078571D01*
X77011905Y-105030952D01*
X76916667Y-104983333D01*
X76726190Y-104983333D01*
X76630952Y-105030952D01*
X76583333Y-105078571D01*
X76535714Y-105173810D01*
X68095238Y-76852381D02*
X68333333Y-77852381D01*
X68523810Y-77138095D01*
X68714286Y-77852381D01*
X68952381Y-76852381D01*
X69238095Y-76852381D02*
X69904762Y-76852381D01*
X69476190Y-77852381D01*
X72345238Y-76852381D02*
X72583333Y-77852381D01*
X72773810Y-77138095D01*
X72964286Y-77852381D01*
X73202381Y-76852381D01*
X73726190Y-77280952D02*
X73630952Y-77233333D01*
X73583333Y-77185714D01*
X73535714Y-77090476D01*
X73535714Y-77042857D01*
X73583333Y-76947619D01*
X73630952Y-76900000D01*
X73726190Y-76852381D01*
X73916667Y-76852381D01*
X74011905Y-76900000D01*
X74059524Y-76947619D01*
X74107143Y-77042857D01*
X74107143Y-77090476D01*
X74059524Y-77185714D01*
X74011905Y-77233333D01*
X73916667Y-77280952D01*
X73726190Y-77280952D01*
X73630952Y-77328571D01*
X73583333Y-77376190D01*
X73535714Y-77471429D01*
X73535714Y-77661905D01*
X73583333Y-77757143D01*
X73630952Y-77804762D01*
X73726190Y-77852381D01*
X73916667Y-77852381D01*
X74011905Y-77804762D01*
X74059524Y-77757143D01*
X74107143Y-77661905D01*
X74107143Y-77471429D01*
X74059524Y-77376190D01*
X74011905Y-77328571D01*
X73916667Y-77280952D01*
X81595238Y-76852381D02*
X81833333Y-77852381D01*
X82023810Y-77138095D01*
X82214286Y-77852381D01*
X82452381Y-76852381D01*
X82880952Y-77852381D02*
X83071428Y-77852381D01*
X83166667Y-77804762D01*
X83214286Y-77757143D01*
X83309524Y-77614286D01*
X83357143Y-77423810D01*
X83357143Y-77042857D01*
X83309524Y-76947619D01*
X83261905Y-76900000D01*
X83166667Y-76852381D01*
X82976190Y-76852381D01*
X82880952Y-76900000D01*
X82833333Y-76947619D01*
X82785714Y-77042857D01*
X82785714Y-77280952D01*
X82833333Y-77376190D01*
X82880952Y-77423810D01*
X82976190Y-77471429D01*
X83166667Y-77471429D01*
X83261905Y-77423810D01*
X83309524Y-77376190D01*
X83357143Y-77280952D01*
X110852381Y-78630952D02*
X111852381Y-78392857D01*
X111138095Y-78202380D01*
X111852381Y-78011904D01*
X110852381Y-77773809D01*
X111852381Y-76869047D02*
X111852381Y-77440476D01*
X111852381Y-77154762D02*
X110852381Y-77154762D01*
X110995238Y-77250000D01*
X111090476Y-77345238D01*
X111138095Y-77440476D01*
X110852381Y-76250000D02*
X110852381Y-76154761D01*
X110900000Y-76059523D01*
X110947619Y-76011904D01*
X111042857Y-75964285D01*
X111233333Y-75916666D01*
X111471429Y-75916666D01*
X111661905Y-75964285D01*
X111757143Y-76011904D01*
X111804762Y-76059523D01*
X111852381Y-76154761D01*
X111852381Y-76250000D01*
X111804762Y-76345238D01*
X111757143Y-76392857D01*
X111661905Y-76440476D01*
X111471429Y-76488095D01*
X111233333Y-76488095D01*
X111042857Y-76440476D01*
X110947619Y-76392857D01*
X110900000Y-76345238D01*
X110852381Y-76250000D01*
X105583334Y-98452381D02*
X105107143Y-98452381D01*
X105107143Y-97452381D01*
X105869048Y-97547619D02*
X105916667Y-97500000D01*
X106011905Y-97452381D01*
X106250001Y-97452381D01*
X106345239Y-97500000D01*
X106392858Y-97547619D01*
X106440477Y-97642857D01*
X106440477Y-97738095D01*
X106392858Y-97880952D01*
X105821429Y-98452381D01*
X106440477Y-98452381D01*
X94797617Y-99952381D02*
X94797617Y-98952381D01*
X95130951Y-99666667D01*
X95464284Y-98952381D01*
X95464284Y-99952381D01*
X96321427Y-99904762D02*
X96226189Y-99952381D01*
X96035712Y-99952381D01*
X95940474Y-99904762D01*
X95892855Y-99809524D01*
X95892855Y-99428571D01*
X95940474Y-99333333D01*
X96035712Y-99285714D01*
X96226189Y-99285714D01*
X96321427Y-99333333D01*
X96369046Y-99428571D01*
X96369046Y-99523810D01*
X95892855Y-99619048D01*
X97226189Y-99904762D02*
X97130951Y-99952381D01*
X96940474Y-99952381D01*
X96845236Y-99904762D01*
X96797617Y-99857143D01*
X96749998Y-99761905D01*
X96749998Y-99476190D01*
X96797617Y-99380952D01*
X96845236Y-99333333D01*
X96940474Y-99285714D01*
X97130951Y-99285714D01*
X97226189Y-99333333D01*
X97654760Y-99952381D02*
X97654760Y-98952381D01*
X98083332Y-99952381D02*
X98083332Y-99428571D01*
X98035713Y-99333333D01*
X97940475Y-99285714D01*
X97797617Y-99285714D01*
X97702379Y-99333333D01*
X97654760Y-99380952D01*
X98988094Y-99952381D02*
X98988094Y-99428571D01*
X98940475Y-99333333D01*
X98845237Y-99285714D01*
X98654760Y-99285714D01*
X98559522Y-99333333D01*
X98988094Y-99904762D02*
X98892856Y-99952381D01*
X98654760Y-99952381D01*
X98559522Y-99904762D01*
X98511903Y-99809524D01*
X98511903Y-99714286D01*
X98559522Y-99619048D01*
X98654760Y-99571429D01*
X98892856Y-99571429D01*
X98988094Y-99523810D01*
X99464284Y-99285714D02*
X99464284Y-99952381D01*
X99464284Y-99380952D02*
X99511903Y-99333333D01*
X99607141Y-99285714D01*
X99749999Y-99285714D01*
X99845237Y-99333333D01*
X99892856Y-99428571D01*
X99892856Y-99952381D01*
X100369046Y-99952381D02*
X100369046Y-99285714D01*
X100369046Y-98952381D02*
X100321427Y-99000000D01*
X100369046Y-99047619D01*
X100416665Y-99000000D01*
X100369046Y-98952381D01*
X100369046Y-99047619D01*
X101273808Y-99904762D02*
X101178570Y-99952381D01*
X100988093Y-99952381D01*
X100892855Y-99904762D01*
X100845236Y-99857143D01*
X100797617Y-99761905D01*
X100797617Y-99476190D01*
X100845236Y-99380952D01*
X100892855Y-99333333D01*
X100988093Y-99285714D01*
X101178570Y-99285714D01*
X101273808Y-99333333D01*
X102130951Y-99952381D02*
X102130951Y-99428571D01*
X102083332Y-99333333D01*
X101988094Y-99285714D01*
X101797617Y-99285714D01*
X101702379Y-99333333D01*
X102130951Y-99904762D02*
X102035713Y-99952381D01*
X101797617Y-99952381D01*
X101702379Y-99904762D01*
X101654760Y-99809524D01*
X101654760Y-99714286D01*
X101702379Y-99619048D01*
X101797617Y-99571429D01*
X102035713Y-99571429D01*
X102130951Y-99523810D01*
X102749998Y-99952381D02*
X102654760Y-99904762D01*
X102607141Y-99809524D01*
X102607141Y-98952381D01*
X103892856Y-99952381D02*
X103892856Y-98952381D01*
X104321428Y-99952381D02*
X104321428Y-99428571D01*
X104273809Y-99333333D01*
X104178571Y-99285714D01*
X104035713Y-99285714D01*
X103940475Y-99333333D01*
X103892856Y-99380952D01*
X104940475Y-99952381D02*
X104845237Y-99904762D01*
X104797618Y-99857143D01*
X104749999Y-99761905D01*
X104749999Y-99476190D01*
X104797618Y-99380952D01*
X104845237Y-99333333D01*
X104940475Y-99285714D01*
X105083333Y-99285714D01*
X105178571Y-99333333D01*
X105226190Y-99380952D01*
X105273809Y-99476190D01*
X105273809Y-99761905D01*
X105226190Y-99857143D01*
X105178571Y-99904762D01*
X105083333Y-99952381D01*
X104940475Y-99952381D01*
X105845237Y-99952381D02*
X105749999Y-99904762D01*
X105702380Y-99809524D01*
X105702380Y-98952381D01*
X106607143Y-99904762D02*
X106511905Y-99952381D01*
X106321428Y-99952381D01*
X106226190Y-99904762D01*
X106178571Y-99809524D01*
X106178571Y-99428571D01*
X106226190Y-99333333D01*
X106321428Y-99285714D01*
X106511905Y-99285714D01*
X106607143Y-99333333D01*
X106654762Y-99428571D01*
X106654762Y-99523810D01*
X106178571Y-99619048D01*
X107035714Y-99904762D02*
X107130952Y-99952381D01*
X107321428Y-99952381D01*
X107416667Y-99904762D01*
X107464286Y-99809524D01*
X107464286Y-99761905D01*
X107416667Y-99666667D01*
X107321428Y-99619048D01*
X107178571Y-99619048D01*
X107083333Y-99571429D01*
X107035714Y-99476190D01*
X107035714Y-99428571D01*
X107083333Y-99333333D01*
X107178571Y-99285714D01*
X107321428Y-99285714D01*
X107416667Y-99333333D01*
X108511905Y-99285714D02*
X108892857Y-99285714D01*
X108654762Y-99952381D02*
X108654762Y-99095238D01*
X108702381Y-99000000D01*
X108797619Y-98952381D01*
X108892857Y-98952381D01*
X109369048Y-99952381D02*
X109273810Y-99904762D01*
X109226191Y-99857143D01*
X109178572Y-99761905D01*
X109178572Y-99476190D01*
X109226191Y-99380952D01*
X109273810Y-99333333D01*
X109369048Y-99285714D01*
X109511906Y-99285714D01*
X109607144Y-99333333D01*
X109654763Y-99380952D01*
X109702382Y-99476190D01*
X109702382Y-99761905D01*
X109654763Y-99857143D01*
X109607144Y-99904762D01*
X109511906Y-99952381D01*
X109369048Y-99952381D01*
X110130953Y-99952381D02*
X110130953Y-99285714D01*
X110130953Y-99476190D02*
X110178572Y-99380952D01*
X110226191Y-99333333D01*
X110321429Y-99285714D01*
X110416668Y-99285714D01*
X111416668Y-99285714D02*
X111940478Y-99285714D01*
X111416668Y-99952381D01*
X111940478Y-99952381D01*
X112321430Y-99952381D02*
X112321430Y-99285714D01*
X112321430Y-98952381D02*
X112273811Y-99000000D01*
X112321430Y-99047619D01*
X112369049Y-99000000D01*
X112321430Y-98952381D01*
X112321430Y-99047619D01*
X112797620Y-99285714D02*
X112797620Y-100285714D01*
X112797620Y-99333333D02*
X112892858Y-99285714D01*
X113083335Y-99285714D01*
X113178573Y-99333333D01*
X113226192Y-99380952D01*
X113273811Y-99476190D01*
X113273811Y-99761905D01*
X113226192Y-99857143D01*
X113178573Y-99904762D01*
X113083335Y-99952381D01*
X112892858Y-99952381D01*
X112797620Y-99904762D01*
X114321430Y-99285714D02*
X114702382Y-99285714D01*
X114464287Y-98952381D02*
X114464287Y-99809524D01*
X114511906Y-99904762D01*
X114607144Y-99952381D01*
X114702382Y-99952381D01*
X115035716Y-99952381D02*
X115035716Y-99285714D01*
X115035716Y-98952381D02*
X114988097Y-99000000D01*
X115035716Y-99047619D01*
X115083335Y-99000000D01*
X115035716Y-98952381D01*
X115035716Y-99047619D01*
X115892859Y-99904762D02*
X115797621Y-99952381D01*
X115607144Y-99952381D01*
X115511906Y-99904762D01*
X115464287Y-99809524D01*
X115464287Y-99428571D01*
X115511906Y-99333333D01*
X115607144Y-99285714D01*
X115797621Y-99285714D01*
X115892859Y-99333333D01*
X115940478Y-99428571D01*
X115940478Y-99523810D01*
X115464287Y-99619048D01*
X116321430Y-99904762D02*
X116416668Y-99952381D01*
X116607144Y-99952381D01*
X116702383Y-99904762D01*
X116750002Y-99809524D01*
X116750002Y-99761905D01*
X116702383Y-99666667D01*
X116607144Y-99619048D01*
X116464287Y-99619048D01*
X116369049Y-99571429D01*
X116321430Y-99476190D01*
X116321430Y-99428571D01*
X116369049Y-99333333D01*
X116464287Y-99285714D01*
X116607144Y-99285714D01*
X116702383Y-99333333D01*
X102964285Y-102666667D02*
X103440476Y-102666667D01*
X102869047Y-102952381D02*
X103202380Y-101952381D01*
X103535714Y-102952381D01*
X103869047Y-102952381D02*
X103869047Y-102285714D01*
X103869047Y-101952381D02*
X103821428Y-102000000D01*
X103869047Y-102047619D01*
X103916666Y-102000000D01*
X103869047Y-101952381D01*
X103869047Y-102047619D01*
X104345237Y-102952381D02*
X104345237Y-102285714D01*
X104345237Y-102476190D02*
X104392856Y-102380952D01*
X104440475Y-102333333D01*
X104535713Y-102285714D01*
X104630952Y-102285714D01*
X106154762Y-102904762D02*
X106059524Y-102952381D01*
X105869047Y-102952381D01*
X105773809Y-102904762D01*
X105726190Y-102857143D01*
X105678571Y-102761905D01*
X105678571Y-102476190D01*
X105726190Y-102380952D01*
X105773809Y-102333333D01*
X105869047Y-102285714D01*
X106059524Y-102285714D01*
X106154762Y-102333333D01*
X106726190Y-102952381D02*
X106630952Y-102904762D01*
X106583333Y-102857143D01*
X106535714Y-102761905D01*
X106535714Y-102476190D01*
X106583333Y-102380952D01*
X106630952Y-102333333D01*
X106726190Y-102285714D01*
X106869048Y-102285714D01*
X106964286Y-102333333D01*
X107011905Y-102380952D01*
X107059524Y-102476190D01*
X107059524Y-102761905D01*
X107011905Y-102857143D01*
X106964286Y-102904762D01*
X106869048Y-102952381D01*
X106726190Y-102952381D01*
X107488095Y-102952381D02*
X107488095Y-102285714D01*
X107488095Y-102476190D02*
X107535714Y-102380952D01*
X107583333Y-102333333D01*
X107678571Y-102285714D01*
X107773810Y-102285714D01*
X108488096Y-102904762D02*
X108392858Y-102952381D01*
X108202381Y-102952381D01*
X108107143Y-102904762D01*
X108059524Y-102809524D01*
X108059524Y-102428571D01*
X108107143Y-102333333D01*
X108202381Y-102285714D01*
X108392858Y-102285714D01*
X108488096Y-102333333D01*
X108535715Y-102428571D01*
X108535715Y-102523810D01*
X108059524Y-102619048D01*
X95535713Y-100547619D02*
X95583332Y-100500000D01*
X95678570Y-100452381D01*
X95916666Y-100452381D01*
X96011904Y-100500000D01*
X96059523Y-100547619D01*
X96107142Y-100642857D01*
X96107142Y-100738095D01*
X96059523Y-100880952D01*
X95488094Y-101452381D01*
X96107142Y-101452381D01*
X96964285Y-100785714D02*
X96964285Y-101452381D01*
X96726189Y-100404762D02*
X96488094Y-101119048D01*
X97107142Y-101119048D01*
X98107142Y-100785714D02*
X98488094Y-100785714D01*
X98249999Y-100452381D02*
X98249999Y-101309524D01*
X98297618Y-101404762D01*
X98392856Y-101452381D01*
X98488094Y-101452381D01*
X99250000Y-100785714D02*
X99250000Y-101452381D01*
X98821428Y-100785714D02*
X98821428Y-101309524D01*
X98869047Y-101404762D01*
X98964285Y-101452381D01*
X99107143Y-101452381D01*
X99202381Y-101404762D01*
X99250000Y-101357143D01*
X99726190Y-101452381D02*
X99726190Y-100785714D01*
X99726190Y-100976190D02*
X99773809Y-100880952D01*
X99821428Y-100833333D01*
X99916666Y-100785714D01*
X100011905Y-100785714D01*
X100345238Y-100785714D02*
X100345238Y-101452381D01*
X100345238Y-100880952D02*
X100392857Y-100833333D01*
X100488095Y-100785714D01*
X100630953Y-100785714D01*
X100726191Y-100833333D01*
X100773810Y-100928571D01*
X100773810Y-101452381D01*
X101202381Y-101404762D02*
X101297619Y-101452381D01*
X101488095Y-101452381D01*
X101583334Y-101404762D01*
X101630953Y-101309524D01*
X101630953Y-101261905D01*
X101583334Y-101166667D01*
X101488095Y-101119048D01*
X101345238Y-101119048D01*
X101250000Y-101071429D01*
X101202381Y-100976190D01*
X101202381Y-100928571D01*
X101250000Y-100833333D01*
X101345238Y-100785714D01*
X101488095Y-100785714D01*
X101583334Y-100833333D01*
X102964286Y-101452381D02*
X102869048Y-101404762D01*
X102821429Y-101357143D01*
X102773810Y-101261905D01*
X102773810Y-100976190D01*
X102821429Y-100880952D01*
X102869048Y-100833333D01*
X102964286Y-100785714D01*
X103107144Y-100785714D01*
X103202382Y-100833333D01*
X103250001Y-100880952D01*
X103297620Y-100976190D01*
X103297620Y-101261905D01*
X103250001Y-101357143D01*
X103202382Y-101404762D01*
X103107144Y-101452381D01*
X102964286Y-101452381D01*
X103726191Y-100785714D02*
X103726191Y-101452381D01*
X103726191Y-100880952D02*
X103773810Y-100833333D01*
X103869048Y-100785714D01*
X104011906Y-100785714D01*
X104107144Y-100833333D01*
X104154763Y-100928571D01*
X104154763Y-101452381D01*
X105916668Y-101452381D02*
X105345239Y-101452381D01*
X105630953Y-101452381D02*
X105630953Y-100452381D01*
X105535715Y-100595238D01*
X105440477Y-100690476D01*
X105345239Y-100738095D01*
X106535715Y-100452381D02*
X106630954Y-100452381D01*
X106726192Y-100500000D01*
X106773811Y-100547619D01*
X106821430Y-100642857D01*
X106869049Y-100833333D01*
X106869049Y-101071429D01*
X106821430Y-101261905D01*
X106773811Y-101357143D01*
X106726192Y-101404762D01*
X106630954Y-101452381D01*
X106535715Y-101452381D01*
X106440477Y-101404762D01*
X106392858Y-101357143D01*
X106345239Y-101261905D01*
X106297620Y-101071429D01*
X106297620Y-100833333D01*
X106345239Y-100642857D01*
X106392858Y-100547619D01*
X106440477Y-100500000D01*
X106535715Y-100452381D01*
X108059525Y-101452381D02*
X108059525Y-100785714D01*
X108059525Y-100880952D02*
X108107144Y-100833333D01*
X108202382Y-100785714D01*
X108345240Y-100785714D01*
X108440478Y-100833333D01*
X108488097Y-100928571D01*
X108488097Y-101452381D01*
X108488097Y-100928571D02*
X108535716Y-100833333D01*
X108630954Y-100785714D01*
X108773811Y-100785714D01*
X108869049Y-100833333D01*
X108916668Y-100928571D01*
X108916668Y-101452381D01*
X109392858Y-101452381D02*
X109392858Y-100785714D01*
X109392858Y-100880952D02*
X109440477Y-100833333D01*
X109535715Y-100785714D01*
X109678573Y-100785714D01*
X109773811Y-100833333D01*
X109821430Y-100928571D01*
X109821430Y-101452381D01*
X109821430Y-100928571D02*
X109869049Y-100833333D01*
X109964287Y-100785714D01*
X110107144Y-100785714D01*
X110202382Y-100833333D01*
X110250001Y-100928571D01*
X110250001Y-101452381D01*
X111345239Y-100785714D02*
X111726191Y-100785714D01*
X111488096Y-101452381D02*
X111488096Y-100595238D01*
X111535715Y-100500000D01*
X111630953Y-100452381D01*
X111726191Y-100452381D01*
X112202382Y-101452381D02*
X112107144Y-101404762D01*
X112059525Y-101357143D01*
X112011906Y-101261905D01*
X112011906Y-100976190D01*
X112059525Y-100880952D01*
X112107144Y-100833333D01*
X112202382Y-100785714D01*
X112345240Y-100785714D01*
X112440478Y-100833333D01*
X112488097Y-100880952D01*
X112535716Y-100976190D01*
X112535716Y-101261905D01*
X112488097Y-101357143D01*
X112440478Y-101404762D01*
X112345240Y-101452381D01*
X112202382Y-101452381D01*
X112964287Y-101452381D02*
X112964287Y-100785714D01*
X112964287Y-100976190D02*
X113011906Y-100880952D01*
X113059525Y-100833333D01*
X113154763Y-100785714D01*
X113250002Y-100785714D01*
X113583335Y-101452381D02*
X113583335Y-100785714D01*
X113583335Y-100880952D02*
X113630954Y-100833333D01*
X113726192Y-100785714D01*
X113869050Y-100785714D01*
X113964288Y-100833333D01*
X114011907Y-100928571D01*
X114011907Y-101452381D01*
X114011907Y-100928571D02*
X114059526Y-100833333D01*
X114154764Y-100785714D01*
X114297621Y-100785714D01*
X114392859Y-100833333D01*
X114440478Y-100928571D01*
X114440478Y-101452381D01*
X115297621Y-101404762D02*
X115202383Y-101452381D01*
X115011906Y-101452381D01*
X114916668Y-101404762D01*
X114869049Y-101309524D01*
X114869049Y-100928571D01*
X114916668Y-100833333D01*
X115011906Y-100785714D01*
X115202383Y-100785714D01*
X115297621Y-100833333D01*
X115345240Y-100928571D01*
X115345240Y-101023810D01*
X114869049Y-101119048D01*
X115773811Y-101452381D02*
X115773811Y-100785714D01*
X115773811Y-100976190D02*
X115821430Y-100880952D01*
X115869049Y-100833333D01*
X115964287Y-100785714D01*
X116059526Y-100785714D01*
X131452381Y-100666666D02*
X131452381Y-101142857D01*
X130452381Y-101142857D01*
X130452381Y-100428571D02*
X130452381Y-99809523D01*
X130833333Y-100142857D01*
X130833333Y-99999999D01*
X130880952Y-99904761D01*
X130928571Y-99857142D01*
X131023810Y-99809523D01*
X131261905Y-99809523D01*
X131357143Y-99857142D01*
X131404762Y-99904761D01*
X131452381Y-99999999D01*
X131452381Y-100285714D01*
X131404762Y-100380952D01*
X131357143Y-100428571D01*
X132952381Y-111452383D02*
X131952381Y-111452383D01*
X132666667Y-111119049D01*
X131952381Y-110785716D01*
X132952381Y-110785716D01*
X132904762Y-109928573D02*
X132952381Y-110023811D01*
X132952381Y-110214288D01*
X132904762Y-110309526D01*
X132809524Y-110357145D01*
X132428571Y-110357145D01*
X132333333Y-110309526D01*
X132285714Y-110214288D01*
X132285714Y-110023811D01*
X132333333Y-109928573D01*
X132428571Y-109880954D01*
X132523810Y-109880954D01*
X132619048Y-110357145D01*
X132904762Y-109023811D02*
X132952381Y-109119049D01*
X132952381Y-109309526D01*
X132904762Y-109404764D01*
X132857143Y-109452383D01*
X132761905Y-109500002D01*
X132476190Y-109500002D01*
X132380952Y-109452383D01*
X132333333Y-109404764D01*
X132285714Y-109309526D01*
X132285714Y-109119049D01*
X132333333Y-109023811D01*
X132952381Y-108595240D02*
X131952381Y-108595240D01*
X132952381Y-108166668D02*
X132428571Y-108166668D01*
X132333333Y-108214287D01*
X132285714Y-108309525D01*
X132285714Y-108452383D01*
X132333333Y-108547621D01*
X132380952Y-108595240D01*
X132952381Y-107261906D02*
X132428571Y-107261906D01*
X132333333Y-107309525D01*
X132285714Y-107404763D01*
X132285714Y-107595240D01*
X132333333Y-107690478D01*
X132904762Y-107261906D02*
X132952381Y-107357144D01*
X132952381Y-107595240D01*
X132904762Y-107690478D01*
X132809524Y-107738097D01*
X132714286Y-107738097D01*
X132619048Y-107690478D01*
X132571429Y-107595240D01*
X132571429Y-107357144D01*
X132523810Y-107261906D01*
X132285714Y-106785716D02*
X132952381Y-106785716D01*
X132380952Y-106785716D02*
X132333333Y-106738097D01*
X132285714Y-106642859D01*
X132285714Y-106500001D01*
X132333333Y-106404763D01*
X132428571Y-106357144D01*
X132952381Y-106357144D01*
X132952381Y-105880954D02*
X132285714Y-105880954D01*
X131952381Y-105880954D02*
X132000000Y-105928573D01*
X132047619Y-105880954D01*
X132000000Y-105833335D01*
X131952381Y-105880954D01*
X132047619Y-105880954D01*
X132904762Y-104976192D02*
X132952381Y-105071430D01*
X132952381Y-105261907D01*
X132904762Y-105357145D01*
X132857143Y-105404764D01*
X132761905Y-105452383D01*
X132476190Y-105452383D01*
X132380952Y-105404764D01*
X132333333Y-105357145D01*
X132285714Y-105261907D01*
X132285714Y-105071430D01*
X132333333Y-104976192D01*
X132952381Y-104119049D02*
X132428571Y-104119049D01*
X132333333Y-104166668D01*
X132285714Y-104261906D01*
X132285714Y-104452383D01*
X132333333Y-104547621D01*
X132904762Y-104119049D02*
X132952381Y-104214287D01*
X132952381Y-104452383D01*
X132904762Y-104547621D01*
X132809524Y-104595240D01*
X132714286Y-104595240D01*
X132619048Y-104547621D01*
X132571429Y-104452383D01*
X132571429Y-104214287D01*
X132523810Y-104119049D01*
X132952381Y-103500002D02*
X132904762Y-103595240D01*
X132809524Y-103642859D01*
X131952381Y-103642859D01*
X132952381Y-102357144D02*
X131952381Y-102357144D01*
X132952381Y-101928572D02*
X132428571Y-101928572D01*
X132333333Y-101976191D01*
X132285714Y-102071429D01*
X132285714Y-102214287D01*
X132333333Y-102309525D01*
X132380952Y-102357144D01*
X132952381Y-101309525D02*
X132904762Y-101404763D01*
X132857143Y-101452382D01*
X132761905Y-101500001D01*
X132476190Y-101500001D01*
X132380952Y-101452382D01*
X132333333Y-101404763D01*
X132285714Y-101309525D01*
X132285714Y-101166667D01*
X132333333Y-101071429D01*
X132380952Y-101023810D01*
X132476190Y-100976191D01*
X132761905Y-100976191D01*
X132857143Y-101023810D01*
X132904762Y-101071429D01*
X132952381Y-101166667D01*
X132952381Y-101309525D01*
X132952381Y-100404763D02*
X132904762Y-100500001D01*
X132809524Y-100547620D01*
X131952381Y-100547620D01*
X132904762Y-99642857D02*
X132952381Y-99738095D01*
X132952381Y-99928572D01*
X132904762Y-100023810D01*
X132809524Y-100071429D01*
X132428571Y-100071429D01*
X132333333Y-100023810D01*
X132285714Y-99928572D01*
X132285714Y-99738095D01*
X132333333Y-99642857D01*
X132428571Y-99595238D01*
X132523810Y-99595238D01*
X132619048Y-100071429D01*
X132904762Y-99214286D02*
X132952381Y-99119048D01*
X132952381Y-98928572D01*
X132904762Y-98833333D01*
X132809524Y-98785714D01*
X132761905Y-98785714D01*
X132666667Y-98833333D01*
X132619048Y-98928572D01*
X132619048Y-99071429D01*
X132571429Y-99166667D01*
X132476190Y-99214286D01*
X132428571Y-99214286D01*
X132333333Y-99166667D01*
X132285714Y-99071429D01*
X132285714Y-98928572D01*
X132333333Y-98833333D01*
X132285714Y-97738095D02*
X132285714Y-97357143D01*
X132952381Y-97595238D02*
X132095238Y-97595238D01*
X132000000Y-97547619D01*
X131952381Y-97452381D01*
X131952381Y-97357143D01*
X132952381Y-96880952D02*
X132904762Y-96976190D01*
X132857143Y-97023809D01*
X132761905Y-97071428D01*
X132476190Y-97071428D01*
X132380952Y-97023809D01*
X132333333Y-96976190D01*
X132285714Y-96880952D01*
X132285714Y-96738094D01*
X132333333Y-96642856D01*
X132380952Y-96595237D01*
X132476190Y-96547618D01*
X132761905Y-96547618D01*
X132857143Y-96595237D01*
X132904762Y-96642856D01*
X132952381Y-96738094D01*
X132952381Y-96880952D01*
X132952381Y-96119047D02*
X132285714Y-96119047D01*
X132476190Y-96119047D02*
X132380952Y-96071428D01*
X132333333Y-96023809D01*
X132285714Y-95928571D01*
X132285714Y-95833332D01*
X132285714Y-94833332D02*
X132285714Y-94309522D01*
X132952381Y-94833332D01*
X132952381Y-94309522D01*
X132952381Y-93928570D02*
X132285714Y-93928570D01*
X131952381Y-93928570D02*
X132000000Y-93976189D01*
X132047619Y-93928570D01*
X132000000Y-93880951D01*
X131952381Y-93928570D01*
X132047619Y-93928570D01*
X132285714Y-93452380D02*
X133285714Y-93452380D01*
X132333333Y-93452380D02*
X132285714Y-93357142D01*
X132285714Y-93166665D01*
X132333333Y-93071427D01*
X132380952Y-93023808D01*
X132476190Y-92976189D01*
X132761905Y-92976189D01*
X132857143Y-93023808D01*
X132904762Y-93071427D01*
X132952381Y-93166665D01*
X132952381Y-93357142D01*
X132904762Y-93452380D01*
X132285714Y-91928570D02*
X132285714Y-91547618D01*
X131952381Y-91785713D02*
X132809524Y-91785713D01*
X132904762Y-91738094D01*
X132952381Y-91642856D01*
X132952381Y-91547618D01*
X132952381Y-91214284D02*
X132285714Y-91214284D01*
X131952381Y-91214284D02*
X132000000Y-91261903D01*
X132047619Y-91214284D01*
X132000000Y-91166665D01*
X131952381Y-91214284D01*
X132047619Y-91214284D01*
X132904762Y-90357141D02*
X132952381Y-90452379D01*
X132952381Y-90642856D01*
X132904762Y-90738094D01*
X132809524Y-90785713D01*
X132428571Y-90785713D01*
X132333333Y-90738094D01*
X132285714Y-90642856D01*
X132285714Y-90452379D01*
X132333333Y-90357141D01*
X132428571Y-90309522D01*
X132523810Y-90309522D01*
X132619048Y-90785713D01*
X132904762Y-89928570D02*
X132952381Y-89833332D01*
X132952381Y-89642856D01*
X132904762Y-89547617D01*
X132809524Y-89499998D01*
X132761905Y-89499998D01*
X132666667Y-89547617D01*
X132619048Y-89642856D01*
X132619048Y-89785713D01*
X132571429Y-89880951D01*
X132476190Y-89928570D01*
X132428571Y-89928570D01*
X132333333Y-89880951D01*
X132285714Y-89785713D01*
X132285714Y-89642856D01*
X132333333Y-89547617D01*
X135666667Y-103285715D02*
X135666667Y-102809524D01*
X135952381Y-103380953D02*
X134952381Y-103047620D01*
X135952381Y-102714286D01*
X135952381Y-102380953D02*
X135285714Y-102380953D01*
X134952381Y-102380953D02*
X135000000Y-102428572D01*
X135047619Y-102380953D01*
X135000000Y-102333334D01*
X134952381Y-102380953D01*
X135047619Y-102380953D01*
X135952381Y-101904763D02*
X135285714Y-101904763D01*
X135476190Y-101904763D02*
X135380952Y-101857144D01*
X135333333Y-101809525D01*
X135285714Y-101714287D01*
X135285714Y-101619048D01*
X135904762Y-100095238D02*
X135952381Y-100190476D01*
X135952381Y-100380953D01*
X135904762Y-100476191D01*
X135857143Y-100523810D01*
X135761905Y-100571429D01*
X135476190Y-100571429D01*
X135380952Y-100523810D01*
X135333333Y-100476191D01*
X135285714Y-100380953D01*
X135285714Y-100190476D01*
X135333333Y-100095238D01*
X135952381Y-99523810D02*
X135904762Y-99619048D01*
X135857143Y-99666667D01*
X135761905Y-99714286D01*
X135476190Y-99714286D01*
X135380952Y-99666667D01*
X135333333Y-99619048D01*
X135285714Y-99523810D01*
X135285714Y-99380952D01*
X135333333Y-99285714D01*
X135380952Y-99238095D01*
X135476190Y-99190476D01*
X135761905Y-99190476D01*
X135857143Y-99238095D01*
X135904762Y-99285714D01*
X135952381Y-99380952D01*
X135952381Y-99523810D01*
X135952381Y-98761905D02*
X135285714Y-98761905D01*
X135476190Y-98761905D02*
X135380952Y-98714286D01*
X135333333Y-98666667D01*
X135285714Y-98571429D01*
X135285714Y-98476190D01*
X135904762Y-97761904D02*
X135952381Y-97857142D01*
X135952381Y-98047619D01*
X135904762Y-98142857D01*
X135809524Y-98190476D01*
X135428571Y-98190476D01*
X135333333Y-98142857D01*
X135285714Y-98047619D01*
X135285714Y-97857142D01*
X135333333Y-97761904D01*
X135428571Y-97714285D01*
X135523810Y-97714285D01*
X135619048Y-98190476D01*
X133547619Y-110714287D02*
X133500000Y-110666668D01*
X133452381Y-110571430D01*
X133452381Y-110333334D01*
X133500000Y-110238096D01*
X133547619Y-110190477D01*
X133642857Y-110142858D01*
X133738095Y-110142858D01*
X133880952Y-110190477D01*
X134452381Y-110761906D01*
X134452381Y-110142858D01*
X133785714Y-109285715D02*
X134452381Y-109285715D01*
X133404762Y-109523811D02*
X134119048Y-109761906D01*
X134119048Y-109142858D01*
X133785714Y-108142858D02*
X133785714Y-107761906D01*
X133452381Y-108000001D02*
X134309524Y-108000001D01*
X134404762Y-107952382D01*
X134452381Y-107857144D01*
X134452381Y-107761906D01*
X133785714Y-107000000D02*
X134452381Y-107000000D01*
X133785714Y-107428572D02*
X134309524Y-107428572D01*
X134404762Y-107380953D01*
X134452381Y-107285715D01*
X134452381Y-107142857D01*
X134404762Y-107047619D01*
X134357143Y-107000000D01*
X134452381Y-106523810D02*
X133785714Y-106523810D01*
X133976190Y-106523810D02*
X133880952Y-106476191D01*
X133833333Y-106428572D01*
X133785714Y-106333334D01*
X133785714Y-106238095D01*
X133785714Y-105904762D02*
X134452381Y-105904762D01*
X133880952Y-105904762D02*
X133833333Y-105857143D01*
X133785714Y-105761905D01*
X133785714Y-105619047D01*
X133833333Y-105523809D01*
X133928571Y-105476190D01*
X134452381Y-105476190D01*
X134404762Y-105047619D02*
X134452381Y-104952381D01*
X134452381Y-104761905D01*
X134404762Y-104666666D01*
X134309524Y-104619047D01*
X134261905Y-104619047D01*
X134166667Y-104666666D01*
X134119048Y-104761905D01*
X134119048Y-104904762D01*
X134071429Y-105000000D01*
X133976190Y-105047619D01*
X133928571Y-105047619D01*
X133833333Y-105000000D01*
X133785714Y-104904762D01*
X133785714Y-104761905D01*
X133833333Y-104666666D01*
X134452381Y-103285714D02*
X134404762Y-103380952D01*
X134357143Y-103428571D01*
X134261905Y-103476190D01*
X133976190Y-103476190D01*
X133880952Y-103428571D01*
X133833333Y-103380952D01*
X133785714Y-103285714D01*
X133785714Y-103142856D01*
X133833333Y-103047618D01*
X133880952Y-102999999D01*
X133976190Y-102952380D01*
X134261905Y-102952380D01*
X134357143Y-102999999D01*
X134404762Y-103047618D01*
X134452381Y-103142856D01*
X134452381Y-103285714D01*
X133785714Y-102523809D02*
X134452381Y-102523809D01*
X133880952Y-102523809D02*
X133833333Y-102476190D01*
X133785714Y-102380952D01*
X133785714Y-102238094D01*
X133833333Y-102142856D01*
X133928571Y-102095237D01*
X134452381Y-102095237D01*
X134452381Y-100333332D02*
X134452381Y-100904761D01*
X134452381Y-100619047D02*
X133452381Y-100619047D01*
X133595238Y-100714285D01*
X133690476Y-100809523D01*
X133738095Y-100904761D01*
X133452381Y-99714285D02*
X133452381Y-99619046D01*
X133500000Y-99523808D01*
X133547619Y-99476189D01*
X133642857Y-99428570D01*
X133833333Y-99380951D01*
X134071429Y-99380951D01*
X134261905Y-99428570D01*
X134357143Y-99476189D01*
X134404762Y-99523808D01*
X134452381Y-99619046D01*
X134452381Y-99714285D01*
X134404762Y-99809523D01*
X134357143Y-99857142D01*
X134261905Y-99904761D01*
X134071429Y-99952380D01*
X133833333Y-99952380D01*
X133642857Y-99904761D01*
X133547619Y-99857142D01*
X133500000Y-99809523D01*
X133452381Y-99714285D01*
X134452381Y-98190475D02*
X133785714Y-98190475D01*
X133880952Y-98190475D02*
X133833333Y-98142856D01*
X133785714Y-98047618D01*
X133785714Y-97904760D01*
X133833333Y-97809522D01*
X133928571Y-97761903D01*
X134452381Y-97761903D01*
X133928571Y-97761903D02*
X133833333Y-97714284D01*
X133785714Y-97619046D01*
X133785714Y-97476189D01*
X133833333Y-97380951D01*
X133928571Y-97333332D01*
X134452381Y-97333332D01*
X134452381Y-96857142D02*
X133785714Y-96857142D01*
X133880952Y-96857142D02*
X133833333Y-96809523D01*
X133785714Y-96714285D01*
X133785714Y-96571427D01*
X133833333Y-96476189D01*
X133928571Y-96428570D01*
X134452381Y-96428570D01*
X133928571Y-96428570D02*
X133833333Y-96380951D01*
X133785714Y-96285713D01*
X133785714Y-96142856D01*
X133833333Y-96047618D01*
X133928571Y-95999999D01*
X134452381Y-95999999D01*
X133785714Y-94904761D02*
X133785714Y-94523809D01*
X134452381Y-94761904D02*
X133595238Y-94761904D01*
X133500000Y-94714285D01*
X133452381Y-94619047D01*
X133452381Y-94523809D01*
X134452381Y-94047618D02*
X134404762Y-94142856D01*
X134357143Y-94190475D01*
X134261905Y-94238094D01*
X133976190Y-94238094D01*
X133880952Y-94190475D01*
X133833333Y-94142856D01*
X133785714Y-94047618D01*
X133785714Y-93904760D01*
X133833333Y-93809522D01*
X133880952Y-93761903D01*
X133976190Y-93714284D01*
X134261905Y-93714284D01*
X134357143Y-93761903D01*
X134404762Y-93809522D01*
X134452381Y-93904760D01*
X134452381Y-94047618D01*
X134452381Y-93285713D02*
X133785714Y-93285713D01*
X133976190Y-93285713D02*
X133880952Y-93238094D01*
X133833333Y-93190475D01*
X133785714Y-93095237D01*
X133785714Y-92999998D01*
X134452381Y-92666665D02*
X133785714Y-92666665D01*
X133880952Y-92666665D02*
X133833333Y-92619046D01*
X133785714Y-92523808D01*
X133785714Y-92380950D01*
X133833333Y-92285712D01*
X133928571Y-92238093D01*
X134452381Y-92238093D01*
X133928571Y-92238093D02*
X133833333Y-92190474D01*
X133785714Y-92095236D01*
X133785714Y-91952379D01*
X133833333Y-91857141D01*
X133928571Y-91809522D01*
X134452381Y-91809522D01*
X134404762Y-90952379D02*
X134452381Y-91047617D01*
X134452381Y-91238094D01*
X134404762Y-91333332D01*
X134309524Y-91380951D01*
X133928571Y-91380951D01*
X133833333Y-91333332D01*
X133785714Y-91238094D01*
X133785714Y-91047617D01*
X133833333Y-90952379D01*
X133928571Y-90904760D01*
X134023810Y-90904760D01*
X134119048Y-91380951D01*
X134452381Y-90476189D02*
X133785714Y-90476189D01*
X133976190Y-90476189D02*
X133880952Y-90428570D01*
X133833333Y-90380951D01*
X133785714Y-90285713D01*
X133785714Y-90190474D01*
M02*
