G04 #@! TF.FileFunction,Copper,L1,Top,Signal*
%FSLAX46Y46*%
G04 Gerber Fmt 4.6, Leading zero omitted, Abs format (unit mm)*
G04 Created by KiCad (PCBNEW 4.0.5+dfsg1-4) date Sun Mar 18 22:08:50 2018*
%MOMM*%
%LPD*%
G01*
G04 APERTURE LIST*
%ADD10C,0.100000*%
%ADD11C,0.300000*%
%ADD12C,0.250000*%
%ADD13C,4.064000*%
%ADD14R,2.235200X2.235200*%
%ADD15R,2.032000X2.032000*%
%ADD16O,2.032000X2.032000*%
%ADD17C,1.422400*%
%ADD18C,1.998980*%
%ADD19R,1.998980X1.998980*%
%ADD20C,2.000000*%
%ADD21C,1.524000*%
%ADD22C,1.000000*%
G04 APERTURE END LIST*
D10*
D11*
X88142857Y-79000000D02*
X88285714Y-79071429D01*
X88500000Y-79071429D01*
X88714285Y-79000000D01*
X88857143Y-78857143D01*
X88928571Y-78714286D01*
X89000000Y-78428571D01*
X89000000Y-78214286D01*
X88928571Y-77928571D01*
X88857143Y-77785714D01*
X88714285Y-77642857D01*
X88500000Y-77571429D01*
X88357143Y-77571429D01*
X88142857Y-77642857D01*
X88071428Y-77714286D01*
X88071428Y-78214286D01*
X88357143Y-78214286D01*
X87428571Y-77571429D02*
X87428571Y-79071429D01*
X86571428Y-77571429D01*
X86571428Y-79071429D01*
X85857142Y-77571429D02*
X85857142Y-79071429D01*
X85499999Y-79071429D01*
X85285714Y-79000000D01*
X85142856Y-78857143D01*
X85071428Y-78714286D01*
X84999999Y-78428571D01*
X84999999Y-78214286D01*
X85071428Y-77928571D01*
X85142856Y-77785714D01*
X85285714Y-77642857D01*
X85499999Y-77571429D01*
X85857142Y-77571429D01*
X66287944Y-81310533D02*
X65479822Y-82118655D01*
X65479823Y-81310533D02*
X66287945Y-82118655D01*
X64520178Y-82270178D02*
X64318147Y-82472209D01*
X64267639Y-82623731D01*
X64267640Y-82724746D01*
X64318146Y-82977285D01*
X64469670Y-83229823D01*
X64873731Y-83633883D01*
X65025253Y-83684391D01*
X65126269Y-83684391D01*
X65277792Y-83633884D01*
X65479822Y-83431854D01*
X65530330Y-83280330D01*
X65530329Y-83179315D01*
X65479822Y-83027792D01*
X65227284Y-82775254D01*
X65075761Y-82724746D01*
X64974746Y-82724746D01*
X64823223Y-82775254D01*
X64621192Y-82977285D01*
X64570685Y-83128808D01*
X64570684Y-83229823D01*
X64621192Y-83381345D01*
X64772716Y-84138960D02*
X63358503Y-83431853D01*
X64065609Y-84846067D01*
D12*
X52500000Y-86488096D02*
X52547619Y-86392858D01*
X52547619Y-86250001D01*
X52500000Y-86107143D01*
X52404762Y-86011905D01*
X52309524Y-85964286D01*
X52119048Y-85916667D01*
X51976190Y-85916667D01*
X51785714Y-85964286D01*
X51690476Y-86011905D01*
X51595238Y-86107143D01*
X51547619Y-86250001D01*
X51547619Y-86345239D01*
X51595238Y-86488096D01*
X51642857Y-86535715D01*
X51976190Y-86535715D01*
X51976190Y-86345239D01*
X51547619Y-86964286D02*
X52547619Y-86964286D01*
X51547619Y-87535715D01*
X52547619Y-87535715D01*
X51547619Y-88011905D02*
X52547619Y-88011905D01*
X52547619Y-88250000D01*
X52500000Y-88392858D01*
X52404762Y-88488096D01*
X52309524Y-88535715D01*
X52119048Y-88583334D01*
X51976190Y-88583334D01*
X51785714Y-88535715D01*
X51690476Y-88488096D01*
X51595238Y-88392858D01*
X51547619Y-88250000D01*
X51547619Y-88011905D01*
X56428571Y-96214286D02*
X56428571Y-96976191D01*
X56047619Y-96595239D02*
X56809524Y-96595239D01*
X56047619Y-97500000D02*
X56047619Y-97690476D01*
X56095238Y-97785715D01*
X56142857Y-97833334D01*
X56285714Y-97928572D01*
X56476190Y-97976191D01*
X56857143Y-97976191D01*
X56952381Y-97928572D01*
X57000000Y-97880953D01*
X57047619Y-97785715D01*
X57047619Y-97595238D01*
X57000000Y-97500000D01*
X56952381Y-97452381D01*
X56857143Y-97404762D01*
X56619048Y-97404762D01*
X56523810Y-97452381D01*
X56476190Y-97500000D01*
X56428571Y-97595238D01*
X56428571Y-97785715D01*
X56476190Y-97880953D01*
X56523810Y-97928572D01*
X56619048Y-97976191D01*
X57047619Y-98261905D02*
X56047619Y-98595238D01*
X57047619Y-98928572D01*
D11*
X143128571Y-112571427D02*
X141628571Y-112571427D01*
X143128571Y-111714284D02*
X142271429Y-112357141D01*
X141628571Y-111714284D02*
X142485714Y-112571427D01*
X143128571Y-111071427D02*
X142128571Y-111071427D01*
X141628571Y-111071427D02*
X141700000Y-111142856D01*
X141771429Y-111071427D01*
X141700000Y-110999999D01*
X141628571Y-111071427D01*
X141771429Y-111071427D01*
X142985714Y-109499998D02*
X143057143Y-109571427D01*
X143128571Y-109785713D01*
X143128571Y-109928570D01*
X143057143Y-110142855D01*
X142914286Y-110285713D01*
X142771429Y-110357141D01*
X142485714Y-110428570D01*
X142271429Y-110428570D01*
X141985714Y-110357141D01*
X141842857Y-110285713D01*
X141700000Y-110142855D01*
X141628571Y-109928570D01*
X141628571Y-109785713D01*
X141700000Y-109571427D01*
X141771429Y-109499998D01*
X142700000Y-108928570D02*
X142700000Y-108214284D01*
X143128571Y-109071427D02*
X141628571Y-108571427D01*
X143128571Y-108071427D01*
X143128571Y-107571427D02*
X141628571Y-107571427D01*
X141628571Y-107214284D01*
X141700000Y-106999999D01*
X141842857Y-106857141D01*
X141985714Y-106785713D01*
X142271429Y-106714284D01*
X142485714Y-106714284D01*
X142771429Y-106785713D01*
X142914286Y-106857141D01*
X143057143Y-106999999D01*
X143128571Y-107214284D01*
X143128571Y-107571427D01*
X143128571Y-104285713D02*
X141628571Y-104285713D01*
X143057143Y-104285713D02*
X143128571Y-104428570D01*
X143128571Y-104714284D01*
X143057143Y-104857142D01*
X142985714Y-104928570D01*
X142842857Y-104999999D01*
X142414286Y-104999999D01*
X142271429Y-104928570D01*
X142200000Y-104857142D01*
X142128571Y-104714284D01*
X142128571Y-104428570D01*
X142200000Y-104285713D01*
X143057143Y-102999999D02*
X143128571Y-103142856D01*
X143128571Y-103428570D01*
X143057143Y-103571427D01*
X142914286Y-103642856D01*
X142342857Y-103642856D01*
X142200000Y-103571427D01*
X142128571Y-103428570D01*
X142128571Y-103142856D01*
X142200000Y-102999999D01*
X142342857Y-102928570D01*
X142485714Y-102928570D01*
X142628571Y-103642856D01*
X143128571Y-102285713D02*
X142128571Y-102285713D01*
X142271429Y-102285713D02*
X142200000Y-102214285D01*
X142128571Y-102071427D01*
X142128571Y-101857142D01*
X142200000Y-101714285D01*
X142342857Y-101642856D01*
X143128571Y-101642856D01*
X142342857Y-101642856D02*
X142200000Y-101571427D01*
X142128571Y-101428570D01*
X142128571Y-101214285D01*
X142200000Y-101071427D01*
X142342857Y-100999999D01*
X143128571Y-100999999D01*
X143128571Y-100071427D02*
X143057143Y-100214285D01*
X142985714Y-100285713D01*
X142842857Y-100357142D01*
X142414286Y-100357142D01*
X142271429Y-100285713D01*
X142200000Y-100214285D01*
X142128571Y-100071427D01*
X142128571Y-99857142D01*
X142200000Y-99714285D01*
X142271429Y-99642856D01*
X142414286Y-99571427D01*
X142842857Y-99571427D01*
X142985714Y-99642856D01*
X143057143Y-99714285D01*
X143128571Y-99857142D01*
X143128571Y-100071427D01*
X142128571Y-97999999D02*
X142128571Y-97428570D01*
X143128571Y-97785713D02*
X141842857Y-97785713D01*
X141700000Y-97714285D01*
X141628571Y-97571427D01*
X141628571Y-97428570D01*
X143128571Y-96714284D02*
X143057143Y-96857142D01*
X142985714Y-96928570D01*
X142842857Y-96999999D01*
X142414286Y-96999999D01*
X142271429Y-96928570D01*
X142200000Y-96857142D01*
X142128571Y-96714284D01*
X142128571Y-96499999D01*
X142200000Y-96357142D01*
X142271429Y-96285713D01*
X142414286Y-96214284D01*
X142842857Y-96214284D01*
X142985714Y-96285713D01*
X143057143Y-96357142D01*
X143128571Y-96499999D01*
X143128571Y-96714284D01*
X143128571Y-95571427D02*
X142128571Y-95571427D01*
X142414286Y-95571427D02*
X142271429Y-95499999D01*
X142200000Y-95428570D01*
X142128571Y-95285713D01*
X142128571Y-95142856D01*
X143057143Y-93571428D02*
X143128571Y-93357142D01*
X143128571Y-92999999D01*
X143057143Y-92857142D01*
X142985714Y-92785713D01*
X142842857Y-92714285D01*
X142700000Y-92714285D01*
X142557143Y-92785713D01*
X142485714Y-92857142D01*
X142414286Y-92999999D01*
X142342857Y-93285713D01*
X142271429Y-93428571D01*
X142200000Y-93499999D01*
X142057143Y-93571428D01*
X141914286Y-93571428D01*
X141771429Y-93499999D01*
X141700000Y-93428571D01*
X141628571Y-93285713D01*
X141628571Y-92928571D01*
X141700000Y-92714285D01*
X143128571Y-92071428D02*
X141628571Y-92071428D01*
X143128571Y-91214285D02*
X142271429Y-91857142D01*
X141628571Y-91214285D02*
X142485714Y-92071428D01*
X141771429Y-90642857D02*
X141700000Y-90571428D01*
X141628571Y-90428571D01*
X141628571Y-90071428D01*
X141700000Y-89928571D01*
X141771429Y-89857142D01*
X141914286Y-89785714D01*
X142057143Y-89785714D01*
X142271429Y-89857142D01*
X143128571Y-90714285D01*
X143128571Y-89785714D01*
X142700000Y-89214286D02*
X142700000Y-88500000D01*
X143128571Y-89357143D02*
X141628571Y-88857143D01*
X143128571Y-88357143D01*
X141628571Y-88071429D02*
X141628571Y-87214286D01*
X143128571Y-87642857D02*
X141628571Y-87642857D01*
X144678571Y-113107142D02*
X145678571Y-113107142D01*
X144107143Y-113464285D02*
X145178571Y-113821428D01*
X145178571Y-112892856D01*
X144178571Y-112035714D02*
X144178571Y-111892857D01*
X144250000Y-111750000D01*
X144321429Y-111678571D01*
X144464286Y-111607142D01*
X144750000Y-111535714D01*
X145107143Y-111535714D01*
X145392857Y-111607142D01*
X145535714Y-111678571D01*
X145607143Y-111750000D01*
X145678571Y-111892857D01*
X145678571Y-112035714D01*
X145607143Y-112178571D01*
X145535714Y-112250000D01*
X145392857Y-112321428D01*
X145107143Y-112392857D01*
X144750000Y-112392857D01*
X144464286Y-112321428D01*
X144321429Y-112250000D01*
X144250000Y-112178571D01*
X144178571Y-112035714D01*
X145678571Y-109750000D02*
X144678571Y-109750000D01*
X144821429Y-109750000D02*
X144750000Y-109678572D01*
X144678571Y-109535714D01*
X144678571Y-109321429D01*
X144750000Y-109178572D01*
X144892857Y-109107143D01*
X145678571Y-109107143D01*
X144892857Y-109107143D02*
X144750000Y-109035714D01*
X144678571Y-108892857D01*
X144678571Y-108678572D01*
X144750000Y-108535714D01*
X144892857Y-108464286D01*
X145678571Y-108464286D01*
X145607143Y-107178572D02*
X145678571Y-107321429D01*
X145678571Y-107607143D01*
X145607143Y-107750000D01*
X145464286Y-107821429D01*
X144892857Y-107821429D01*
X144750000Y-107750000D01*
X144678571Y-107607143D01*
X144678571Y-107321429D01*
X144750000Y-107178572D01*
X144892857Y-107107143D01*
X145035714Y-107107143D01*
X145178571Y-107821429D01*
X144678571Y-106678572D02*
X144678571Y-106107143D01*
X144178571Y-106464286D02*
X145464286Y-106464286D01*
X145607143Y-106392858D01*
X145678571Y-106250000D01*
X145678571Y-106107143D01*
X145607143Y-105035715D02*
X145678571Y-105178572D01*
X145678571Y-105464286D01*
X145607143Y-105607143D01*
X145464286Y-105678572D01*
X144892857Y-105678572D01*
X144750000Y-105607143D01*
X144678571Y-105464286D01*
X144678571Y-105178572D01*
X144750000Y-105035715D01*
X144892857Y-104964286D01*
X145035714Y-104964286D01*
X145178571Y-105678572D01*
X145678571Y-104321429D02*
X144678571Y-104321429D01*
X144964286Y-104321429D02*
X144821429Y-104250001D01*
X144750000Y-104178572D01*
X144678571Y-104035715D01*
X144678571Y-103892858D01*
X145535714Y-101392858D02*
X145607143Y-101464287D01*
X145678571Y-101678573D01*
X145678571Y-101821430D01*
X145607143Y-102035715D01*
X145464286Y-102178573D01*
X145321429Y-102250001D01*
X145035714Y-102321430D01*
X144821429Y-102321430D01*
X144535714Y-102250001D01*
X144392857Y-102178573D01*
X144250000Y-102035715D01*
X144178571Y-101821430D01*
X144178571Y-101678573D01*
X144250000Y-101464287D01*
X144321429Y-101392858D01*
X144178571Y-100892858D02*
X145678571Y-100535715D01*
X144607143Y-100250001D01*
X145678571Y-99964287D01*
X144178571Y-99607144D01*
X144678571Y-98107144D02*
X144678571Y-97535715D01*
X144178571Y-97892858D02*
X145464286Y-97892858D01*
X145607143Y-97821430D01*
X145678571Y-97678572D01*
X145678571Y-97535715D01*
X145678571Y-97035715D02*
X144678571Y-97035715D01*
X144964286Y-97035715D02*
X144821429Y-96964287D01*
X144750000Y-96892858D01*
X144678571Y-96750001D01*
X144678571Y-96607144D01*
X145678571Y-95464287D02*
X144892857Y-95464287D01*
X144750000Y-95535716D01*
X144678571Y-95678573D01*
X144678571Y-95964287D01*
X144750000Y-96107144D01*
X145607143Y-95464287D02*
X145678571Y-95607144D01*
X145678571Y-95964287D01*
X145607143Y-96107144D01*
X145464286Y-96178573D01*
X145321429Y-96178573D01*
X145178571Y-96107144D01*
X145107143Y-95964287D01*
X145107143Y-95607144D01*
X145035714Y-95464287D01*
X144678571Y-94750001D02*
X145678571Y-94750001D01*
X144821429Y-94750001D02*
X144750000Y-94678573D01*
X144678571Y-94535715D01*
X144678571Y-94321430D01*
X144750000Y-94178573D01*
X144892857Y-94107144D01*
X145678571Y-94107144D01*
X145607143Y-93464287D02*
X145678571Y-93321430D01*
X145678571Y-93035715D01*
X145607143Y-92892858D01*
X145464286Y-92821430D01*
X145392857Y-92821430D01*
X145250000Y-92892858D01*
X145178571Y-93035715D01*
X145178571Y-93250001D01*
X145107143Y-93392858D01*
X144964286Y-93464287D01*
X144892857Y-93464287D01*
X144750000Y-93392858D01*
X144678571Y-93250001D01*
X144678571Y-93035715D01*
X144750000Y-92892858D01*
X145678571Y-92178572D02*
X144678571Y-92178572D01*
X144821429Y-92178572D02*
X144750000Y-92107144D01*
X144678571Y-91964286D01*
X144678571Y-91750001D01*
X144750000Y-91607144D01*
X144892857Y-91535715D01*
X145678571Y-91535715D01*
X144892857Y-91535715D02*
X144750000Y-91464286D01*
X144678571Y-91321429D01*
X144678571Y-91107144D01*
X144750000Y-90964286D01*
X144892857Y-90892858D01*
X145678571Y-90892858D01*
X145678571Y-90178572D02*
X144678571Y-90178572D01*
X144178571Y-90178572D02*
X144250000Y-90250001D01*
X144321429Y-90178572D01*
X144250000Y-90107144D01*
X144178571Y-90178572D01*
X144321429Y-90178572D01*
X144678571Y-89678572D02*
X144678571Y-89107143D01*
X144178571Y-89464286D02*
X145464286Y-89464286D01*
X145607143Y-89392858D01*
X145678571Y-89250000D01*
X145678571Y-89107143D01*
X144678571Y-88821429D02*
X144678571Y-88250000D01*
X144178571Y-88607143D02*
X145464286Y-88607143D01*
X145607143Y-88535715D01*
X145678571Y-88392857D01*
X145678571Y-88250000D01*
X145607143Y-87178572D02*
X145678571Y-87321429D01*
X145678571Y-87607143D01*
X145607143Y-87750000D01*
X145464286Y-87821429D01*
X144892857Y-87821429D01*
X144750000Y-87750000D01*
X144678571Y-87607143D01*
X144678571Y-87321429D01*
X144750000Y-87178572D01*
X144892857Y-87107143D01*
X145035714Y-87107143D01*
X145178571Y-87821429D01*
X145678571Y-86464286D02*
X144678571Y-86464286D01*
X144964286Y-86464286D02*
X144821429Y-86392858D01*
X144750000Y-86321429D01*
X144678571Y-86178572D01*
X144678571Y-86035715D01*
X148228571Y-105678570D02*
X146728571Y-105678570D01*
X147300000Y-105678570D02*
X147228571Y-105535713D01*
X147228571Y-105249999D01*
X147300000Y-105107142D01*
X147371429Y-105035713D01*
X147514286Y-104964284D01*
X147942857Y-104964284D01*
X148085714Y-105035713D01*
X148157143Y-105107142D01*
X148228571Y-105249999D01*
X148228571Y-105535713D01*
X148157143Y-105678570D01*
X147228571Y-104464284D02*
X148228571Y-104107141D01*
X147228571Y-103749999D02*
X148228571Y-104107141D01*
X148585714Y-104249999D01*
X148657143Y-104321427D01*
X148728571Y-104464284D01*
X148157143Y-102107142D02*
X148228571Y-101892856D01*
X148228571Y-101535713D01*
X148157143Y-101392856D01*
X148085714Y-101321427D01*
X147942857Y-101249999D01*
X147800000Y-101249999D01*
X147657143Y-101321427D01*
X147585714Y-101392856D01*
X147514286Y-101535713D01*
X147442857Y-101821427D01*
X147371429Y-101964285D01*
X147300000Y-102035713D01*
X147157143Y-102107142D01*
X147014286Y-102107142D01*
X146871429Y-102035713D01*
X146800000Y-101964285D01*
X146728571Y-101821427D01*
X146728571Y-101464285D01*
X146800000Y-101249999D01*
X147800000Y-100678571D02*
X147800000Y-99964285D01*
X148228571Y-100821428D02*
X146728571Y-100321428D01*
X148228571Y-99821428D01*
X146871429Y-99392857D02*
X146800000Y-99321428D01*
X146728571Y-99178571D01*
X146728571Y-98821428D01*
X146800000Y-98678571D01*
X146871429Y-98607142D01*
X147014286Y-98535714D01*
X147157143Y-98535714D01*
X147371429Y-98607142D01*
X148228571Y-99464285D01*
X148228571Y-98535714D01*
X146728571Y-98107143D02*
X146728571Y-97250000D01*
X148228571Y-97678571D02*
X146728571Y-97678571D01*
X148228571Y-96750000D02*
X146728571Y-96750000D01*
X147800000Y-96250000D01*
X146728571Y-95750000D01*
X148228571Y-95750000D01*
X148157143Y-95107143D02*
X148228571Y-94892857D01*
X148228571Y-94535714D01*
X148157143Y-94392857D01*
X148085714Y-94321428D01*
X147942857Y-94250000D01*
X147800000Y-94250000D01*
X147657143Y-94321428D01*
X147585714Y-94392857D01*
X147514286Y-94535714D01*
X147442857Y-94821428D01*
X147371429Y-94964286D01*
X147300000Y-95035714D01*
X147157143Y-95107143D01*
X147014286Y-95107143D01*
X146871429Y-95035714D01*
X146800000Y-94964286D01*
X146728571Y-94821428D01*
X146728571Y-94464286D01*
X146800000Y-94250000D01*
D13*
X55000000Y-80000000D03*
X55000000Y-120000000D03*
X145000000Y-120000000D03*
D14*
X135000000Y-77500000D03*
D15*
X54500000Y-90460000D03*
D16*
X54500000Y-93000000D03*
D17*
X64250000Y-98500000D03*
X64250000Y-93420000D03*
D18*
X65500040Y-86000000D03*
X85500000Y-86000000D03*
D13*
X145000000Y-80000000D03*
D10*
G36*
X53301120Y-101086940D02*
X55698880Y-101086940D01*
X55300100Y-104587060D01*
X53699900Y-104587060D01*
X53301120Y-101086940D01*
X53301120Y-101086940D01*
G37*
G36*
X55698880Y-109413060D02*
X53301120Y-109413060D01*
X53699900Y-105912940D01*
X55300100Y-105912940D01*
X55698880Y-109413060D01*
X55698880Y-109413060D01*
G37*
D19*
X54500000Y-100248740D03*
X54500000Y-110251260D03*
D10*
G36*
X69164320Y-103801120D02*
X69164320Y-106198880D01*
X65664200Y-105800100D01*
X65664200Y-104199900D01*
X69164320Y-103801120D01*
X69164320Y-103801120D01*
G37*
G36*
X60838200Y-106198880D02*
X60838200Y-103801120D01*
X64338320Y-104199900D01*
X64338320Y-105800100D01*
X60838200Y-106198880D01*
X60838200Y-106198880D01*
G37*
D19*
X70002520Y-105000000D03*
X60000000Y-105000000D03*
D10*
G36*
X87301120Y-83838200D02*
X89698880Y-83838200D01*
X89300100Y-87338320D01*
X87699900Y-87338320D01*
X87301120Y-83838200D01*
X87301120Y-83838200D01*
G37*
G36*
X89698880Y-92164320D02*
X87301120Y-92164320D01*
X87699900Y-88664200D01*
X89300100Y-88664200D01*
X89698880Y-92164320D01*
X89698880Y-92164320D01*
G37*
D19*
X88500000Y-83000000D03*
X88500000Y-93002520D03*
D10*
G36*
X92301120Y-83838200D02*
X94698880Y-83838200D01*
X94300100Y-87338320D01*
X92699900Y-87338320D01*
X92301120Y-83838200D01*
X92301120Y-83838200D01*
G37*
G36*
X94698880Y-92164320D02*
X92301120Y-92164320D01*
X92699900Y-88664200D01*
X94300100Y-88664200D01*
X94698880Y-92164320D01*
X94698880Y-92164320D01*
G37*
D19*
X93500000Y-83000000D03*
X93500000Y-93002520D03*
D10*
G36*
X97301120Y-83838200D02*
X99698880Y-83838200D01*
X99300100Y-87338320D01*
X97699900Y-87338320D01*
X97301120Y-83838200D01*
X97301120Y-83838200D01*
G37*
G36*
X99698880Y-92164320D02*
X97301120Y-92164320D01*
X97699900Y-88664200D01*
X99300100Y-88664200D01*
X99698880Y-92164320D01*
X99698880Y-92164320D01*
G37*
D19*
X98500000Y-83000000D03*
X98500000Y-93002520D03*
D10*
G36*
X89338200Y-121698880D02*
X89338200Y-119301120D01*
X92838320Y-119699900D01*
X92838320Y-121300100D01*
X89338200Y-121698880D01*
X89338200Y-121698880D01*
G37*
G36*
X97664320Y-119301120D02*
X97664320Y-121698880D01*
X94164200Y-121300100D01*
X94164200Y-119699900D01*
X97664320Y-119301120D01*
X97664320Y-119301120D01*
G37*
D19*
X88500000Y-120500000D03*
X98502520Y-120500000D03*
D10*
G36*
X89338200Y-116698880D02*
X89338200Y-114301120D01*
X92838320Y-114699900D01*
X92838320Y-116300100D01*
X89338200Y-116698880D01*
X89338200Y-116698880D01*
G37*
G36*
X97664320Y-114301120D02*
X97664320Y-116698880D01*
X94164200Y-116300100D01*
X94164200Y-114699900D01*
X97664320Y-114301120D01*
X97664320Y-114301120D01*
G37*
D19*
X88500000Y-115500000D03*
X98502520Y-115500000D03*
D10*
G36*
X89338200Y-111698880D02*
X89338200Y-109301120D01*
X92838320Y-109699900D01*
X92838320Y-111300100D01*
X89338200Y-111698880D01*
X89338200Y-111698880D01*
G37*
G36*
X97664320Y-109301120D02*
X97664320Y-111698880D01*
X94164200Y-111300100D01*
X94164200Y-109699900D01*
X97664320Y-109301120D01*
X97664320Y-109301120D01*
G37*
D19*
X88500000Y-110500000D03*
X98502520Y-110500000D03*
D10*
G36*
X123552945Y-119228481D02*
X123552945Y-121626241D01*
X120052825Y-121227461D01*
X120052825Y-119627261D01*
X123552945Y-119228481D01*
X123552945Y-119228481D01*
G37*
G36*
X115226825Y-121626241D02*
X115226825Y-119228481D01*
X118726945Y-119627261D01*
X118726945Y-121227461D01*
X115226825Y-121626241D01*
X115226825Y-121626241D01*
G37*
D19*
X124391145Y-120427361D03*
X114388625Y-120427361D03*
D10*
G36*
X123552945Y-114228481D02*
X123552945Y-116626241D01*
X120052825Y-116227461D01*
X120052825Y-114627261D01*
X123552945Y-114228481D01*
X123552945Y-114228481D01*
G37*
G36*
X115226825Y-116626241D02*
X115226825Y-114228481D01*
X118726945Y-114627261D01*
X118726945Y-116227461D01*
X115226825Y-116626241D01*
X115226825Y-116626241D01*
G37*
D19*
X124391145Y-115427361D03*
X114388625Y-115427361D03*
D10*
G36*
X123552945Y-109228481D02*
X123552945Y-111626241D01*
X120052825Y-111227461D01*
X120052825Y-109627261D01*
X123552945Y-109228481D01*
X123552945Y-109228481D01*
G37*
G36*
X115226825Y-111626241D02*
X115226825Y-109228481D01*
X118726945Y-109627261D01*
X118726945Y-111227461D01*
X115226825Y-111626241D01*
X115226825Y-111626241D01*
G37*
D19*
X124391145Y-110427361D03*
X114388625Y-110427361D03*
D10*
G36*
X123684927Y-91801120D02*
X123684927Y-94198880D01*
X120184807Y-93800100D01*
X120184807Y-92199900D01*
X123684927Y-91801120D01*
X123684927Y-91801120D01*
G37*
G36*
X115358807Y-94198880D02*
X115358807Y-91801120D01*
X118858927Y-92199900D01*
X118858927Y-93800100D01*
X115358807Y-94198880D01*
X115358807Y-94198880D01*
G37*
D19*
X124523127Y-93000000D03*
X114520607Y-93000000D03*
D10*
G36*
X123684927Y-86626952D02*
X123684927Y-89024712D01*
X120184807Y-88625932D01*
X120184807Y-87025732D01*
X123684927Y-86626952D01*
X123684927Y-86626952D01*
G37*
G36*
X115358807Y-89024712D02*
X115358807Y-86626952D01*
X118858927Y-87025732D01*
X118858927Y-88625932D01*
X115358807Y-89024712D01*
X115358807Y-89024712D01*
G37*
D19*
X124523127Y-87825832D03*
X114520607Y-87825832D03*
D10*
G36*
X123684927Y-81801120D02*
X123684927Y-84198880D01*
X120184807Y-83800100D01*
X120184807Y-82199900D01*
X123684927Y-81801120D01*
X123684927Y-81801120D01*
G37*
G36*
X115358807Y-84198880D02*
X115358807Y-81801120D01*
X118858927Y-82199900D01*
X118858927Y-83800100D01*
X115358807Y-84198880D01*
X115358807Y-84198880D01*
G37*
D19*
X124523127Y-83000000D03*
X114520607Y-83000000D03*
D20*
X69000000Y-118000000D03*
X69000000Y-113500000D03*
X75500000Y-118000000D03*
X75500000Y-113500000D03*
D21*
X84540000Y-98960000D03*
X82000000Y-101500000D03*
X82000000Y-96420000D03*
D10*
G36*
X60698880Y-99163060D02*
X58301120Y-99163060D01*
X58699900Y-95662940D01*
X60300100Y-95662940D01*
X60698880Y-99163060D01*
X60698880Y-99163060D01*
G37*
G36*
X58301120Y-90836940D02*
X60698880Y-90836940D01*
X60300100Y-94337060D01*
X58699900Y-94337060D01*
X58301120Y-90836940D01*
X58301120Y-90836940D01*
G37*
D19*
X59500000Y-100001260D03*
X59500000Y-89998740D03*
D20*
X133000000Y-119750000D03*
X133000000Y-83750000D03*
X88500000Y-101750000D03*
X124500000Y-101750000D03*
D21*
X78750000Y-99000000D03*
X76210000Y-101540000D03*
X76210000Y-96460000D03*
X73000000Y-99000000D03*
X70460000Y-101540000D03*
X70460000Y-96460000D03*
D14*
X102500000Y-83000000D03*
X83500000Y-108250000D03*
X83500000Y-115500000D03*
X133000000Y-123250000D03*
X129750000Y-77500000D03*
X76250000Y-108250000D03*
X69000000Y-80500000D03*
X73250000Y-80500000D03*
X78750000Y-80500000D03*
X83000000Y-80500000D03*
D22*
X129750000Y-77500000D02*
X129750000Y-80500000D01*
X129750000Y-80500000D02*
X133000000Y-83750000D01*
X135000000Y-77500000D02*
X135000000Y-81750000D01*
X135000000Y-81750000D02*
X133000000Y-83750000D01*
X124523127Y-83000000D02*
X132250000Y-83000000D01*
X132250000Y-83000000D02*
X133000000Y-83750000D01*
X121934867Y-93000000D02*
X124523127Y-93000000D01*
X121934867Y-87825832D02*
X124523127Y-87825832D01*
X121934867Y-83000000D02*
X124523127Y-83000000D01*
X124523127Y-87825832D02*
X124523127Y-83000000D01*
X124523127Y-93000000D02*
X124523127Y-87825832D01*
X73250000Y-80500000D02*
X69000000Y-80500000D01*
X69000000Y-80500000D02*
X69000000Y-82500040D01*
X69000000Y-82500040D02*
X65500040Y-86000000D01*
X54500000Y-93000000D02*
X59087000Y-93000000D01*
X59087000Y-93000000D02*
X59500000Y-92587000D01*
X54500000Y-93000000D02*
X54500000Y-100248740D01*
X54500000Y-102837000D02*
X54500000Y-100248740D01*
X59500000Y-89998740D02*
X61501300Y-89998740D01*
X61501300Y-89998740D02*
X65500040Y-86000000D01*
X59500000Y-92587000D02*
X59500000Y-89998740D01*
X78750000Y-76500000D02*
X83000000Y-76500000D01*
X83000000Y-76500000D02*
X110020097Y-76500000D01*
X83000000Y-80500000D02*
X83000000Y-76500000D01*
X67000000Y-76500000D02*
X78750000Y-76500000D01*
X78750000Y-80500000D02*
X78750000Y-78382400D01*
X78750000Y-78382400D02*
X78750000Y-76500000D01*
X54500000Y-110251260D02*
X52500510Y-110251260D01*
X52500510Y-110251260D02*
X51500000Y-109250750D01*
X51500000Y-109250750D02*
X51500000Y-91444000D01*
X51500000Y-91444000D02*
X52484000Y-90460000D01*
X52484000Y-90460000D02*
X54500000Y-90460000D01*
X54500000Y-89000000D02*
X54500000Y-90460000D01*
X54500000Y-110251260D02*
X58748740Y-110251260D01*
X58748740Y-110251260D02*
X60000000Y-109000000D01*
X54500000Y-110251260D02*
X54500000Y-107663000D01*
X110020097Y-76500000D02*
X114520607Y-81000510D01*
X114520607Y-81000510D02*
X114520607Y-83000000D01*
X54500000Y-89000000D02*
X67000000Y-76500000D01*
X114520607Y-101979393D02*
X109250000Y-107250000D01*
X114520607Y-93000000D02*
X114520607Y-101979393D01*
X109250000Y-107250000D02*
X106000000Y-110500000D01*
X114388625Y-110427361D02*
X112389135Y-110427361D01*
X112389135Y-110427361D02*
X109250000Y-107288226D01*
X109250000Y-107288226D02*
X109250000Y-107250000D01*
X106000000Y-110500000D02*
X98502520Y-110500000D01*
X69000000Y-118000000D02*
X60000000Y-109000000D01*
X60000000Y-109000000D02*
X60000000Y-105000000D01*
X75500000Y-118000000D02*
X69000000Y-118000000D01*
X62588260Y-105000000D02*
X60000000Y-105000000D01*
X98502520Y-115500000D02*
X98502520Y-110500000D01*
X98502520Y-120500000D02*
X98502520Y-115500000D01*
X98502520Y-110500000D02*
X95914260Y-110500000D01*
X95914260Y-115500000D02*
X98502520Y-115500000D01*
X98502520Y-120500000D02*
X95914260Y-120500000D01*
X114388625Y-120427361D02*
X116976885Y-120427361D01*
X114388625Y-115427361D02*
X114388625Y-120427361D01*
X114388625Y-115427361D02*
X116976885Y-115427361D01*
X114388625Y-110427361D02*
X114388625Y-115427361D01*
X114388625Y-110427361D02*
X116976885Y-110427361D01*
X114520607Y-87825832D02*
X114520607Y-93000000D01*
X114520607Y-83000000D02*
X114520607Y-87825832D01*
X117108867Y-83000000D02*
X114520607Y-83000000D01*
X117108867Y-87825832D02*
X114520607Y-87825832D01*
X117108867Y-93000000D02*
X114520607Y-93000000D01*
X76250000Y-108250000D02*
X76250000Y-104830000D01*
X76250000Y-104830000D02*
X76210000Y-104790000D01*
X70002520Y-105000000D02*
X70002520Y-101997480D01*
X70002520Y-101997480D02*
X70460000Y-101540000D01*
X70002520Y-105000000D02*
X76000000Y-105000000D01*
X76000000Y-105000000D02*
X78500000Y-105000000D01*
X76210000Y-101540000D02*
X76210000Y-104790000D01*
X76210000Y-104790000D02*
X76000000Y-105000000D01*
X78500000Y-105000000D02*
X82000000Y-101500000D01*
X75500000Y-113500000D02*
X69000000Y-113500000D01*
X70002520Y-105000000D02*
X70002520Y-112497480D01*
X70002520Y-112497480D02*
X69000000Y-113500000D01*
X67414260Y-105000000D02*
X70002520Y-105000000D01*
X102500000Y-83000000D02*
X98500000Y-83000000D01*
X70460000Y-96460000D02*
X70460000Y-93960000D01*
X70460000Y-93960000D02*
X70000000Y-93500000D01*
X70000000Y-93500000D02*
X69920000Y-93420000D01*
X69920000Y-93420000D02*
X64250000Y-93420000D01*
X70000000Y-93500000D02*
X76250000Y-93500000D01*
X76250000Y-93500000D02*
X79080000Y-93500000D01*
X76250000Y-95342370D02*
X76250000Y-93500000D01*
X76210000Y-96460000D02*
X76210000Y-95382370D01*
X76210000Y-95382370D02*
X76250000Y-95342370D01*
X85500000Y-86000000D02*
X88088260Y-86000000D01*
X88088260Y-86000000D02*
X88500000Y-85588260D01*
X79080000Y-93500000D02*
X79080000Y-90170000D01*
X79080000Y-90170000D02*
X83250000Y-86000000D01*
X83250000Y-86000000D02*
X85500000Y-86000000D01*
X79080000Y-93500000D02*
X82000000Y-96420000D01*
X93500000Y-83000000D02*
X88500000Y-83000000D01*
X98500000Y-83000000D02*
X93500000Y-83000000D01*
X98500000Y-85588260D02*
X98500000Y-83000000D01*
X93500000Y-85588260D02*
X93500000Y-83000000D01*
X88500000Y-85588260D02*
X88500000Y-83000000D01*
X83500000Y-115500000D02*
X88500000Y-115500000D01*
X88500000Y-110500000D02*
X88500000Y-101750000D01*
X88500000Y-93002520D02*
X88500000Y-101750000D01*
X88500000Y-93002520D02*
X88500000Y-90414260D01*
X93500000Y-90414260D02*
X93500000Y-93002520D01*
X98500000Y-93002520D02*
X98500000Y-90414260D01*
X93500000Y-93002520D02*
X98500000Y-93002520D01*
X88500000Y-93002520D02*
X93500000Y-93002520D01*
X88500000Y-115500000D02*
X88500000Y-110500000D01*
X88500000Y-120500000D02*
X88500000Y-115500000D01*
X91088260Y-110500000D02*
X88500000Y-110500000D01*
X88500000Y-115500000D02*
X91088260Y-115500000D01*
X91088260Y-120500000D02*
X88500000Y-120500000D01*
X133000000Y-123250000D02*
X133000000Y-119750000D01*
X124391145Y-120427361D02*
X132322639Y-120427361D01*
X132322639Y-120427361D02*
X133000000Y-119750000D01*
X124391145Y-110427361D02*
X124391145Y-101858855D01*
X124391145Y-101858855D02*
X124500000Y-101750000D01*
X124391145Y-115427361D02*
X124391145Y-110427361D01*
X124391145Y-120427361D02*
X124391145Y-115427361D01*
X124391145Y-120427361D02*
X121802885Y-120427361D01*
X124391145Y-115427361D02*
X121802885Y-115427361D01*
X124391145Y-110427361D02*
X121802885Y-110427361D01*
X84540000Y-103210000D02*
X83500000Y-104250000D01*
X83500000Y-104250000D02*
X83500000Y-108250000D01*
X84540000Y-98960000D02*
X84540000Y-103210000D01*
X84540000Y-98960000D02*
X78790000Y-98960000D01*
X78790000Y-98960000D02*
X78750000Y-99000000D01*
X78750000Y-99000000D02*
X73000000Y-99000000D01*
X73000000Y-99000000D02*
X64750000Y-99000000D01*
X64750000Y-99000000D02*
X64250000Y-98500000D01*
X59500000Y-100001260D02*
X62748740Y-100001260D01*
X62748740Y-100001260D02*
X64250000Y-98500000D01*
X59500000Y-97413000D02*
X59500000Y-100001260D01*
X84500000Y-99000000D02*
X84540000Y-98960000D01*
M02*
