G04 #@! TF.FileFunction,Legend,Top*
%FSLAX46Y46*%
G04 Gerber Fmt 4.6, Leading zero omitted, Abs format (unit mm)*
G04 Created by KiCad (PCBNEW 4.0.5+dfsg1-4) date Thu Mar 15 19:33:26 2018*
%MOMM*%
%LPD*%
G01*
G04 APERTURE LIST*
%ADD10C,0.100000*%
%ADD11C,0.150000*%
%ADD12C,0.410000*%
G04 APERTURE END LIST*
D10*
D11*
X57286000Y-80000000D02*
G75*
G03X57286000Y-80000000I-2286000J0D01*
G01*
X57286000Y-120000000D02*
G75*
G03X57286000Y-120000000I-2286000J0D01*
G01*
X147286000Y-120000000D02*
G75*
G03X147286000Y-120000000I-2286000J0D01*
G01*
X133450000Y-75950000D02*
X135000000Y-75950000D01*
X135000000Y-79050000D02*
X133450000Y-79050000D01*
X133450000Y-79050000D02*
X133450000Y-75950000D01*
X136270000Y-78770000D02*
X136270000Y-76230000D01*
X55770000Y-91730000D02*
X55770000Y-94270000D01*
X56050000Y-88910000D02*
X56050000Y-90460000D01*
X55770000Y-91730000D02*
X53230000Y-91730000D01*
X52950000Y-90460000D02*
X52950000Y-88910000D01*
X52950000Y-88910000D02*
X56050000Y-88910000D01*
X53230000Y-91730000D02*
X53230000Y-94270000D01*
X53230000Y-94270000D02*
X55770000Y-94270000D01*
X66536000Y-93166000D02*
G75*
G03X61964000Y-93166000I-2286000J0D01*
G01*
X61964000Y-98754000D02*
G75*
G03X66536000Y-98754000I2286000J0D01*
G01*
X66536000Y-98754000D02*
X66536000Y-93166000D01*
X61964000Y-98754000D02*
X61964000Y-93166000D01*
X83501020Y-86000000D02*
X83998860Y-86000000D01*
X67499020Y-86000000D02*
X67001180Y-86000000D01*
X67499020Y-83000260D02*
X67499020Y-88999740D01*
X67499020Y-88999740D02*
X83501020Y-88999740D01*
X83501020Y-88999740D02*
X83501020Y-83000260D01*
X83501020Y-83000260D02*
X67499020Y-83000260D01*
X147286000Y-80000000D02*
G75*
G03X147286000Y-80000000I-2286000J0D01*
G01*
X53699900Y-105250000D02*
X53699900Y-105450660D01*
X53699900Y-105250000D02*
X53699900Y-105049340D01*
X55300100Y-105150940D02*
X55300100Y-105049340D01*
X55300100Y-105049340D02*
X55300100Y-105450660D01*
X65001260Y-104199900D02*
X64800600Y-104199900D01*
X65001260Y-104199900D02*
X65201920Y-104199900D01*
X65100320Y-105800100D02*
X65201920Y-105800100D01*
X65201920Y-105800100D02*
X64800600Y-105800100D01*
X87699900Y-88001260D02*
X87699900Y-88201920D01*
X87699900Y-88001260D02*
X87699900Y-87800600D01*
X89300100Y-87902200D02*
X89300100Y-87800600D01*
X89300100Y-87800600D02*
X89300100Y-88201920D01*
X92699900Y-88001260D02*
X92699900Y-88201920D01*
X92699900Y-88001260D02*
X92699900Y-87800600D01*
X94300100Y-87902200D02*
X94300100Y-87800600D01*
X94300100Y-87800600D02*
X94300100Y-88201920D01*
X97699900Y-88001260D02*
X97699900Y-88201920D01*
X97699900Y-88001260D02*
X97699900Y-87800600D01*
X99300100Y-87902200D02*
X99300100Y-87800600D01*
X99300100Y-87800600D02*
X99300100Y-88201920D01*
X93501260Y-121300100D02*
X93701920Y-121300100D01*
X93501260Y-121300100D02*
X93300600Y-121300100D01*
X93402200Y-119699900D02*
X93300600Y-119699900D01*
X93300600Y-119699900D02*
X93701920Y-119699900D01*
X93501260Y-116300100D02*
X93701920Y-116300100D01*
X93501260Y-116300100D02*
X93300600Y-116300100D01*
X93402200Y-114699900D02*
X93300600Y-114699900D01*
X93300600Y-114699900D02*
X93701920Y-114699900D01*
X93501260Y-111300100D02*
X93701920Y-111300100D01*
X93501260Y-111300100D02*
X93300600Y-111300100D01*
X93402200Y-109699900D02*
X93300600Y-109699900D01*
X93300600Y-109699900D02*
X93701920Y-109699900D01*
X119389885Y-119627261D02*
X119189225Y-119627261D01*
X119389885Y-119627261D02*
X119590545Y-119627261D01*
X119488945Y-121227461D02*
X119590545Y-121227461D01*
X119590545Y-121227461D02*
X119189225Y-121227461D01*
X119389885Y-114627261D02*
X119189225Y-114627261D01*
X119389885Y-114627261D02*
X119590545Y-114627261D01*
X119488945Y-116227461D02*
X119590545Y-116227461D01*
X119590545Y-116227461D02*
X119189225Y-116227461D01*
X119389885Y-109627261D02*
X119189225Y-109627261D01*
X119389885Y-109627261D02*
X119590545Y-109627261D01*
X119488945Y-111227461D02*
X119590545Y-111227461D01*
X119590545Y-111227461D02*
X119189225Y-111227461D01*
X119521867Y-92199900D02*
X119321207Y-92199900D01*
X119521867Y-92199900D02*
X119722527Y-92199900D01*
X119620927Y-93800100D02*
X119722527Y-93800100D01*
X119722527Y-93800100D02*
X119321207Y-93800100D01*
X119521867Y-87025732D02*
X119321207Y-87025732D01*
X119521867Y-87025732D02*
X119722527Y-87025732D01*
X119620927Y-88625932D02*
X119722527Y-88625932D01*
X119722527Y-88625932D02*
X119321207Y-88625932D01*
X119521867Y-82199900D02*
X119321207Y-82199900D01*
X119521867Y-82199900D02*
X119722527Y-82199900D01*
X119620927Y-83800100D02*
X119722527Y-83800100D01*
X119722527Y-83800100D02*
X119321207Y-83800100D01*
X70000000Y-119000000D02*
X74500000Y-119000000D01*
X68750000Y-115000000D02*
X68750000Y-116500000D01*
X74500000Y-112500000D02*
X70000000Y-112500000D01*
X75750000Y-116500000D02*
X75750000Y-115000000D01*
X84200000Y-97960000D02*
G75*
G03X83000000Y-96760000I-2200000J-1000000D01*
G01*
X84200000Y-99959999D02*
G75*
G02X83000000Y-101160000I-2200000J999999D01*
G01*
X81003010Y-96772305D02*
G75*
G03X80300000Y-97260000I996990J-2187695D01*
G01*
X81003010Y-101147695D02*
G75*
G02X80300000Y-100660000I996990J2187695D01*
G01*
X80300000Y-97260000D02*
X80300000Y-100660000D01*
X60300100Y-95000000D02*
X60300100Y-94799340D01*
X60300100Y-95000000D02*
X60300100Y-95200660D01*
X58699900Y-95099060D02*
X58699900Y-95200660D01*
X58699900Y-95200660D02*
X58699900Y-94799340D01*
D12*
X139000000Y-82750000D02*
X136000000Y-82750000D01*
X139000000Y-120750000D02*
X139000000Y-82750000D01*
X136000000Y-120750000D02*
X139000000Y-120750000D01*
X127000000Y-120750000D02*
X130000000Y-120750000D01*
X127000000Y-82750000D02*
X127000000Y-120750000D01*
X130000000Y-82750000D02*
X127000000Y-82750000D01*
X125500000Y-107750000D02*
X125500000Y-104750000D01*
X87500000Y-107750000D02*
X125500000Y-107750000D01*
X87500000Y-104750000D02*
X87500000Y-107750000D01*
X87500000Y-95750000D02*
X87500000Y-98750000D01*
X125500000Y-95750000D02*
X87500000Y-95750000D01*
X125500000Y-98750000D02*
X125500000Y-95750000D01*
D11*
X78410000Y-98000000D02*
G75*
G03X77210000Y-96800000I-2200000J-1000000D01*
G01*
X78410000Y-99999999D02*
G75*
G02X77210000Y-101200000I-2200000J999999D01*
G01*
X75213010Y-96812305D02*
G75*
G03X74510000Y-97300000I996990J-2187695D01*
G01*
X75213010Y-101187695D02*
G75*
G02X74510000Y-100700000I996990J2187695D01*
G01*
X74510000Y-97300000D02*
X74510000Y-100700000D01*
X72660000Y-98000000D02*
G75*
G03X71460000Y-96800000I-2200000J-1000000D01*
G01*
X72660000Y-99999999D02*
G75*
G02X71460000Y-101200000I-2200000J999999D01*
G01*
X69463010Y-96812305D02*
G75*
G03X68760000Y-97300000I996990J-2187695D01*
G01*
X69463010Y-101187695D02*
G75*
G02X68760000Y-100700000I996990J2187695D01*
G01*
X68760000Y-97300000D02*
X68760000Y-100700000D01*
X132666667Y-78666667D02*
X132666667Y-78190476D01*
X132952381Y-78761905D02*
X131952381Y-78428572D01*
X132952381Y-78095238D01*
X132428571Y-77761905D02*
X132428571Y-77428571D01*
X132952381Y-77285714D02*
X132952381Y-77761905D01*
X131952381Y-77761905D01*
X131952381Y-77285714D01*
X132952381Y-76333333D02*
X132952381Y-76904762D01*
X132952381Y-76619048D02*
X131952381Y-76619048D01*
X132095238Y-76714286D01*
X132190476Y-76809524D01*
X132238095Y-76904762D01*
X64226190Y-96476191D02*
X64702381Y-96476191D01*
X63702381Y-96809524D02*
X64226190Y-96476191D01*
X63702381Y-96142857D01*
X64702381Y-95285714D02*
X64702381Y-95857143D01*
X64702381Y-95571429D02*
X63702381Y-95571429D01*
X63845238Y-95666667D01*
X63940476Y-95761905D01*
X63988095Y-95857143D01*
X75333354Y-86452381D02*
X74857163Y-86452381D01*
X74857163Y-85452381D01*
X76190497Y-86452381D02*
X75619068Y-86452381D01*
X75904782Y-86452381D02*
X75904782Y-85452381D01*
X75809544Y-85595238D01*
X75714306Y-85690476D01*
X75619068Y-85738095D01*
X52357143Y-105417926D02*
X52404762Y-105465545D01*
X52452381Y-105608402D01*
X52452381Y-105703640D01*
X52404762Y-105846498D01*
X52309524Y-105941736D01*
X52214286Y-105989355D01*
X52023810Y-106036974D01*
X51880952Y-106036974D01*
X51690476Y-105989355D01*
X51595238Y-105941736D01*
X51500000Y-105846498D01*
X51452381Y-105703640D01*
X51452381Y-105608402D01*
X51500000Y-105465545D01*
X51547619Y-105417926D01*
X52452381Y-104465545D02*
X52452381Y-105036974D01*
X52452381Y-104751260D02*
X51452381Y-104751260D01*
X51595238Y-104846498D01*
X51690476Y-104941736D01*
X51738095Y-105036974D01*
X64735534Y-108455943D02*
X64687915Y-108503562D01*
X64545058Y-108551181D01*
X64449820Y-108551181D01*
X64306962Y-108503562D01*
X64211724Y-108408324D01*
X64164105Y-108313086D01*
X64116486Y-108122610D01*
X64116486Y-107979752D01*
X64164105Y-107789276D01*
X64211724Y-107694038D01*
X64306962Y-107598800D01*
X64449820Y-107551181D01*
X64545058Y-107551181D01*
X64687915Y-107598800D01*
X64735534Y-107646419D01*
X65116486Y-107646419D02*
X65164105Y-107598800D01*
X65259343Y-107551181D01*
X65497439Y-107551181D01*
X65592677Y-107598800D01*
X65640296Y-107646419D01*
X65687915Y-107741657D01*
X65687915Y-107836895D01*
X65640296Y-107979752D01*
X65068867Y-108551181D01*
X65687915Y-108551181D01*
X91357143Y-88266986D02*
X91404762Y-88314605D01*
X91452381Y-88457462D01*
X91452381Y-88552700D01*
X91404762Y-88695558D01*
X91309524Y-88790796D01*
X91214286Y-88838415D01*
X91023810Y-88886034D01*
X90880952Y-88886034D01*
X90690476Y-88838415D01*
X90595238Y-88790796D01*
X90500000Y-88695558D01*
X90452381Y-88552700D01*
X90452381Y-88457462D01*
X90500000Y-88314605D01*
X90547619Y-88266986D01*
X90452381Y-87933653D02*
X90452381Y-87314605D01*
X90833333Y-87647939D01*
X90833333Y-87505081D01*
X90880952Y-87409843D01*
X90928571Y-87362224D01*
X91023810Y-87314605D01*
X91261905Y-87314605D01*
X91357143Y-87362224D01*
X91404762Y-87409843D01*
X91452381Y-87505081D01*
X91452381Y-87790796D01*
X91404762Y-87886034D01*
X91357143Y-87933653D01*
X96357143Y-88266986D02*
X96404762Y-88314605D01*
X96452381Y-88457462D01*
X96452381Y-88552700D01*
X96404762Y-88695558D01*
X96309524Y-88790796D01*
X96214286Y-88838415D01*
X96023810Y-88886034D01*
X95880952Y-88886034D01*
X95690476Y-88838415D01*
X95595238Y-88790796D01*
X95500000Y-88695558D01*
X95452381Y-88552700D01*
X95452381Y-88457462D01*
X95500000Y-88314605D01*
X95547619Y-88266986D01*
X95785714Y-87409843D02*
X96452381Y-87409843D01*
X95404762Y-87647939D02*
X96119048Y-87886034D01*
X96119048Y-87266986D01*
X101357143Y-88266986D02*
X101404762Y-88314605D01*
X101452381Y-88457462D01*
X101452381Y-88552700D01*
X101404762Y-88695558D01*
X101309524Y-88790796D01*
X101214286Y-88838415D01*
X101023810Y-88886034D01*
X100880952Y-88886034D01*
X100690476Y-88838415D01*
X100595238Y-88790796D01*
X100500000Y-88695558D01*
X100452381Y-88552700D01*
X100452381Y-88457462D01*
X100500000Y-88314605D01*
X100547619Y-88266986D01*
X100452381Y-87362224D02*
X100452381Y-87838415D01*
X100928571Y-87886034D01*
X100880952Y-87838415D01*
X100833333Y-87743177D01*
X100833333Y-87505081D01*
X100880952Y-87409843D01*
X100928571Y-87362224D01*
X101023810Y-87314605D01*
X101261905Y-87314605D01*
X101357143Y-87362224D01*
X101404762Y-87409843D01*
X101452381Y-87505081D01*
X101452381Y-87743177D01*
X101404762Y-87838415D01*
X101357143Y-87886034D01*
X93433654Y-123107143D02*
X93386035Y-123154762D01*
X93243178Y-123202381D01*
X93147940Y-123202381D01*
X93005082Y-123154762D01*
X92909844Y-123059524D01*
X92862225Y-122964286D01*
X92814606Y-122773810D01*
X92814606Y-122630952D01*
X92862225Y-122440476D01*
X92909844Y-122345238D01*
X93005082Y-122250000D01*
X93147940Y-122202381D01*
X93243178Y-122202381D01*
X93386035Y-122250000D01*
X93433654Y-122297619D01*
X94290797Y-122202381D02*
X94100320Y-122202381D01*
X94005082Y-122250000D01*
X93957463Y-122297619D01*
X93862225Y-122440476D01*
X93814606Y-122630952D01*
X93814606Y-123011905D01*
X93862225Y-123107143D01*
X93909844Y-123154762D01*
X94005082Y-123202381D01*
X94195559Y-123202381D01*
X94290797Y-123154762D01*
X94338416Y-123107143D01*
X94386035Y-123011905D01*
X94386035Y-122773810D01*
X94338416Y-122678571D01*
X94290797Y-122630952D01*
X94195559Y-122583333D01*
X94005082Y-122583333D01*
X93909844Y-122630952D01*
X93862225Y-122678571D01*
X93814606Y-122773810D01*
X93433654Y-118107143D02*
X93386035Y-118154762D01*
X93243178Y-118202381D01*
X93147940Y-118202381D01*
X93005082Y-118154762D01*
X92909844Y-118059524D01*
X92862225Y-117964286D01*
X92814606Y-117773810D01*
X92814606Y-117630952D01*
X92862225Y-117440476D01*
X92909844Y-117345238D01*
X93005082Y-117250000D01*
X93147940Y-117202381D01*
X93243178Y-117202381D01*
X93386035Y-117250000D01*
X93433654Y-117297619D01*
X93766987Y-117202381D02*
X94433654Y-117202381D01*
X94005082Y-118202381D01*
X93433654Y-113107143D02*
X93386035Y-113154762D01*
X93243178Y-113202381D01*
X93147940Y-113202381D01*
X93005082Y-113154762D01*
X92909844Y-113059524D01*
X92862225Y-112964286D01*
X92814606Y-112773810D01*
X92814606Y-112630952D01*
X92862225Y-112440476D01*
X92909844Y-112345238D01*
X93005082Y-112250000D01*
X93147940Y-112202381D01*
X93243178Y-112202381D01*
X93386035Y-112250000D01*
X93433654Y-112297619D01*
X94005082Y-112630952D02*
X93909844Y-112583333D01*
X93862225Y-112535714D01*
X93814606Y-112440476D01*
X93814606Y-112392857D01*
X93862225Y-112297619D01*
X93909844Y-112250000D01*
X94005082Y-112202381D01*
X94195559Y-112202381D01*
X94290797Y-112250000D01*
X94338416Y-112297619D01*
X94386035Y-112392857D01*
X94386035Y-112440476D01*
X94338416Y-112535714D01*
X94290797Y-112583333D01*
X94195559Y-112630952D01*
X94005082Y-112630952D01*
X93909844Y-112678571D01*
X93862225Y-112726190D01*
X93814606Y-112821429D01*
X93814606Y-113011905D01*
X93862225Y-113107143D01*
X93909844Y-113154762D01*
X94005082Y-113202381D01*
X94195559Y-113202381D01*
X94290797Y-113154762D01*
X94338416Y-113107143D01*
X94386035Y-113011905D01*
X94386035Y-112821429D01*
X94338416Y-112726190D01*
X94290797Y-112678571D01*
X94195559Y-112630952D01*
X119124159Y-123284504D02*
X119076540Y-123332123D01*
X118933683Y-123379742D01*
X118838445Y-123379742D01*
X118695587Y-123332123D01*
X118600349Y-123236885D01*
X118552730Y-123141647D01*
X118505111Y-122951171D01*
X118505111Y-122808313D01*
X118552730Y-122617837D01*
X118600349Y-122522599D01*
X118695587Y-122427361D01*
X118838445Y-122379742D01*
X118933683Y-122379742D01*
X119076540Y-122427361D01*
X119124159Y-122474980D01*
X119600349Y-123379742D02*
X119790825Y-123379742D01*
X119886064Y-123332123D01*
X119933683Y-123284504D01*
X120028921Y-123141647D01*
X120076540Y-122951171D01*
X120076540Y-122570218D01*
X120028921Y-122474980D01*
X119981302Y-122427361D01*
X119886064Y-122379742D01*
X119695587Y-122379742D01*
X119600349Y-122427361D01*
X119552730Y-122474980D01*
X119505111Y-122570218D01*
X119505111Y-122808313D01*
X119552730Y-122903551D01*
X119600349Y-122951171D01*
X119695587Y-122998790D01*
X119886064Y-122998790D01*
X119981302Y-122951171D01*
X120028921Y-122903551D01*
X120076540Y-122808313D01*
X118647968Y-118284504D02*
X118600349Y-118332123D01*
X118457492Y-118379742D01*
X118362254Y-118379742D01*
X118219396Y-118332123D01*
X118124158Y-118236885D01*
X118076539Y-118141647D01*
X118028920Y-117951171D01*
X118028920Y-117808313D01*
X118076539Y-117617837D01*
X118124158Y-117522599D01*
X118219396Y-117427361D01*
X118362254Y-117379742D01*
X118457492Y-117379742D01*
X118600349Y-117427361D01*
X118647968Y-117474980D01*
X119600349Y-118379742D02*
X119028920Y-118379742D01*
X119314634Y-118379742D02*
X119314634Y-117379742D01*
X119219396Y-117522599D01*
X119124158Y-117617837D01*
X119028920Y-117665456D01*
X120219396Y-117379742D02*
X120314635Y-117379742D01*
X120409873Y-117427361D01*
X120457492Y-117474980D01*
X120505111Y-117570218D01*
X120552730Y-117760694D01*
X120552730Y-117998790D01*
X120505111Y-118189266D01*
X120457492Y-118284504D01*
X120409873Y-118332123D01*
X120314635Y-118379742D01*
X120219396Y-118379742D01*
X120124158Y-118332123D01*
X120076539Y-118284504D01*
X120028920Y-118189266D01*
X119981301Y-117998790D01*
X119981301Y-117760694D01*
X120028920Y-117570218D01*
X120076539Y-117474980D01*
X120124158Y-117427361D01*
X120219396Y-117379742D01*
X118647968Y-113284504D02*
X118600349Y-113332123D01*
X118457492Y-113379742D01*
X118362254Y-113379742D01*
X118219396Y-113332123D01*
X118124158Y-113236885D01*
X118076539Y-113141647D01*
X118028920Y-112951171D01*
X118028920Y-112808313D01*
X118076539Y-112617837D01*
X118124158Y-112522599D01*
X118219396Y-112427361D01*
X118362254Y-112379742D01*
X118457492Y-112379742D01*
X118600349Y-112427361D01*
X118647968Y-112474980D01*
X119600349Y-113379742D02*
X119028920Y-113379742D01*
X119314634Y-113379742D02*
X119314634Y-112379742D01*
X119219396Y-112522599D01*
X119124158Y-112617837D01*
X119028920Y-112665456D01*
X120552730Y-113379742D02*
X119981301Y-113379742D01*
X120267015Y-113379742D02*
X120267015Y-112379742D01*
X120171777Y-112522599D01*
X120076539Y-112617837D01*
X119981301Y-112665456D01*
X118779950Y-90857143D02*
X118732331Y-90904762D01*
X118589474Y-90952381D01*
X118494236Y-90952381D01*
X118351378Y-90904762D01*
X118256140Y-90809524D01*
X118208521Y-90714286D01*
X118160902Y-90523810D01*
X118160902Y-90380952D01*
X118208521Y-90190476D01*
X118256140Y-90095238D01*
X118351378Y-90000000D01*
X118494236Y-89952381D01*
X118589474Y-89952381D01*
X118732331Y-90000000D01*
X118779950Y-90047619D01*
X119732331Y-90952381D02*
X119160902Y-90952381D01*
X119446616Y-90952381D02*
X119446616Y-89952381D01*
X119351378Y-90095238D01*
X119256140Y-90190476D01*
X119160902Y-90238095D01*
X120113283Y-90047619D02*
X120160902Y-90000000D01*
X120256140Y-89952381D01*
X120494236Y-89952381D01*
X120589474Y-90000000D01*
X120637093Y-90047619D01*
X120684712Y-90142857D01*
X120684712Y-90238095D01*
X120637093Y-90380952D01*
X120065664Y-90952381D01*
X120684712Y-90952381D01*
X118779950Y-85857143D02*
X118732331Y-85904762D01*
X118589474Y-85952381D01*
X118494236Y-85952381D01*
X118351378Y-85904762D01*
X118256140Y-85809524D01*
X118208521Y-85714286D01*
X118160902Y-85523810D01*
X118160902Y-85380952D01*
X118208521Y-85190476D01*
X118256140Y-85095238D01*
X118351378Y-85000000D01*
X118494236Y-84952381D01*
X118589474Y-84952381D01*
X118732331Y-85000000D01*
X118779950Y-85047619D01*
X119732331Y-85952381D02*
X119160902Y-85952381D01*
X119446616Y-85952381D02*
X119446616Y-84952381D01*
X119351378Y-85095238D01*
X119256140Y-85190476D01*
X119160902Y-85238095D01*
X120065664Y-84952381D02*
X120684712Y-84952381D01*
X120351378Y-85333333D01*
X120494236Y-85333333D01*
X120589474Y-85380952D01*
X120637093Y-85428571D01*
X120684712Y-85523810D01*
X120684712Y-85761905D01*
X120637093Y-85857143D01*
X120589474Y-85904762D01*
X120494236Y-85952381D01*
X120208521Y-85952381D01*
X120113283Y-85904762D01*
X120065664Y-85857143D01*
X118779950Y-80857143D02*
X118732331Y-80904762D01*
X118589474Y-80952381D01*
X118494236Y-80952381D01*
X118351378Y-80904762D01*
X118256140Y-80809524D01*
X118208521Y-80714286D01*
X118160902Y-80523810D01*
X118160902Y-80380952D01*
X118208521Y-80190476D01*
X118256140Y-80095238D01*
X118351378Y-80000000D01*
X118494236Y-79952381D01*
X118589474Y-79952381D01*
X118732331Y-80000000D01*
X118779950Y-80047619D01*
X119732331Y-80952381D02*
X119160902Y-80952381D01*
X119446616Y-80952381D02*
X119446616Y-79952381D01*
X119351378Y-80095238D01*
X119256140Y-80190476D01*
X119160902Y-80238095D01*
X120589474Y-80285714D02*
X120589474Y-80952381D01*
X120351378Y-79904762D02*
X120113283Y-80619048D01*
X120732331Y-80619048D01*
X71511905Y-111952381D02*
X71511905Y-110952381D01*
X71892858Y-110952381D01*
X71988096Y-111000000D01*
X72035715Y-111047619D01*
X72083334Y-111142857D01*
X72083334Y-111285714D01*
X72035715Y-111380952D01*
X71988096Y-111428571D01*
X71892858Y-111476190D01*
X71511905Y-111476190D01*
X72464286Y-111047619D02*
X72511905Y-111000000D01*
X72607143Y-110952381D01*
X72845239Y-110952381D01*
X72940477Y-111000000D01*
X72988096Y-111047619D01*
X73035715Y-111142857D01*
X73035715Y-111238095D01*
X72988096Y-111380952D01*
X72416667Y-111952381D01*
X73035715Y-111952381D01*
X85297619Y-96515238D02*
X85250000Y-96610476D01*
X85154762Y-96705714D01*
X85011905Y-96848571D01*
X84964286Y-96943810D01*
X84964286Y-97039048D01*
X85202381Y-96991429D02*
X85154762Y-97086667D01*
X85059524Y-97181905D01*
X84869048Y-97229524D01*
X84535714Y-97229524D01*
X84345238Y-97181905D01*
X84250000Y-97086667D01*
X84202381Y-96991429D01*
X84202381Y-96800952D01*
X84250000Y-96705714D01*
X84345238Y-96610476D01*
X84535714Y-96562857D01*
X84869048Y-96562857D01*
X85059524Y-96610476D01*
X85154762Y-96705714D01*
X85202381Y-96800952D01*
X85202381Y-96991429D01*
X85202381Y-95610476D02*
X85202381Y-96181905D01*
X85202381Y-95896191D02*
X84202381Y-95896191D01*
X84345238Y-95991429D01*
X84440476Y-96086667D01*
X84488095Y-96181905D01*
X57452381Y-95067606D02*
X56976190Y-95400940D01*
X57452381Y-95639035D02*
X56452381Y-95639035D01*
X56452381Y-95258082D01*
X56500000Y-95162844D01*
X56547619Y-95115225D01*
X56642857Y-95067606D01*
X56785714Y-95067606D01*
X56880952Y-95115225D01*
X56928571Y-95162844D01*
X56976190Y-95258082D01*
X56976190Y-95639035D01*
X57452381Y-94115225D02*
X57452381Y-94686654D01*
X57452381Y-94400940D02*
X56452381Y-94400940D01*
X56595238Y-94496178D01*
X56690476Y-94591416D01*
X56738095Y-94686654D01*
X133952381Y-101916666D02*
X133952381Y-102392857D01*
X132952381Y-102392857D01*
X132952381Y-101678571D02*
X132952381Y-101059523D01*
X133333333Y-101392857D01*
X133333333Y-101249999D01*
X133380952Y-101154761D01*
X133428571Y-101107142D01*
X133523810Y-101059523D01*
X133761905Y-101059523D01*
X133857143Y-101107142D01*
X133904762Y-101154761D01*
X133952381Y-101249999D01*
X133952381Y-101535714D01*
X133904762Y-101630952D01*
X133857143Y-101678571D01*
X106333334Y-102702381D02*
X105857143Y-102702381D01*
X105857143Y-101702381D01*
X106619048Y-101797619D02*
X106666667Y-101750000D01*
X106761905Y-101702381D01*
X107000001Y-101702381D01*
X107095239Y-101750000D01*
X107142858Y-101797619D01*
X107190477Y-101892857D01*
X107190477Y-101988095D01*
X107142858Y-102130952D01*
X106571429Y-102702381D01*
X107190477Y-102702381D01*
X79547619Y-96555238D02*
X79500000Y-96650476D01*
X79404762Y-96745714D01*
X79261905Y-96888571D01*
X79214286Y-96983810D01*
X79214286Y-97079048D01*
X79452381Y-97031429D02*
X79404762Y-97126667D01*
X79309524Y-97221905D01*
X79119048Y-97269524D01*
X78785714Y-97269524D01*
X78595238Y-97221905D01*
X78500000Y-97126667D01*
X78452381Y-97031429D01*
X78452381Y-96840952D01*
X78500000Y-96745714D01*
X78595238Y-96650476D01*
X78785714Y-96602857D01*
X79119048Y-96602857D01*
X79309524Y-96650476D01*
X79404762Y-96745714D01*
X79452381Y-96840952D01*
X79452381Y-97031429D01*
X78547619Y-96221905D02*
X78500000Y-96174286D01*
X78452381Y-96079048D01*
X78452381Y-95840952D01*
X78500000Y-95745714D01*
X78547619Y-95698095D01*
X78642857Y-95650476D01*
X78738095Y-95650476D01*
X78880952Y-95698095D01*
X79452381Y-96269524D01*
X79452381Y-95650476D01*
X73797619Y-96555238D02*
X73750000Y-96650476D01*
X73654762Y-96745714D01*
X73511905Y-96888571D01*
X73464286Y-96983810D01*
X73464286Y-97079048D01*
X73702381Y-97031429D02*
X73654762Y-97126667D01*
X73559524Y-97221905D01*
X73369048Y-97269524D01*
X73035714Y-97269524D01*
X72845238Y-97221905D01*
X72750000Y-97126667D01*
X72702381Y-97031429D01*
X72702381Y-96840952D01*
X72750000Y-96745714D01*
X72845238Y-96650476D01*
X73035714Y-96602857D01*
X73369048Y-96602857D01*
X73559524Y-96650476D01*
X73654762Y-96745714D01*
X73702381Y-96840952D01*
X73702381Y-97031429D01*
X72702381Y-96269524D02*
X72702381Y-95650476D01*
X73083333Y-95983810D01*
X73083333Y-95840952D01*
X73130952Y-95745714D01*
X73178571Y-95698095D01*
X73273810Y-95650476D01*
X73511905Y-95650476D01*
X73607143Y-95698095D01*
X73654762Y-95745714D01*
X73702381Y-95840952D01*
X73702381Y-96126667D01*
X73654762Y-96221905D01*
X73607143Y-96269524D01*
M02*
