M48
;DRILL file {KiCad 4.0.5+dfsg1-4} date Thu Mar 15 21:00:43 2018
;FORMAT={3:3/ absolute / metric / suppress leading zeros}
FMAT,2
METRIC,TZ
T1C0.762
T2C0.800
T3C1.000
T4C1.001
T5C1.016
T6C1.100
T7C3.200
%
G90
G05
M71
T1
X64250Y-93420
X64250Y-98500
T2
X70460Y-96460
X70460Y-101540
X73000Y-99000
X76210Y-96460
X76210Y-101540
X78750Y-99000
X82000Y-96420
X82000Y-101500
X84540Y-98960
T3
X88500Y-101750
X124500Y-101750
X133000Y-83750
X133000Y-119750
T4
X54500Y-100249
X54500Y-110251
X59500Y-89999
X59500Y-100001
X60000Y-105000
X65500Y-86000
X70003Y-105000
X85500Y-86000
X88500Y-83000
X88500Y-93003
X88500Y-110500
X88500Y-115500
X88500Y-120500
X93500Y-83000
X93500Y-93003
X98500Y-83000
X98500Y-93003
X98503Y-110500
X98503Y-115500
X98503Y-120500
X114389Y-110427
X114389Y-115427
X114389Y-120427
X114521Y-83000
X114521Y-87826
X114521Y-93000
X124391Y-110427
X124391Y-115427
X124391Y-120427
X124523Y-83000
X124523Y-87826
X124523Y-93000
T5
X54500Y-90460
X54500Y-93000
X135000Y-77500
T6
X69000Y-113500
X69000Y-118000
X75500Y-113500
X75500Y-118000
T7
X55000Y-80000
X55000Y-120000
X145000Y-80000
X145000Y-120000
T0
M30
