G04 #@! TF.FileFunction,Soldermask,Bot*
%FSLAX46Y46*%
G04 Gerber Fmt 4.6, Leading zero omitted, Abs format (unit mm)*
G04 Created by KiCad (PCBNEW 4.0.5+dfsg1-4) date Sun May  6 19:35:37 2018*
%MOMM*%
%LPD*%
G01*
G04 APERTURE LIST*
%ADD10C,0.100000*%
G04 APERTURE END LIST*
D10*
G36*
X134317600Y-124567600D02*
X131682400Y-124567600D01*
X131682400Y-121932400D01*
X134317600Y-121932400D01*
X134317600Y-124567600D01*
X134317600Y-124567600D01*
G37*
G36*
X55189061Y-118201190D02*
X55534852Y-118272171D01*
X55860272Y-118408965D01*
X56152919Y-118606358D01*
X56401657Y-118856838D01*
X56597003Y-119150858D01*
X56731521Y-119477222D01*
X56799812Y-119822114D01*
X56799811Y-119822159D01*
X56800077Y-119823501D01*
X56794447Y-120226691D01*
X56794143Y-120228031D01*
X56794142Y-120228069D01*
X56716248Y-120570923D01*
X56572672Y-120893399D01*
X56369189Y-121181855D01*
X56113560Y-121425288D01*
X55815510Y-121614435D01*
X55486400Y-121742089D01*
X55138760Y-121803387D01*
X54785839Y-121795995D01*
X54441081Y-121720194D01*
X54117596Y-121578867D01*
X53827736Y-121377410D01*
X53582518Y-121123479D01*
X53391296Y-120826760D01*
X53261348Y-120498550D01*
X53197626Y-120151353D01*
X53202554Y-119798379D01*
X53275947Y-119453099D01*
X53415008Y-119128645D01*
X53614442Y-118837378D01*
X53866651Y-118590397D01*
X54162027Y-118397108D01*
X54489327Y-118264871D01*
X54836070Y-118198726D01*
X55189061Y-118201190D01*
X55189061Y-118201190D01*
G37*
G36*
X145189061Y-118201190D02*
X145534852Y-118272171D01*
X145860272Y-118408965D01*
X146152919Y-118606358D01*
X146401657Y-118856838D01*
X146597003Y-119150858D01*
X146731521Y-119477222D01*
X146799812Y-119822114D01*
X146799811Y-119822159D01*
X146800077Y-119823501D01*
X146794447Y-120226691D01*
X146794143Y-120228031D01*
X146794142Y-120228069D01*
X146716248Y-120570923D01*
X146572672Y-120893399D01*
X146369189Y-121181855D01*
X146113560Y-121425288D01*
X145815510Y-121614435D01*
X145486400Y-121742089D01*
X145138760Y-121803387D01*
X144785839Y-121795995D01*
X144441081Y-121720194D01*
X144117596Y-121578867D01*
X143827736Y-121377410D01*
X143582518Y-121123479D01*
X143391296Y-120826760D01*
X143261348Y-120498550D01*
X143197626Y-120151353D01*
X143202554Y-119798379D01*
X143275947Y-119453099D01*
X143415008Y-119128645D01*
X143614442Y-118837378D01*
X143866651Y-118590397D01*
X144162027Y-118397108D01*
X144489327Y-118264871D01*
X144836070Y-118198726D01*
X145189061Y-118201190D01*
X145189061Y-118201190D01*
G37*
G36*
X89699490Y-121699490D02*
X87300510Y-121699490D01*
X87300510Y-119300510D01*
X89699490Y-119300510D01*
X89699490Y-121699490D01*
X89699490Y-121699490D01*
G37*
G36*
X99702010Y-121699490D02*
X97303030Y-121699490D01*
X97303030Y-119300510D01*
X99702010Y-119300510D01*
X99702010Y-121699490D01*
X99702010Y-121699490D01*
G37*
G36*
X125590635Y-121626851D02*
X123191655Y-121626851D01*
X123191655Y-119227871D01*
X125590635Y-119227871D01*
X125590635Y-121626851D01*
X125590635Y-121626851D01*
G37*
G36*
X115588115Y-121626851D02*
X113189135Y-121626851D01*
X113189135Y-119227871D01*
X115588115Y-119227871D01*
X115588115Y-121626851D01*
X115588115Y-121626851D01*
G37*
G36*
X128652300Y-117050957D02*
X128930852Y-117108136D01*
X129192997Y-117218331D01*
X129428743Y-117377343D01*
X129629115Y-117579119D01*
X129786476Y-117815968D01*
X129894838Y-118078872D01*
X129949797Y-118356433D01*
X129949796Y-118356478D01*
X129950062Y-118357820D01*
X129945527Y-118682613D01*
X129945223Y-118683953D01*
X129945222Y-118683990D01*
X129882535Y-118959911D01*
X129766877Y-119219684D01*
X129602961Y-119452049D01*
X129397033Y-119648152D01*
X129156940Y-119800519D01*
X128891819Y-119903353D01*
X128611783Y-119952731D01*
X128327481Y-119946776D01*
X128049757Y-119885714D01*
X127789177Y-119771870D01*
X127555674Y-119609580D01*
X127358138Y-119405026D01*
X127204098Y-119166002D01*
X127099417Y-118901609D01*
X127048086Y-118621926D01*
X127052056Y-118337586D01*
X127111178Y-118059439D01*
X127223200Y-117798072D01*
X127383853Y-117563444D01*
X127587026Y-117364483D01*
X127824963Y-117208781D01*
X128088626Y-117102254D01*
X128367944Y-117048972D01*
X128652300Y-117050957D01*
X128652300Y-117050957D01*
G37*
G36*
X138652300Y-117050957D02*
X138930852Y-117108136D01*
X139192997Y-117218331D01*
X139428743Y-117377343D01*
X139629115Y-117579119D01*
X139786476Y-117815968D01*
X139894838Y-118078872D01*
X139949797Y-118356433D01*
X139949796Y-118356478D01*
X139950062Y-118357820D01*
X139945527Y-118682613D01*
X139945223Y-118683953D01*
X139945222Y-118683990D01*
X139882535Y-118959911D01*
X139766877Y-119219684D01*
X139602961Y-119452049D01*
X139397033Y-119648152D01*
X139156940Y-119800519D01*
X138891819Y-119903353D01*
X138611783Y-119952731D01*
X138327481Y-119946776D01*
X138049757Y-119885714D01*
X137789177Y-119771870D01*
X137555674Y-119609580D01*
X137358138Y-119405026D01*
X137204098Y-119166002D01*
X137099417Y-118901609D01*
X137048086Y-118621926D01*
X137052056Y-118337586D01*
X137111178Y-118059439D01*
X137223200Y-117798072D01*
X137383853Y-117563444D01*
X137587026Y-117364483D01*
X137824963Y-117208781D01*
X138088626Y-117102254D01*
X138367944Y-117048972D01*
X138652300Y-117050957D01*
X138652300Y-117050957D01*
G37*
G36*
X133652300Y-117050957D02*
X133930852Y-117108136D01*
X134192997Y-117218331D01*
X134428743Y-117377343D01*
X134629115Y-117579119D01*
X134786476Y-117815968D01*
X134894838Y-118078872D01*
X134949797Y-118356433D01*
X134949796Y-118356478D01*
X134950062Y-118357820D01*
X134945527Y-118682613D01*
X134945223Y-118683953D01*
X134945222Y-118683990D01*
X134882535Y-118959911D01*
X134766877Y-119219684D01*
X134602961Y-119452049D01*
X134397033Y-119648152D01*
X134156940Y-119800519D01*
X133891819Y-119903353D01*
X133611783Y-119952731D01*
X133327481Y-119946776D01*
X133049757Y-119885714D01*
X132789177Y-119771870D01*
X132555674Y-119609580D01*
X132358138Y-119405026D01*
X132204098Y-119166002D01*
X132099417Y-118901609D01*
X132048086Y-118621926D01*
X132052056Y-118337586D01*
X132111178Y-118059439D01*
X132223200Y-117798072D01*
X132383853Y-117563444D01*
X132587026Y-117364483D01*
X132824963Y-117208781D01*
X133088626Y-117102254D01*
X133367944Y-117048972D01*
X133652300Y-117050957D01*
X133652300Y-117050957D01*
G37*
G36*
X69126041Y-116800790D02*
X69356567Y-116848111D01*
X69573517Y-116939308D01*
X69768614Y-117070903D01*
X69934441Y-117237892D01*
X70064671Y-117433904D01*
X70154350Y-117651480D01*
X70199786Y-117880947D01*
X70199785Y-117880992D01*
X70200051Y-117882334D01*
X70196298Y-118151128D01*
X70195994Y-118152468D01*
X70195993Y-118152506D01*
X70144168Y-118380617D01*
X70048451Y-118595600D01*
X69912794Y-118787906D01*
X69742374Y-118950195D01*
X69543675Y-119076294D01*
X69324270Y-119161395D01*
X69092505Y-119202261D01*
X68857230Y-119197333D01*
X68627378Y-119146797D01*
X68411735Y-119052584D01*
X68218484Y-118918271D01*
X68055012Y-118748992D01*
X67927527Y-118551173D01*
X67840896Y-118332367D01*
X67798415Y-118100904D01*
X67801700Y-117865588D01*
X67850629Y-117635397D01*
X67943337Y-117419093D01*
X68076291Y-117224919D01*
X68244433Y-117060263D01*
X68441352Y-116931402D01*
X68659551Y-116843244D01*
X68890712Y-116799148D01*
X69126041Y-116800790D01*
X69126041Y-116800790D01*
G37*
G36*
X75626041Y-116800790D02*
X75856567Y-116848111D01*
X76073517Y-116939308D01*
X76268614Y-117070903D01*
X76434441Y-117237892D01*
X76564671Y-117433904D01*
X76654350Y-117651480D01*
X76699786Y-117880947D01*
X76699785Y-117880992D01*
X76700051Y-117882334D01*
X76696298Y-118151128D01*
X76695994Y-118152468D01*
X76695993Y-118152506D01*
X76644168Y-118380617D01*
X76548451Y-118595600D01*
X76412794Y-118787906D01*
X76242374Y-118950195D01*
X76043675Y-119076294D01*
X75824270Y-119161395D01*
X75592505Y-119202261D01*
X75357230Y-119197333D01*
X75127378Y-119146797D01*
X74911735Y-119052584D01*
X74718484Y-118918271D01*
X74555012Y-118748992D01*
X74427527Y-118551173D01*
X74340896Y-118332367D01*
X74298415Y-118100904D01*
X74301700Y-117865588D01*
X74350629Y-117635397D01*
X74443337Y-117419093D01*
X74576291Y-117224919D01*
X74744433Y-117060263D01*
X74941352Y-116931402D01*
X75159551Y-116843244D01*
X75390712Y-116799148D01*
X75626041Y-116800790D01*
X75626041Y-116800790D01*
G37*
G36*
X84817600Y-116817600D02*
X82182400Y-116817600D01*
X82182400Y-114182400D01*
X84817600Y-114182400D01*
X84817600Y-116817600D01*
X84817600Y-116817600D01*
G37*
G36*
X89699490Y-116699490D02*
X87300510Y-116699490D01*
X87300510Y-114300510D01*
X89699490Y-114300510D01*
X89699490Y-116699490D01*
X89699490Y-116699490D01*
G37*
G36*
X99702010Y-116699490D02*
X97303030Y-116699490D01*
X97303030Y-114300510D01*
X99702010Y-114300510D01*
X99702010Y-116699490D01*
X99702010Y-116699490D01*
G37*
G36*
X115588115Y-116626851D02*
X113189135Y-116626851D01*
X113189135Y-114227871D01*
X115588115Y-114227871D01*
X115588115Y-116626851D01*
X115588115Y-116626851D01*
G37*
G36*
X125590635Y-116626851D02*
X123191655Y-116626851D01*
X123191655Y-114227871D01*
X125590635Y-114227871D01*
X125590635Y-116626851D01*
X125590635Y-116626851D01*
G37*
G36*
X69126041Y-112300790D02*
X69356567Y-112348111D01*
X69573517Y-112439308D01*
X69768614Y-112570903D01*
X69934441Y-112737892D01*
X70064671Y-112933904D01*
X70154350Y-113151480D01*
X70199786Y-113380947D01*
X70199785Y-113380992D01*
X70200051Y-113382334D01*
X70196298Y-113651128D01*
X70195994Y-113652468D01*
X70195993Y-113652506D01*
X70144168Y-113880617D01*
X70048451Y-114095600D01*
X69912794Y-114287906D01*
X69742374Y-114450195D01*
X69543675Y-114576294D01*
X69324270Y-114661395D01*
X69092505Y-114702261D01*
X68857230Y-114697333D01*
X68627378Y-114646797D01*
X68411735Y-114552584D01*
X68218484Y-114418271D01*
X68055012Y-114248992D01*
X67927527Y-114051173D01*
X67840896Y-113832367D01*
X67798415Y-113600904D01*
X67801700Y-113365588D01*
X67850629Y-113135397D01*
X67943337Y-112919093D01*
X68076291Y-112724919D01*
X68244433Y-112560263D01*
X68441352Y-112431402D01*
X68659551Y-112343244D01*
X68890712Y-112299148D01*
X69126041Y-112300790D01*
X69126041Y-112300790D01*
G37*
G36*
X75626041Y-112300790D02*
X75856567Y-112348111D01*
X76073517Y-112439308D01*
X76268614Y-112570903D01*
X76434441Y-112737892D01*
X76564671Y-112933904D01*
X76654350Y-113151480D01*
X76699786Y-113380947D01*
X76699785Y-113380992D01*
X76700051Y-113382334D01*
X76696298Y-113651128D01*
X76695994Y-113652468D01*
X76695993Y-113652506D01*
X76644168Y-113880617D01*
X76548451Y-114095600D01*
X76412794Y-114287906D01*
X76242374Y-114450195D01*
X76043675Y-114576294D01*
X75824270Y-114661395D01*
X75592505Y-114702261D01*
X75357230Y-114697333D01*
X75127378Y-114646797D01*
X74911735Y-114552584D01*
X74718484Y-114418271D01*
X74555012Y-114248992D01*
X74427527Y-114051173D01*
X74340896Y-113832367D01*
X74298415Y-113600904D01*
X74301700Y-113365588D01*
X74350629Y-113135397D01*
X74443337Y-112919093D01*
X74576291Y-112724919D01*
X74744433Y-112560263D01*
X74941352Y-112431402D01*
X75159551Y-112343244D01*
X75390712Y-112299148D01*
X75626041Y-112300790D01*
X75626041Y-112300790D01*
G37*
G36*
X99702010Y-111699490D02*
X97303030Y-111699490D01*
X97303030Y-109300510D01*
X99702010Y-109300510D01*
X99702010Y-111699490D01*
X99702010Y-111699490D01*
G37*
G36*
X89699490Y-111699490D02*
X87300510Y-111699490D01*
X87300510Y-109300510D01*
X89699490Y-109300510D01*
X89699490Y-111699490D01*
X89699490Y-111699490D01*
G37*
G36*
X115588115Y-111626851D02*
X113189135Y-111626851D01*
X113189135Y-109227871D01*
X115588115Y-109227871D01*
X115588115Y-111626851D01*
X115588115Y-111626851D01*
G37*
G36*
X125590635Y-111626851D02*
X123191655Y-111626851D01*
X123191655Y-109227871D01*
X125590635Y-109227871D01*
X125590635Y-111626851D01*
X125590635Y-111626851D01*
G37*
G36*
X55699490Y-111450750D02*
X53300510Y-111450750D01*
X53300510Y-109051770D01*
X55699490Y-109051770D01*
X55699490Y-111450750D01*
X55699490Y-111450750D01*
G37*
G36*
X77567600Y-109567600D02*
X74932400Y-109567600D01*
X74932400Y-106932400D01*
X77567600Y-106932400D01*
X77567600Y-109567600D01*
X77567600Y-109567600D01*
G37*
G36*
X84817600Y-109567600D02*
X82182400Y-109567600D01*
X82182400Y-106932400D01*
X84817600Y-106932400D01*
X84817600Y-109567600D01*
X84817600Y-109567600D01*
G37*
G36*
X105939061Y-104701190D02*
X106284852Y-104772171D01*
X106610272Y-104908965D01*
X106902919Y-105106358D01*
X107151657Y-105356838D01*
X107347003Y-105650858D01*
X107481521Y-105977222D01*
X107549812Y-106322114D01*
X107549811Y-106322159D01*
X107550077Y-106323501D01*
X107544447Y-106726691D01*
X107544143Y-106728031D01*
X107544142Y-106728069D01*
X107466248Y-107070923D01*
X107322672Y-107393399D01*
X107119189Y-107681855D01*
X106863560Y-107925288D01*
X106565510Y-108114435D01*
X106236400Y-108242089D01*
X105888760Y-108303387D01*
X105535839Y-108295995D01*
X105191081Y-108220194D01*
X104867596Y-108078867D01*
X104577736Y-107877410D01*
X104332518Y-107623479D01*
X104141296Y-107326760D01*
X104011348Y-106998550D01*
X103947626Y-106651353D01*
X103952554Y-106298379D01*
X104025947Y-105953099D01*
X104165008Y-105628645D01*
X104364442Y-105337378D01*
X104616651Y-105090397D01*
X104912027Y-104897108D01*
X105239327Y-104764871D01*
X105586070Y-104698726D01*
X105939061Y-104701190D01*
X105939061Y-104701190D01*
G37*
G36*
X87902300Y-104050957D02*
X88180852Y-104108136D01*
X88442997Y-104218331D01*
X88678743Y-104377343D01*
X88879115Y-104579119D01*
X89036476Y-104815968D01*
X89144838Y-105078872D01*
X89199797Y-105356433D01*
X89199796Y-105356478D01*
X89200062Y-105357820D01*
X89195527Y-105682613D01*
X89195223Y-105683953D01*
X89195222Y-105683990D01*
X89132535Y-105959911D01*
X89016877Y-106219684D01*
X88852961Y-106452049D01*
X88647033Y-106648152D01*
X88406940Y-106800519D01*
X88141819Y-106903353D01*
X87861783Y-106952731D01*
X87577481Y-106946776D01*
X87299757Y-106885714D01*
X87039177Y-106771870D01*
X86805674Y-106609580D01*
X86608138Y-106405026D01*
X86454098Y-106166002D01*
X86349417Y-105901609D01*
X86298086Y-105621926D01*
X86302056Y-105337586D01*
X86361178Y-105059439D01*
X86473200Y-104798072D01*
X86633853Y-104563444D01*
X86837026Y-104364483D01*
X87074963Y-104208781D01*
X87338626Y-104102254D01*
X87617944Y-104048972D01*
X87902300Y-104050957D01*
X87902300Y-104050957D01*
G37*
G36*
X123902300Y-104050957D02*
X124180852Y-104108136D01*
X124442997Y-104218331D01*
X124678743Y-104377343D01*
X124879115Y-104579119D01*
X125036476Y-104815968D01*
X125144838Y-105078872D01*
X125199797Y-105356433D01*
X125199796Y-105356478D01*
X125200062Y-105357820D01*
X125195527Y-105682613D01*
X125195223Y-105683953D01*
X125195222Y-105683990D01*
X125132535Y-105959911D01*
X125016877Y-106219684D01*
X124852961Y-106452049D01*
X124647033Y-106648152D01*
X124406940Y-106800519D01*
X124141819Y-106903353D01*
X123861783Y-106952731D01*
X123577481Y-106946776D01*
X123299757Y-106885714D01*
X123039177Y-106771870D01*
X122805674Y-106609580D01*
X122608138Y-106405026D01*
X122454098Y-106166002D01*
X122349417Y-105901609D01*
X122298086Y-105621926D01*
X122302056Y-105337586D01*
X122361178Y-105059439D01*
X122473200Y-104798072D01*
X122633853Y-104563444D01*
X122837026Y-104364483D01*
X123074963Y-104208781D01*
X123338626Y-104102254D01*
X123617944Y-104048972D01*
X123902300Y-104050957D01*
X123902300Y-104050957D01*
G37*
G36*
X71202010Y-106199490D02*
X68803030Y-106199490D01*
X68803030Y-103800510D01*
X71202010Y-103800510D01*
X71202010Y-106199490D01*
X71202010Y-106199490D01*
G37*
G36*
X61199490Y-106199490D02*
X58800510Y-106199490D01*
X58800510Y-103800510D01*
X61199490Y-103800510D01*
X61199490Y-106199490D01*
X61199490Y-106199490D01*
G37*
G36*
X70561043Y-100578632D02*
X70745848Y-100616568D01*
X70919770Y-100689678D01*
X71076173Y-100795173D01*
X71209111Y-100929042D01*
X71313513Y-101086179D01*
X71385405Y-101260602D01*
X71421775Y-101444284D01*
X71421774Y-101444320D01*
X71422042Y-101445671D01*
X71419033Y-101661154D01*
X71418727Y-101662499D01*
X71418727Y-101662534D01*
X71377244Y-101845125D01*
X71300507Y-102017477D01*
X71191759Y-102171637D01*
X71055138Y-102301740D01*
X70895847Y-102402829D01*
X70719956Y-102471053D01*
X70534159Y-102503814D01*
X70345545Y-102499863D01*
X70161281Y-102459350D01*
X69988407Y-102383823D01*
X69833487Y-102276151D01*
X69702429Y-102140437D01*
X69600235Y-101981862D01*
X69530784Y-101806448D01*
X69496728Y-101620892D01*
X69499362Y-101432241D01*
X69538585Y-101247712D01*
X69612905Y-101074310D01*
X69719494Y-100918641D01*
X69854287Y-100786642D01*
X70012150Y-100683339D01*
X70187073Y-100612666D01*
X70372388Y-100577315D01*
X70561043Y-100578632D01*
X70561043Y-100578632D01*
G37*
G36*
X76311043Y-100578632D02*
X76495848Y-100616568D01*
X76669770Y-100689678D01*
X76826173Y-100795173D01*
X76959111Y-100929042D01*
X77063513Y-101086179D01*
X77135405Y-101260602D01*
X77171775Y-101444284D01*
X77171774Y-101444320D01*
X77172042Y-101445671D01*
X77169033Y-101661154D01*
X77168727Y-101662499D01*
X77168727Y-101662534D01*
X77127244Y-101845125D01*
X77050507Y-102017477D01*
X76941759Y-102171637D01*
X76805138Y-102301740D01*
X76645847Y-102402829D01*
X76469956Y-102471053D01*
X76284159Y-102503814D01*
X76095545Y-102499863D01*
X75911281Y-102459350D01*
X75738407Y-102383823D01*
X75583487Y-102276151D01*
X75452429Y-102140437D01*
X75350235Y-101981862D01*
X75280784Y-101806448D01*
X75246728Y-101620892D01*
X75249362Y-101432241D01*
X75288585Y-101247712D01*
X75362905Y-101074310D01*
X75469494Y-100918641D01*
X75604287Y-100786642D01*
X75762150Y-100683339D01*
X75937073Y-100612666D01*
X76122388Y-100577315D01*
X76311043Y-100578632D01*
X76311043Y-100578632D01*
G37*
G36*
X82101043Y-100538632D02*
X82285848Y-100576568D01*
X82459770Y-100649678D01*
X82616173Y-100755173D01*
X82749111Y-100889042D01*
X82853513Y-101046179D01*
X82925405Y-101220602D01*
X82961775Y-101404284D01*
X82961774Y-101404320D01*
X82962042Y-101405671D01*
X82959033Y-101621154D01*
X82958727Y-101622499D01*
X82958727Y-101622534D01*
X82917244Y-101805125D01*
X82840507Y-101977477D01*
X82731759Y-102131637D01*
X82595138Y-102261740D01*
X82435847Y-102362829D01*
X82259956Y-102431053D01*
X82074159Y-102463814D01*
X81885545Y-102459863D01*
X81701281Y-102419350D01*
X81528407Y-102343823D01*
X81373487Y-102236151D01*
X81242429Y-102100437D01*
X81140235Y-101941862D01*
X81070784Y-101766448D01*
X81036728Y-101580892D01*
X81039362Y-101392241D01*
X81078585Y-101207712D01*
X81152905Y-101034310D01*
X81259494Y-100878641D01*
X81394287Y-100746642D01*
X81552150Y-100643339D01*
X81727073Y-100572666D01*
X81912388Y-100537315D01*
X82101043Y-100538632D01*
X82101043Y-100538632D01*
G37*
G36*
X127689061Y-98701190D02*
X128034852Y-98772171D01*
X128360272Y-98908965D01*
X128652919Y-99106358D01*
X128901657Y-99356838D01*
X129097003Y-99650858D01*
X129231521Y-99977222D01*
X129299812Y-100322114D01*
X129299811Y-100322159D01*
X129300077Y-100323501D01*
X129294447Y-100726691D01*
X129294143Y-100728031D01*
X129294142Y-100728069D01*
X129216248Y-101070923D01*
X129072672Y-101393399D01*
X128869189Y-101681855D01*
X128613560Y-101925288D01*
X128315510Y-102114435D01*
X127986400Y-102242089D01*
X127638760Y-102303387D01*
X127285839Y-102295995D01*
X126941081Y-102220194D01*
X126617596Y-102078867D01*
X126327736Y-101877410D01*
X126082518Y-101623479D01*
X125891296Y-101326760D01*
X125761348Y-100998550D01*
X125697626Y-100651353D01*
X125702554Y-100298379D01*
X125775947Y-99953099D01*
X125915008Y-99628645D01*
X126114442Y-99337378D01*
X126366651Y-99090397D01*
X126662027Y-98897108D01*
X126989327Y-98764871D01*
X127336070Y-98698726D01*
X127689061Y-98701190D01*
X127689061Y-98701190D01*
G37*
G36*
X139689061Y-98701190D02*
X140034852Y-98772171D01*
X140360272Y-98908965D01*
X140652919Y-99106358D01*
X140901657Y-99356838D01*
X141097003Y-99650858D01*
X141231521Y-99977222D01*
X141299812Y-100322114D01*
X141299811Y-100322159D01*
X141300077Y-100323501D01*
X141294447Y-100726691D01*
X141294143Y-100728031D01*
X141294142Y-100728069D01*
X141216248Y-101070923D01*
X141072672Y-101393399D01*
X140869189Y-101681855D01*
X140613560Y-101925288D01*
X140315510Y-102114435D01*
X139986400Y-102242089D01*
X139638760Y-102303387D01*
X139285839Y-102295995D01*
X138941081Y-102220194D01*
X138617596Y-102078867D01*
X138327736Y-101877410D01*
X138082518Y-101623479D01*
X137891296Y-101326760D01*
X137761348Y-100998550D01*
X137697626Y-100651353D01*
X137702554Y-100298379D01*
X137775947Y-99953099D01*
X137915008Y-99628645D01*
X138114442Y-99337378D01*
X138366651Y-99090397D01*
X138662027Y-98897108D01*
X138989327Y-98764871D01*
X139336070Y-98698726D01*
X139689061Y-98701190D01*
X139689061Y-98701190D01*
G37*
G36*
X87902300Y-99050957D02*
X88180852Y-99108136D01*
X88442997Y-99218331D01*
X88678743Y-99377343D01*
X88879115Y-99579119D01*
X89036476Y-99815968D01*
X89144838Y-100078872D01*
X89199797Y-100356433D01*
X89199796Y-100356478D01*
X89200062Y-100357820D01*
X89195527Y-100682613D01*
X89195223Y-100683953D01*
X89195222Y-100683990D01*
X89132535Y-100959911D01*
X89016877Y-101219684D01*
X88852961Y-101452049D01*
X88647033Y-101648152D01*
X88406940Y-101800519D01*
X88141819Y-101903353D01*
X87861783Y-101952731D01*
X87577481Y-101946776D01*
X87299757Y-101885714D01*
X87039177Y-101771870D01*
X86805674Y-101609580D01*
X86608138Y-101405026D01*
X86454098Y-101166002D01*
X86349417Y-100901609D01*
X86298086Y-100621926D01*
X86302056Y-100337586D01*
X86361178Y-100059439D01*
X86473200Y-99798072D01*
X86633853Y-99563444D01*
X86837026Y-99364483D01*
X87074963Y-99208781D01*
X87338626Y-99102254D01*
X87617944Y-99048972D01*
X87902300Y-99050957D01*
X87902300Y-99050957D01*
G37*
G36*
X123902300Y-99050957D02*
X124180852Y-99108136D01*
X124442997Y-99218331D01*
X124678743Y-99377343D01*
X124879115Y-99579119D01*
X125036476Y-99815968D01*
X125144838Y-100078872D01*
X125199797Y-100356433D01*
X125199796Y-100356478D01*
X125200062Y-100357820D01*
X125195527Y-100682613D01*
X125195223Y-100683953D01*
X125195222Y-100683990D01*
X125132535Y-100959911D01*
X125016877Y-101219684D01*
X124852961Y-101452049D01*
X124647033Y-101648152D01*
X124406940Y-101800519D01*
X124141819Y-101903353D01*
X123861783Y-101952731D01*
X123577481Y-101946776D01*
X123299757Y-101885714D01*
X123039177Y-101771870D01*
X122805674Y-101609580D01*
X122608138Y-101405026D01*
X122454098Y-101166002D01*
X122349417Y-100901609D01*
X122298086Y-100621926D01*
X122302056Y-100337586D01*
X122361178Y-100059439D01*
X122473200Y-99798072D01*
X122633853Y-99563444D01*
X122837026Y-99364483D01*
X123074963Y-99208781D01*
X123338626Y-99102254D01*
X123617944Y-99048972D01*
X123902300Y-99050957D01*
X123902300Y-99050957D01*
G37*
G36*
X55699490Y-101448230D02*
X53300510Y-101448230D01*
X53300510Y-99049250D01*
X55699490Y-99049250D01*
X55699490Y-101448230D01*
X55699490Y-101448230D01*
G37*
G36*
X60699490Y-101200750D02*
X58300510Y-101200750D01*
X58300510Y-98801770D01*
X60699490Y-98801770D01*
X60699490Y-101200750D01*
X60699490Y-101200750D01*
G37*
G36*
X78851043Y-98038632D02*
X79035848Y-98076568D01*
X79209770Y-98149678D01*
X79366173Y-98255173D01*
X79499111Y-98389042D01*
X79603513Y-98546179D01*
X79675405Y-98720602D01*
X79711775Y-98904284D01*
X79711774Y-98904320D01*
X79712042Y-98905671D01*
X79709033Y-99121154D01*
X79708727Y-99122499D01*
X79708727Y-99122534D01*
X79667244Y-99305125D01*
X79590507Y-99477477D01*
X79481759Y-99631637D01*
X79345138Y-99761740D01*
X79185847Y-99862829D01*
X79009956Y-99931053D01*
X78824159Y-99963814D01*
X78635545Y-99959863D01*
X78451281Y-99919350D01*
X78278407Y-99843823D01*
X78123487Y-99736151D01*
X77992429Y-99600437D01*
X77890235Y-99441862D01*
X77820784Y-99266448D01*
X77786728Y-99080892D01*
X77789362Y-98892241D01*
X77828585Y-98707712D01*
X77902905Y-98534310D01*
X78009494Y-98378641D01*
X78144287Y-98246642D01*
X78302150Y-98143339D01*
X78477073Y-98072666D01*
X78662388Y-98037315D01*
X78851043Y-98038632D01*
X78851043Y-98038632D01*
G37*
G36*
X73101043Y-98038632D02*
X73285848Y-98076568D01*
X73459770Y-98149678D01*
X73616173Y-98255173D01*
X73749111Y-98389042D01*
X73853513Y-98546179D01*
X73925405Y-98720602D01*
X73961775Y-98904284D01*
X73961774Y-98904320D01*
X73962042Y-98905671D01*
X73959033Y-99121154D01*
X73958727Y-99122499D01*
X73958727Y-99122534D01*
X73917244Y-99305125D01*
X73840507Y-99477477D01*
X73731759Y-99631637D01*
X73595138Y-99761740D01*
X73435847Y-99862829D01*
X73259956Y-99931053D01*
X73074159Y-99963814D01*
X72885545Y-99959863D01*
X72701281Y-99919350D01*
X72528407Y-99843823D01*
X72373487Y-99736151D01*
X72242429Y-99600437D01*
X72140235Y-99441862D01*
X72070784Y-99266448D01*
X72036728Y-99080892D01*
X72039362Y-98892241D01*
X72078585Y-98707712D01*
X72152905Y-98534310D01*
X72259494Y-98378641D01*
X72394287Y-98246642D01*
X72552150Y-98143339D01*
X72727073Y-98072666D01*
X72912388Y-98037315D01*
X73101043Y-98038632D01*
X73101043Y-98038632D01*
G37*
G36*
X84641043Y-97998632D02*
X84825848Y-98036568D01*
X84999770Y-98109678D01*
X85156173Y-98215173D01*
X85289111Y-98349042D01*
X85393513Y-98506179D01*
X85465405Y-98680602D01*
X85501775Y-98864284D01*
X85501774Y-98864320D01*
X85502042Y-98865671D01*
X85499033Y-99081154D01*
X85498727Y-99082499D01*
X85498727Y-99082534D01*
X85457244Y-99265125D01*
X85380507Y-99437477D01*
X85271759Y-99591637D01*
X85135138Y-99721740D01*
X84975847Y-99822829D01*
X84799956Y-99891053D01*
X84614159Y-99923814D01*
X84425545Y-99919863D01*
X84241281Y-99879350D01*
X84068407Y-99803823D01*
X83913487Y-99696151D01*
X83782429Y-99560437D01*
X83680235Y-99401862D01*
X83610784Y-99226448D01*
X83576728Y-99040892D01*
X83579362Y-98852241D01*
X83618585Y-98667712D01*
X83692905Y-98494310D01*
X83799494Y-98338641D01*
X83934287Y-98206642D01*
X84092150Y-98103339D01*
X84267073Y-98032666D01*
X84452388Y-97997315D01*
X84641043Y-97998632D01*
X84641043Y-97998632D01*
G37*
G36*
X64345708Y-97589398D02*
X64520756Y-97625330D01*
X64685486Y-97694576D01*
X64833639Y-97794507D01*
X64959552Y-97921302D01*
X65058444Y-98070145D01*
X65126539Y-98235356D01*
X65160974Y-98409270D01*
X65160973Y-98409311D01*
X65161239Y-98410652D01*
X65158389Y-98614756D01*
X65158087Y-98616087D01*
X65158086Y-98616131D01*
X65118807Y-98789015D01*
X65046126Y-98952259D01*
X64943116Y-99098285D01*
X64813712Y-99221516D01*
X64662831Y-99317267D01*
X64496229Y-99381888D01*
X64320242Y-99412919D01*
X64141591Y-99409177D01*
X63967058Y-99370804D01*
X63803306Y-99299263D01*
X63656567Y-99197276D01*
X63532437Y-99068735D01*
X63435634Y-98918526D01*
X63369851Y-98752378D01*
X63337593Y-98576616D01*
X63340088Y-98397941D01*
X63377242Y-98223142D01*
X63447637Y-98058899D01*
X63548596Y-97911451D01*
X63676269Y-97786425D01*
X63825799Y-97688575D01*
X63991486Y-97621634D01*
X64167013Y-97588150D01*
X64345708Y-97589398D01*
X64345708Y-97589398D01*
G37*
G36*
X70561043Y-95498632D02*
X70745848Y-95536568D01*
X70919770Y-95609678D01*
X71076173Y-95715173D01*
X71209111Y-95849042D01*
X71313513Y-96006179D01*
X71385405Y-96180602D01*
X71421775Y-96364284D01*
X71421774Y-96364320D01*
X71422042Y-96365671D01*
X71419033Y-96581154D01*
X71418727Y-96582499D01*
X71418727Y-96582534D01*
X71377244Y-96765125D01*
X71300507Y-96937477D01*
X71191759Y-97091637D01*
X71055138Y-97221740D01*
X70895847Y-97322829D01*
X70719956Y-97391053D01*
X70534159Y-97423814D01*
X70345545Y-97419863D01*
X70161281Y-97379350D01*
X69988407Y-97303823D01*
X69833487Y-97196151D01*
X69702429Y-97060437D01*
X69600235Y-96901862D01*
X69530784Y-96726448D01*
X69496728Y-96540892D01*
X69499362Y-96352241D01*
X69538585Y-96167712D01*
X69612905Y-95994310D01*
X69719494Y-95838641D01*
X69854287Y-95706642D01*
X70012150Y-95603339D01*
X70187073Y-95532666D01*
X70372388Y-95497315D01*
X70561043Y-95498632D01*
X70561043Y-95498632D01*
G37*
G36*
X76311043Y-95498632D02*
X76495848Y-95536568D01*
X76669770Y-95609678D01*
X76826173Y-95715173D01*
X76959111Y-95849042D01*
X77063513Y-96006179D01*
X77135405Y-96180602D01*
X77171775Y-96364284D01*
X77171774Y-96364320D01*
X77172042Y-96365671D01*
X77169033Y-96581154D01*
X77168727Y-96582499D01*
X77168727Y-96582534D01*
X77127244Y-96765125D01*
X77050507Y-96937477D01*
X76941759Y-97091637D01*
X76805138Y-97221740D01*
X76645847Y-97322829D01*
X76469956Y-97391053D01*
X76284159Y-97423814D01*
X76095545Y-97419863D01*
X75911281Y-97379350D01*
X75738407Y-97303823D01*
X75583487Y-97196151D01*
X75452429Y-97060437D01*
X75350235Y-96901862D01*
X75280784Y-96726448D01*
X75246728Y-96540892D01*
X75249362Y-96352241D01*
X75288585Y-96167712D01*
X75362905Y-95994310D01*
X75469494Y-95838641D01*
X75604287Y-95706642D01*
X75762150Y-95603339D01*
X75937073Y-95532666D01*
X76122388Y-95497315D01*
X76311043Y-95498632D01*
X76311043Y-95498632D01*
G37*
G36*
X82101043Y-95458632D02*
X82285848Y-95496568D01*
X82459770Y-95569678D01*
X82616173Y-95675173D01*
X82749111Y-95809042D01*
X82853513Y-95966179D01*
X82925405Y-96140602D01*
X82961775Y-96324284D01*
X82961774Y-96324320D01*
X82962042Y-96325671D01*
X82959033Y-96541154D01*
X82958727Y-96542499D01*
X82958727Y-96542534D01*
X82917244Y-96725125D01*
X82840507Y-96897477D01*
X82731759Y-97051637D01*
X82595138Y-97181740D01*
X82435847Y-97282829D01*
X82259956Y-97351053D01*
X82074159Y-97383814D01*
X81885545Y-97379863D01*
X81701281Y-97339350D01*
X81528407Y-97263823D01*
X81373487Y-97156151D01*
X81242429Y-97020437D01*
X81140235Y-96861862D01*
X81070784Y-96686448D01*
X81036728Y-96500892D01*
X81039362Y-96312241D01*
X81078585Y-96127712D01*
X81152905Y-95954310D01*
X81259494Y-95798641D01*
X81394287Y-95666642D01*
X81552150Y-95563339D01*
X81727073Y-95492666D01*
X81912388Y-95457315D01*
X82101043Y-95458632D01*
X82101043Y-95458632D01*
G37*
G36*
X123902300Y-94050957D02*
X124180852Y-94108136D01*
X124442997Y-94218331D01*
X124678743Y-94377343D01*
X124879115Y-94579119D01*
X125036476Y-94815968D01*
X125144838Y-95078872D01*
X125199797Y-95356433D01*
X125199796Y-95356478D01*
X125200062Y-95357820D01*
X125195527Y-95682613D01*
X125195223Y-95683953D01*
X125195222Y-95683990D01*
X125132535Y-95959911D01*
X125016877Y-96219684D01*
X124852961Y-96452049D01*
X124647033Y-96648152D01*
X124406940Y-96800519D01*
X124141819Y-96903353D01*
X123861783Y-96952731D01*
X123577481Y-96946776D01*
X123299757Y-96885714D01*
X123039177Y-96771870D01*
X122805674Y-96609580D01*
X122608138Y-96405026D01*
X122454098Y-96166002D01*
X122349417Y-95901609D01*
X122298086Y-95621926D01*
X122302056Y-95337586D01*
X122361178Y-95059439D01*
X122473200Y-94798072D01*
X122633853Y-94563444D01*
X122837026Y-94364483D01*
X123074963Y-94208781D01*
X123338626Y-94102254D01*
X123617944Y-94048972D01*
X123902300Y-94050957D01*
X123902300Y-94050957D01*
G37*
G36*
X87902300Y-94050957D02*
X88180852Y-94108136D01*
X88442997Y-94218331D01*
X88678743Y-94377343D01*
X88879115Y-94579119D01*
X89036476Y-94815968D01*
X89144838Y-95078872D01*
X89199797Y-95356433D01*
X89199796Y-95356478D01*
X89200062Y-95357820D01*
X89195527Y-95682613D01*
X89195223Y-95683953D01*
X89195222Y-95683990D01*
X89132535Y-95959911D01*
X89016877Y-96219684D01*
X88852961Y-96452049D01*
X88647033Y-96648152D01*
X88406940Y-96800519D01*
X88141819Y-96903353D01*
X87861783Y-96952731D01*
X87577481Y-96946776D01*
X87299757Y-96885714D01*
X87039177Y-96771870D01*
X86805674Y-96609580D01*
X86608138Y-96405026D01*
X86454098Y-96166002D01*
X86349417Y-95901609D01*
X86298086Y-95621926D01*
X86302056Y-95337586D01*
X86361178Y-95059439D01*
X86473200Y-94798072D01*
X86633853Y-94563444D01*
X86837026Y-94364483D01*
X87074963Y-94208781D01*
X87338626Y-94102254D01*
X87617944Y-94048972D01*
X87902300Y-94050957D01*
X87902300Y-94050957D01*
G37*
G36*
X105939061Y-92701190D02*
X106284852Y-92772171D01*
X106610272Y-92908965D01*
X106902919Y-93106358D01*
X107151657Y-93356838D01*
X107347003Y-93650858D01*
X107481521Y-93977222D01*
X107549812Y-94322114D01*
X107549811Y-94322159D01*
X107550077Y-94323501D01*
X107544447Y-94726691D01*
X107544143Y-94728031D01*
X107544142Y-94728069D01*
X107466248Y-95070923D01*
X107322672Y-95393399D01*
X107119189Y-95681855D01*
X106863560Y-95925288D01*
X106565510Y-96114435D01*
X106236400Y-96242089D01*
X105888760Y-96303387D01*
X105535839Y-96295995D01*
X105191081Y-96220194D01*
X104867596Y-96078867D01*
X104577736Y-95877410D01*
X104332518Y-95623479D01*
X104141296Y-95326760D01*
X104011348Y-94998550D01*
X103947626Y-94651353D01*
X103952554Y-94298379D01*
X104025947Y-93953099D01*
X104165008Y-93628645D01*
X104364442Y-93337378D01*
X104616651Y-93090397D01*
X104912027Y-92897108D01*
X105239327Y-92764871D01*
X105586070Y-92698726D01*
X105939061Y-92701190D01*
X105939061Y-92701190D01*
G37*
G36*
X64345708Y-92509398D02*
X64520756Y-92545330D01*
X64685486Y-92614576D01*
X64833639Y-92714507D01*
X64959552Y-92841302D01*
X65058444Y-92990145D01*
X65126539Y-93155356D01*
X65160974Y-93329270D01*
X65160973Y-93329311D01*
X65161239Y-93330652D01*
X65158389Y-93534756D01*
X65158087Y-93536087D01*
X65158086Y-93536131D01*
X65118807Y-93709015D01*
X65046126Y-93872259D01*
X64943116Y-94018285D01*
X64813712Y-94141516D01*
X64662831Y-94237267D01*
X64496229Y-94301888D01*
X64320242Y-94332919D01*
X64141591Y-94329177D01*
X63967058Y-94290804D01*
X63803306Y-94219263D01*
X63656567Y-94117276D01*
X63532437Y-93988735D01*
X63435634Y-93838526D01*
X63369851Y-93672378D01*
X63337593Y-93496616D01*
X63340088Y-93317941D01*
X63377242Y-93143142D01*
X63447637Y-92978899D01*
X63548596Y-92831451D01*
X63676269Y-92706425D01*
X63825799Y-92608575D01*
X63991486Y-92541634D01*
X64167013Y-92508150D01*
X64345708Y-92509398D01*
X64345708Y-92509398D01*
G37*
G36*
X55716000Y-91676000D02*
X55359711Y-91676000D01*
X55303992Y-91683918D01*
X55252686Y-91707046D01*
X55209853Y-91743551D01*
X55178887Y-91790544D01*
X55162239Y-91844304D01*
X55161226Y-91900573D01*
X55175931Y-91954897D01*
X55205187Y-92002973D01*
X55228610Y-92026640D01*
X55374683Y-92149209D01*
X55523389Y-92334163D01*
X55633340Y-92544478D01*
X55700345Y-92772144D01*
X55700358Y-92772285D01*
X55700370Y-92772326D01*
X55721862Y-93008485D01*
X55697076Y-93244313D01*
X55697065Y-93244348D01*
X55697048Y-93244511D01*
X55626870Y-93471219D01*
X55513994Y-93679979D01*
X55362719Y-93862838D01*
X55178808Y-94012832D01*
X54969266Y-94124248D01*
X54742073Y-94192841D01*
X54505884Y-94216000D01*
X54493829Y-94216000D01*
X54485262Y-94215940D01*
X54485242Y-94215938D01*
X54477138Y-94215881D01*
X54241295Y-94189427D01*
X54015083Y-94117669D01*
X53807116Y-94003338D01*
X53625317Y-93850791D01*
X53476611Y-93665837D01*
X53366660Y-93455522D01*
X53299655Y-93227856D01*
X53299642Y-93227715D01*
X53299630Y-93227674D01*
X53278138Y-92991515D01*
X53302924Y-92755687D01*
X53302935Y-92755652D01*
X53302952Y-92755489D01*
X53373130Y-92528781D01*
X53486006Y-92320021D01*
X53637281Y-92137162D01*
X53769663Y-92029194D01*
X53806180Y-91989637D01*
X53831323Y-91939287D01*
X53841443Y-91883926D01*
X53835739Y-91827938D01*
X53814663Y-91775754D01*
X53779884Y-91731509D01*
X53734155Y-91698705D01*
X53681097Y-91679939D01*
X53641600Y-91676000D01*
X53284000Y-91676000D01*
X53284000Y-89244000D01*
X55716000Y-89244000D01*
X55716000Y-91676000D01*
X55716000Y-91676000D01*
G37*
G36*
X99699490Y-92952010D02*
X97300510Y-92952010D01*
X97300510Y-90553030D01*
X99699490Y-90553030D01*
X99699490Y-92952010D01*
X99699490Y-92952010D01*
G37*
G36*
X89699490Y-92952010D02*
X87300510Y-92952010D01*
X87300510Y-90553030D01*
X89699490Y-90553030D01*
X89699490Y-92952010D01*
X89699490Y-92952010D01*
G37*
G36*
X94699490Y-92952010D02*
X92300510Y-92952010D01*
X92300510Y-90553030D01*
X94699490Y-90553030D01*
X94699490Y-92952010D01*
X94699490Y-92952010D01*
G37*
G36*
X115720097Y-92949490D02*
X113321117Y-92949490D01*
X113321117Y-90550510D01*
X115720097Y-90550510D01*
X115720097Y-92949490D01*
X115720097Y-92949490D01*
G37*
G36*
X125722617Y-92949490D02*
X123323637Y-92949490D01*
X123323637Y-90550510D01*
X125722617Y-90550510D01*
X125722617Y-92949490D01*
X125722617Y-92949490D01*
G37*
G36*
X60699490Y-91198230D02*
X58300510Y-91198230D01*
X58300510Y-88799250D01*
X60699490Y-88799250D01*
X60699490Y-91198230D01*
X60699490Y-91198230D01*
G37*
G36*
X125722617Y-87775322D02*
X123323637Y-87775322D01*
X123323637Y-85376342D01*
X125722617Y-85376342D01*
X125722617Y-87775322D01*
X125722617Y-87775322D01*
G37*
G36*
X115720097Y-87775322D02*
X113321117Y-87775322D01*
X113321117Y-85376342D01*
X115720097Y-85376342D01*
X115720097Y-87775322D01*
X115720097Y-87775322D01*
G37*
G36*
X65626029Y-84801300D02*
X65856458Y-84848600D01*
X66073311Y-84939757D01*
X66268328Y-85071298D01*
X66434084Y-85238215D01*
X66564259Y-85434144D01*
X66653900Y-85651628D01*
X66699316Y-85880997D01*
X66699315Y-85881038D01*
X66699582Y-85882384D01*
X66695830Y-86151063D01*
X66695526Y-86152403D01*
X66695525Y-86152441D01*
X66643722Y-86380455D01*
X66548046Y-86595348D01*
X66412446Y-86787572D01*
X66242098Y-86949792D01*
X66043486Y-87075836D01*
X65824171Y-87160902D01*
X65592507Y-87201750D01*
X65357325Y-87196825D01*
X65127581Y-87146312D01*
X64912025Y-87052137D01*
X64718859Y-86917884D01*
X64555452Y-86748671D01*
X64428023Y-86550939D01*
X64341428Y-86332226D01*
X64298965Y-86100861D01*
X64302249Y-85865645D01*
X64351157Y-85635550D01*
X64443823Y-85419345D01*
X64576727Y-85225244D01*
X64744791Y-85060664D01*
X64941627Y-84931857D01*
X65159733Y-84843736D01*
X65390803Y-84799658D01*
X65626029Y-84801300D01*
X65626029Y-84801300D01*
G37*
G36*
X85625989Y-84801300D02*
X85856418Y-84848600D01*
X86073271Y-84939757D01*
X86268288Y-85071298D01*
X86434044Y-85238215D01*
X86564219Y-85434144D01*
X86653860Y-85651628D01*
X86699276Y-85880997D01*
X86699275Y-85881038D01*
X86699542Y-85882384D01*
X86695790Y-86151063D01*
X86695486Y-86152403D01*
X86695485Y-86152441D01*
X86643682Y-86380455D01*
X86548006Y-86595348D01*
X86412406Y-86787572D01*
X86242058Y-86949792D01*
X86043446Y-87075836D01*
X85824131Y-87160902D01*
X85592467Y-87201750D01*
X85357285Y-87196825D01*
X85127541Y-87146312D01*
X84911985Y-87052137D01*
X84718819Y-86917884D01*
X84555412Y-86748671D01*
X84427983Y-86550939D01*
X84341388Y-86332226D01*
X84298925Y-86100861D01*
X84302209Y-85865645D01*
X84351117Y-85635550D01*
X84443783Y-85419345D01*
X84576687Y-85225244D01*
X84744751Y-85060664D01*
X84941587Y-84931857D01*
X85159693Y-84843736D01*
X85390763Y-84799658D01*
X85625989Y-84801300D01*
X85625989Y-84801300D01*
G37*
G36*
X128652300Y-81050957D02*
X128930852Y-81108136D01*
X129192997Y-81218331D01*
X129428743Y-81377343D01*
X129629115Y-81579119D01*
X129786476Y-81815968D01*
X129894838Y-82078872D01*
X129949797Y-82356433D01*
X129949796Y-82356478D01*
X129950062Y-82357820D01*
X129945527Y-82682613D01*
X129945223Y-82683953D01*
X129945222Y-82683990D01*
X129882535Y-82959911D01*
X129766877Y-83219684D01*
X129602961Y-83452049D01*
X129397033Y-83648152D01*
X129156940Y-83800519D01*
X128891819Y-83903353D01*
X128611783Y-83952731D01*
X128327481Y-83946776D01*
X128049757Y-83885714D01*
X127789177Y-83771870D01*
X127555674Y-83609580D01*
X127358138Y-83405026D01*
X127204098Y-83166002D01*
X127099417Y-82901609D01*
X127048086Y-82621926D01*
X127052056Y-82337586D01*
X127111178Y-82059439D01*
X127223200Y-81798072D01*
X127383853Y-81563444D01*
X127587026Y-81364483D01*
X127824963Y-81208781D01*
X128088626Y-81102254D01*
X128367944Y-81048972D01*
X128652300Y-81050957D01*
X128652300Y-81050957D01*
G37*
G36*
X133652300Y-81050957D02*
X133930852Y-81108136D01*
X134192997Y-81218331D01*
X134428743Y-81377343D01*
X134629115Y-81579119D01*
X134786476Y-81815968D01*
X134894838Y-82078872D01*
X134949797Y-82356433D01*
X134949796Y-82356478D01*
X134950062Y-82357820D01*
X134945527Y-82682613D01*
X134945223Y-82683953D01*
X134945222Y-82683990D01*
X134882535Y-82959911D01*
X134766877Y-83219684D01*
X134602961Y-83452049D01*
X134397033Y-83648152D01*
X134156940Y-83800519D01*
X133891819Y-83903353D01*
X133611783Y-83952731D01*
X133327481Y-83946776D01*
X133049757Y-83885714D01*
X132789177Y-83771870D01*
X132555674Y-83609580D01*
X132358138Y-83405026D01*
X132204098Y-83166002D01*
X132099417Y-82901609D01*
X132048086Y-82621926D01*
X132052056Y-82337586D01*
X132111178Y-82059439D01*
X132223200Y-81798072D01*
X132383853Y-81563444D01*
X132587026Y-81364483D01*
X132824963Y-81208781D01*
X133088626Y-81102254D01*
X133367944Y-81048972D01*
X133652300Y-81050957D01*
X133652300Y-81050957D01*
G37*
G36*
X138652300Y-81050957D02*
X138930852Y-81108136D01*
X139192997Y-81218331D01*
X139428743Y-81377343D01*
X139629115Y-81579119D01*
X139786476Y-81815968D01*
X139894838Y-82078872D01*
X139949797Y-82356433D01*
X139949796Y-82356478D01*
X139950062Y-82357820D01*
X139945527Y-82682613D01*
X139945223Y-82683953D01*
X139945222Y-82683990D01*
X139882535Y-82959911D01*
X139766877Y-83219684D01*
X139602961Y-83452049D01*
X139397033Y-83648152D01*
X139156940Y-83800519D01*
X138891819Y-83903353D01*
X138611783Y-83952731D01*
X138327481Y-83946776D01*
X138049757Y-83885714D01*
X137789177Y-83771870D01*
X137555674Y-83609580D01*
X137358138Y-83405026D01*
X137204098Y-83166002D01*
X137099417Y-82901609D01*
X137048086Y-82621926D01*
X137052056Y-82337586D01*
X137111178Y-82059439D01*
X137223200Y-81798072D01*
X137383853Y-81563444D01*
X137587026Y-81364483D01*
X137824963Y-81208781D01*
X138088626Y-81102254D01*
X138367944Y-81048972D01*
X138652300Y-81050957D01*
X138652300Y-81050957D01*
G37*
G36*
X103817600Y-83067600D02*
X101182400Y-83067600D01*
X101182400Y-80432400D01*
X103817600Y-80432400D01*
X103817600Y-83067600D01*
X103817600Y-83067600D01*
G37*
G36*
X99699490Y-82949490D02*
X97300510Y-82949490D01*
X97300510Y-80550510D01*
X99699490Y-80550510D01*
X99699490Y-82949490D01*
X99699490Y-82949490D01*
G37*
G36*
X115720097Y-82949490D02*
X113321117Y-82949490D01*
X113321117Y-80550510D01*
X115720097Y-80550510D01*
X115720097Y-82949490D01*
X115720097Y-82949490D01*
G37*
G36*
X94699490Y-82949490D02*
X92300510Y-82949490D01*
X92300510Y-80550510D01*
X94699490Y-80550510D01*
X94699490Y-82949490D01*
X94699490Y-82949490D01*
G37*
G36*
X125722617Y-82949490D02*
X123323637Y-82949490D01*
X123323637Y-80550510D01*
X125722617Y-80550510D01*
X125722617Y-82949490D01*
X125722617Y-82949490D01*
G37*
G36*
X89699490Y-82949490D02*
X87300510Y-82949490D01*
X87300510Y-80550510D01*
X89699490Y-80550510D01*
X89699490Y-82949490D01*
X89699490Y-82949490D01*
G37*
G36*
X70317600Y-81817600D02*
X67682400Y-81817600D01*
X67682400Y-79182400D01*
X70317600Y-79182400D01*
X70317600Y-81817600D01*
X70317600Y-81817600D01*
G37*
G36*
X74567600Y-81817600D02*
X71932400Y-81817600D01*
X71932400Y-79182400D01*
X74567600Y-79182400D01*
X74567600Y-81817600D01*
X74567600Y-81817600D01*
G37*
G36*
X83817600Y-81817600D02*
X81182400Y-81817600D01*
X81182400Y-79182400D01*
X83817600Y-79182400D01*
X83817600Y-81817600D01*
X83817600Y-81817600D01*
G37*
G36*
X145189061Y-78201190D02*
X145534852Y-78272171D01*
X145860272Y-78408965D01*
X146152919Y-78606358D01*
X146401657Y-78856838D01*
X146597003Y-79150858D01*
X146731521Y-79477222D01*
X146799812Y-79822114D01*
X146799811Y-79822159D01*
X146800077Y-79823501D01*
X146794447Y-80226691D01*
X146794143Y-80228031D01*
X146794142Y-80228069D01*
X146716248Y-80570923D01*
X146572672Y-80893399D01*
X146369189Y-81181855D01*
X146113560Y-81425288D01*
X145815510Y-81614435D01*
X145486400Y-81742089D01*
X145138760Y-81803387D01*
X144785839Y-81795995D01*
X144441081Y-81720194D01*
X144117596Y-81578867D01*
X143827736Y-81377410D01*
X143582518Y-81123479D01*
X143391296Y-80826760D01*
X143261348Y-80498550D01*
X143197626Y-80151353D01*
X143202554Y-79798379D01*
X143275947Y-79453099D01*
X143415008Y-79128645D01*
X143614442Y-78837378D01*
X143866651Y-78590397D01*
X144162027Y-78397108D01*
X144489327Y-78264871D01*
X144836070Y-78198726D01*
X145189061Y-78201190D01*
X145189061Y-78201190D01*
G37*
G36*
X55189061Y-78201190D02*
X55534852Y-78272171D01*
X55860272Y-78408965D01*
X56152919Y-78606358D01*
X56401657Y-78856838D01*
X56597003Y-79150858D01*
X56731521Y-79477222D01*
X56799812Y-79822114D01*
X56799811Y-79822159D01*
X56800077Y-79823501D01*
X56794447Y-80226691D01*
X56794143Y-80228031D01*
X56794142Y-80228069D01*
X56716248Y-80570923D01*
X56572672Y-80893399D01*
X56369189Y-81181855D01*
X56113560Y-81425288D01*
X55815510Y-81614435D01*
X55486400Y-81742089D01*
X55138760Y-81803387D01*
X54785839Y-81795995D01*
X54441081Y-81720194D01*
X54117596Y-81578867D01*
X53827736Y-81377410D01*
X53582518Y-81123479D01*
X53391296Y-80826760D01*
X53261348Y-80498550D01*
X53197626Y-80151353D01*
X53202554Y-79798379D01*
X53275947Y-79453099D01*
X53415008Y-79128645D01*
X53614442Y-78837378D01*
X53866651Y-78590397D01*
X54162027Y-78397108D01*
X54489327Y-78264871D01*
X54836070Y-78198726D01*
X55189061Y-78201190D01*
X55189061Y-78201190D01*
G37*
G36*
X125817600Y-78567600D02*
X123182400Y-78567600D01*
X123182400Y-75932400D01*
X125817600Y-75932400D01*
X125817600Y-78567600D01*
X125817600Y-78567600D01*
G37*
G36*
X115817600Y-78567600D02*
X113182400Y-78567600D01*
X113182400Y-75932400D01*
X115817600Y-75932400D01*
X115817600Y-78567600D01*
X115817600Y-78567600D01*
G37*
G36*
X134817600Y-78567600D02*
X132182400Y-78567600D01*
X132182400Y-75932400D01*
X134817600Y-75932400D01*
X134817600Y-78567600D01*
X134817600Y-78567600D01*
G37*
M02*
