G04 #@! TF.FileFunction,Copper,L1,Top,Signal*
%FSLAX46Y46*%
G04 Gerber Fmt 4.6, Leading zero omitted, Abs format (unit mm)*
G04 Created by KiCad (PCBNEW 4.0.5+dfsg1-4) date Sun May  6 19:35:37 2018*
%MOMM*%
%LPD*%
G01*
G04 APERTURE LIST*
%ADD10C,0.100000*%
%ADD11C,0.300000*%
%ADD12C,0.250000*%
%ADD13R,2.235200X2.235200*%
%ADD14R,2.032000X2.032000*%
%ADD15O,2.032000X2.032000*%
%ADD16C,1.422400*%
%ADD17C,1.998980*%
%ADD18R,1.998980X1.998980*%
%ADD19C,2.000000*%
%ADD20C,1.524000*%
%ADD21C,2.500000*%
%ADD22C,1.000000*%
G04 APERTURE END LIST*
D10*
D11*
X104500001Y-116153571D02*
X104500001Y-117153571D01*
X104142858Y-115582143D02*
X103785715Y-116653571D01*
X104714287Y-116653571D01*
X105571429Y-115653571D02*
X105714286Y-115653571D01*
X105857143Y-115725000D01*
X105928572Y-115796429D01*
X106000001Y-115939286D01*
X106071429Y-116225000D01*
X106071429Y-116582143D01*
X106000001Y-116867857D01*
X105928572Y-117010714D01*
X105857143Y-117082143D01*
X105714286Y-117153571D01*
X105571429Y-117153571D01*
X105428572Y-117082143D01*
X105357143Y-117010714D01*
X105285715Y-116867857D01*
X105214286Y-116582143D01*
X105214286Y-116225000D01*
X105285715Y-115939286D01*
X105357143Y-115796429D01*
X105428572Y-115725000D01*
X105571429Y-115653571D01*
X107857143Y-117153571D02*
X107857143Y-116153571D01*
X107857143Y-116296429D02*
X107928571Y-116225000D01*
X108071429Y-116153571D01*
X108285714Y-116153571D01*
X108428571Y-116225000D01*
X108500000Y-116367857D01*
X108500000Y-117153571D01*
X108500000Y-116367857D02*
X108571429Y-116225000D01*
X108714286Y-116153571D01*
X108928571Y-116153571D01*
X109071429Y-116225000D01*
X109142857Y-116367857D01*
X109142857Y-117153571D01*
X104250001Y-119560714D02*
X104178572Y-119632143D01*
X103964286Y-119703571D01*
X103821429Y-119703571D01*
X103607144Y-119632143D01*
X103464286Y-119489286D01*
X103392858Y-119346429D01*
X103321429Y-119060714D01*
X103321429Y-118846429D01*
X103392858Y-118560714D01*
X103464286Y-118417857D01*
X103607144Y-118275000D01*
X103821429Y-118203571D01*
X103964286Y-118203571D01*
X104178572Y-118275000D01*
X104250001Y-118346429D01*
X104750001Y-118203571D02*
X105107144Y-119703571D01*
X105392858Y-118632143D01*
X105678572Y-119703571D01*
X106035715Y-118203571D01*
X107535715Y-118203571D02*
X108392858Y-118203571D01*
X107964287Y-119703571D02*
X107964287Y-118203571D01*
X108750001Y-118203571D02*
X109750001Y-119703571D01*
X109750001Y-118203571D02*
X108750001Y-119703571D01*
X88142857Y-79000000D02*
X88285714Y-79071429D01*
X88500000Y-79071429D01*
X88714285Y-79000000D01*
X88857143Y-78857143D01*
X88928571Y-78714286D01*
X89000000Y-78428571D01*
X89000000Y-78214286D01*
X88928571Y-77928571D01*
X88857143Y-77785714D01*
X88714285Y-77642857D01*
X88500000Y-77571429D01*
X88357143Y-77571429D01*
X88142857Y-77642857D01*
X88071428Y-77714286D01*
X88071428Y-78214286D01*
X88357143Y-78214286D01*
X87428571Y-77571429D02*
X87428571Y-79071429D01*
X86571428Y-77571429D01*
X86571428Y-79071429D01*
X85857142Y-77571429D02*
X85857142Y-79071429D01*
X85499999Y-79071429D01*
X85285714Y-79000000D01*
X85142856Y-78857143D01*
X85071428Y-78714286D01*
X84999999Y-78428571D01*
X84999999Y-78214286D01*
X85071428Y-77928571D01*
X85142856Y-77785714D01*
X85285714Y-77642857D01*
X85499999Y-77571429D01*
X85857142Y-77571429D01*
X66287944Y-81310533D02*
X65479822Y-82118655D01*
X65479823Y-81310533D02*
X66287945Y-82118655D01*
X64520178Y-82270178D02*
X64318147Y-82472209D01*
X64267639Y-82623731D01*
X64267640Y-82724746D01*
X64318146Y-82977285D01*
X64469670Y-83229823D01*
X64873731Y-83633883D01*
X65025253Y-83684391D01*
X65126269Y-83684391D01*
X65277792Y-83633884D01*
X65479822Y-83431854D01*
X65530330Y-83280330D01*
X65530329Y-83179315D01*
X65479822Y-83027792D01*
X65227284Y-82775254D01*
X65075761Y-82724746D01*
X64974746Y-82724746D01*
X64823223Y-82775254D01*
X64621192Y-82977285D01*
X64570685Y-83128808D01*
X64570684Y-83229823D01*
X64621192Y-83381345D01*
X64772716Y-84138960D02*
X63358503Y-83431853D01*
X64065609Y-84846067D01*
D12*
X52500000Y-86488096D02*
X52547619Y-86392858D01*
X52547619Y-86250001D01*
X52500000Y-86107143D01*
X52404762Y-86011905D01*
X52309524Y-85964286D01*
X52119048Y-85916667D01*
X51976190Y-85916667D01*
X51785714Y-85964286D01*
X51690476Y-86011905D01*
X51595238Y-86107143D01*
X51547619Y-86250001D01*
X51547619Y-86345239D01*
X51595238Y-86488096D01*
X51642857Y-86535715D01*
X51976190Y-86535715D01*
X51976190Y-86345239D01*
X51547619Y-86964286D02*
X52547619Y-86964286D01*
X51547619Y-87535715D01*
X52547619Y-87535715D01*
X51547619Y-88011905D02*
X52547619Y-88011905D01*
X52547619Y-88250000D01*
X52500000Y-88392858D01*
X52404762Y-88488096D01*
X52309524Y-88535715D01*
X52119048Y-88583334D01*
X51976190Y-88583334D01*
X51785714Y-88535715D01*
X51690476Y-88488096D01*
X51595238Y-88392858D01*
X51547619Y-88250000D01*
X51547619Y-88011905D01*
X56428571Y-96214286D02*
X56428571Y-96976191D01*
X56047619Y-96595239D02*
X56809524Y-96595239D01*
X56047619Y-97500000D02*
X56047619Y-97690476D01*
X56095238Y-97785715D01*
X56142857Y-97833334D01*
X56285714Y-97928572D01*
X56476190Y-97976191D01*
X56857143Y-97976191D01*
X56952381Y-97928572D01*
X57000000Y-97880953D01*
X57047619Y-97785715D01*
X57047619Y-97595238D01*
X57000000Y-97500000D01*
X56952381Y-97452381D01*
X56857143Y-97404762D01*
X56619048Y-97404762D01*
X56523810Y-97452381D01*
X56476190Y-97500000D01*
X56428571Y-97595238D01*
X56428571Y-97785715D01*
X56476190Y-97880953D01*
X56523810Y-97928572D01*
X56619048Y-97976191D01*
X57047619Y-98261905D02*
X56047619Y-98595238D01*
X57047619Y-98928572D01*
D13*
X124500000Y-77250000D03*
D14*
X54500000Y-90460000D03*
D15*
X54500000Y-93000000D03*
D16*
X64250000Y-98500000D03*
X64250000Y-93420000D03*
D17*
X65500040Y-86000000D03*
X85500000Y-86000000D03*
D10*
G36*
X53301120Y-101086940D02*
X55698880Y-101086940D01*
X55300100Y-104587060D01*
X53699900Y-104587060D01*
X53301120Y-101086940D01*
X53301120Y-101086940D01*
G37*
G36*
X55698880Y-109413060D02*
X53301120Y-109413060D01*
X53699900Y-105912940D01*
X55300100Y-105912940D01*
X55698880Y-109413060D01*
X55698880Y-109413060D01*
G37*
D18*
X54500000Y-100248740D03*
X54500000Y-110251260D03*
D10*
G36*
X69164320Y-103801120D02*
X69164320Y-106198880D01*
X65664200Y-105800100D01*
X65664200Y-104199900D01*
X69164320Y-103801120D01*
X69164320Y-103801120D01*
G37*
G36*
X60838200Y-106198880D02*
X60838200Y-103801120D01*
X64338320Y-104199900D01*
X64338320Y-105800100D01*
X60838200Y-106198880D01*
X60838200Y-106198880D01*
G37*
D18*
X70002520Y-105000000D03*
X60000000Y-105000000D03*
D10*
G36*
X87301120Y-82588200D02*
X89698880Y-82588200D01*
X89300100Y-86088320D01*
X87699900Y-86088320D01*
X87301120Y-82588200D01*
X87301120Y-82588200D01*
G37*
G36*
X89698880Y-90914320D02*
X87301120Y-90914320D01*
X87699900Y-87414200D01*
X89300100Y-87414200D01*
X89698880Y-90914320D01*
X89698880Y-90914320D01*
G37*
D18*
X88500000Y-81750000D03*
X88500000Y-91752520D03*
D10*
G36*
X92301120Y-82588200D02*
X94698880Y-82588200D01*
X94300100Y-86088320D01*
X92699900Y-86088320D01*
X92301120Y-82588200D01*
X92301120Y-82588200D01*
G37*
G36*
X94698880Y-90914320D02*
X92301120Y-90914320D01*
X92699900Y-87414200D01*
X94300100Y-87414200D01*
X94698880Y-90914320D01*
X94698880Y-90914320D01*
G37*
D18*
X93500000Y-81750000D03*
X93500000Y-91752520D03*
D10*
G36*
X97301120Y-82588200D02*
X99698880Y-82588200D01*
X99300100Y-86088320D01*
X97699900Y-86088320D01*
X97301120Y-82588200D01*
X97301120Y-82588200D01*
G37*
G36*
X99698880Y-90914320D02*
X97301120Y-90914320D01*
X97699900Y-87414200D01*
X99300100Y-87414200D01*
X99698880Y-90914320D01*
X99698880Y-90914320D01*
G37*
D18*
X98500000Y-81750000D03*
X98500000Y-91752520D03*
D10*
G36*
X89338200Y-121698880D02*
X89338200Y-119301120D01*
X92838320Y-119699900D01*
X92838320Y-121300100D01*
X89338200Y-121698880D01*
X89338200Y-121698880D01*
G37*
G36*
X97664320Y-119301120D02*
X97664320Y-121698880D01*
X94164200Y-121300100D01*
X94164200Y-119699900D01*
X97664320Y-119301120D01*
X97664320Y-119301120D01*
G37*
D18*
X88500000Y-120500000D03*
X98502520Y-120500000D03*
D10*
G36*
X89338200Y-116698880D02*
X89338200Y-114301120D01*
X92838320Y-114699900D01*
X92838320Y-116300100D01*
X89338200Y-116698880D01*
X89338200Y-116698880D01*
G37*
G36*
X97664320Y-114301120D02*
X97664320Y-116698880D01*
X94164200Y-116300100D01*
X94164200Y-114699900D01*
X97664320Y-114301120D01*
X97664320Y-114301120D01*
G37*
D18*
X88500000Y-115500000D03*
X98502520Y-115500000D03*
D10*
G36*
X89338200Y-111698880D02*
X89338200Y-109301120D01*
X92838320Y-109699900D01*
X92838320Y-111300100D01*
X89338200Y-111698880D01*
X89338200Y-111698880D01*
G37*
G36*
X97664320Y-109301120D02*
X97664320Y-111698880D01*
X94164200Y-111300100D01*
X94164200Y-109699900D01*
X97664320Y-109301120D01*
X97664320Y-109301120D01*
G37*
D18*
X88500000Y-110500000D03*
X98502520Y-110500000D03*
D10*
G36*
X123552945Y-119228481D02*
X123552945Y-121626241D01*
X120052825Y-121227461D01*
X120052825Y-119627261D01*
X123552945Y-119228481D01*
X123552945Y-119228481D01*
G37*
G36*
X115226825Y-121626241D02*
X115226825Y-119228481D01*
X118726945Y-119627261D01*
X118726945Y-121227461D01*
X115226825Y-121626241D01*
X115226825Y-121626241D01*
G37*
D18*
X124391145Y-120427361D03*
X114388625Y-120427361D03*
D10*
G36*
X123552945Y-114228481D02*
X123552945Y-116626241D01*
X120052825Y-116227461D01*
X120052825Y-114627261D01*
X123552945Y-114228481D01*
X123552945Y-114228481D01*
G37*
G36*
X115226825Y-116626241D02*
X115226825Y-114228481D01*
X118726945Y-114627261D01*
X118726945Y-116227461D01*
X115226825Y-116626241D01*
X115226825Y-116626241D01*
G37*
D18*
X124391145Y-115427361D03*
X114388625Y-115427361D03*
D10*
G36*
X123552945Y-109228481D02*
X123552945Y-111626241D01*
X120052825Y-111227461D01*
X120052825Y-109627261D01*
X123552945Y-109228481D01*
X123552945Y-109228481D01*
G37*
G36*
X115226825Y-111626241D02*
X115226825Y-109228481D01*
X118726945Y-109627261D01*
X118726945Y-111227461D01*
X115226825Y-111626241D01*
X115226825Y-111626241D01*
G37*
D18*
X124391145Y-110427361D03*
X114388625Y-110427361D03*
D10*
G36*
X123684927Y-90551120D02*
X123684927Y-92948880D01*
X120184807Y-92550100D01*
X120184807Y-90949900D01*
X123684927Y-90551120D01*
X123684927Y-90551120D01*
G37*
G36*
X115358807Y-92948880D02*
X115358807Y-90551120D01*
X118858927Y-90949900D01*
X118858927Y-92550100D01*
X115358807Y-92948880D01*
X115358807Y-92948880D01*
G37*
D18*
X124523127Y-91750000D03*
X114520607Y-91750000D03*
D10*
G36*
X123684927Y-85376952D02*
X123684927Y-87774712D01*
X120184807Y-87375932D01*
X120184807Y-85775732D01*
X123684927Y-85376952D01*
X123684927Y-85376952D01*
G37*
G36*
X115358807Y-87774712D02*
X115358807Y-85376952D01*
X118858927Y-85775732D01*
X118858927Y-87375932D01*
X115358807Y-87774712D01*
X115358807Y-87774712D01*
G37*
D18*
X124523127Y-86575832D03*
X114520607Y-86575832D03*
D10*
G36*
X123684927Y-80551120D02*
X123684927Y-82948880D01*
X120184807Y-82550100D01*
X120184807Y-80949900D01*
X123684927Y-80551120D01*
X123684927Y-80551120D01*
G37*
G36*
X115358807Y-82948880D02*
X115358807Y-80551120D01*
X118858927Y-80949900D01*
X118858927Y-82550100D01*
X115358807Y-82948880D01*
X115358807Y-82948880D01*
G37*
D18*
X124523127Y-81750000D03*
X114520607Y-81750000D03*
D19*
X69000000Y-118000000D03*
X69000000Y-113500000D03*
X75500000Y-118000000D03*
X75500000Y-113500000D03*
D20*
X84540000Y-98960000D03*
X82000000Y-101500000D03*
X82000000Y-96420000D03*
D10*
G36*
X60698880Y-99163060D02*
X58301120Y-99163060D01*
X58699900Y-95662940D01*
X60300100Y-95662940D01*
X60698880Y-99163060D01*
X60698880Y-99163060D01*
G37*
G36*
X58301120Y-90836940D02*
X60698880Y-90836940D01*
X60300100Y-94337060D01*
X58699900Y-94337060D01*
X58301120Y-90836940D01*
X58301120Y-90836940D01*
G37*
D18*
X59500000Y-100001260D03*
X59500000Y-89998740D03*
D20*
X78750000Y-99000000D03*
X76210000Y-101540000D03*
X76210000Y-96460000D03*
X73000000Y-99000000D03*
X70460000Y-101540000D03*
X70460000Y-96460000D03*
D13*
X102500000Y-81750000D03*
X83500000Y-108250000D03*
X83500000Y-115500000D03*
X133000000Y-123250000D03*
X133500000Y-77250000D03*
X76250000Y-108250000D03*
X69000000Y-80500000D03*
X73250000Y-80500000D03*
X82500000Y-80500000D03*
X114500000Y-77250000D03*
D21*
X87750000Y-100500000D03*
X123750000Y-100500000D03*
X87750000Y-105500000D03*
X123750000Y-95500000D03*
X87750000Y-95500000D03*
X123750000Y-105500000D03*
X133500000Y-118500000D03*
X133500000Y-82500000D03*
X138500000Y-118500000D03*
X128500000Y-82500000D03*
X128500000Y-118500000D03*
X138500000Y-82500000D03*
D22*
X124500000Y-77250000D02*
X124500000Y-81726873D01*
X124500000Y-81726873D02*
X124523127Y-81750000D01*
X124523127Y-81750000D02*
X127750000Y-81750000D01*
X127750000Y-81750000D02*
X128500000Y-82500000D01*
X133500000Y-82500000D02*
X128500000Y-82500000D01*
X133500000Y-82500000D02*
X138500000Y-82500000D01*
X133500000Y-77250000D02*
X133500000Y-82500000D01*
X121934867Y-91750000D02*
X124523127Y-91750000D01*
X121934867Y-86575832D02*
X124523127Y-86575832D01*
X121934867Y-81750000D02*
X124523127Y-81750000D01*
X124523127Y-86575832D02*
X124523127Y-81750000D01*
X124523127Y-91750000D02*
X124523127Y-86575832D01*
X73250000Y-80500000D02*
X69000000Y-80500000D01*
X69000000Y-80500000D02*
X69000000Y-82500040D01*
X69000000Y-82500040D02*
X65500040Y-86000000D01*
X54500000Y-93000000D02*
X59087000Y-93000000D01*
X59087000Y-93000000D02*
X59500000Y-92587000D01*
X54500000Y-93000000D02*
X54500000Y-100248740D01*
X54500000Y-102837000D02*
X54500000Y-100248740D01*
X59500000Y-89998740D02*
X61501300Y-89998740D01*
X61501300Y-89998740D02*
X65500040Y-86000000D01*
X59500000Y-92587000D02*
X59500000Y-89998740D01*
X78750000Y-76500000D02*
X82500000Y-76500000D01*
X82500000Y-76500000D02*
X110020097Y-76500000D01*
X82500000Y-80500000D02*
X82500000Y-76500000D01*
X114388625Y-110427361D02*
X98575159Y-110427361D01*
X98575159Y-110427361D02*
X98502520Y-110500000D01*
X114520607Y-107229393D02*
X114388625Y-107361375D01*
X114388625Y-107361375D02*
X114388625Y-110427361D01*
X114520607Y-91750000D02*
X114520607Y-107229393D01*
X114500000Y-77250000D02*
X114500000Y-81729393D01*
X114500000Y-81729393D02*
X114520607Y-81750000D01*
X110020097Y-76500000D02*
X110770097Y-77250000D01*
X110770097Y-77250000D02*
X114500000Y-77250000D01*
X67000000Y-76500000D02*
X78750000Y-76500000D01*
X54500000Y-110251260D02*
X52500510Y-110251260D01*
X52500510Y-110251260D02*
X51500000Y-109250750D01*
X51500000Y-109250750D02*
X51500000Y-91444000D01*
X51500000Y-91444000D02*
X52484000Y-90460000D01*
X52484000Y-90460000D02*
X54500000Y-90460000D01*
X54500000Y-89000000D02*
X54500000Y-90460000D01*
X54500000Y-110251260D02*
X58748740Y-110251260D01*
X58748740Y-110251260D02*
X60000000Y-109000000D01*
X54500000Y-110251260D02*
X54500000Y-107663000D01*
X54500000Y-89000000D02*
X67000000Y-76500000D01*
X69000000Y-118000000D02*
X60000000Y-109000000D01*
X60000000Y-109000000D02*
X60000000Y-105000000D01*
X75500000Y-118000000D02*
X69000000Y-118000000D01*
X62588260Y-105000000D02*
X60000000Y-105000000D01*
X98502520Y-115500000D02*
X98502520Y-110500000D01*
X98502520Y-120500000D02*
X98502520Y-115500000D01*
X98502520Y-110500000D02*
X95914260Y-110500000D01*
X95914260Y-115500000D02*
X98502520Y-115500000D01*
X98502520Y-120500000D02*
X95914260Y-120500000D01*
X114388625Y-120427361D02*
X116976885Y-120427361D01*
X114388625Y-115427361D02*
X114388625Y-120427361D01*
X114388625Y-115427361D02*
X116976885Y-115427361D01*
X114388625Y-110427361D02*
X114388625Y-115427361D01*
X114388625Y-110427361D02*
X116976885Y-110427361D01*
X114520607Y-86575832D02*
X114520607Y-91750000D01*
X114520607Y-81750000D02*
X114520607Y-86575832D01*
X117108867Y-81750000D02*
X114520607Y-81750000D01*
X117108867Y-86575832D02*
X114520607Y-86575832D01*
X117108867Y-91750000D02*
X114520607Y-91750000D01*
X76250000Y-108250000D02*
X76250000Y-104830000D01*
X76250000Y-104830000D02*
X76210000Y-104790000D01*
X70002520Y-105000000D02*
X70002520Y-101997480D01*
X70002520Y-101997480D02*
X70460000Y-101540000D01*
X70002520Y-105000000D02*
X76000000Y-105000000D01*
X76000000Y-105000000D02*
X78500000Y-105000000D01*
X76210000Y-101540000D02*
X76210000Y-104790000D01*
X76210000Y-104790000D02*
X76000000Y-105000000D01*
X78500000Y-105000000D02*
X82000000Y-101500000D01*
X75500000Y-113500000D02*
X69000000Y-113500000D01*
X70002520Y-105000000D02*
X70002520Y-112497480D01*
X70002520Y-112497480D02*
X69000000Y-113500000D01*
X67414260Y-105000000D02*
X70002520Y-105000000D01*
X85500000Y-86000000D02*
X85750000Y-86000000D01*
X85750000Y-86000000D02*
X87411740Y-84338260D01*
X87411740Y-84338260D02*
X88500000Y-84338260D01*
X102500000Y-81750000D02*
X98500000Y-81750000D01*
X70460000Y-96460000D02*
X70460000Y-93960000D01*
X70460000Y-93960000D02*
X70000000Y-93500000D01*
X70000000Y-93500000D02*
X69920000Y-93420000D01*
X69920000Y-93420000D02*
X64250000Y-93420000D01*
X70000000Y-93500000D02*
X76250000Y-93500000D01*
X76250000Y-93500000D02*
X79080000Y-93500000D01*
X76250000Y-95342370D02*
X76250000Y-93500000D01*
X76210000Y-96460000D02*
X76210000Y-95382370D01*
X76210000Y-95382370D02*
X76250000Y-95342370D01*
X79080000Y-93500000D02*
X79080000Y-90170000D01*
X79080000Y-90170000D02*
X83250000Y-86000000D01*
X83250000Y-86000000D02*
X85500000Y-86000000D01*
X79080000Y-93500000D02*
X82000000Y-96420000D01*
X93500000Y-81750000D02*
X88500000Y-81750000D01*
X98500000Y-81750000D02*
X93500000Y-81750000D01*
X98500000Y-84338260D02*
X98500000Y-81750000D01*
X93500000Y-84338260D02*
X93500000Y-81750000D01*
X88500000Y-84338260D02*
X88500000Y-81750000D01*
X88500000Y-110500000D02*
X88500000Y-106250000D01*
X88500000Y-106250000D02*
X87750000Y-105500000D01*
X87750000Y-100500000D02*
X87750000Y-105500000D01*
X87750000Y-95500000D02*
X87750000Y-100500000D01*
X88500000Y-91752520D02*
X88500000Y-94750000D01*
X88500000Y-94750000D02*
X87750000Y-95500000D01*
X83500000Y-115500000D02*
X88500000Y-115500000D01*
X88500000Y-91752520D02*
X88500000Y-89164260D01*
X93500000Y-89164260D02*
X93500000Y-91752520D01*
X98500000Y-91752520D02*
X98500000Y-89164260D01*
X93500000Y-91752520D02*
X98500000Y-91752520D01*
X88500000Y-91752520D02*
X93500000Y-91752520D01*
X88500000Y-115500000D02*
X88500000Y-110500000D01*
X88500000Y-120500000D02*
X88500000Y-115500000D01*
X91088260Y-110500000D02*
X88500000Y-110500000D01*
X88500000Y-115500000D02*
X91088260Y-115500000D01*
X91088260Y-120500000D02*
X88500000Y-120500000D01*
X133000000Y-123250000D02*
X133000000Y-119000000D01*
X133000000Y-119000000D02*
X133500000Y-118500000D01*
X133500000Y-118500000D02*
X138500000Y-118500000D01*
X128500000Y-118500000D02*
X133500000Y-118500000D01*
X124391145Y-120427361D02*
X126572639Y-120427361D01*
X126572639Y-120427361D02*
X128500000Y-118500000D01*
X123750000Y-95500000D02*
X123750000Y-100500000D01*
X123750000Y-105500000D02*
X123750000Y-100500000D01*
X124391145Y-110427361D02*
X124391145Y-106141145D01*
X124391145Y-106141145D02*
X123750000Y-105500000D01*
X124391145Y-115427361D02*
X124391145Y-110427361D01*
X124391145Y-120427361D02*
X124391145Y-115427361D01*
X124391145Y-120427361D02*
X121802885Y-120427361D01*
X124391145Y-115427361D02*
X121802885Y-115427361D01*
X124391145Y-110427361D02*
X121802885Y-110427361D01*
X84540000Y-103210000D02*
X83500000Y-104250000D01*
X83500000Y-104250000D02*
X83500000Y-108250000D01*
X84540000Y-98960000D02*
X84540000Y-103210000D01*
X84540000Y-98960000D02*
X78790000Y-98960000D01*
X78790000Y-98960000D02*
X78750000Y-99000000D01*
X78750000Y-99000000D02*
X73000000Y-99000000D01*
X73000000Y-99000000D02*
X64750000Y-99000000D01*
X64750000Y-99000000D02*
X64250000Y-98500000D01*
X59500000Y-100001260D02*
X62748740Y-100001260D01*
X62748740Y-100001260D02*
X64250000Y-98500000D01*
X59500000Y-97413000D02*
X59500000Y-100001260D01*
X84500000Y-99000000D02*
X84540000Y-98960000D01*
M02*
